<?xml version="1.0" encoding="UTF-8" standalone="no"?>
<!-- Created with Inkscape (http://www.inkscape.org/) -->

<svg
   xmlns:dc="http://purl.org/dc/elements/1.1/"
   xmlns:cc="http://creativecommons.org/ns#"
   xmlns:rdf="http://www.w3.org/1999/02/22-rdf-syntax-ns#"
   xmlns:svg="http://www.w3.org/2000/svg"
   xmlns="http://www.w3.org/2000/svg"
   xmlns:sodipodi="http://sodipodi.sourceforge.net/DTD/sodipodi-0.dtd"
   xmlns:inkscape="http://www.inkscape.org/namespaces/inkscape"
   width="3.3313446mm"
   height="4.6500545mm"
   viewBox="0 0 3.3313446 4.6500545"
   version="1.1"
   id="svg5124"
   inkscape:version="0.92.3 (2405546, 2018-03-11)"
   sodipodi:docname="arrow_double.svg">
  <defs
     id="defs5118" />
  <sodipodi:namedview
     id="base"
     pagecolor="#ffffff"
     bordercolor="#666666"
     borderopacity="1.0"
     inkscape:pageopacity="0.0"
     inkscape:pageshadow="2"
     inkscape:zoom="28.963094"
     inkscape:cx="5.6004157"
     inkscape:cy="14.04172"
     inkscape:document-units="mm"
     inkscape:current-layer="layer1"
     showgrid="false"
     fit-margin-top="0"
     fit-margin-left="0"
     fit-margin-right="0"
     fit-margin-bottom="0"
     inkscape:window-width="1812"
     inkscape:window-height="1057"
     inkscape:window-x="-8"
     inkscape:window-y="-8"
     inkscape:window-maximized="1" />
  <metadata
     id="metadata5121">
    <rdf:RDF>
      <cc:Work
         rdf:about="">
        <dc:format>image/svg+xml</dc:format>
        <dc:type
           rdf:resource="http://purl.org/dc/dcmitype/StillImage" />
        <dc:title></dc:title>
      </cc:Work>
    </rdf:RDF>
  </metadata>
  <g
     inkscape:label="Capa 1"
     inkscape:groupmode="layer"
     id="layer1"
     transform="translate(-138.89423,-81.35466)">
    <g
       style="fill:#ffffff"
       id="g5680"
       transform="matrix(0.26458333,0,0,0.26458333,137.38489,80.504583)">
      <path
         id="path5669"
         d="m 5.85612,6.14539 2.79,-2.79 c 0.19,-0.19 0.51,-0.19 0.7,0 l 2.78998,2.79 c 0.32,0.31 0.1,0.85 -0.35,0.85 H 9.99612 v 6.01001 c 0,0.55 -0.45,1 -1,1 -0.55,0 -1,-0.45 -1,-1 V 6.99539 h -1.79 c -0.45,0 -0.67,-0.54 -0.35,-0.85 z M 15.9961,11.0054 v 6.01 h 1.8 c 0.44,0 0.67,0.54 0.35,0.85 l -2.79,2.78 c -0.2,0.19 -0.51,0.19 -0.71,0 l -2.79,-2.78 c -0.32,-0.31 -0.1,-0.85 0.35,-0.85 h 1.79 v -6.01 c 0,-0.55 0.45,-1 1,-1 0.55,0 1,0.45 1,1 z"
         inkscape:connector-curvature="0"
         style="clip-rule:evenodd;fill:#ffffff;fill-rule:evenodd" />
    </g>
  </g>
</svg>
