<svg width="174" height="140" viewBox="0 0 174 140" fill="none" xmlns="http://www.w3.org/2000/svg">
<g clip-path="url(#clip0)">
<path d="M172.711 81.1535H39.8554C39.5137 81.1532 39.186 81.0172 38.9444 80.7754C38.7027 80.5337 38.5668 80.2059 38.5664 79.864V1.28952C38.5668 0.947629 38.7027 0.619853 38.9444 0.378102C39.186 0.136352 39.5137 0.000373219 39.8554 0H172.711C173.053 0.00037322 173.381 0.136353 173.622 0.378103C173.864 0.619853 174 0.94763 174 1.28952V79.864C174 80.2059 173.864 80.5337 173.622 80.7754C173.381 81.0172 173.053 81.1532 172.711 81.1535ZM39.8554 0.515806C39.6504 0.51603 39.4538 0.597617 39.3088 0.742667C39.1638 0.887718 39.0822 1.08438 39.082 1.28952V79.864C39.0822 80.0691 39.1638 80.2658 39.3088 80.4109C39.4538 80.5559 39.6504 80.6375 39.8554 80.6377H172.711C172.916 80.6375 173.113 80.5559 173.258 80.4109C173.403 80.2658 173.485 80.0691 173.485 79.864V1.28952C173.485 1.08438 173.403 0.887718 173.258 0.742668C173.113 0.597618 172.916 0.51603 172.711 0.515806H39.8554Z" fill="#E6E6E6"/>
<path d="M93.4815 6.27553C93.2135 6.28002 92.9579 6.38971 92.7699 6.58095C92.5819 6.77218 92.4766 7.02965 92.4766 7.29787C92.4766 7.56608 92.5819 7.82355 92.7699 8.01479C92.9579 8.20602 93.2135 8.31571 93.4815 8.3202H119.105C119.375 8.32419 119.637 8.22075 119.831 8.03254C120.025 7.84432 120.137 7.5867 120.142 7.31612C120.147 7.04553 120.044 6.78407 119.857 6.58903C119.669 6.39398 119.412 6.28127 119.142 6.27558L119.139 6.27553C119.127 6.27534 119.116 6.27534 119.105 6.27553H93.4815Z" fill="#3F3D56"/>
<path d="M124.911 5.99056C124.874 6.02828 124.852 6.07945 124.852 6.1328C124.852 6.18615 124.874 6.23732 124.911 6.27505L124.911 6.27507L125.775 7.13867H123.646C123.593 7.13883 123.542 7.1601 123.504 7.19781C123.466 7.23552 123.445 7.2866 123.445 7.33985C123.445 7.3931 123.466 7.44418 123.504 7.48189C123.542 7.5196 123.593 7.54087 123.646 7.54102H125.775L124.911 8.40463C124.893 8.42332 124.878 8.44549 124.868 8.4699C124.858 8.49431 124.852 8.52047 124.852 8.54689C124.852 8.5733 124.858 8.59946 124.868 8.62387C124.878 8.64828 124.893 8.67046 124.911 8.68914C124.93 8.70782 124.952 8.72264 124.977 8.73275C125.001 8.74286 125.027 8.74806 125.053 8.74806C125.08 8.74806 125.106 8.74286 125.13 8.73275C125.155 8.72264 125.177 8.70782 125.196 8.68914L126.402 7.48211C126.44 7.44438 126.461 7.39321 126.461 7.33985C126.461 7.2865 126.44 7.23533 126.402 7.1976L125.196 5.99056C125.177 5.97188 125.155 5.95706 125.13 5.94695C125.106 5.93684 125.08 5.93164 125.053 5.93164C125.027 5.93164 125.001 5.93684 124.977 5.94695C124.952 5.95706 124.93 5.97188 124.911 5.99056L124.911 5.99056Z" fill="#E6E6E6"/>
<path d="M87.6514 5.99056C87.6891 6.02829 87.7103 6.07945 87.7103 6.13281C87.7103 6.18616 87.6891 6.23733 87.6514 6.27505L87.6514 6.27507L86.7881 7.13868H88.9169C88.9433 7.13858 88.9696 7.1437 88.994 7.15374C89.0185 7.16379 89.0408 7.17857 89.0595 7.19724C89.0783 7.2159 89.0931 7.23809 89.1033 7.26252C89.1135 7.28695 89.1187 7.31315 89.1188 7.33962C89.1188 7.36608 89.1136 7.39229 89.1035 7.41675C89.0934 7.4412 89.0786 7.46342 89.0598 7.48213C89.0411 7.50084 89.0189 7.51568 88.9945 7.52578C88.97 7.53589 88.9438 7.54107 88.9174 7.54103H86.7881L87.6514 8.40464C87.6701 8.42332 87.6849 8.4455 87.695 8.46991C87.7051 8.49431 87.7103 8.52047 87.7103 8.54689C87.7103 8.57331 87.7051 8.59947 87.695 8.62388C87.6849 8.64829 87.6701 8.67046 87.6514 8.68914C87.6328 8.70783 87.6106 8.72264 87.5862 8.73275C87.5618 8.74286 87.5356 8.74807 87.5092 8.74807C87.4828 8.74807 87.4567 8.74287 87.4323 8.73276C87.4079 8.72265 87.3857 8.70783 87.367 8.68915L86.1605 7.48211C86.1227 7.44438 86.1016 7.39321 86.1016 7.33986C86.1016 7.2865 86.1227 7.23533 86.1605 7.1976L87.367 5.99056C87.4047 5.95284 87.4559 5.93164 87.5092 5.93164C87.5625 5.93164 87.6137 5.95283 87.6514 5.99055L87.6514 5.99056Z" fill="#E6E6E6"/>
<path d="M38.4881 85.4816C37.3231 85.4816 36.1842 85.136 35.2155 84.4885C34.2469 83.841 33.4919 82.9207 33.046 81.844C32.6002 80.7672 32.4836 79.5824 32.7108 78.4393C32.9381 77.2963 33.4991 76.2463 34.3229 75.4222C35.1467 74.5981 36.1963 74.0369 37.3389 73.8095C38.4816 73.5821 39.6659 73.6988 40.7423 74.1448C41.8186 74.5908 42.7386 75.3461 43.3858 76.3152C44.0331 77.2842 44.3785 78.4235 44.3785 79.5889C44.3785 81.1518 43.7579 82.6506 42.6533 83.7557C41.5486 84.8608 40.0503 85.4816 38.4881 85.4816Z" fill="#0D88BC"/>
<path d="M40.8115 79.0077H39.0684V77.2639C39.0684 77.1097 39.0072 76.9619 38.8982 76.8529C38.7892 76.7439 38.6414 76.6826 38.4873 76.6826C38.3332 76.6826 38.1854 76.7439 38.0764 76.8529C37.9675 76.9619 37.9063 77.1097 37.9063 77.2639V79.0077H36.1631C36.009 79.0077 35.8612 79.069 35.7522 79.178C35.6432 79.287 35.582 79.4348 35.582 79.589C35.582 79.7432 35.6432 79.891 35.7522 80C35.8612 80.109 36.009 80.1703 36.1631 80.1703H37.9062V81.9141C37.9062 82.0683 37.9675 82.2161 38.0764 82.3251C38.1854 82.4341 38.3332 82.4954 38.4873 82.4954C38.6414 82.4954 38.7892 82.4341 38.8982 82.3251C39.0072 82.2161 39.0684 82.0683 39.0684 81.9141V80.1703H40.8115C40.9656 80.1703 41.1134 80.109 41.2224 80C41.3314 79.891 41.3926 79.7432 41.3926 79.589C41.3926 79.4348 41.3314 79.287 41.2224 79.178C41.1134 79.069 40.9656 79.0077 40.8115 79.0077Z" fill="white"/>
<path d="M67.0113 16.7422H49.3086V28.7777H67.0113V16.7422Z" fill="#F1F1F1"/>
<path d="M91.0699 16.7422H73.3672V28.7777H91.0699V16.7422Z" fill="#F1F1F1"/>
<path d="M115.132 16.7422H97.4297V28.7777H115.132V16.7422Z" fill="#F1F1F1"/>
<path d="M139.195 16.7422H121.492V28.7777H139.195V16.7422Z" fill="#F1F1F1"/>
<path d="M163.257 16.7422H145.555V28.7777H163.257V16.7422Z" fill="#F1F1F1"/>
<path d="M67.0777 37.8906H49.375V49.9261H67.0777V37.8906Z" fill="#F1F1F1"/>
<path d="M91.1363 37.8906H73.4336V49.9261H91.1363V37.8906Z" fill="#F1F1F1"/>
<path d="M115.199 37.8906H97.4961V49.9261H115.199V37.8906Z" fill="#F1F1F1"/>
<path d="M139.261 37.8906H121.559V49.9261H139.261V37.8906Z" fill="#F1F1F1"/>
<path d="M163.324 37.8906H145.621V49.9261H163.324V37.8906Z" fill="#F1F1F1"/>
<path d="M67.1402 59.0391H49.4375V71.0745H67.1402V59.0391Z" fill="#F1F1F1"/>
<path d="M91.2027 59.0391H73.5V71.0745H91.2027V59.0391Z" fill="#F1F1F1"/>
<path d="M115.261 59.0391H97.5586V71.0745H115.261V59.0391Z" fill="#F1F1F1"/>
<path d="M139.328 59.0391H121.625V71.0745H139.328V59.0391Z" fill="#F1F1F1"/>
<path d="M163.39 59.0391H145.688V71.0745H163.39V59.0391Z" fill="#F1F1F1"/>
<path d="M101.102 22.7608C102.335 22.7608 103.336 21.7601 103.336 20.5257C103.336 19.2912 102.335 18.2905 101.102 18.2905C99.8675 18.2905 98.8672 19.2912 98.8672 20.5257C98.8672 21.7601 99.8675 22.7608 101.102 22.7608Z" fill="#0D88BC"/>
<path d="M76.6992 43.9083C77.9331 43.9083 78.9335 42.9076 78.9335 41.6731C78.9335 40.4387 77.9331 39.438 76.6992 39.438C75.4652 39.438 74.4648 40.4387 74.4648 41.6731C74.4648 42.9076 75.4652 43.9083 76.6992 43.9083Z" fill="#0D88BC"/>
<path d="M101.102 65.0563C102.335 65.0563 103.336 64.0555 103.336 62.8211C103.336 61.5867 102.335 60.5859 101.102 60.5859C99.8675 60.5859 98.8672 61.5867 98.8672 62.8211C98.8672 64.0555 99.8675 65.0563 101.102 65.0563Z" fill="#0D88BC"/>
<path d="M125.68 43.9083C126.914 43.9083 127.914 42.9076 127.914 41.6731C127.914 40.4387 126.914 39.438 125.68 39.438C124.446 39.438 123.445 40.4387 123.445 41.6731C123.445 42.9076 124.446 43.9083 125.68 43.9083Z" fill="#3F3D56"/>
<path d="M149.57 43.9083C150.804 43.9083 151.805 42.9076 151.805 41.6731C151.805 40.4387 150.804 39.438 149.57 39.438C148.336 39.438 147.336 40.4387 147.336 41.6731C147.336 42.9076 148.336 43.9083 149.57 43.9083Z" fill="#3F3D56"/>
<path d="M76.6992 65.0563C77.9331 65.0563 78.9335 64.0555 78.9335 62.8211C78.9335 61.5867 77.9331 60.5859 76.6992 60.5859C75.4652 60.5859 74.4648 61.5867 74.4648 62.8211C74.4648 64.0555 75.4652 65.0563 76.6992 65.0563Z" fill="#3F3D56"/>
<path d="M18.1187 84.1701C20.4106 84.1701 22.2686 82.3115 22.2686 80.0187C22.2686 77.7259 20.4106 75.8672 18.1187 75.8672C15.8267 75.8672 13.9688 77.7259 13.9688 80.0187C13.9688 82.3115 15.8267 84.1701 18.1187 84.1701Z" fill="#FFB8B8"/>
<path d="M5.53006 137.718C5.53006 138.613 0.578125 139.227 0.578125 139.657C0.578125 140.088 3.22616 140.993 24.4173 140.993C45.6085 140.993 48.7181 139.776 48.7181 139.302C48.7195 137.083 5.53006 136.135 5.53006 137.718Z" fill="#A7DBF1"/>
<path d="M16.6219 104.584C16.5696 104.584 16.5171 104.581 16.4644 104.577C16.2034 104.555 15.9499 104.478 15.7206 104.351C15.4914 104.225 15.2914 104.051 15.1339 103.842C14.9763 103.633 14.8648 103.392 14.8065 103.137C14.7483 102.881 14.7447 102.617 14.7959 102.36C14.808 102.3 14.8232 102.241 14.8415 102.183L8.71658 94.9361C8.51701 94.6982 8.39945 94.4022 8.38136 94.0921C8.36327 93.782 8.4456 93.4743 8.61614 93.2147L8.62724 93.2011L14.1404 87.7629C14.4415 87.4664 14.8479 87.3016 15.2703 87.3047C15.6928 87.3079 16.0967 87.4787 16.3933 87.7796C16.6899 88.0806 16.855 88.487 16.8521 88.9096C16.8493 89.3323 16.6789 89.7365 16.3782 90.0334C16.3713 90.0402 16.3643 90.047 16.3573 90.0537L12.3643 93.8512L16.7357 100.87C16.8185 100.874 16.9008 100.884 16.9822 100.9C17.4344 100.99 17.8369 101.246 18.1116 101.616C18.3862 101.987 18.5135 102.446 18.4686 102.905C18.4237 103.364 18.2098 103.79 17.8685 104.1C17.5273 104.41 17.083 104.583 16.6219 104.584Z" fill="#FFB8B8"/>
<path d="M24.9535 137.796H27.0251L28.0104 129.803L24.9531 129.803L24.9535 137.796Z" fill="#FFB8B8"/>
<path d="M24.4258 137.12L28.5052 137.12H28.5054C28.8467 137.12 29.1848 137.187 29.5002 137.318C29.8156 137.448 30.1022 137.64 30.3436 137.881C30.585 138.123 30.7765 138.409 30.9072 138.725C31.0378 139.041 31.1051 139.379 31.1051 139.72V139.805L24.4259 139.805L24.4258 137.12Z" fill="#2F2E41"/>
<path d="M4.36328 134.932L6.14312 135.992L11.0777 129.629L8.45075 128.064L4.36328 134.932Z" fill="#FFB8B8"/>
<path d="M4.25993 134.08L7.7651 136.168L7.76524 136.168C8.35766 136.521 8.78569 137.095 8.95517 137.763C9.12465 138.432 9.0217 139.14 8.66897 139.733L8.66892 139.733L8.6257 139.806L2.88672 136.387L4.25993 134.08Z" fill="#2F2E41"/>
<path d="M27.5159 134.974H25.1963C25.0085 134.974 24.8273 134.905 24.6876 134.779C24.548 134.653 24.4598 134.48 24.4403 134.293L22.1018 112.304C22.0959 112.248 22.072 112.196 22.0337 112.156C21.9954 112.116 21.9449 112.089 21.8899 112.08C21.835 112.071 21.7787 112.081 21.7297 112.107C21.6807 112.133 21.6417 112.175 21.6188 112.226L17.4002 121.571L9.93128 133.754C9.83462 133.911 9.68495 134.027 9.50968 134.081C9.33442 134.136 9.14528 134.126 8.97691 134.053L5.99315 132.74C5.8945 132.696 5.8062 132.632 5.73412 132.552C5.66204 132.472 5.60781 132.377 5.57505 132.274C5.54228 132.172 5.53172 132.063 5.54407 131.956C5.55641 131.849 5.59137 131.746 5.64665 131.653L12.5126 120.152L14.6183 110.462C13.956 106.26 16.7952 100.012 16.824 99.9497L16.8381 99.9192L24.6587 96.8613L24.6979 96.9094C27.7821 107.034 29.6615 117.931 28.2738 134.277C28.2567 134.466 28.1696 134.643 28.0295 134.772C27.8893 134.901 27.7062 134.973 27.5159 134.974Z" fill="#2F2E41"/>
<path d="M16.519 100.943L16.4826 100.866C16.4651 100.829 14.7262 97.1603 13.3857 93.2389C13.128 92.4805 13.0306 91.6769 13.0996 90.879C13.1687 90.081 13.4026 89.3061 13.7866 88.6033C14.1756 87.8933 14.7077 87.2717 15.3494 86.7782C15.991 86.2846 16.7281 85.9297 17.514 85.736C18.8783 85.4088 20.3147 85.5829 21.5615 86.2265C22.8083 86.87 23.7825 87.9402 24.3066 89.2421C25.37 91.9021 25.0311 94.7414 24.7121 96.9742L24.7058 97.019L24.6651 97.0385L16.519 100.943Z" fill="#0D88BC"/>
<path d="M23.1521 77.6729H16.5625V74.7994C18.0088 74.2246 19.4241 73.7358 20.2797 74.7994C21.0415 74.7994 21.7721 75.1022 22.3108 75.641C22.8494 76.1799 23.1521 76.9108 23.1521 77.6729H23.1521Z" fill="#2F2E41"/>
<path d="M16.1943 74.2925C12.255 74.2925 11.1523 79.2322 11.1523 82.0189C11.1523 83.573 11.8549 84.1289 12.959 84.317L13.3489 82.2367L14.2621 84.4065C14.5722 84.4081 14.898 84.402 15.2358 84.3958L15.5454 83.758L16.2358 84.3843C19.0012 84.3884 21.2363 84.7917 21.2363 82.0189C21.2363 79.2322 20.2693 74.2925 16.1943 74.2925Z" fill="#2F2E41"/>
<path d="M33.7042 79.8214C33.7292 79.8673 33.7523 79.9145 33.7736 79.963C33.8796 80.2026 33.9338 80.4619 33.9327 80.7239C33.9315 80.9859 33.8751 81.2447 33.767 81.4833C33.6589 81.722 33.5016 81.9351 33.3054 82.1087C33.1093 82.2823 32.8786 82.4125 32.6287 82.4907C32.5705 82.5087 32.5115 82.5236 32.4517 82.5354L29.0311 91.3869C28.918 91.6762 28.7147 91.9213 28.4514 92.0859C28.188 92.2504 27.8786 92.3257 27.5691 92.3004L27.552 92.2972L20.1381 90.0644C19.7334 89.9425 19.3936 89.6648 19.1936 89.2923C18.9936 88.9198 18.9497 88.483 19.0716 88.0782C19.1935 87.6733 19.4711 87.3334 19.8435 87.1334C20.2158 86.9333 20.6524 86.8894 21.0571 87.0113C21.0663 87.0141 21.0756 87.0169 21.0848 87.0199L26.3305 88.7047L30.3917 81.5021C30.3558 81.4273 30.3252 81.3501 30.3001 81.2711C30.1626 80.8308 30.1934 80.3551 30.3868 79.9364C30.5801 79.5176 30.9221 79.1857 31.3463 79.005C31.7705 78.8244 32.2468 78.8079 32.6825 78.9587C33.1182 79.1096 33.4823 79.417 33.7042 79.8214L33.7042 79.8214Z" fill="#FFB8B8"/>
<path d="M34.5652 140H0.179094C0.131595 140 0.086042 139.982 0.0524553 139.948C0.0188687 139.914 0 139.869 0 139.821C0 139.774 0.0188687 139.728 0.0524553 139.695C0.086042 139.661 0.131595 139.642 0.179094 139.642H34.5652C34.6127 139.642 34.6582 139.661 34.6918 139.695C34.7254 139.728 34.7443 139.774 34.7443 139.821C34.7443 139.869 34.7254 139.914 34.6918 139.948C34.6582 139.982 34.6127 140 34.5652 140Z" fill="#CCCCCC"/>
</g>
<defs>
<clipPath id="clip0">
<rect width="174" height="140" fill="white"/>
</clipPath>
</defs>
</svg>
