<svg width="441" height="316" viewBox="0 0 441 316" fill="none" xmlns="http://www.w3.org/2000/svg">
<path opacity="0.3" d="M71.0624 70.1023C71.0624 126.881 36.3633 165.871 36.3633 193.23C36.3633 220.589 54.9186 278.049 203.409 278.049C351.9 278.049 373.69 200.749 373.69 170.657C373.699 29.7409 71.0624 -30.4523 71.0624 70.1023Z" fill="#A7DBF1"/>
<path d="M405.743 41.5277H49.5191C46.8636 41.5277 44.7109 43.6829 44.7109 46.3415V244.191C44.7109 246.849 46.8636 249.004 49.5191 249.004H405.743C408.398 249.004 410.551 246.849 410.551 244.191V46.3415C410.551 43.6829 408.398 41.5277 405.743 41.5277Z" fill="url(#paint0_linear)"/>
<path d="M405.205 44.4453H50.1011C47.4457 44.4453 45.293 46.6004 45.293 49.259V243.501C45.293 246.159 47.4457 248.315 50.1011 248.315H405.205C407.86 248.315 410.013 246.159 410.013 243.501V49.259C410.013 46.6004 407.86 44.4453 405.205 44.4453Z" fill="white"/>
<path d="M405.205 44.4453H50.1011C47.4457 44.4453 45.293 46.6004 45.293 49.259V243.501C45.293 246.159 47.4457 248.315 50.1011 248.315H405.205C407.86 248.315 410.013 246.159 410.013 243.501V49.259C410.013 46.6004 407.86 44.4453 405.205 44.4453Z" fill="white"/>
<path opacity="0.04" d="M405.205 44.4453H50.1011C47.4457 44.4453 45.293 46.6004 45.293 49.259V243.501C45.293 246.159 47.4457 248.315 50.1011 248.315H405.205C407.86 248.315 410.013 246.159 410.013 243.501V49.259C410.013 46.6004 407.86 44.4453 405.205 44.4453Z" fill="white"/>
<path d="M408.161 42.1058H47.1446C46.6535 42.1058 46.1826 42.3012 45.8353 42.6488C45.4881 42.9965 45.293 43.468 45.293 43.9597V51.795H409.998V43.9597C409.998 43.4707 409.805 43.0014 409.461 42.6542C409.117 42.307 408.65 42.1099 408.161 42.1058Z" fill="#5A5773"/>
<path d="M52.5726 49.4556C53.9545 49.4556 55.0748 48.334 55.0748 46.9504C55.0748 45.5668 53.9545 44.4453 52.5726 44.4453C51.1906 44.4453 50.0703 45.5668 50.0703 46.9504C50.0703 48.334 51.1906 49.4556 52.5726 49.4556Z" fill="white"/>
<path d="M59.3108 49.4556C60.6928 49.4556 61.8131 48.334 61.8131 46.9504C61.8131 45.5668 60.6928 44.4453 59.3108 44.4453C57.9289 44.4453 56.8086 45.5668 56.8086 46.9504C56.8086 48.334 57.9289 49.4556 59.3108 49.4556Z" fill="white"/>
<path d="M66.0452 49.4556C67.4272 49.4556 68.5475 48.334 68.5475 46.9504C68.5475 45.5668 67.4272 44.4453 66.0452 44.4453C64.6633 44.4453 63.543 45.5668 63.543 46.9504C63.543 48.334 64.6633 49.4556 66.0452 49.4556Z" fill="white"/>
<path opacity="0.2" d="M173.205 70.0171H75.3281V78.3342H173.205V70.0171Z" fill="#0D88BC"/>
<path opacity="0.1" d="M379.971 103.366H75.3281V231.307H379.971V103.366Z" fill="#5A5773"/>
<path opacity="0.1" d="M253.7 111.711H248.484V101.567C248.484 90.12 239.368 80.6043 227.934 80.4308C225.177 80.4018 222.442 80.9194 219.886 81.9536C217.329 82.9878 215.003 84.5183 213.04 86.4569C211.077 88.3954 209.517 90.7037 208.449 93.2487C207.382 95.7936 206.828 98.525 206.819 101.285V111.711H201.614C199.314 111.718 197.11 112.636 195.484 114.264C193.858 115.892 192.941 118.099 192.934 120.402V162.11C192.941 164.413 193.858 166.62 195.484 168.248C197.11 169.876 199.314 170.794 201.614 170.801H253.7C255.999 170.794 258.203 169.876 259.829 168.248C261.455 166.619 262.371 164.413 262.377 162.11V120.402C262.371 118.099 261.455 115.893 259.829 114.264C258.203 112.636 255.999 111.718 253.7 111.711ZM230.698 138.824V153.762C230.703 154.553 230.408 155.317 229.872 155.898C229.336 156.479 228.599 156.834 227.811 156.892C227.4 156.911 226.989 156.847 226.603 156.703C226.217 156.558 225.865 156.337 225.567 156.052C225.269 155.768 225.031 155.426 224.869 155.047C224.707 154.668 224.624 154.26 224.624 153.847V138.816C223.215 138.129 222.081 136.984 221.407 135.568C220.732 134.152 220.557 132.549 220.909 131.021C221.262 129.492 222.121 128.128 223.347 127.152C224.574 126.175 226.094 125.644 227.661 125.644C229.228 125.644 230.748 126.175 231.975 127.152C233.201 128.128 234.06 129.492 234.413 131.021C234.765 132.549 234.59 134.152 233.915 135.568C233.241 136.984 232.107 138.129 230.698 138.816V138.824ZM242.417 111.711H212.894V101.285C212.894 97.3673 214.448 93.6098 217.216 90.8394C219.983 88.069 223.736 86.5126 227.649 86.5126C231.563 86.5126 235.316 88.069 238.083 90.8394C240.85 93.6098 242.405 97.3673 242.405 101.285L242.417 111.711Z" fill="black"/>
<path d="M253.7 110.94H248.484V100.796C248.484 89.3492 239.368 79.8335 227.934 79.66C225.177 79.631 222.442 80.1486 219.886 81.1828C217.329 82.217 215.003 83.7475 213.04 85.6861C211.077 87.6246 209.517 89.9329 208.449 92.4778C207.382 95.0228 206.828 97.7542 206.819 100.514V110.94H201.614C199.314 110.947 197.11 111.865 195.484 113.493C193.858 115.121 192.941 117.328 192.934 119.631V161.34C192.941 163.642 193.858 165.849 195.484 167.477C197.11 169.105 199.314 170.023 201.614 170.031H253.7C255.999 170.023 258.203 169.105 259.829 167.477C261.455 165.848 262.371 163.642 262.377 161.34V119.631C262.371 117.328 261.455 115.122 259.829 113.493C258.203 111.865 255.999 110.947 253.7 110.94ZM230.698 138.053V152.992C230.703 153.783 230.408 154.546 229.872 155.127C229.336 155.708 228.599 156.063 227.811 156.121C227.4 156.14 226.989 156.076 226.603 155.932C226.217 155.787 225.865 155.566 225.567 155.282C225.269 154.997 225.031 154.655 224.869 154.276C224.707 153.897 224.624 153.489 224.624 153.076V138.046C223.215 137.358 222.081 136.213 221.407 134.797C220.732 133.381 220.557 131.778 220.909 130.25C221.262 128.721 222.121 127.357 223.347 126.381C224.574 125.404 226.094 124.873 227.661 124.873C229.228 124.873 230.748 125.404 231.975 126.381C233.201 127.357 234.06 128.721 234.413 130.25C234.765 131.778 234.59 133.381 233.915 134.797C233.241 136.213 232.107 137.358 230.698 138.046V138.053ZM242.417 110.94H212.894V100.514C212.894 96.5965 214.448 92.839 217.216 90.0686C219.983 87.2982 223.736 85.7418 227.649 85.7418C231.563 85.7418 235.316 87.2982 238.083 90.0686C240.85 92.839 242.405 96.5965 242.405 100.514L242.417 110.94Z" fill="#0D88BC"/>
<path opacity="0.1" d="M379.972 91.0527H349.137V98.3407H379.972V91.0527Z" fill="#5A5773"/>
<path opacity="0.1" d="M332.76 174.613C332.732 175.132 332.659 175.648 332.541 176.155C332.541 176.012 332.541 175.931 332.51 175.92C332.395 175.889 332.533 175.299 332.76 174.613Z" fill="black"/>
<g opacity="0.1">
<path opacity="0.1" d="M343.782 115.222C343.804 114.582 344.033 113.967 344.435 113.468C344.836 112.97 345.388 112.616 346.007 112.458C347.724 112.038 349.525 112.12 351.197 112.693C354.85 113.904 350.735 118.259 350.735 118.259C350.735 118.259 347.998 120.957 345.445 119.072C344.692 118.501 344.164 117.682 343.956 116.759C343.831 116.257 343.772 115.74 343.782 115.222Z" fill="black"/>
<path opacity="0.1" d="M350.508 112.339V112.52H357.179V112.304L350.508 112.339Z" fill="black"/>
<path opacity="0.1" d="M352.638 114.27H352.85V113.657C352.85 113.657 353.527 113.129 354.651 113.657V114.204H355.036V113.846H354.848C354.848 113.846 354.925 113.102 353.67 113.221C353.67 113.221 352.661 113.125 352.684 113.765H352.453L352.638 114.27Z" fill="black"/>
</g>
<path opacity="0.5" d="M354.018 279.326C354.018 280.349 348.766 281.052 348.766 281.545C348.766 282.038 351.574 283.073 374.052 283.073C396.53 283.073 399.829 281.68 399.829 281.138C399.83 278.599 354.018 277.514 354.018 279.326Z" fill="#A7DBF1"/>
<path d="M373.733 176.582H371.547V225.875H373.733V176.582Z" fill="#535461"/>
<path d="M387.472 225.725L387.333 227.945L387.141 231.078L387.06 232.385L386.867 235.522L386.783 236.829L386.59 239.962L384.384 275.601C384.29 277.134 383.615 278.574 382.497 279.627C381.379 280.68 379.902 281.266 378.367 281.266H366.903C365.369 281.266 363.892 280.68 362.775 279.627C361.657 278.574 360.983 277.134 360.89 275.601L358.673 239.962L358.48 236.829L358.399 235.522L358.211 232.377L358.13 231.071L357.937 227.937L357.799 225.717C357.773 225.291 357.834 224.864 357.979 224.463C358.123 224.061 358.349 223.694 358.641 223.383C358.933 223.072 359.286 222.824 359.677 222.655C360.069 222.486 360.491 222.399 360.917 222.399H384.357C384.784 222.399 385.207 222.486 385.599 222.656C385.99 222.825 386.343 223.074 386.635 223.386C386.927 223.698 387.152 224.066 387.296 224.468C387.44 224.871 387.5 225.299 387.472 225.725Z" fill="#3F3D56"/>
<path d="M387.337 227.945L387.144 231.078H358.13L357.938 227.945H387.337Z" fill="#9D9CB5"/>
<path d="M387.06 232.385L386.867 235.522H358.403L358.207 232.385H387.06Z" fill="#9D9CB5"/>
<path d="M386.783 236.829L386.59 239.962H358.681L358.484 236.829H386.783Z" fill="#9D9CB5"/>
<path d="M354.598 195.058C367.333 204.281 372.638 218.711 372.638 218.711C372.638 218.711 357.289 218.183 344.535 208.96C331.782 199.737 326.496 185.307 326.496 185.307C326.496 185.307 341.86 185.835 354.598 195.058Z" fill="#0D88BC"/>
<path d="M326.516 185.307C326.516 185.307 342.445 194.172 347.554 201.494C352.662 208.817 372.638 218.714 372.638 218.714" stroke="#535461" stroke-width="2" stroke-miterlimit="10"/>
<path d="M362.818 176.493C369.747 181.503 372.638 189.366 372.638 189.366C372.638 189.366 364.285 189.08 357.352 184.059C350.419 179.037 347.535 171.186 347.535 171.186C347.535 171.186 355.889 171.452 362.818 176.493Z" fill="#0D88BC"/>
<path d="M347.535 171.167C347.535 171.167 356.204 175.984 358.984 179.973C361.763 183.962 372.638 189.346 372.638 189.346" stroke="#535461" stroke-width="2" stroke-miterlimit="10"/>
<path d="M382.714 188.949C374.749 197.71 373.066 209.156 373.066 209.156C373.066 209.156 384.292 206.401 392.253 197.64C400.214 188.88 401.9 177.43 401.9 177.43C401.9 177.43 390.675 180.185 382.714 188.949Z" fill="#0D88BC"/>
<path d="M401.9 177.43C401.9 177.43 391.529 186.41 388.892 192.599C386.255 198.789 373.066 209.172 373.066 209.172" stroke="#535461" stroke-width="2" stroke-miterlimit="10"/>
<defs>
<linearGradient id="paint0_linear" x1="227.629" y1="249.004" x2="227.629" y2="41.5277" gradientUnits="userSpaceOnUse">
<stop stop-color="#808080" stop-opacity="0.25"/>
<stop offset="0.54" stop-color="#808080" stop-opacity="0.12"/>
<stop offset="1" stop-color="#808080" stop-opacity="0.1"/>
</linearGradient>
</defs>
</svg>
