<svg width="66" height="60" viewBox="0 0 66 60" fill="none" xmlns="http://www.w3.org/2000/svg">
<path d="M6.7891 11.6237C6.7891 24.8325 0 33.9032 0 40.268C0 46.6327 3.63046 60 32.6836 60C61.7367 60 66 42.0172 66 35.0165C66.0019 2.23417 6.7891 -11.769 6.7891 11.6237Z" fill="#A7DBF1"/>
<g clip-path="url(#clip0)">
<path d="M40.8463 47.1723C40.8463 47.7951 40.3475 48.2978 39.7295 48.2978H17.3941C16.7762 48.2978 16.2773 47.7951 16.2773 47.1723V15.5083C16.2773 14.8855 16.7762 14.3828 17.3941 14.3828H34.1457V20.0103C34.1457 20.6331 34.6445 21.1358 35.2624 21.1358H40.8463V29.8621L37.5481 33.1861L35.9697 34.7768C35.8506 34.8969 35.7538 35.0544 35.7017 35.2195L34.1233 39.9916C33.9893 40.3968 34.0936 40.8395 34.3914 41.1471C34.6892 41.4473 35.1359 41.5523 35.5379 41.4172L40.273 39.8265C40.4368 39.774 40.5857 39.6765 40.7123 39.5564L40.8463 39.4214V47.1723Z" fill="#0D88BC"/>
<path d="M51.1793 24.2197C49.8764 22.9066 47.7471 22.9066 46.4442 24.2197C46.0422 24.6248 43.4736 27.2135 43.0864 27.6112V18.6897C43.0864 17.7893 42.7365 16.9415 42.1037 16.3037L38.947 13.1223C38.3067 12.4845 37.4654 12.1318 36.572 12.1318H17.3933C15.5469 12.1318 14.043 13.6475 14.043 15.5083V47.1723C14.043 49.0331 15.5469 50.5488 17.3933 50.5488H39.7287C41.5751 50.5488 43.079 49.0331 43.079 47.1723V37.1629L51.1793 28.9918C52.4897 27.6787 52.4897 25.5403 51.1793 24.2197ZM36.3784 14.3828C36.5868 14.3828 36.9963 14.3453 37.3611 14.713L40.5179 17.8944C40.8752 18.2545 40.8455 18.6447 40.8455 18.8848H36.3784V14.3828ZM40.8455 47.1723C40.8455 47.7951 40.3466 48.2978 39.7287 48.2978H17.3933C16.7753 48.2978 16.2765 47.7951 16.2765 47.1723V15.5083C16.2765 14.8856 16.7753 14.3828 17.3933 14.3828H34.1448V20.0103C34.1448 20.6331 34.6437 21.1358 35.2616 21.1358H40.8455V29.8622L37.5473 33.1861L35.9689 34.7768C35.8498 34.8969 35.753 35.0544 35.7009 35.2195L34.1225 39.9916C33.9885 40.3968 34.0927 40.8395 34.3905 41.1471C34.6883 41.4473 35.135 41.5523 35.5371 41.4173L40.2722 39.8266C40.436 39.774 40.5849 39.6765 40.7115 39.5564L40.8455 39.4214V47.1723ZM38.3439 35.5722L39.9223 37.1629L39.3192 37.7706L36.9517 38.566L37.7408 36.1799L38.3439 35.5722ZM41.5006 35.5722L39.9223 33.9815C40.7636 33.1336 44.501 29.3669 45.2902 28.5641L46.8686 30.1548L41.5006 35.5722ZM49.6009 27.4086L48.4469 28.5641L46.8686 26.9734L48.0226 25.8104C48.4618 25.3752 49.1691 25.3752 49.6009 25.8104C50.0328 26.2531 50.0402 26.9659 49.6009 27.4086Z" fill="black"/>
<path d="M35.2633 23.3867H19.6285C19.0105 23.3867 18.5117 23.8894 18.5117 24.5122C18.5117 25.135 19.0105 25.6377 19.6285 25.6377H35.2633C35.8812 25.6377 36.38 25.135 36.38 24.5122C36.38 23.8894 35.8812 23.3867 35.2633 23.3867Z" fill="black"/>
<path d="M30.7962 27.8887H19.6285C19.0105 27.8887 18.5117 28.3914 18.5117 29.0142C18.5117 29.6369 19.0105 30.1397 19.6285 30.1397H30.7962C31.4141 30.1397 31.913 29.6369 31.913 29.0142C31.913 28.3914 31.4141 27.8887 30.7962 27.8887Z" fill="black"/>
<path d="M30.7962 32.3906H19.6285C19.0105 32.3906 18.5117 32.8933 18.5117 33.5161C18.5117 34.1389 19.0105 34.6416 19.6285 34.6416H30.7962C31.4141 34.6416 31.913 34.1389 31.913 33.5161C31.913 32.8933 31.4141 32.3906 30.7962 32.3906Z" fill="black"/>
<path d="M30.7962 36.8926H19.6285C19.0105 36.8926 18.5117 37.3953 18.5117 38.0181C18.5117 38.6408 19.0105 39.1436 19.6285 39.1436H30.7962C31.4141 39.1436 31.913 38.6408 31.913 38.0181C31.913 37.3953 31.4141 36.8926 30.7962 36.8926Z" fill="black"/>
<path d="M35.2627 43.7959H28.5621C27.9441 43.7959 27.4453 44.2986 27.4453 44.9214C27.4453 45.5442 27.9441 46.0469 28.5621 46.0469H35.2627C35.8807 46.0469 36.3795 45.5442 36.3795 44.9214C36.3795 44.2986 35.8807 43.7959 35.2627 43.7959Z" fill="black"/>
<path d="M36.3789 14.3829C36.5874 14.3829 36.9969 14.3454 37.3617 14.7131L40.5184 17.8945C40.8758 18.2546 40.846 18.6448 40.846 18.8849H36.3789V14.3829Z" fill="#146080"/>
<path d="M38.3376 35.5713L39.9159 37.162L39.3129 37.7698L36.9453 38.5651L37.7345 36.1791L38.3376 35.5713Z" fill="#94DDF2"/>
<path d="M41.5002 35.5716L39.9219 33.9809C40.7632 33.133 44.5006 29.3663 45.2898 28.5635L46.8682 30.1542L41.5002 35.5716Z" fill="#94DDF2"/>
<path d="M49.596 27.4005L48.4495 28.5635L46.8711 26.9728L48.0251 25.8098C48.4644 25.3746 49.1716 25.3746 49.6035 25.8098C50.0353 26.2525 50.0353 26.9653 49.596 27.4005Z" fill="#146080"/>
</g>
<defs>
<clipPath id="clip0">
<rect width="38.1191" height="38.4169" fill="white" transform="translate(14.043 12.1318)"/>
</clipPath>
</defs>
</svg>
