<svg width="163" height="163" viewBox="0 0 163 163" fill="none" xmlns="http://www.w3.org/2000/svg">
<circle cx="81.5" cy="81.5" r="78.5" fill="white" stroke="#0D88BC" stroke-width="5"/>
<path d="M82.3186 50.3381C88.0889 50.3381 92.7648 55.014 92.7648 60.7843C92.7648 66.5546 88.0889 71.2305 82.3186 71.2305C76.5483 71.2305 71.8724 66.5546 71.8724 60.7843C71.8724 55.014 76.5483 50.3381 82.3186 50.3381ZM82.3186 95.1076C97.0925 95.1076 112.662 102.37 112.662 105.554V111.026H51.9748V105.554C51.9748 102.37 67.5446 95.1076 82.3186 95.1076ZM82.3186 40.8867C71.3252 40.8867 62.421 49.7909 62.421 60.7843C62.421 71.7777 71.3252 80.6818 82.3186 80.6818C93.312 80.6818 102.216 71.7777 102.216 60.7843C102.216 49.7909 93.312 40.8867 82.3186 40.8867ZM82.3186 85.6562C69.037 85.6562 42.5234 92.3219 42.5234 105.554V115.503C42.5234 118.238 44.7619 120.477 47.4978 120.477H117.139C119.875 120.477 122.114 118.238 122.114 115.503V105.554C122.114 92.3219 95.6002 85.6562 82.3186 85.6562Z" fill="#0D88BC"/>
</svg>
