<svg width="85" height="79" viewBox="0 0 85 79" fill="none" xmlns="http://www.w3.org/2000/svg">
    <path opacity="0.4" d="M10.5418 16.7705C10.5418 32.8588 2.19531 43.9077 2.19531 51.6564C2.19531 59.4099 6.66216 75.6855 42.3873 75.6855C78.1172 75.6855 83.359 53.7845 83.359 45.2576C83.359 5.33728 10.5418 -11.7165 10.5418 16.7705Z" fill="#AFE7FF"/>
    <g opacity="0.14">
    <path d="M61.954 34.9338L24.0532 66.5818L2.61426 48.303C3.55287 44.407 5.98364 38.4502 6.73935 36.3077L24.1302 51.0604L53.7182 26.354L61.954 34.9338Z" fill="#1DBCFF"/>
    <path d="M48.9199 22.4631L66.9702 40.5305L72.0676 19.8882L48.9199 22.4631Z" fill="#1DBCFF"/>
    </g>
    <path d="M65.3423 72.1327H16.6932C16.6162 72.1327 16.5488 72.0355 16.5488 71.9083C16.5488 71.7886 16.6114 71.6838 16.6932 71.6838H65.3472C65.4242 71.6838 65.4916 71.7811 65.4916 71.9083C65.4867 72.028 65.4242 72.1327 65.3423 72.1327Z" fill="#2E3552"/>
    <path d="M33.6023 22.6025C33.3712 22.1605 38.6275 20.5608 38.7141 24.9372C38.7141 24.9372 48.5624 24.697 43.8597 19.2157C42.2327 17.3182 42.4012 15.7521 42.4493 14.2917C42.4975 12.8314 41.4337 8.58953 37.7899 9.01708C37.7899 9.01708 36.8369 8.62796 35.6432 9.24766C32.9332 10.6504 26.8635 24.2166 33.6023 22.6025Z" fill="#163560"/>
    <path d="M49.7041 27.4928C49.7041 27.4928 50.3443 26.5176 50.8593 26.4984C51.3744 26.4792 52.3322 26.2102 52.2552 26.4023C52.1782 26.5945 51.5862 26.6137 51.5284 26.729C51.4706 26.8443 52.4093 27.0172 52.6788 27.0365C52.9484 27.0557 53.5789 27.0365 53.5597 27.171C53.5404 27.3055 52.4237 27.8579 51.6343 27.7811C50.8449 27.7042 49.8678 28.0116 49.8678 28.0116L49.7041 27.4928Z" fill="#FFB27D"/>
    <path d="M40.4336 27.8097C40.4336 27.8097 40.7802 28.4967 41.4155 29.2893C42.1761 30.2405 43.3505 31.3406 44.8282 31.5568C45.531 31.6625 46.2193 31.5087 46.8547 31.2301C48.6453 30.4375 49.993 28.612 49.993 28.612C50.3107 27.7521 49.7909 27.1708 49.7909 27.1708C49.7909 27.1708 46.176 27.9827 45.8294 27.8097C45.4829 27.6368 43.4757 21.8625 42.9991 21.1371C42.5226 20.4117 40.8909 20.0322 40.8909 20.0322L40.4336 27.8097Z" fill="white"/>
    <path d="M41.4145 29.2893C42.1751 30.2405 43.3495 31.3406 44.8272 31.5568C45.53 31.6625 46.2183 31.5087 46.8537 31.2301C46.7815 31.2397 44.9957 31.4607 44.2833 30.1877C43.5565 28.8906 42.7719 26.8249 41.6889 27.5119C41.222 27.8097 41.2412 28.5447 41.4145 29.2893Z" fill="#E9F2FF"/>
    <path d="M26.9409 66.7696C26.9409 66.7696 25.8387 67.7736 26.0505 68.4894C26.2671 69.2052 27.2634 69.6808 27.3982 70.5503C27.533 71.4246 28.0721 71.9002 28.5534 71.9002C29.0396 71.9002 30.8639 71.9002 30.8639 71.9002C30.8639 71.9002 31.2201 71.2853 30.3585 71.1027C29.4969 70.9154 29.1744 69.8921 29.2273 68.941C29.2803 67.9898 29.1455 66.7216 29.1455 66.7216L27.3164 66.2988L26.9409 66.7696Z" fill="#233862"/>
    <path d="M36.2832 67.1921C36.2832 67.1921 35.8885 71.4484 36.3698 71.6886L42.5695 71.6742C42.5695 71.6742 42.5695 70.9584 41.5731 70.7999C40.5768 70.6413 38.8295 70.0601 38.531 68.763C38.2374 67.4708 36.2832 67.1921 36.2832 67.1921Z" fill="#233862"/>
    <path d="M31.8652 36.6489C33.1407 33.7954 33.9205 32.9739 33.7713 32.0852C33.6606 31.4271 34.1082 19.7872 34.1082 19.7872C34.2574 19.7392 34.5607 19.7008 34.7291 19.6623C35.2538 19.547 35.687 19.1771 35.8651 18.6775C36.0817 18.0722 36.255 17.1739 36.2502 16.0498L36.4138 16.0834L39.1623 16.6263C39.1623 16.6263 39.0997 17.491 39.0997 18.3028C39.0997 18.3076 39.0997 18.3172 39.0997 18.322C39.0949 19.0282 39.5618 19.6527 40.2405 19.8449C40.5871 19.9458 40.8903 20.0322 40.8903 20.0322C40.8903 20.0322 41.9011 22.905 42.0937 25.8594C42.2862 28.8137 40.2598 30.0964 42.1081 36.0004C43.995 42.0293 31.1576 38.2246 31.8652 36.6489Z" fill="#FFB27D"/>
    <path d="M39.1625 16.6263C39.1625 16.6263 39.0999 17.491 39.0999 18.3029C37.5645 18.2597 36.751 16.8617 36.4141 16.0835L39.1625 16.6263Z" fill="#E8945B"/>
    <path d="M39.6775 17.395C39.6775 17.395 36.0386 17.4526 36.0386 15.1948C36.0338 12.9322 35.5669 11.419 37.8869 11.2844C40.2118 11.1499 40.6643 12.0146 40.8472 12.7688C41.0301 13.5183 40.6258 17.3181 39.6775 17.395Z" fill="#FFB27D"/>
    <path d="M39.5423 11.2271C39.5423 11.2271 38.546 13.8789 37.0153 14.2728C35.4846 14.6667 34.8252 14.2584 34.8252 14.2584C34.8252 14.2584 35.9997 13.3264 36.2403 11.7075C36.2403 11.7027 38.7914 9.96371 39.5423 11.2271Z" fill="#163560"/>
    <path d="M39.2969 11.443C39.2969 11.443 40.0333 11.7168 40.3414 12.2548C40.6398 12.7785 40.8901 13.475 40.8324 14.3301C40.8324 14.3301 41.5832 12.5287 40.7409 11.5054C39.8408 10.4246 39.2969 11.443 39.2969 11.443Z" fill="#163560"/>
    <path d="M38.8877 15.9921C38.8877 15.9921 39.138 16.3235 39.6434 16.2995C40.0477 16.2803 40.2018 15.9296 40.2018 15.9296C40.2018 15.9296 39.4557 15.7471 38.8877 15.9921Z" fill="#EBF3FA"/>
    <path d="M31.5133 24.9374C31.5133 24.9374 31.4218 26.2392 31.5133 27.7957C31.5759 28.8285 32.6252 30.2168 32.7696 30.5579C33.145 31.4178 33.5638 31.5571 33.5638 31.5571L36.8177 32.3546L37.9633 32.6332L41.5733 31.5571C41.5733 31.5571 43.2195 26.979 42.5553 24.3993C41.8958 21.8196 40.885 20.0326 40.885 20.0326C40.885 20.0326 37.9392 22.9101 34.1029 19.7876L31.5133 24.9374Z" fill="white"/>
    <path d="M32.4668 28.2182C32.5294 29.2511 32.6256 30.2166 32.77 30.5577C33.1455 31.4176 33.5643 31.5569 33.5643 31.5569L36.8181 32.3544L38.2333 31.9412C38.2333 31.9412 33.5113 31.2255 34.036 27.1758L32.4668 28.2182Z" fill="#F2CCAA"/>
    <path d="M41.3428 32.2538C41.3428 32.2538 43.1286 37.8071 43.2441 39.6951C43.3596 41.5878 39.8266 66.5536 39.687 67.4231C39.5522 68.2446 38.5318 68.7682 38.5318 68.7682C38.5318 68.7682 38.0601 69.0468 37.391 68.8547C36.462 68.5905 36.1684 68.2782 36.1684 68.2782C36.1684 68.2782 34.7773 50.475 35.6389 44.1098C36.5005 37.7495 36.5102 32.249 36.5102 32.249H41.3428V32.2538Z" fill="#0D88BC"/>
    <path d="M33.7713 32.0854C33.7713 32.0854 31.0469 35.7364 30.7918 38.2056C30.5367 40.6748 30.3922 49.341 29.8531 51.7478C29.314 54.1545 27.3213 58.7855 27.3213 66.2891C27.3213 66.2891 27.5283 66.7215 28.1685 66.9473C28.3706 67.0193 28.645 67.0914 28.9097 67.1538C29.4344 67.2739 29.9783 67.0193 30.219 66.5341C31.5619 63.8296 35.8507 55.1153 36.0673 53.3042C36.2213 52.0216 37.5739 43.5475 40.5245 38.5755C41.2321 37.3793 40.0913 32.6331 40.0913 32.6331L33.7713 32.0854Z" fill="#10A8DD"/>
    <path d="M38.9648 16.0501C38.9648 16.0501 39.0274 16.3143 39.6917 16.2759C39.6917 16.2759 40.25 16.2423 40.2308 15.9492C40.2356 15.9492 39.6917 15.7427 38.9648 16.0501Z" fill="white"/>
    <path d="M41.6315 31.3936C41.6315 31.3936 40.9143 31.9604 39.4896 31.9892C37.7856 32.0229 33.5691 31.5569 33.5691 31.5569C33.5691 31.5569 33.3814 32.0805 33.391 32.633C33.391 32.633 38.5461 33.93 41.5305 32.8203C41.5256 32.8203 41.9107 32.0997 41.6315 31.3936Z" fill="#233862"/>
    <path d="M39.1191 32.5754C39.1191 32.0902 39.4657 31.6963 39.8941 31.6963C40.3225 31.6963 40.6691 32.0902 40.6691 32.5754C40.6691 33.0606 40.3225 33.4545 39.8941 33.4545C39.4657 33.4545 39.1191 33.0606 39.1191 32.5754ZM39.3743 32.5754C39.3743 32.9165 39.6053 33.1951 39.8941 33.1951C40.1829 33.1951 40.4139 32.9165 40.4139 32.5754C40.4139 32.2343 40.1829 31.9557 39.8941 31.9557C39.6101 31.9557 39.3743 32.2343 39.3743 32.5754Z" fill="white"/>
    <path d="M28.0165 32.3979L33.2949 36.9849L39.5884 29.7713L34.31 25.1843L28.0165 32.3979Z" fill="#B5453C"/>
    <path d="M34.7584 32.4165C34.7584 32.4165 36.6934 32.6423 36.6886 33.0987C36.6838 33.555 36.2072 34.4966 35.9666 34.5398C35.7259 34.5831 34.3926 33.2668 34.3926 33.2668L34.7584 32.4165Z" fill="#FFB27D"/>
    <path d="M34.1083 19.7876C34.1083 19.7876 31.5235 19.9701 30.5368 22.3721C29.5452 24.774 27.668 28.8045 27.668 29.4867C27.668 30.164 28.7173 32.2585 34.3538 33.4595C34.3538 33.4595 34.9362 32.8494 34.9025 32.3642C34.9025 32.3642 31.3839 29.3473 31.3936 28.9967C31.4128 28.3289 31.9712 27.4498 35.0566 24.3657C35.8989 23.525 34.1083 19.7876 34.1083 19.7876Z" fill="white"/>
</svg>
