<svg width="467" height="394" viewBox="0 0 467 394" fill="none" xmlns="http://www.w3.org/2000/svg">
    <path d="M397.796 354.668L397.043 351.733L405.571 349.549L406.324 352.484L397.796 354.668Z" fill="#5F92D3"/>
    <path d="M393.443 358.908L392.691 355.974L401.22 353.79L401.974 356.725L393.443 358.908Z" fill="#5F92D3"/>
    <path d="M389.093 363.15L388.34 360.215L396.871 358.032L397.623 360.966L389.093 363.15Z" fill="#5F92D3"/>
    <path d="M384.743 367.388L383.988 364.456L392.518 362.272L393.271 365.205L384.743 367.388Z" fill="#5F92D3"/>
    <path d="M104.944 177.685C99.5389 180.852 90.7406 180.914 85.2922 177.823C79.8439 174.729 79.8074 169.655 85.2128 166.484C90.6167 163.317 99.4166 163.255 104.865 166.349C110.313 169.441 110.35 174.517 104.944 177.685ZM217.591 87.8939L137.542 134.822C117.247 128.598 91.3886 130.522 74.3241 140.526C53.5648 152.696 53.7014 172.193 74.6307 184.071C79.3293 186.737 84.6775 188.794 90.3784 190.242C94.4083 191.266 98.6129 191.984 102.892 192.4C119.542 194.019 137.31 191.053 150.119 183.543C165.632 174.448 169.471 161.263 161.69 150.221L172.736 143.746L172.423 136.74L184.047 136.659L183.755 130.098L195.379 130.017L195.085 123.455L206.711 123.374L206.417 116.813L218.043 116.732L217.749 110.169L230.159 110.082L233.946 107.863L238.125 90.6348L217.591 87.8939Z" fill="#C8DDEB"/>
    <path d="M261.384 384.742L153.423 322.721C146.154 318.528 147.066 311.204 155.459 306.361L260.24 245.916C268.633 241.076 281.33 240.549 288.598 244.742L396.558 306.763C403.827 310.958 402.915 318.28 394.522 323.123L289.741 383.568C281.347 388.41 268.651 388.937 261.384 384.742Z" fill="#C8DDEB"/>
    <path d="M387.951 244.125L369.287 233.358L438.105 193.661C441.355 191.785 441.355 188.735 438.105 186.859L367.802 146.305C364.552 144.429 359.264 144.429 356.013 146.305L287.197 186.002L268.531 175.237L337.349 135.537C350.888 127.726 372.923 127.726 386.466 135.538L456.769 176.094C470.31 183.905 470.31 196.617 456.77 204.428L387.951 244.125Z" fill="#5F92D3"/>
    <path d="M418.07 248.867C418.07 238.895 412.004 227.315 404.519 222.997L279.837 151.072C276.485 149.139 273.424 149.001 271.059 150.322L271.051 150.317L122.18 236.754L266.144 345.144L412.809 260.089C413.262 259.883 413.701 259.645 414.104 259.337H414.107H414.106C416.555 257.483 418.07 253.847 418.07 248.867Z" fill="#D9EFFB"/>
    <path d="M266.144 345.144L412.809 260.089C413.262 259.883 413.7 259.645 414.104 259.337H414.107L414.105 259.335C416.554 257.483 418.07 253.847 418.07 248.867C418.07 244.107 416.677 238.987 414.416 234.461L247.23 330.905L266.144 345.144Z" fill="#263C7A"/>
    <path d="M256.767 344.76L132.085 272.834C124.6 268.517 118.535 256.935 118.535 246.964C118.535 236.995 124.6 232.413 132.085 236.728L256.767 308.656C264.252 312.972 270.32 324.554 270.32 334.523C270.32 344.495 264.252 349.077 256.767 344.76Z" fill="#5F92D3"/>
    <path d="M238.09 320.502L223.1 311.862C221.609 311.002 220.398 308.693 220.398 306.706C220.398 304.719 221.609 303.806 223.1 304.666L238.09 313.305C239.582 314.167 240.791 316.474 240.791 318.461C240.791 320.448 239.582 321.363 238.09 320.502Z" fill="white"/>
    <path d="M125.531 67.2199L151.15 81.761L177.289 66.4359L177.219 59.77L176.997 59.9001L176.976 59.4304L188.6 59.3494L188.53 52.7867L199.93 52.7074L199.862 46.1431L211.262 46.0637L211.194 39.501L222.594 39.4217L222.526 32.8574L234.712 32.7717L238.498 30.5529L242.678 13.3232L242.608 6.65738L240.593 13.0455L222.145 10.5839L125.531 67.2199Z" fill="#4067B1"/>
    <path d="M151.078 75.0944L177.217 59.7709L176.904 52.7654L188.528 52.6844L188.236 46.1234L199.86 46.0424L199.568 39.4797L211.192 39.3987L210.896 32.836L222.522 32.7567L222.228 26.194L234.642 26.1067L238.429 23.8879L242.606 6.65825L222.073 3.9189L125.461 60.5549L151.078 75.0944Z" fill="#D9EFFB"/>
    <path d="M168.484 64.8909C165.853 61.1564 161.901 57.6664 156.612 54.6636C152.885 52.5479 148.738 50.8355 144.341 49.488L125.461 60.5549L151.078 75.0944L168.484 64.8909Z" fill="#4067B1"/>
    <path d="M241.908 9.55122L242.609 6.65792L239.163 6.19926L157.535 54.0538L161.833 56.4932L241.908 9.55122Z" fill="#5F92D3"/>
    <path d="M63.6187 88.2496L63.3359 78.773L66.3715 85.1722L63.6187 88.2496Z" fill="#D4D0CE"/>
    <path d="M109.63 91.8429C115.079 94.9345 115.115 100.012 109.71 103.18C104.306 106.349 95.506 106.409 90.0577 103.318C84.6093 100.223 84.5728 95.1488 89.9782 91.9794C95.3837 88.8115 104.182 88.7512 109.63 91.8429ZM79.3961 109.566C100.327 121.447 134.124 121.209 154.885 109.039C165.294 102.937 170.447 94.9949 170.363 87.0926L170.364 87.0974L170.073 77.0589L168.368 78.9571C165.958 74.0085 161.37 69.3472 154.577 65.4937C133.649 53.6141 99.8503 53.8506 79.0911 66.0206C58.3302 78.1921 58.4669 97.6882 79.3961 109.566Z" fill="#4067B1"/>
    <path d="M109.349 82.3706C114.799 85.4654 114.834 90.5394 109.429 93.7089C104.023 96.8768 95.2247 96.9387 89.7764 93.8454C84.3281 90.7537 84.2915 85.6765 89.697 82.5087C95.1008 79.3408 103.899 79.2789 109.349 82.3706ZM79.1164 100.095C100.044 111.975 133.843 111.738 154.602 99.5669C175.363 87.397 175.226 67.9009 154.297 56.0214C133.368 44.1419 99.5707 44.3784 78.8083 56.5499C58.049 68.7199 58.1856 88.2159 79.1164 100.095Z" fill="#F5F6F5"/>
    <path d="M103.381 105.285C98.7773 106.003 93.6831 105.375 90.0583 103.318C86.1508 101.099 85.0436 97.8648 86.7131 95.0413L77.2317 87.5295C77.2317 87.5295 72.2758 81.9429 67.3691 76.4039C59.7351 87.5533 63.7538 100.687 79.3968 109.567C86.2985 113.485 94.0326 115.709 102.804 116.999L103.381 105.285Z" fill="#5F92D3"/>
    <path d="M109.349 82.3706C114.799 85.4655 114.834 90.5395 109.429 93.7089C104.023 96.8768 95.2247 96.9387 89.7764 93.8454C84.3281 90.7537 84.2915 85.6766 89.697 82.5087C95.1008 79.3408 103.899 79.2789 109.349 82.3706ZM79.1164 100.095C83.815 102.762 89.1617 104.819 94.8642 106.266C98.8924 107.29 103.097 108.009 107.378 108.423C124.026 110.043 141.796 107.077 154.602 99.567C175.363 87.397 175.226 67.9009 154.297 56.0214C133.368 44.1419 99.5707 44.3784 78.8083 56.5499C58.049 68.7199 58.1856 88.2159 79.1164 100.095Z" fill="#D9EFFB"/>
    <path d="M69.2245 78.5187C70.2442 72.448 74.7475 66.5201 82.7643 61.8191C101.235 50.9903 131.305 50.7808 149.927 61.3493C159.181 66.6027 163.855 73.5288 163.962 80.4962C165.29 72.5829 160.687 64.4347 150.147 58.4529C131.528 47.8827 101.457 48.0938 82.9867 58.9211C73.6959 64.3696 69.118 71.464 69.2245 78.5187Z" fill="#4067B1"/>
    <path d="M82.533 84.4291C78.7652 84.4291 74.5431 85.7369 70.1384 88.3175C54.4701 97.5037 41.8261 119.742 41.9564 137.894C42.0135 146.352 44.8299 152.588 49.8859 155.454C54.9403 158.32 61.7419 157.549 69.0424 153.27C84.7123 144.085 97.3547 121.845 97.2276 103.695C97.1926 98.7147 96.1744 94.3771 94.2794 91.1521C93.0007 88.973 91.3218 87.2843 89.2949 86.1321C87.2903 84.9941 85.0109 84.4291 82.533 84.4291ZM56.6335 164.71C52.8737 164.71 49.3394 163.815 46.161 162.01C38.6604 157.757 34.4859 149.212 34.4113 137.945C34.2636 117.397 48.5786 92.2171 66.3198 81.8151C76.0394 76.1158 85.5224 75.3191 93.023 79.5773C96.2173 81.3914 98.8303 84.0022 100.787 87.3351C103.389 91.7647 104.73 97.2514 104.773 103.644C104.919 124.193 90.6022 149.374 72.861 159.774C67.2617 163.055 61.7403 164.71 56.6335 164.71Z" fill="#4067B1"/>
    <path d="M92.3849 101.109L107.286 104.757L109.426 93.7095C104.02 96.8774 95.2218 96.9393 89.7734 93.846L92.3849 101.109Z" fill="#D9EFFB"/>
    <path d="M79.1133 100.095C83.8119 102.762 89.1585 104.819 94.861 106.266C98.8893 107.29 103.094 108.009 107.375 108.423C124.023 110.043 141.793 107.077 154.599 99.567L93.9175 98.2068L79.1133 100.095Z" fill="#D9EFFB"/>
    <path d="M101.535 107.752C101.535 107.752 95.0841 106.703 88.3555 104.357V113.659C91.5625 114.778 96.8472 116.397 101.373 116.995C115.267 118.828 101.535 107.752 101.535 107.752Z" fill="#4067B1"/>
    <path d="M91.8597 105.479C89.0863 104.661 86.0651 103.619 83.2758 102.314C75.1589 98.5161 85.4266 112.584 85.4266 112.584C85.4266 112.584 88.192 113.684 91.8597 114.808V105.479Z" fill="#5F92D3"/>
    <path d="M244.093 268.919L217.542 286.028L204.617 283.932L236.187 268.683L244.093 268.919Z" fill="#5F92D3"/>
    <path d="M211.995 355.303C211.995 355.303 204.346 351.448 199.649 357.188C194.954 362.926 188.24 376.47 188.032 385.624C187.824 394.776 195.281 394.16 199.713 391.992C204.148 389.825 217.097 371.058 217.881 367.381C218.665 363.702 216.957 358.729 215.71 357.756C214.465 356.784 211.995 355.303 211.995 355.303Z" fill="#263C7A"/>
    <path d="M213.664 353.462L214.017 361.379C214.093 363.062 213.246 364.665 211.779 365.497C210.443 366.254 208.503 366.835 205.879 366.413C200.118 365.488 199.603 363.843 199.192 355.928C198.782 348.013 213.664 353.462 213.664 353.462Z" fill="#5F92D3"/>
    <path d="M183.999 340.079C183.999 340.079 176.35 336.228 171.653 341.965C166.958 347.702 160.244 361.248 160.036 370.403C159.827 379.554 167.285 378.937 171.717 376.772C176.15 374.604 189.101 355.836 189.884 352.159C190.668 348.48 188.961 343.509 187.714 342.535C186.469 341.562 183.999 340.079 183.999 340.079Z" fill="#263C7A"/>
    <path d="M185.668 338.238L186.021 346.155C186.097 347.838 185.25 349.444 183.783 350.275C182.447 351.032 180.507 351.613 177.883 351.191C172.122 350.266 171.607 348.621 171.196 340.706C170.786 332.791 185.668 338.238 185.668 338.238Z" fill="#5F92D3"/>
    <path d="M253.908 192.894C251.645 156.095 214.022 198.308 214.022 198.308L188.272 223.525L165.086 248.976C160.557 253.945 158.451 260.657 159.328 267.321L168.706 338.683C169.17 342.208 172.188 344.807 175.746 344.779C176.75 344.771 177.901 344.68 179.22 344.476C187.588 343.174 186.97 335.224 186.97 335.224L185.256 268.479L233.949 239.15C233.949 239.15 256.17 229.693 253.908 192.894Z" fill="#D9EFFB"/>
    <path d="M203.865 255.865L196.935 253.322C196.775 253.322 185.157 264.551 185.258 268.479L190.47 270.152L203.56 257.457L203.865 255.865Z" fill="#5F92D3"/>
    <path d="M244.096 268.92C244.096 268.92 273.034 252.41 276.497 245.489C277.855 242.778 279.963 239.947 271.518 235.849L232.926 263.336L234.598 272.8L244.096 268.92Z" fill="#5F92D3"/>
    <path d="M281.906 207.094C279.491 170.306 242.019 212.507 242.019 212.507L216.268 237.726L193.082 263.176C188.553 268.147 186.447 274.858 187.324 281.523L196.704 352.885C197.166 356.409 200.184 359.009 203.742 358.981C204.746 358.972 205.898 358.882 207.216 358.675C215.584 357.374 214.966 349.424 214.966 349.424L213.252 282.68L261.946 253.35C261.946 253.35 284.111 240.729 281.906 207.094Z" fill="#D9EFFB"/>
    <path d="M259.648 88.7881C288.171 100.606 287.599 117.451 287.599 117.451C287.599 117.451 282.011 179.212 283.919 220.458C284.716 237.702 192.231 239.018 206.024 193.015C222.285 138.776 216.191 94.8652 223.803 88.2437C231.416 81.6207 252.269 85.7329 259.648 88.7881Z" fill="#5F92D3"/>
    <path d="M268.823 103.725C267.331 109.512 259.743 112.562 251.876 110.536C244.007 108.512 238.838 102.179 240.331 96.3928C241.823 90.6062 249.411 87.5574 257.278 89.5809C265.146 91.6077 270.316 97.9403 268.823 103.725Z" fill="#FAB6A9"/>
    <path d="M252.396 90.3149C247.101 90.3149 242.67 92.7781 241.651 96.7331C241.041 99.1011 241.749 101.688 243.65 104.015C245.647 106.462 248.689 108.31 252.215 109.217C259.343 111.046 266.2 108.436 267.502 103.388C268.112 101.018 267.404 98.4329 265.503 96.1062C263.506 93.6573 260.464 91.8099 256.938 90.9005C255.392 90.5037 253.861 90.3149 252.396 90.3149ZM256.691 112.52C255.019 112.52 253.283 112.306 251.535 111.857C247.45 110.804 243.9 108.632 241.536 105.737C239.074 102.723 238.177 99.2836 239.011 96.0539C240.685 89.5483 249.035 86.0503 257.618 88.2628C261.703 89.3134 265.253 91.4893 267.617 94.3842C270.079 97.3997 270.976 100.837 270.142 104.066C268.808 109.247 263.239 112.52 256.691 112.52Z" fill="white"/>
    <path d="M248.212 87.5034C248.212 87.5034 248.457 88.6461 247.963 97.6767C247.809 100.516 257.757 103.168 260.33 100.599C262.902 98.0291 261.873 95.3564 262.491 85.694C263.108 76.0317 248.212 87.5034 248.212 87.5034Z" fill="#FAB6A9"/>
    <path d="M262.49 85.6943C262.49 85.6943 260.039 94.6536 247.961 98.0897L248.145 89.9478L262.49 85.6943Z" fill="#EB8B8A"/>
    <path d="M270.141 62.932C273.179 74.6623 266.121 86.6291 254.383 89.6621C242.642 92.6935 230.666 85.6435 227.63 73.9132C224.595 62.1845 231.65 50.2177 243.391 47.1831C255.129 44.1517 267.108 51.2033 270.141 62.932Z" fill="#FAB6A9"/>
    <path d="M253.929 69.2277C253.929 69.2277 241.841 74.4017 233.47 74.4604C225.101 74.5207 226.946 67.5168 226.946 67.5168L251.793 63.9284L253.929 69.2277Z" fill="#EB8B8A"/>
    <path d="M230.973 70.5916C230.973 70.5916 241.503 66.1255 250.74 67.9872C252.913 68.4253 254.925 69.587 256.323 71.3027C256.78 71.8629 257.359 72.3755 258.013 72.5231C259.651 72.8945 262.332 66.1033 265.517 65.9494C268.7 65.7938 270.825 68.0459 268.214 72.2232C265.604 76.3989 266.487 81.0729 267.687 81.7427C268.889 82.4124 281.63 72.6628 270.392 50.4179C259.152 28.173 230.605 40.154 226.163 44.663C226.163 44.663 221.487 48.734 217.683 45.1106C217.683 45.1106 213.418 77.0242 230.973 70.5916Z" fill="#3B3A3C"/>
    <path d="M271.597 162.574V179.261C271.597 181.173 270.794 182.997 269.378 184.285L235.066 215.542L238.964 221.498L284.278 188.663C286.392 187.129 287.755 184.773 288.028 182.176L291.092 153.072L271.597 162.574Z" fill="#FAB6A9"/>
    <path d="M285.182 109.106C285.182 109.106 295.593 124.749 299.47 165.92C299.47 165.92 281.689 171.665 271.597 168.402C261.507 165.142 285.182 109.106 285.182 109.106Z" fill="#5F92D3"/>
    <path d="M269.699 128.883C269.699 128.883 265.624 150.675 265.392 160.917C265.329 163.731 267.049 166.272 269.699 167.229V128.883Z" fill="#4067B1"/>
    <path d="M260.796 237.241L253.212 236.241L204.259 208.002C202.69 207.095 199.948 207.21 198.136 208.256L163.447 228.258L158.863 227.652V232.215H158.868C158.836 232.815 159.179 233.394 159.92 233.821L215.399 265.823C216.968 266.731 219.708 266.615 221.521 265.571L259.298 243.786C260.318 243.197 260.825 242.44 260.796 241.729V237.241Z" fill="#263C7A"/>
    <path d="M224.013 219.397L220.536 217.391H182.299L163.447 228.258L158.863 227.652V232.215H158.868C158.836 232.815 159.179 233.394 159.92 233.821L215.399 265.823C216.228 266.303 217.384 266.493 218.558 266.415L224.013 219.397Z" fill="#4067B1"/>
    <path d="M160.898 227.92L158.863 227.651V232.214H158.868C158.836 232.814 159.179 233.394 159.92 233.82L160.898 234.384V227.92Z" fill="#5F92D3"/>
    <path d="M215.957 266.084C217.445 266.648 219.571 266.525 221.159 265.76V258.003H215.957V266.084Z" fill="#2E4B8D"/>
    <path d="M215.398 261.265L159.919 229.262C158.349 228.358 158.546 226.775 160.359 225.731L198.135 203.945C199.947 202.9 202.689 202.786 204.258 203.692L259.738 235.695C261.307 236.6 261.11 238.182 259.298 239.226L221.52 261.012C219.707 262.057 216.967 262.171 215.398 261.265Z" fill="white"/>
    <path d="M214.461 256.417L168.331 229.804C167.025 229.052 167.189 227.736 168.696 226.866L188.939 215.493C190.447 214.623 192.726 214.53 194.03 215.283L240.16 241.893C241.465 242.647 241.302 243.961 239.794 244.831L219.551 256.205C218.046 257.074 215.765 257.167 214.461 256.417Z" fill="#D9EFFB"/>
    <path d="M200.282 202.894L199.709 206.719C199.218 209.979 199.303 213.298 199.958 216.527L200.641 219.897C201.027 221.798 202.531 223.273 204.44 223.619C205.934 223.89 207.341 222.844 207.511 221.338L208.426 213.163C208.426 213.163 210.519 215.902 211.531 215.902C212.541 215.902 210.399 207.714 208.114 203.08C205.827 198.446 200.282 202.894 200.282 202.894Z" fill="#FAB6A9"/>
    <path d="M219.087 142.107L213.135 153.879C211.726 156.662 210.899 159.703 210.699 162.816L208.114 203.081L200.282 202.895L196.727 157.677C196.617 156.28 196.684 154.875 196.93 153.496L200.989 130.566L219.087 142.107Z" fill="#FAB6A9"/>
    <path d="M213.521 264.341L208.868 258.272L159.949 229.972C158.382 229.066 157.112 226.636 157.114 224.544L157.158 184.528L154.344 180.859L156.987 179.329L156.99 179.332C157.495 179.007 158.169 179.016 158.909 179.443L214.347 211.516C215.916 212.422 217.185 214.852 217.184 216.942L217.136 260.524C217.135 261.702 216.731 262.517 216.099 262.847L213.521 264.341Z" fill="#263C7A"/>
    <path d="M179.69 241.395L176.217 239.382L157.138 206.273L157.158 184.528L154.344 180.859L156.987 179.329L156.99 179.332C157.495 179.007 158.169 179.016 158.909 179.443L214.347 211.516C215.176 211.993 215.919 212.901 216.437 213.957L179.69 241.395Z" fill="#4067B1"/>
    <path d="M155.592 182.486L154.344 180.859L156.987 179.329L156.99 179.332C157.495 179.007 158.169 179.016 158.909 179.443L159.884 180.008L155.592 182.486Z" fill="#5F92D3"/>
    <path d="M214.85 211.869C216.081 212.876 217.036 214.779 217.166 216.535L211.748 219.66L209.152 215.155L214.85 211.869Z" fill="#2E4B8D"/>
    <path d="M211.704 213.042L156.266 180.97C154.697 180.064 153.424 181.024 153.421 183.114L153.375 226.694C153.372 228.785 154.639 231.216 156.209 232.124L211.648 264.195C213.216 265.101 214.49 264.142 214.493 262.05L214.539 218.47C214.541 216.38 213.273 213.95 211.704 213.042Z" fill="#5F92D3"/>
    <path d="M238.963 221.498L238.075 223.338C237.052 225.455 235.445 227.235 233.442 228.469L227.934 231.86C226.222 232.916 224.052 233.003 222.313 231.99L222.125 231.878C220.375 230.781 220.218 228.27 221.657 226.791L227.412 220.881C227.412 220.881 224.179 223.355 223.274 222.36C222.61 221.628 226.408 218.064 229.324 217.946C232.242 217.83 235.065 215.542 235.065 215.542L238.963 221.498Z" fill="#FAB6A9"/>
    <path d="M224.371 88.1564C224.371 88.1564 203.276 111.092 194.766 132.132C194.766 132.132 201.979 145.118 219.637 150.214C237.296 155.309 224.371 88.1564 224.371 88.1564Z" fill="#5F92D3"/>
    <path d="M215.668 148.852L219.088 115.85L211.031 146.771C212.467 147.517 214.021 148.214 215.668 148.852Z" fill="#4067B1"/>
    <path d="M240.171 83.5281L234.504 81.9711C234.504 81.9711 237.211 86.2262 241.161 87.3102C245.113 88.3942 245.726 85.0533 245.726 85.0533L240.171 83.5281Z" fill="white"/>
    <path d="M132.585 4.56022C125.739 4.56022 120.171 10.1231 120.171 16.9619C120.171 23.8024 125.739 29.3652 132.585 29.3652C139.43 29.3652 144.997 23.8024 144.997 16.9619C144.997 10.1231 139.43 4.56022 132.585 4.56022ZM132.585 32.8282C123.83 32.8282 116.707 25.7101 116.707 16.9619C116.707 8.21535 123.83 1.09714 132.585 1.09714C141.339 1.09714 148.463 8.21535 148.463 16.9619C148.463 25.7101 141.339 32.8282 132.585 32.8282Z" fill="#D9EFFB"/>
    <path d="M453.585 128.113C449.286 128.113 445.789 131.606 445.789 135.901C445.789 140.194 449.286 143.687 453.585 143.687C457.881 143.687 461.378 140.194 461.378 135.901C461.378 131.606 457.881 128.113 453.585 128.113ZM453.585 147.15C447.377 147.15 442.324 142.103 442.324 135.901C442.324 129.698 447.377 124.65 453.585 124.65C459.792 124.65 464.843 129.698 464.843 135.901C464.843 142.103 459.792 147.15 453.585 147.15Z" fill="#5F92D3"/>
    <path d="M81.4039 336.445L85.9881 345.763L95.3138 341.184L90.7296 331.866L81.4039 336.445ZM84.4092 350.397L76.7656 334.867L92.3085 327.232L99.952 342.762L84.4092 350.397Z" fill="#5F92D3"/>
    <path d="M307 95.7206L311.584 105.04L320.91 100.46L316.327 91.1402L307 95.7206ZM310.005 109.674L302.363 94.1414L317.906 86.5058L325.548 102.037L310.005 109.674Z" fill="#5F92D3"/>
    <path d="M67.049 262.827L59.9027 266.338L56.3906 259.196L63.5354 255.687L67.049 262.827Z" fill="#5F92D3"/>
    <path d="M343.598 25.4002L301.125 0.899956C300.285 0.415894 299.524 0.396866 298.928 0.723808L298.931 0.6968L294.812 3.07433C294.812 3.07433 296.636 3.73773 297.708 4.13292V35.0355C297.708 37.5495 299.238 40.4714 301.125 41.5602L341.721 64.9779V68.6045L345.882 66.2095L345.86 66.2016C346.564 65.7715 347.015 64.8335 347.015 63.4797V31.9248C347.015 29.4092 345.485 26.4889 343.598 25.4002Z" fill="#A7DBF1"/>
    <path d="M339.402 68.4772L296.93 43.9754C295.041 42.8867 293.512 39.9664 293.512 37.4524V5.89748C293.512 3.3835 295.041 2.22649 296.93 3.31525L339.402 27.8171C341.289 28.9058 342.818 31.8261 342.818 34.3417V65.8966C342.818 68.4106 341.289 69.566 339.402 68.4772Z" fill="#0D88BC"/>
    <path d="M311.213 33.1008C311.213 34.9276 309.93 35.6688 308.346 34.7546C306.764 33.842 305.48 31.6216 305.48 29.7949C305.48 27.9697 306.764 27.2301 308.346 28.1427C309.93 29.0569 311.213 31.2757 311.213 33.1008Z" fill="white"/>
    <path d="M319.897 38.1108C319.897 39.936 318.613 40.6756 317.031 39.763C315.449 38.8504 314.164 36.6285 314.164 34.8033C314.164 32.9765 315.449 32.2385 317.031 33.1511C318.613 34.0637 319.897 36.2825 319.897 38.1108Z" fill="white"/>
    <path d="M328.575 43.1186C328.575 44.9438 327.293 45.6834 325.709 44.7708C324.127 43.8582 322.844 41.6379 322.844 39.8111C322.844 37.9859 324.127 37.2463 325.709 38.1589C327.293 39.0715 328.575 41.2934 328.575 43.1186Z" fill="white"/>
    <path d="M49.9924 293.867L8.32612 269.831C7.50172 269.355 6.75519 269.336 6.17223 269.657L6.17537 269.631L2.13281 271.963C2.13281 271.963 3.923 272.617 4.97295 273.001V303.318C4.97295 305.786 6.474 308.652 8.32612 309.719L48.1514 332.694V336.25L52.2353 333.901L52.213 333.893C52.9024 333.473 53.3456 332.549 53.3456 331.222V300.266C53.3456 297.801 51.8445 294.935 49.9924 293.867Z" fill="#5F92D3"/>
    <path d="M45.8788 336.124L4.21258 312.089C2.36046 311.021 0.859375 308.155 0.859375 305.688V274.733C0.859375 272.267 2.36046 271.132 4.21258 272.2L45.8788 296.235C47.7309 297.303 49.232 300.17 49.232 302.638V333.593C49.232 336.059 47.7309 337.194 45.8788 336.124Z" fill="#D9EFFB"/>
    <path d="M18.2207 301.422C18.2207 303.212 16.9627 303.939 15.4092 303.042C13.8573 302.147 12.5977 299.97 12.5977 298.178C12.5977 296.386 13.8573 295.661 15.4092 296.558C16.9627 297.451 18.2207 299.63 18.2207 301.422Z" fill="white"/>
    <path d="M26.7403 306.334C26.7403 308.126 25.4822 308.853 23.9287 307.956C22.3752 307.061 21.1172 304.882 21.1172 303.092C21.1172 301.3 22.3752 300.573 23.9287 301.468C25.4822 302.365 26.7403 304.544 26.7403 306.334Z" fill="white"/>
    <path d="M35.2543 311.246C35.2543 313.038 33.9962 313.765 32.4443 312.87C30.8908 311.973 29.6328 309.794 29.6328 308.004C29.6328 306.213 30.8908 305.485 32.4443 306.381C33.9962 307.277 35.2543 309.456 35.2543 311.246Z" fill="white"/>
</svg>
