<svg width="466" height="312" viewBox="0 0 466 312" fill="none" xmlns="http://www.w3.org/2000/svg">
	<path opacity="0.3" d="M31.5161 289.982C31.5161 289.982 -15.3661 170.32 77.0182 170.32C125.837 170.32 105.712 137.498 138.917 99.49C172.101 61.5022 288.153 31.1612 312.85 104.513C337.548 177.885 276.515 233.585 335.488 224.032C406.368 212.551 434.382 289.982 434.382 289.982H31.5161Z" fill="#B3E8FF"/>
	<path d="M148.539 270.076H67.875V288.198H148.539V270.076Z" fill="#6D89CF"/>
	<path d="M123.675 270.076H43.0117V288.198H123.675V270.076Z" fill="#3662C1"/>
	<path d="M180.255 288.2H240.32V204.659H180.255V288.2Z" fill="#AF4E4E"/>
	<path d="M161.739 288.2H221.805V204.659H161.739V288.2Z" fill="#E75755"/>
	<path d="M221.805 204.659L240.323 217.205V204.659H221.805Z" fill="#A83F3F"/>
	<path d="M275.384 86.7181C274.457 86.5746 271.655 89.1577 271.655 89.1577C265.682 89.8547 256.948 91.4333 253.796 92.0278C251.572 92.4583 245.578 90.4287 239.728 88.0917C232.765 85.3036 225.988 82.1055 225.988 82.1055C222.116 81.9005 217.728 88.9322 225.577 93.3808C226.771 94.0574 231.262 95.2259 236.453 96.292C243.6 97.7475 252.025 99.0185 254.888 98.588C258.225 98.0755 267.659 94.6314 273.283 92.0073C273.283 92.0073 273.283 92.0073 273.303 92.0073C273.324 92.0073 273.344 91.9868 273.365 91.9868C273.695 91.8228 275.075 91.2283 276.002 91.2693C277.052 91.3308 279.4 89.4242 279.462 88.9117C279.524 88.3377 276.311 86.8411 275.384 86.7181Z" fill="#EA8888"/>
	<path d="M268.093 175.097L264.797 175.753C264.797 175.753 249.739 158.921 247.412 151.828C246.176 148.036 238.225 146.416 229.924 144.263C222.694 142.398 215.196 140.163 211.612 135.797C203.908 126.407 216.452 114.865 216.452 114.865C216.452 114.865 229.779 122.738 241.273 130.897C249.307 136.596 256.455 142.398 257.526 145.74C260.142 153.878 265.683 169.336 268.093 175.097Z" fill="#0B0754"/>
	<path d="M263.683 180.653H265.537C266.155 180.55 266.609 180.386 267.247 180.304C268.215 180.181 268.648 180.571 268.751 180.653C268.771 180.673 268.771 180.673 268.771 180.673H276.64C276.846 180.386 276.64 179.751 276.455 179.258C276.331 178.93 276.063 178.684 275.713 178.582C274.889 178.336 273.241 178.131 271.738 176.778C270.893 176.019 267.659 173.969 267.659 173.969H267.638C267.577 173.969 267.226 174.072 265.764 175.322C265.002 175.958 263.704 174.42 263.704 174.42C263.704 174.42 263.457 174.625 263.272 174.994C263.127 175.281 263.024 175.691 263.107 176.204C263.23 176.901 262.839 178.213 262.551 179.094C262.365 179.627 262.221 180.017 262.221 180.017C262.221 180.017 262.097 180.448 263.683 180.653Z" fill="#060632"/>
	<path d="M241.273 130.898L229.924 144.284C222.694 142.419 215.196 140.184 211.612 135.818C203.908 126.428 216.452 114.886 216.452 114.886C216.452 114.886 229.779 122.759 241.273 130.898Z" fill="#060632"/>
	<path d="M230.974 123.906C230.974 123.906 230.068 126.776 228.564 131.102C226.69 136.555 223.868 144.345 220.84 151.561C220.18 153.14 219.501 154.698 218.8 156.195C216.267 161.75 213.671 166.506 211.405 168.925C207.306 173.272 197.357 201.214 197.357 201.214L194.865 200.538C194.865 200.538 191.404 176.675 203.66 163.103C203.784 162.96 203.887 162.796 203.908 162.591C204.072 160.582 204.649 151.582 205.926 142.459C206.235 140.225 206.585 137.969 206.997 135.837C207.018 135.694 207.039 135.571 207.08 135.427C208.954 125.485 210.726 121.077 213.033 118.842L229.985 123.639L230.974 123.906Z" fill="#0B0754"/>
	<path d="M194.574 204.638H196.428C197.046 204.536 197.499 204.372 198.138 204.29C199.106 204.167 199.538 204.556 199.641 204.638C199.662 204.659 199.662 204.659 199.662 204.659H207.531C207.737 204.372 207.531 203.736 207.345 203.244C207.222 202.916 206.954 202.67 206.604 202.568C205.78 202.322 204.132 202.117 202.628 200.764C201.784 200.005 198.55 197.955 198.55 197.955H198.529C198.467 197.955 198.117 198.058 196.655 199.308C195.892 199.944 194.595 198.406 194.595 198.406C194.595 198.406 194.348 198.611 194.162 198.98C194.018 199.267 193.915 199.677 193.997 200.19C194.121 200.887 193.73 202.199 193.441 203.08C193.256 203.613 193.112 204.003 193.112 204.003C193.112 204.003 192.988 204.433 194.574 204.638Z" fill="#060632"/>
	<path d="M198.221 91.474C198.221 91.474 195.378 98.3827 192.124 105.107C189.363 110.765 186.315 116.28 184.378 117.448C181.639 119.109 174.12 123.804 169.239 127.289C169.239 127.289 165.428 127.268 164.83 127.986C164.233 128.703 162.874 131.983 163.265 132.311C163.656 132.639 166.684 132.496 167.426 131.737C168.064 131.081 169.506 130.61 169.856 130.507C169.877 130.507 169.898 130.487 169.918 130.487H169.939C175.871 128.662 185.182 124.89 188.004 123.045C190.434 121.446 195.811 114.865 200.095 109.002C203.206 104.758 205.739 100.884 206.172 99.5717C208.932 90.9819 200.94 88.7269 198.221 91.474Z" fill="#FC9290"/>
	<path d="M213.05 64.3929C212.72 63.9009 212.37 63.4703 212.04 63.0808C212.452 63.0808 212.906 63.0398 213.297 62.8963C214.286 62.4863 214.739 59.3497 214.595 58.4067C214.451 57.4841 213.07 54.778 211.361 54.5115C209.651 54.245 207.9 56.1311 207.9 56.1311C208.209 54.778 211.093 53.9785 211.093 53.9785C205.161 55.0651 205.449 59.0217 205.49 59.3702C200.052 57.4431 196.859 67.632 196.859 67.632L210.949 75.8938C210.949 75.8938 210.99 73.6387 212.329 73.7822C214.409 74.0282 216.16 68.903 213.05 64.3929Z" fill="#0B0754"/>
	<path d="M213.935 85.7747C210.701 87.2917 206.416 85.0981 206.437 85.0776C206.705 84.8111 206.622 83.9706 206.355 82.9046C206.107 81.777 205.51 80.2395 204.398 78.3944C204.171 78.0049 203.945 77.6154 203.656 77.2054L204.027 77.0619L210.31 74.5608C210.31 74.5608 211.319 76.3853 212.39 78.0254C213.296 79.3989 214.244 80.6495 214.656 80.6085C214.676 80.588 218.837 83.4376 213.935 85.7747Z" fill="#FC9290"/>
	<path d="M210.31 75.1758C210.145 77.4103 209.383 81.4285 206.355 82.9045C206.108 81.777 205.511 80.2394 204.398 78.3944L210.31 75.1758Z" fill="#EA8888"/>
	<path d="M204.051 80.9365C204.051 80.9365 212.229 77.7384 210.149 72.6952C208.068 67.652 207.718 63.8594 202.404 65.684C197.089 67.529 196.883 69.8456 197.171 71.7112C197.439 73.5562 201.868 81.654 204.051 80.9365Z" fill="#FC9290"/>
	<path d="M207.098 71.5471C210.868 71.0141 211.98 69.4971 211.98 69.4971C211.98 69.4971 208.499 68.513 206.46 65.1099C206.46 65.1099 202.216 63.6954 199.065 66.0735C198.879 66.3195 198.735 66.6065 198.673 66.955C197.952 66.7295 196.861 66.791 196.243 68.8001C195.295 71.8547 198.653 75.1758 198.653 75.1758C199.456 74.9503 198.55 72.2237 198.426 70.7886C198.323 69.7226 198.9 68.349 199.23 67.7135C199.621 68.226 203.617 73.2077 208.478 73.4127C208.478 73.4127 205.903 72.5312 203.576 70.7886C204.709 71.3626 205.945 71.7111 207.098 71.5471Z" fill="#0B0754"/>
	<path d="M229.508 96.1687C229.446 95.9227 229.364 95.6767 229.281 95.4101C230.497 93.0936 231.094 91.023 231.341 89.2599C231.897 85.5288 230.95 83.2327 230.95 83.2327C230.95 83.2327 225.285 80.2396 222.772 79.8501C222.752 79.8501 222.752 79.8501 222.731 79.8501C222.71 79.8501 222.669 79.8501 222.628 79.8501C220.094 79.5016 214.636 80.6086 214.636 80.6086C214.636 80.6086 215.686 83.3967 212.72 85.2623C209.733 87.1279 206.561 84.7908 206.561 84.7908C206.458 84.8523 206.355 84.9343 206.252 84.9958C206.252 84.9958 198.425 90.1415 197.704 91.31C197.003 92.4785 193.996 98.3008 193.996 98.3008C193.996 98.3008 194.944 103.18 205.531 103.59C206.396 105.681 207.076 107.731 207.282 109.453C208.127 116.095 207.138 121.323 208.127 125.198C209.115 129.072 226.768 126.858 229.982 126.12C233.174 125.382 232.453 121.979 232.701 118.678C233.03 114.537 230.558 99.8178 229.508 96.1687Z" fill="#3662C1"/>
	<path d="M231.365 89.26C231.118 91.023 230.521 93.1141 229.285 95.4511C229.017 94.2416 227.884 89.7725 226.051 87.7429C226.051 87.7429 229.12 88.0094 231.365 89.26Z" fill="#3E4DCE"/>
	<path d="M159.43 132.742C159.43 132.742 162.725 128.764 163.426 128.293C164.126 127.821 167.237 127.001 167.422 127.165C167.607 127.329 167.607 127.575 167.216 127.903C166.825 128.252 165.362 129.092 165.568 129.195C165.774 129.297 170.223 127.083 170.862 127.842C171.5 128.58 170.491 131.635 168.781 133.09C167.072 134.546 161.963 135.181 161.654 135.386C158.935 137.129 159.43 132.742 159.43 132.742Z" fill="#EA8888"/>
	<path d="M101.488 123.579C101.488 123.579 106.226 129.155 112.241 126.818C112.241 126.818 113.538 123.702 113.559 121.406C113.559 121.119 113.559 120.852 113.559 120.586C113.6 118.003 113.683 116.547 113.683 116.547C113.415 116.424 104.475 112.775 104.496 113.082C104.619 120.094 101.488 123.579 101.488 123.579Z" fill="#FC9290"/>
	<path d="M105.361 114.763C106.226 116.341 109.172 119.457 113.538 120.585C113.58 118.002 113.662 116.546 113.662 116.546C113.415 116.485 105.114 114.291 105.361 114.763Z" fill="#EA8888"/>
	<path d="M115.537 116.28C115.537 116.28 105.485 118.638 104.125 112.385C102.745 106.132 100.521 102.237 106.886 100.474C113.23 98.711 115.022 100.823 115.99 102.791C116.958 104.759 118.132 115.501 115.537 116.28Z" fill="#FC9290"/>
	<path d="M104.475 114.086C104.331 114.168 102.168 114.824 98.0897 106.727C97.4511 105.456 97.0185 102.688 98.5016 100.269C100.005 97.8294 105.299 95.9228 109.728 95.0823C114.136 94.2418 115.207 96.7223 116.237 99.2029C117.329 101.807 120.48 103.959 120.48 103.959C116.669 106.071 112.097 103.057 110.511 103.549C108.924 104.041 108.368 106.542 108.245 107.342C108.121 108.141 107.936 108.797 105.938 108.1C103.94 107.383 105.031 110.909 105.361 111.585C105.34 111.565 105.608 113.348 104.475 114.086Z" fill="#9E332E"/>
	<path d="M78.6028 270.076H72.5262C71.2491 270.076 69.8278 268.784 69.4776 266.427C69.1275 264.069 66.5115 262.778 65.9347 260.85C65.3579 258.923 68.2829 256.197 68.2829 256.197L68.7773 255.561L69.2923 254.905L74.1123 256.053C74.1123 256.053 74.2359 257.201 74.2977 258.677C74.3595 259.743 74.3801 260.973 74.3183 262.06C74.1741 264.643 75.0392 267.411 77.3051 267.903C79.5297 268.415 78.6028 270.076 78.6028 270.076Z" fill="#060632"/>
	<path d="M120.934 270.138H104.806C104.661 270.097 104.538 270.076 104.455 270.035C103.384 269.481 103.714 265.258 103.837 263.946C103.858 263.7 103.879 263.557 103.879 263.557C103.879 263.557 109.543 258.903 110.326 262.47C110.347 262.573 110.388 262.696 110.408 262.798C111.397 266.119 115.785 267.636 118.339 268.067C120.296 268.395 120.811 269.563 120.934 270.138Z" fill="#060632"/>
	<path d="M117.676 177.372C117.676 177.372 116.811 188.052 115.802 200.906C114.422 218.352 112.774 239.796 112.609 243.855C112.321 250.908 111.188 262.183 111.188 262.183C111.188 262.183 108.489 264.869 103.113 263.741C103.113 263.741 98.3136 247.628 96.9335 230.591C96.9129 230.304 96.8923 230.038 96.8717 229.751C95.5946 212.407 93.6172 175.875 93.6172 175.875L117.676 177.372Z" fill="#ED6966"/>
	<path d="M117.676 177.372C117.676 177.372 116.811 188.053 115.802 200.907L96.9335 230.612C96.9129 230.325 96.8923 230.059 96.8717 229.772C95.5946 212.428 93.6172 175.896 93.6172 175.896L117.676 177.372Z" fill="#E75755"/>
	<path d="M113.764 178.622C113.764 178.622 98.2532 217.328 88.0363 235.532C77.84 253.716 74.6473 258.801 74.6473 258.801C74.6473 258.801 68.7973 256.463 68.2617 254.885C68.2617 254.885 72.1548 219.767 78.9936 211.198C82.8455 206.36 87.3978 191.845 87.6038 186.761C87.8097 181.677 88.9839 171.632 88.9839 171.632L113.764 178.622Z" fill="#ED6966"/>
	<path d="M78.2325 172.185C78.2325 172.185 77.8205 177.023 77.5321 177.761C77.2437 178.499 75.2663 180.795 75.0397 180.775C74.8131 180.734 74.6689 180.57 74.7925 180.098C74.9161 179.627 75.5753 178.192 75.3693 178.212C75.1633 178.253 72.9181 182.333 72.0117 182.087C71.126 181.861 70.2402 178.95 70.7758 176.921C71.3114 174.871 74.9161 171.652 75.0603 171.324C76.2344 168.536 78.2325 172.185 78.2325 172.185Z" fill="#EA8888"/>
	<path d="M76.5631 173.415C78.2727 173.969 78.5611 173.846 78.5611 173.846C78.5611 173.846 86.9241 158.696 87.7686 157.322C88.6131 155.928 105.524 140.327 105.524 140.327L101.178 124.213C101.178 124.213 81.9598 148.978 79.8794 152.545C76.4395 158.429 74.4414 172.062 74.4414 172.062C74.4414 172.062 75.2036 172.985 76.5631 173.415Z" fill="#060632"/>
	<path d="M120.954 146.641C120.892 149.942 120.707 153.673 120.439 157.445C120.418 157.671 120.398 157.896 120.398 158.122C120.233 160.459 120.047 162.816 119.841 165.092C119.759 166.014 119.677 166.916 119.574 167.798L119.553 167.921C119.553 168.249 119.512 168.618 119.471 168.946C118.626 177.515 117.74 184.281 117.576 184.404C117.37 184.527 117.164 184.609 116.916 184.568C114.651 184.281 107.915 184.793 102.395 183.604C97.7393 182.62 93.7226 180.775 89.4793 178.274C88.9232 177.946 87.6255 177.064 87.7284 176.408C87.8314 175.691 88.0168 174.645 88.264 173.333C89.1085 168.782 90.5504 160.93 91.0448 151.746C91.1478 150.044 91.2714 148.343 91.4568 146.682C91.9305 142.357 92.6927 138.257 93.702 134.607C95.5971 127.822 98.3779 122.635 101.859 120.605C102.312 120.359 104.763 121.897 107.009 123.332C109.089 124.665 111.273 125.034 113.415 124.849L115.289 126.92C117.555 129.544 119.965 133.049 120.645 138.011C120.686 138.38 120.727 138.769 120.768 139.179C120.974 141.209 121.016 143.771 120.954 146.641Z" fill="#120E59"/>
	<path d="M120.953 146.642C120.891 149.942 120.706 153.673 120.438 157.445C120.417 157.671 120.397 157.896 120.397 158.122C107.502 150.086 105.504 135.366 105.504 135.366C111.848 135.653 116.895 137.088 120.788 139.179C120.973 141.209 121.015 143.772 120.953 146.642Z" fill="#060632"/>
	<path d="M161.389 133.132C160.73 131.348 159.7 131.451 159.7 131.451C159.7 131.451 140.523 136.207 138.792 136.412C137.062 136.617 118.132 129.052 118.132 129.052C118.132 129.052 110.675 125.731 107.194 128.765C104.166 131.41 104.022 134.751 104.722 137.56C105.567 140.902 108.409 143.382 111.849 143.813C119.574 144.797 134.982 146.642 138.215 146.191C145.404 145.186 161.698 135.838 161.698 135.838C161.698 135.838 161.904 134.546 161.389 133.132Z" fill="#120E59"/>
	<path d="M350.545 168.126C350.545 168.126 353.202 170.586 352.688 172.329C352.173 174.071 349.763 175.24 349.433 177.372C349.103 179.504 347.806 180.673 346.632 180.673C345.458 180.673 341.049 180.673 341.049 180.673C341.049 180.673 340.184 179.176 342.265 178.725C344.345 178.274 345.128 175.773 345.004 173.436C344.881 171.099 345.19 168.003 345.19 168.003L349.618 166.978L350.545 168.126Z" fill="#0B0754"/>
	<path d="M317.32 180.386C317.052 180.529 316.104 180.611 314.786 180.673H302.18C302.221 180.304 302.509 178.971 304.569 178.643C306.897 178.274 310.934 176.921 311.84 173.948C311.861 173.846 311.902 173.764 311.923 173.661C312.644 170.484 317.835 174.625 317.835 174.625C317.835 174.625 317.855 174.748 317.876 174.973C317.999 176.142 318.308 179.914 317.32 180.386Z" fill="#0B0754"/>
	<path d="M305.207 95.615C305.207 95.615 305.99 105.414 306.917 117.202C308.173 133.213 309.698 152.894 309.842 156.605C310.109 163.083 311.139 173.436 311.139 173.436C311.139 173.436 313.611 175.896 318.555 174.85C318.555 174.85 322.963 160.069 324.219 144.448C324.24 144.202 324.261 143.935 324.281 143.669C325.455 127.76 327.268 94.2415 327.268 94.2415L305.207 95.615Z" fill="#6D89CF"/>
	<path d="M305.207 95.615C305.207 95.615 305.99 105.414 306.917 117.202L324.219 144.448C324.24 144.202 324.261 143.935 324.281 143.669C325.455 127.76 327.268 94.2415 327.268 94.2415L305.207 95.615Z" fill="#3662C1"/>
	<path d="M308.812 96.7634C308.812 96.7634 323.046 132.291 332.418 148.979C341.77 165.666 344.695 170.32 344.695 170.32C344.695 170.32 350.051 168.188 350.545 166.732C350.545 166.732 346.961 134.505 340.699 126.653C337.156 122.205 332.995 108.9 332.81 104.246C332.624 99.5925 331.533 90.3672 331.533 90.3672L308.812 96.7634Z" fill="#6D89CF"/>
	<path d="M264.897 77.5133C264.897 77.5133 261.045 76.6318 260.386 76.6728C259.726 76.7138 257.461 77.6568 257.44 77.8413C257.419 78.0258 257.522 78.1693 257.914 78.2103C258.305 78.2308 259.603 78.0668 259.521 78.2308C259.438 78.3948 255.71 79.1124 255.669 79.8709C255.627 80.6089 257.667 82.003 259.397 82.1055C261.127 82.208 264.505 80.1989 264.794 80.1784C267.266 79.9324 264.897 77.5133 264.897 77.5133Z" fill="#FC9290"/>
	<path d="M263.249 78.4764C262.693 76.7133 262.816 76.4468 262.816 76.4468C262.816 76.4468 278.471 68.021 279.893 67.16C281.334 66.299 297.504 49.1809 297.504 49.1809L314.066 53.7116C314.066 53.7116 288.42 73.1462 284.754 75.2373C278.677 78.7019 264.629 80.6495 264.629 80.6495C264.629 80.6495 263.682 79.8704 263.249 78.4764Z" fill="#E75755"/>
	<path d="M302.53 40.8576C302.53 40.8576 296.721 51.0259 291.036 52.3585C291.036 52.3585 291.263 48.9348 292.663 46.5978C292.107 45.9417 291.592 45.3267 291.16 44.7732C289.738 42.9486 289.059 41.8416 289.059 41.8416L290.995 36.6959L292.293 33.1903C292.91 34.3178 293.611 35.3019 294.332 36.1219C298.06 40.3656 302.53 40.8576 302.53 40.8576Z" fill="#FC9290"/>
	<path d="M294.351 36.1224C294.351 36.1224 295.052 41.2271 291.179 44.7942C289.758 42.9696 289.078 41.8626 289.078 41.8626L291.014 36.7169C293.054 36.0609 294.351 36.1224 294.351 36.1224Z" fill="#EA8888"/>
	<path d="M287.536 42.6005C287.536 42.6005 296.208 39.2384 294.025 33.8877C291.841 28.5371 291.471 24.4984 285.847 26.4255C280.224 28.3526 279.977 30.8331 280.265 32.7807C280.574 34.7488 285.229 43.3386 287.536 42.6005Z" fill="#FC9290"/>
	<path d="M332.379 93.0522C328.877 98.0543 302.696 104.758 303.005 101.293C303.129 99.9609 303.294 97.6238 303.005 94.4462C302.943 93.7082 302.84 92.9087 302.717 92.0886C302.058 87.5375 300.472 81.6743 296.949 74.8886C296.682 74.376 296.414 73.8635 296.125 73.351C294.683 70.7269 293.448 67.9593 292.5 65.2327C290.687 60.0256 289.946 55.0234 290.873 51.7638C290.873 51.7433 290.873 51.7433 290.893 51.7228C296.373 49.2012 298.494 39.4429 298.494 39.4429C298.494 39.4429 317.156 42.7845 327.62 67.5493C327.6 67.5288 335.427 88.6855 332.379 93.0522Z" fill="#ED6966"/>
	<path d="M303.005 94.4467C302.943 93.7086 302.84 92.9091 302.717 92.0891C302.058 87.5379 300.472 81.6747 296.949 74.889C297.547 71.2399 298.391 68.2058 299.297 66.8322C303.026 61.2766 305.189 60.4155 305.189 60.4155C305.189 60.4155 310.791 83.8478 303.005 94.4467Z" fill="#E75755"/>
	<path d="M273.567 88.8704C273.567 88.8704 268.396 89.1369 267.593 89.4239C266.79 89.7109 264.277 91.6994 264.297 91.9454C264.318 92.1914 264.524 92.3349 265.018 92.2324C265.513 92.1299 267.078 91.4534 267.037 91.6789C266.996 91.9044 262.567 94.139 262.794 95.1025C263.02 96.0455 266.069 97.0706 268.273 96.5786C270.477 96.0865 274.02 92.3759 274.37 92.2324C277.398 91.0844 273.567 88.8704 273.567 88.8704Z" fill="#FC9290"/>
	<path d="M272.597 90.8181C271.568 89.1576 272.309 88.399 272.309 88.399C272.309 88.399 288.252 75.9756 289.509 74.7046C290.765 73.454 296.553 53.4454 296.553 53.4454C296.553 53.4454 298.552 45.3476 303.207 44.4661C307.265 43.6871 310.066 45.6961 311.899 48.0332C314.083 50.8213 314.309 54.6754 312.476 57.7095C308.398 64.5362 300.179 78.1077 297.789 80.4243C292.454 85.57 274.575 92.7862 274.575 92.7862C274.575 92.7862 273.421 92.1302 272.597 90.8181Z" fill="#ED6966"/>
	<path d="M295.28 23.9449C295.342 23.8219 295.528 23.6989 295.94 23.5758C295.94 23.5758 295.528 23.4323 295.074 23.5348C294.827 22.9403 294.23 21.9358 293.118 21.9358C293.118 21.9358 293.756 22.0998 293.983 22.7353C292.458 21.7718 289.636 21.5053 282.592 23.8219C273.302 26.897 277.936 32.2681 279.358 32.6987C280.758 33.1292 283.354 30.3616 285.681 29.9926C288.009 29.6236 289.266 32.8422 290.151 33.1087C291.037 33.3752 290.543 32.6372 291.47 31.8991C292.397 31.1611 292.932 32.9037 292.912 34.1132C292.891 35.3227 294.704 36.4913 294.704 36.4913C294.704 36.4913 294.704 36.4913 295.775 34.5437C296.846 32.5962 296.557 25.5439 295.528 24.2934C295.466 24.1704 295.363 24.0679 295.28 23.9449Z" fill="#0B0754"/>
	<path d="M445.672 290.064H28.3459C27.9546 290.064 27.625 289.736 27.625 289.347V288.896C27.625 288.506 27.9546 288.178 28.3459 288.178H445.672C446.063 288.178 446.393 288.506 446.393 288.896V289.347C446.393 289.757 446.063 290.064 445.672 290.064Z" fill="#010117"/>
	<path d="M148.535 269.871V280.326L123.652 269.871H148.535Z" fill="#BED2FA"/>
	<path d="M361.359 180.693H279.109V288.198H361.359V180.693Z" fill="#6D89CF"/>
	<path d="M336.004 180.693H253.754V288.219H336.004V180.693Z" fill="#3662C1"/>
	<path d="M361.361 180.693V196.765L336.004 180.693H361.361Z" fill="#BED2FA"/>
</svg>
