<svg width="554" height="477" viewBox="0 0 554 477" fill="none" xmlns="http://www.w3.org/2000/svg">
    <g clip-path="url(#clip0)">
    <path d="M-101.75 605.627H635.22V-131.524H-101.75V605.627Z" fill="white"/>
    <path d="M441.701 396.36C443.873 397.613 445.63 400.661 445.623 403.155C445.616 405.668 443.847 406.676 441.676 405.421L405.9 384.762C403.728 383.507 401.969 380.461 401.977 377.951C401.984 375.455 403.754 374.445 405.925 375.701L441.701 396.36Z" fill="#74D2EA"/>
    <path d="M5.50691 287.312C2.14692 287.312 -0.182642 284.639 -0.195908 280.031L-0.484353 178.262C-0.49187 175.515 1.44783 172.143 3.82692 170.769L64.4349 135.768C66.0621 134.829 67.6038 134.385 68.9746 134.385C72.3352 134.385 74.664 137.058 74.6773 141.664L74.9661 243.433C74.9735 246.18 73.0323 249.553 70.6549 250.927L10.0456 285.927C8.41912 286.866 6.87723 287.312 5.50691 287.312Z" fill="#9BDEEC"/>
    <path d="M13.1271 207.651C12.4149 208.062 11.8414 209.056 11.8438 209.87L11.8586 215.273C11.861 216.091 12.4391 216.42 13.1507 216.01L62.5679 187.472C63.2798 187.061 63.8532 186.066 63.8517 185.247L63.837 179.844C63.834 179.03 63.2562 178.702 62.5443 179.113L13.1271 207.651Z" fill="white"/>
    <path d="M13.1629 219.413C12.4507 219.824 11.8773 220.818 11.8789 221.636L11.8945 227.041C11.8967 227.859 12.4742 228.182 13.1864 227.772L62.6042 199.234C63.3162 198.823 63.8895 197.833 63.888 197.015L63.8718 191.61C63.8703 190.792 63.2926 190.463 62.5807 190.875L13.1629 219.413Z" fill="white"/>
    <path d="M32.4514 228.172C30.7644 229.145 29.404 231.507 29.4102 233.441L29.4137 234.681C29.4183 236.62 30.788 237.399 32.4745 236.426L48.4572 227.196C50.1448 226.221 51.5097 223.862 51.5038 221.924L51.5008 220.684C51.4949 218.75 50.1212 217.967 48.435 218.941L32.4514 228.172Z" fill="url(#paint0_linear)"/>
    <path d="M479.904 167.411L203.112 7.56432C203.103 7.55989 203.094 7.55402 203.085 7.54961C203.082 7.54665 203.078 7.54517 203.075 7.5437C203.071 7.54074 203.065 7.5378 203.059 7.53484C203.054 7.53189 203.05 7.52893 203.044 7.52599C203.041 7.52452 203.038 7.52159 203.034 7.52013C203.028 7.5157 203.021 7.51274 203.015 7.50832C203.013 7.50832 203.013 7.50832 203.012 7.50832C200.589 6.12541 198.298 5.47083 196.264 5.47083C194.912 5.47083 193.673 5.76126 192.587 6.32002C192.585 6.32002 192.584 6.32002 192.584 6.32149C192.578 6.32445 192.573 6.32739 192.567 6.32887C192.463 6.38342 192.36 6.43944 192.258 6.49988L202.371 0.621857C202.761 0.394806 203.172 0.204651 203.603 0.0498352C203.931 -0.065155 204.27 -0.156586 204.62 -0.228821L204.648 -0.236237L204.668 -0.242065C204.954 -0.299561 205.248 -0.342377 205.547 -0.368912C205.806 -0.392502 206.069 -0.405731 206.337 -0.407211C206.346 -0.407211 206.353 -0.407211 206.36 -0.407211C206.589 -0.407211 206.82 -0.399887 207.053 -0.383667L207.217 -0.367401L207.285 -0.360062C207.432 -0.345306 207.581 -0.334976 207.731 -0.314346C207.952 -0.284851 208.175 -0.248001 208.399 -0.203766C208.607 -0.163971 208.815 -0.118271 209.025 -0.0652008C209.233 -0.0121155 209.444 0.0454102 209.655 0.108795C209.804 0.15303 209.954 0.20459 210.103 0.254715L210.149 0.270981L210.266 0.307846C210.47 0.380081 210.676 0.456696 210.883 0.540726C211.084 0.621811 211.288 0.707352 211.493 0.800232C211.699 0.891647 211.904 0.988953 212.112 1.09215C212.32 1.19388 212.527 1.30148 212.737 1.41501C212.899 1.502 213.061 1.59338 213.223 1.68626L439.222 132.545L439.209 137.761C439.205 139.251 439.996 140.628 441.286 141.373L483.128 165.537L479.904 167.411Z" fill="url(#paint1_linear)"/>
    <path d="M495.758 399.825C495.77 399.817 495.781 399.811 495.793 399.804C498.423 398.256 500.082 395.044 500.199 390.494C500.203 390.343 500.205 390.192 500.205 390.038L500.358 336.321L510.437 342.141L510.317 384.159V384.204C510.316 384.452 510.31 384.698 510.3 384.943C510.288 385.185 510.273 385.427 510.255 385.663C510.233 385.913 510.208 386.158 510.179 386.398C510.148 386.646 510.111 386.889 510.07 387.128L510.006 387.446L509.987 387.539L509.919 387.874C509.859 388.141 509.791 388.4 509.717 388.654C509.636 388.93 509.546 389.198 509.451 389.457C509.35 389.726 509.24 389.979 509.125 390.228L509.104 390.276L509.085 390.324C508.91 390.693 508.718 391.041 508.509 391.368C508.347 391.623 508.14 391.821 507.959 392.049C507.818 392.226 507.688 392.412 507.536 392.571C507.032 393.111 506.487 393.588 505.869 393.947L495.758 399.825ZM510.479 327.025L500.401 321.205L500.66 229.786L503.794 231.596C504.463 231.983 505.173 232.16 505.866 232.16C508.031 232.16 510.02 230.43 510.027 228.008L510.042 222.569C510.046 221.082 509.255 219.703 507.965 218.959L500.701 214.764L500.735 202.769L510.814 208.589L510.479 327.025ZM510.857 193.567L498.48 186.419C495.802 179.9 491.019 173.83 485.551 170.672L488.774 168.799L508.425 180.146C508.463 180.235 508.501 180.323 508.538 180.412C508.64 180.658 508.74 180.906 508.836 181.152C508.932 181.399 509.026 181.649 509.115 181.898C509.209 182.156 509.299 182.415 509.387 182.675C509.474 182.937 509.558 183.201 509.639 183.463L509.676 183.593L509.692 183.642C509.754 183.851 509.816 184.061 509.875 184.27C509.95 184.54 510.021 184.809 510.087 185.079C510.154 185.346 510.214 185.613 510.273 185.878C510.332 186.144 510.387 186.409 510.435 186.674C510.481 186.919 510.524 187.165 510.562 187.409L510.565 187.425L510.569 187.447C510.609 187.702 510.645 187.959 510.678 188.214C510.709 188.463 510.737 188.712 510.76 188.96C510.785 189.209 510.804 189.456 510.82 189.703C510.835 189.95 510.846 190.197 510.854 190.443C510.861 190.673 510.866 190.903 510.864 191.131L510.857 193.567Z" fill="url(#paint2_linear)"/>
    <path d="M491.753 400.854C489.691 400.854 487.365 400.18 484.905 398.759L202.464 235.651C194.036 230.784 187.234 219 187.262 209.316L187.607 87.7815L207.524 99.284L207.201 213.539C207.175 222.444 213.429 233.277 221.176 237.75L467.523 379.923C469.785 381.231 471.922 381.849 473.816 381.849C478.409 381.849 481.569 378.21 481.588 371.906L481.72 325.557L500.357 336.321L500.204 390.039C500.204 390.192 500.203 390.344 500.198 390.494C500.082 395.044 498.422 398.256 495.793 399.804C494.621 400.494 493.257 400.854 491.753 400.854ZM500.4 321.205L492.072 316.396V260.546C492.072 259.406 491.15 258.484 490.01 258.484C488.873 258.484 487.95 259.406 487.95 260.546V314.016L481.762 310.442L482.02 219.022L500.66 229.786L500.4 321.205ZM500.701 214.765L482.063 204.001L482.089 194.455C482.092 193.622 482.039 192.772 481.936 191.913L500.735 202.77L500.701 214.765ZM498.48 186.42L445.378 155.753C444.709 155.366 443.998 155.19 443.306 155.19C442.952 155.19 442.601 155.237 442.265 155.325L221.77 28.0707C219.507 26.7645 217.37 26.1453 215.474 26.1453C210.882 26.1453 207.722 29.7853 207.704 36.0894L207.586 77.538L187.669 66.0355L187.809 16.2867C187.823 11.2961 189.648 7.84183 192.565 6.32919C192.571 6.32773 192.575 6.32477 192.581 6.32184C192.581 6.32034 192.583 6.32034 192.584 6.32034C193.67 5.7616 194.91 5.47116 196.262 5.47116C198.296 5.47116 200.586 6.12576 203.009 7.50864C203.011 7.50864 203.011 7.50864 203.012 7.50864C203.018 7.51306 203.026 7.51602 203.031 7.52045C203.034 7.52191 203.039 7.52484 203.042 7.52631C203.048 7.52927 203.052 7.53223 203.057 7.53519C203.062 7.53812 203.068 7.54108 203.073 7.54404C203.076 7.5455 203.08 7.54697 203.083 7.54993C203.092 7.55435 203.101 7.56024 203.11 7.56464L479.902 167.411L485.55 170.673C491.019 173.831 495.802 179.9 498.48 186.42Z" fill="url(#paint3_linear)"/>
    <path d="M468.118 170.244C475.866 174.718 482.118 185.551 482.091 194.454L481.59 371.906C481.564 380.811 475.27 384.398 467.525 379.923L221.178 237.75C213.431 233.277 207.177 222.444 207.203 213.539L207.706 36.0894C207.731 27.1846 214.025 23.5976 221.772 28.0706L468.118 170.244Z" fill="#FBFDFE"/>
    <path d="M490.01 324.469C488.872 324.469 487.949 323.546 487.949 322.406V260.546C487.949 259.406 488.872 258.483 490.01 258.483C491.149 258.483 492.072 259.406 492.072 260.546V322.406C492.072 323.546 491.149 324.469 490.01 324.469Z" fill="#FBFDFE"/>
    <path d="M196.878 126.479C199.289 127.87 201.236 131.246 201.229 134.017C201.221 136.787 199.26 137.904 196.85 136.513C194.44 135.121 192.491 131.745 192.5 128.975C192.507 126.206 194.469 125.088 196.878 126.479Z" fill="white"/>
    <path d="M344.191 153.382C349.218 156.286 353.298 153.946 353.314 148.18C353.332 142.4 349.277 135.378 344.25 132.473C339.232 129.576 335.141 131.895 335.123 137.675C335.108 143.441 339.172 150.485 344.191 153.382ZM366.255 152.674C367.025 155.226 367.578 157.783 367.88 160.29C368.063 161.796 368.155 163.282 368.151 164.74C368.15 165.182 368.136 165.616 368.117 166.043L368.11 166.241C368.089 166.646 368.06 167.044 368.024 167.435L368.002 167.663C367.962 168.054 367.915 168.439 367.861 168.816C367.784 169.329 367.721 169.695 367.65 170.052C367.557 170.515 367.473 170.871 367.383 171.221L367.337 171.401C367.247 171.74 367.152 172.072 367.048 172.396L366.99 172.573C366.88 172.9 366.767 173.223 366.645 173.534C366.49 173.923 366.362 174.217 366.229 174.503C366.039 174.908 365.893 175.187 365.744 175.461L365.657 175.619C365.505 175.887 365.348 176.148 365.184 176.402L365.103 176.521C364.929 176.783 364.751 177.04 364.563 177.285C364.369 177.537 364.173 177.771 363.974 177.997L363.888 178.094C363.695 178.309 363.495 178.516 363.29 178.713L363.172 178.825C362.966 179.02 362.755 179.207 362.537 179.386L362.435 179.465C362.217 179.641 361.996 179.806 361.767 179.964C361.484 180.16 361.243 180.309 360.998 180.45L360.859 180.531C360.621 180.665 360.377 180.791 360.128 180.907L359.975 180.979C359.72 181.094 359.461 181.205 359.195 181.304C358.977 181.382 358.837 181.422 358.702 181.466C358.615 172.054 352.005 160.678 343.844 155.966C335.605 151.207 328.904 155.026 328.878 164.483C328.89 164.504 329.117 164.881 329.556 165.551C329.361 165.282 329.165 165.013 328.977 164.74C328.608 164.205 328.358 163.833 328.111 163.459L327.977 163.254C327.715 162.853 327.458 162.447 327.206 162.039L327.047 161.778C326.791 161.358 326.537 160.936 326.291 160.51C326.027 160.049 325.79 159.626 325.56 159.201L325.426 158.955C325.197 158.53 324.973 158.103 324.755 157.674L324.637 157.438C324.431 157.025 324.229 156.611 324.032 156.193C323.766 155.635 323.567 155.192 323.373 154.747L323.253 154.473C323.06 154.031 322.873 153.587 322.693 153.14C322.463 152.564 322.3 152.142 322.143 151.719L322.064 151.508C321.9 151.061 321.743 150.615 321.592 150.168L321.502 149.9C321.199 148.984 320.923 148.067 320.675 147.15L320.602 146.877C320.485 146.433 320.375 145.988 320.27 145.546L320.216 145.307C320.121 144.885 320.03 144.464 319.947 144.044C319.828 143.449 319.751 143.004 319.679 142.56L319.635 142.274C319.566 141.831 319.502 141.387 319.448 140.946C319.383 140.381 319.34 139.966 319.306 139.553L319.286 139.329C319.252 138.897 319.225 138.466 319.207 138.039L319.197 137.765C319.181 137.325 319.171 136.889 319.172 136.455C319.176 134.997 319.277 133.622 319.465 132.332C319.782 130.182 320.347 128.269 321.126 126.611C321.283 126.281 321.448 125.96 321.62 125.649C325.601 118.5 334.015 116.84 343.735 122.454C352.458 127.492 360.1 137.159 364.416 147.557C364.702 148.241 364.976 148.928 365.231 149.618C365.605 150.632 365.949 151.652 366.255 152.674Z" fill="url(#paint4_linear)"/>
    <path d="M404.626 230.01C406.515 231.1 408.038 233.739 408.032 235.896L407.991 250.235C407.985 252.406 406.452 253.281 404.564 252.19L273.438 176.465C271.548 175.374 270.024 172.735 270.031 170.565L270.073 156.226C270.078 154.067 271.611 153.195 273.499 154.286L404.626 230.01Z" fill="#D5E5F6"/>
    <path d="M404.54 261.219C406.428 262.31 407.952 264.948 407.946 267.12L407.905 281.459C407.899 283.63 406.366 284.49 404.476 283.399L273.35 207.674C271.462 206.583 269.939 203.959 269.945 201.789L269.985 187.448C269.992 185.278 271.525 184.404 273.414 185.495L404.54 261.219Z" fill="#D5E5F6"/>
    <path d="M346.051 267.478C349.572 269.513 352.414 274.444 352.402 278.482L352.395 281.07C352.383 285.12 349.524 286.749 346.003 284.714L312.631 265.442C309.108 263.408 306.258 258.482 306.27 254.434L306.277 251.845C306.289 247.808 309.157 246.173 312.68 248.206L346.051 267.478Z" fill="url(#paint5_linear)"/>
    <path d="M225.059 265.638C225.059 265.638 213.742 272.159 212.004 301.993C213.451 307.497 222.14 310.392 228.799 306.049C235.46 301.704 228.556 270.704 225.059 265.638Z" fill="url(#paint6_linear)"/>
    <path d="M282.593 297.852C282.593 297.852 308.508 286.308 311.992 284.347C315.477 282.386 318.091 275.197 319.397 273.673C320.703 272.149 326.584 268.662 326.366 270.188C326.149 271.714 323.1 274.544 323.1 274.544C323.1 274.544 325.277 278.248 325.713 280.643C326.149 283.039 322.882 287.832 321.14 289.138C319.397 290.446 315.26 290.882 315.26 290.882C315.26 290.882 294.136 305.04 290.651 305.26C287.165 305.477 282.157 303.516 282.593 297.852Z" fill="#F68B5F"/>
    <path d="M251.566 476.895C222.637 476.895 199.184 462.957 199.184 445.761C199.184 428.566 222.637 414.628 251.566 414.628C280.496 414.628 303.95 428.566 303.95 445.761C303.95 462.957 280.496 476.895 251.566 476.895Z" fill="url(#paint7_linear)"/>
    <path d="M229.848 439.058C229.848 439.058 229.174 443.994 230.072 446.013C230.97 447.809 234.559 449.155 237.028 447.359C239.496 445.565 243.759 441.077 243.759 441.077C243.759 441.077 250.937 437.262 251.611 435.242C252.284 433.222 249.817 431.427 247.796 431.875C245.777 432.324 239.945 435.914 237.252 435.914C234.559 435.914 230.746 436.588 229.848 439.058Z" fill="#263C7A"/>
    <path d="M222.453 333.963C222.453 333.963 228.731 437.619 229.513 440.622C230.296 443.623 238.441 445.348 239.952 440.579C240.91 437.551 243.274 341.628 243.274 341.628L222.453 333.963Z" fill="#263C7A"/>
    <path d="M250.614 445.224C250.262 445.527 250.067 445.967 250.064 446.433C250.049 447.857 250.116 451.036 250.922 452.272C251.974 453.889 255.27 455.602 258.719 453.73C261.624 452.149 270.57 445.463 272.386 443.981C273.487 443.084 273.976 441.973 274.193 441.123C274.387 440.355 273.997 439.563 273.274 439.242C272.007 438.677 269.839 437.972 267.899 438.624C264.936 439.619 261.207 442.83 257.172 442.656C254.14 442.526 251.659 444.324 250.614 445.224Z" fill="#263C7A"/>
    <path d="M264.468 335.082C264.015 330.774 258.861 329.375 254.116 330.842C245.059 330.354 231.036 330.742 230.545 337.771C229.817 348.181 234.696 355.609 239.402 360.663C242.881 364.396 245.195 371.539 246.167 375.02C246.991 402.511 248.813 441.275 249.95 444.987C251.78 450.964 260.796 450.694 261.203 444.874C263.028 425.205 264.468 335.082 264.468 335.082Z" fill="#263C7A"/>
    <path d="M264.495 338.329C263.433 343.648 248.278 346.306 239.415 344.889C230.552 343.471 221.008 339.122 221.324 328.845C221.324 328.845 219.977 287.776 219.977 279.697C219.977 271.618 225.059 265.638 225.059 265.638C225.059 265.638 230.021 259.965 245.619 263.156C245.619 263.156 258.327 265.924 264.176 275.321C264.176 275.321 268.214 285.645 266.868 307.187C265.521 328.732 264.495 338.329 264.495 338.329Z" fill="url(#paint8_linear)"/>
    <path d="M233.438 251.759C233.438 251.759 234.784 259.613 233.438 263.202C233.213 264.998 241.066 271.056 248.021 269.486C252.059 268.59 251.836 266.568 251.836 266.568C251.836 266.568 248.47 260.959 248.919 255.573C249.367 250.186 238.149 250.636 233.438 251.759Z" fill="#F36637"/>
    <path d="M259.687 235.937C259.687 246.163 251.401 254.451 241.178 254.451C230.956 254.451 222.668 246.163 222.668 235.937C222.668 225.711 230.956 217.423 241.178 217.423C251.401 217.423 259.687 225.711 259.687 235.937Z" fill="#F68B5F"/>
    <path d="M259.686 237.171C259.686 237.171 259.91 255.716 255.871 259.459C251.834 263.203 245.633 255.955 235.719 253.631C225.807 251.085 243.757 231.801 243.757 231.801L259.686 237.171Z" fill="#F68B5F"/>
    <path d="M258.19 270.999C258.19 270.999 262.244 269.84 266.877 276.502C271.511 283.165 278.172 291.854 281.357 293.302C284.542 294.751 288.886 291.854 290.624 291.854C292.361 291.854 296.994 299.966 295.258 304.02C293.52 308.076 282.227 310.103 279.33 310.103C276.434 310.103 257.612 298.807 255.004 292.434C252.398 286.062 248.344 271.289 258.19 270.999Z" fill="url(#paint9_linear)"/>
    <path d="M288.02 292.724C288.02 292.724 289.18 289.538 293.234 289.247C297.289 288.958 301.922 296.78 301.631 301.123C301.342 305.468 294.971 307.787 293.523 306.627C292.074 305.468 294.971 302.571 288.02 292.724Z" fill="url(#paint10_linear)"/>
    <path d="M252.257 220.309C252.257 220.309 258.916 221.757 260.944 231.894C260.075 236.241 253.993 232.764 251.678 238.557C249.361 244.351 247.913 246.089 247.913 246.089L246.464 245.508C246.464 245.508 246.464 240.874 244.438 240.874C242.411 240.874 241.832 246.378 242.99 248.694C244.147 251.013 246.753 252.172 246.753 252.172C246.753 252.172 243.858 257.096 242.411 257.674C240.962 258.255 235.75 257.096 233.724 256.226C231.695 255.358 227.931 251.302 225.035 246.667C222.14 242.033 219.532 233.923 221.27 228.419C223.008 222.916 227.063 221.468 227.063 221.468C227.063 221.468 229.378 218.281 233.433 216.833C237.488 215.385 245.017 214.806 252.257 220.309Z" fill="#802C33"/>
    <path d="M255.44 267.04L250.614 264.338C250.614 264.338 238.257 263.179 233.817 260.282L231.5 263.564C231.5 263.564 234.589 269.551 242.504 270.322C250.42 271.096 254.088 268.006 254.088 268.006L255.44 267.04Z" fill="#D2DDE7"/>
    <path d="M469.022 129.775C468.327 129.775 467.615 129.597 466.943 129.208L441.352 114.356C440.067 113.611 439.277 112.236 439.281 110.75L439.297 105.323C439.305 102.9 441.293 101.171 443.458 101.171C444.153 101.171 444.866 101.349 445.538 101.739L471.129 116.589C472.414 117.335 473.202 118.711 473.198 120.197L473.183 125.624C473.177 128.046 471.189 129.775 469.022 129.775Z" fill="#8EDAEA"/>
    <path d="M549.975 203.51C549.282 203.51 548.573 203.333 547.904 202.947L508.423 180.146C508.38 180.046 508.336 179.946 508.293 179.846L508.279 179.81L508.224 179.682C508.115 179.434 508.002 179.188 507.887 178.943C507.761 178.675 507.632 178.408 507.501 178.141C507.347 177.836 507.189 177.533 507.027 177.229C506.853 176.905 506.669 176.583 506.485 176.263L506.391 176.092L506.276 175.89C505.916 175.278 505.54 174.677 505.147 174.089C504.834 173.621 504.511 173.163 504.181 172.713C503.959 172.412 503.733 172.116 503.503 171.823C503.31 171.578 503.114 171.335 502.915 171.097C502.72 170.863 502.526 170.634 502.327 170.407C502.131 170.185 501.933 169.965 501.734 169.75L501.612 169.623L501.569 169.577C501.418 169.415 501.266 169.254 501.111 169.097C500.899 168.88 500.685 168.669 500.468 168.461C500.247 168.249 500.023 168.041 499.798 167.838C499.574 167.634 499.347 167.438 499.118 167.245L498.775 166.963L498.697 166.9L498.44 166.691C498.219 166.515 497.994 166.346 497.77 166.179C497.55 166.018 497.329 165.861 497.106 165.707C496.891 165.56 496.674 165.417 496.456 165.278C496.243 165.143 496.027 165.01 495.811 164.883L495.66 164.795L488.773 168.799L483.124 165.538L489.648 161.744L439.219 132.546V132.323C439.226 129.902 441.214 128.171 443.381 128.171C444.074 128.171 444.783 128.348 445.454 128.735L552.075 190.307C553.364 191.052 554.157 192.43 554.152 193.919L554.136 199.358C554.13 201.779 552.14 203.51 549.975 203.51Z" fill="#8EDAEA"/>
    <path d="M483.126 165.538L441.284 141.374C439.994 140.628 439.203 139.251 439.207 137.762L439.22 132.546L489.65 161.744L483.126 165.538Z" fill="url(#paint11_linear)"/>
    <path d="M508.424 180.146L488.773 168.799L495.661 164.795L495.811 164.883C496.028 165.01 496.243 165.142 496.457 165.278C496.675 165.417 496.892 165.56 497.107 165.707C497.33 165.861 497.551 166.018 497.77 166.179C497.994 166.346 498.22 166.515 498.441 166.691L498.697 166.9L498.776 166.963L499.119 167.245C499.347 167.438 499.574 167.634 499.798 167.838C500.024 168.041 500.248 168.249 500.469 168.461C500.686 168.669 500.899 168.88 501.112 169.097C501.267 169.254 501.418 169.415 501.57 169.577L501.613 169.623L501.735 169.75C501.934 169.965 502.132 170.185 502.328 170.407C502.527 170.634 502.721 170.863 502.916 171.097C503.115 171.335 503.311 171.578 503.504 171.823C503.734 172.116 503.959 172.412 504.182 172.713C504.512 173.163 504.835 173.621 505.147 174.089C505.541 174.677 505.917 175.278 506.276 175.89L506.391 176.092L506.486 176.263C506.67 176.583 506.854 176.904 507.028 177.229C507.19 177.533 507.348 177.836 507.501 178.141C507.632 178.408 507.762 178.675 507.887 178.943C508.002 179.188 508.116 179.434 508.225 179.682L508.28 179.81L508.294 179.846C508.337 179.946 508.381 180.046 508.424 180.146Z" fill="url(#paint12_linear)"/>
    <path d="M505.866 232.16C505.173 232.16 504.463 231.983 503.794 231.596L500.66 229.786L500.701 214.764L507.965 218.959C509.255 219.703 510.046 221.082 510.042 222.569L510.027 228.008C510.02 230.43 508.031 232.16 505.866 232.16Z" fill="url(#paint13_linear)"/>
    <path d="M500.659 229.786L482.02 219.022L482.062 204.001L500.7 214.764L500.659 229.786Z" fill="url(#paint14_linear)"/>
    <path d="M482.019 219.022L441.129 195.41C439.839 194.664 439.046 193.287 439.051 191.798L439.067 186.359C439.073 183.938 441.063 182.209 443.228 182.209C443.921 182.209 444.63 182.384 445.299 182.772L482.062 204L482.019 219.022Z" fill="#B8E8F1"/>
    <path d="M533.368 220.979C532.676 220.979 531.965 220.803 531.296 220.417L510.815 208.588L510.858 193.567L535.467 207.779C536.757 208.522 537.55 209.899 537.545 211.39L537.531 216.828C537.523 219.249 535.535 220.979 533.368 220.979ZM500.754 197.009C500.756 196.116 500.701 195.205 500.591 194.283C500.701 195.205 500.757 196.116 500.754 197.009ZM500.454 193.291C500.424 193.108 500.393 192.925 500.359 192.743C500.393 192.924 500.424 193.105 500.452 193.287L500.454 193.291Z" fill="#8EDAEA"/>
    <path d="M510.814 208.588L500.736 202.769L500.753 197.009C500.756 196.116 500.7 195.205 500.59 194.283C500.551 193.953 500.504 193.623 500.453 193.291L500.451 193.287C500.423 193.105 500.392 192.924 500.358 192.743C499.979 190.642 499.338 188.508 498.48 186.419L510.857 193.567L510.814 208.588Z" fill="url(#paint15_linear)"/>
    <path d="M500.735 202.77L481.937 191.913C480.933 183.58 475.139 174.299 468.117 170.244L442.266 155.325C442.602 155.237 442.952 155.189 443.306 155.189C443.999 155.189 444.709 155.366 445.379 155.753L498.48 186.42C499.338 188.509 499.979 190.642 500.358 192.743C500.392 192.926 500.423 193.108 500.452 193.291C500.504 193.623 500.551 193.953 500.589 194.283C500.7 195.205 500.754 196.116 500.753 197.009L500.735 202.77Z" fill="url(#paint16_linear)"/>
    <path d="M481.936 191.913L441.207 168.392C439.917 167.647 439.126 166.269 439.129 164.78L439.145 159.341C439.15 157.315 440.542 155.774 442.265 155.325L468.117 170.243C475.139 174.299 480.933 183.58 481.936 191.913Z" fill="#8CD9EA"/>
    <path d="M47.6561 86.4321C46.5418 86.4321 45.5187 85.5431 45.5152 84.2973L45.5078 81.505C45.5049 80.7413 45.911 80.0337 46.5728 79.6489L59.7394 72.009C60.0843 71.8085 60.4514 71.7171 60.808 71.7171C61.9223 71.7171 62.9467 72.6061 62.9497 73.8519L62.957 76.6442C62.96 77.4094 62.5532 78.1171 61.8929 78.5004L48.7262 86.1402C48.3798 86.3407 48.0143 86.4321 47.6561 86.4321Z" fill="#8EDAEA"/>
    <path d="M6.00477 124.369C4.89003 124.369 3.86755 123.479 3.86343 122.233L3.85547 119.435C3.85371 118.669 4.26139 117.96 4.92467 117.577L59.7807 85.8987C60.1256 85.6997 60.4897 85.6083 60.8464 85.6083C61.9607 85.6083 62.9836 86.4988 62.988 87.7445L62.9954 90.5428C62.9968 91.3079 62.59 92.0171 61.9268 92.4004L7.07042 124.079C6.72611 124.278 6.36117 124.369 6.00477 124.369Z" fill="#8EDAEA"/>
    <path d="M28.7001 139.109C27.5855 139.109 26.5623 138.22 26.5589 136.974L26.5508 134.176C26.5486 133.409 26.9567 132.7 27.62 132.317L59.8605 113.699C60.2039 113.5 60.5695 113.409 60.9261 113.409C62.0404 113.409 63.0633 114.299 63.0663 115.545L63.0751 118.343C63.0766 119.109 62.6683 119.818 62.0051 120.201L29.7659 138.82C29.421 139.017 29.0559 139.109 28.7001 139.109Z" fill="#BBE9F2"/>
    <path d="M14.5477 133.356C13.4331 133.356 12.4094 132.467 12.4066 131.222L12.3984 128.423C12.3962 127.657 12.8044 126.948 13.4671 126.566L59.8176 99.7984C60.161 99.5994 60.5266 99.5094 60.8833 99.5094C61.9975 99.5094 63.0205 100.398 63.0234 101.644L63.0322 104.442C63.0337 105.209 62.6269 105.918 61.9636 106.3L15.6135 133.067C15.2692 133.267 14.9035 133.356 14.5477 133.356Z" fill="#8EDAEA"/>
    <path d="M265.894 179.732C265.894 191.945 255.995 201.847 243.785 201.847C231.575 201.847 221.676 191.945 221.676 179.732C221.676 167.518 231.575 157.618 243.785 157.618C255.995 157.618 265.894 167.518 265.894 179.732Z" fill="url(#paint17_linear)"/>
    <path d="M241.877 189.905L232.648 183.154L236.006 178.563L240.793 182.063L250.496 169.686L254.973 173.198L241.877 189.905Z" fill="white"/>
    <path d="M187.609 87.7812L129.039 53.9593C123.827 50.9488 119.609 43.6392 119.625 37.6122C119.637 33.3706 121.771 30.9174 124.868 30.9174C126.143 30.9174 127.58 31.3332 129.101 32.2119L187.671 66.0353L187.609 87.7812Z" fill="#ABE4EF"/>
    <path d="M207.527 99.2837L187.609 87.7812L187.671 66.0352L207.589 77.5377L207.527 99.2837Z" fill="url(#paint18_linear)"/>
    <path d="M219.122 104.832C217.847 104.832 216.411 104.416 214.892 103.539L207.523 99.2838L207.585 77.5378L214.954 81.7926C220.165 84.8017 224.384 92.1113 224.368 98.1014C224.354 102.372 222.219 104.832 219.122 104.832Z" fill="#A8E2ED"/>
    <path d="M543.328 360.337C542.443 360.337 541.445 360.048 540.389 359.439L510.438 342.141L510.48 327.025L540.431 344.323C544.054 346.415 546.987 351.496 546.975 355.659C546.966 358.627 545.482 360.337 543.328 360.337Z" fill="#ABE4EF"/>
    <path d="M510.438 342.141L500.359 336.321L500.402 321.205L510.481 327.025L510.438 342.141Z" fill="url(#paint19_linear)"/>
    <path d="M500.357 336.32L481.719 325.556L481.761 310.442L487.949 314.016V322.406C487.949 323.545 488.872 324.468 490.01 324.468C491.149 324.468 492.072 323.545 492.072 322.406V316.395L500.399 321.204L500.357 336.32Z" fill="url(#paint20_linear)"/>
    <path d="M481.721 325.557L480.716 324.977C477.093 322.885 474.16 317.803 474.172 313.616C474.181 310.666 475.665 308.962 477.815 308.962C478.703 308.962 479.701 309.251 480.757 309.861L481.764 310.442L481.721 325.557Z" fill="#A8E2ED"/>
    <path d="M490.01 324.469C488.872 324.469 487.949 323.546 487.949 322.406V314.016L492.072 316.395V322.406C492.072 323.546 491.149 324.469 490.01 324.469Z" fill="#A8E2ED"/>
    <path d="M129.012 282.254C131.22 283.527 131.227 285.591 129.038 286.864L55.7155 329.484C53.5223 330.761 49.9657 330.761 47.7577 329.484L2.53707 303.37C0.333681 302.098 0.317022 300.035 2.51113 298.758L75.8318 256.139C78.0221 254.865 81.5876 254.865 83.7911 256.138L129.012 282.254Z" fill="url(#paint21_linear)"/>
    <path d="M118.517 435.369C104.744 435.369 90.9893 432.326 80.5185 426.238C59.5708 414.062 59.6888 394.323 80.7676 382.151C91.3092 376.062 105.096 373.017 118.867 373.017C132.637 373.017 146.39 376.062 156.864 382.151C177.804 394.323 177.701 414.062 156.616 426.238C146.076 432.326 132.288 435.369 118.517 435.369Z" fill="url(#paint22_linear)"/>
    <path d="M106.389 409.913C106.389 409.913 96.6962 412.443 92.9037 412.443C89.1113 412.443 92.9037 416.237 99.2254 416.657C105.546 417.079 111.446 417.5 112.71 415.815C113.974 414.128 112.429 409.352 112.429 409.352L106.389 409.913Z" fill="#5252AD"/>
    <path d="M133.358 401.061C133.358 401.061 123.665 403.59 119.872 403.59C116.08 403.59 119.872 407.383 126.193 407.805C132.516 408.227 138.415 408.65 139.679 406.963C140.942 405.275 139.398 400.498 139.398 400.498L133.358 401.061Z" fill="#5252AD"/>
    <path d="M135.462 296.385C135.462 296.385 138.975 392.772 139.536 402.887C139.536 402.887 136.727 405.137 133.356 404.012C133.356 404.012 121.979 340.785 120.292 324.486C118.606 308.188 115.797 302.566 115.797 302.566L135.462 296.385Z" fill="#333897"/>
    <path d="M99.5041 302.006C99.5041 302.006 96.1332 357.645 106.247 411.6C106.247 411.6 109.618 413.285 112.428 409.352C112.428 409.352 118.608 314.932 120.294 301.443C121.98 287.955 104 299.195 99.5041 302.006Z" fill="#333897"/>
    <path d="M114.675 344.718C114.675 344.718 120.294 328.982 125.351 320.553C130.408 312.121 129.283 299.756 129.283 299.756L110.18 301.443L114.675 344.718Z" fill="#333897"/>
    <path d="M95.2177 247.002L78.521 238.905C78.521 238.905 73.4609 233.843 72.1963 232.831C70.9316 231.819 62.5833 229.795 61.0651 230.049C59.5469 230.301 56.7641 232.578 57.5232 233.084C58.2823 233.59 65.3661 237.386 65.6196 238.905C65.8716 240.422 63.0888 242.447 64.1014 243.46C65.1125 244.472 67.3898 242.447 68.9079 242.447C70.4246 242.447 74.7256 244.472 74.7256 244.472L90.9168 253.835L95.2177 247.002Z" fill="#F68B5F"/>
    <path d="M130.828 230.768C130.828 230.768 127.738 227.396 122.681 233.86C117.623 240.323 113.409 249.878 106.386 249.035C99.3628 248.191 87.844 242.571 87.844 242.571C87.844 242.571 82.7869 245.943 83.63 251.001C83.63 251.001 99.9244 263.085 110.882 262.523C121.837 261.961 133.638 250.72 136.166 242.853C138.695 234.984 130.828 230.768 130.828 230.768Z" fill="#EE1F9A"/>
    <path d="M97.0421 301.886C98.0503 306.925 112.406 309.444 120.802 308.1C129.198 306.755 138.239 302.636 137.94 292.9C137.94 292.9 139.214 253.996 139.214 246.344C139.214 238.69 134.402 233.025 134.402 233.025C134.402 233.025 129.7 227.65 114.924 230.674C114.924 230.674 102.886 233.297 97.3457 242.197C97.3457 242.197 93.5194 251.976 94.7958 272.386C96.0693 292.795 97.0421 301.886 97.0421 301.886Z" fill="#EE1F9A"/>
    <path d="M126.463 219.876C126.463 219.876 125.186 227.316 126.463 230.718C126.675 232.417 119.236 238.157 112.647 236.671C108.821 235.82 109.033 233.906 109.033 233.906C109.033 233.906 112.221 228.592 111.797 223.489C111.373 218.387 122 218.813 126.463 219.876Z" fill="#F36637"/>
    <path d="M101.594 204.888C101.594 214.574 109.444 222.426 119.128 222.426C128.812 222.426 136.662 214.574 136.662 204.888C136.662 195.202 128.812 187.35 119.128 187.35C109.444 187.35 101.594 195.202 101.594 204.888Z" fill="#F68B5F"/>
    <path d="M101.596 206.057C101.596 206.057 101.382 223.627 105.209 227.172C109.033 230.718 114.907 223.852 124.298 221.651C133.688 219.238 116.686 200.971 116.686 200.971L101.596 206.057Z" fill="#F68B5F"/>
    <path d="M79.8991 263.541C79.8991 263.541 55.3491 252.605 52.0475 250.747C48.7474 248.89 46.2711 242.08 45.033 240.637C43.7951 239.192 38.2246 235.889 38.4314 237.334C38.6374 238.779 41.5261 241.461 41.5261 241.461C41.5261 241.461 39.4626 244.97 39.0503 247.24C38.6374 249.509 41.7315 254.048 43.3829 255.287C45.033 256.525 48.9522 256.938 48.9522 256.938C48.9522 256.938 68.9639 270.351 72.2655 270.559C75.5657 270.764 80.3118 268.906 79.8991 263.541Z" fill="#F68B5F"/>
    <path d="M101.75 241.306C101.75 241.306 98.6595 237.934 93.6024 244.398C88.5453 250.861 84.3313 260.416 77.308 259.571C70.2847 258.729 58.7658 253.109 58.7658 253.109C58.7658 253.109 53.7087 256.481 54.5518 261.539C54.5518 261.539 70.8462 273.623 81.8035 273.061C92.7608 272.499 104.56 261.258 107.089 253.389C109.617 245.521 101.75 241.306 101.75 241.306Z" fill="#EE1F9A"/>
    <path d="M108.635 190.083C108.635 190.083 102.327 191.456 100.406 201.059C101.229 205.176 106.99 201.884 109.184 207.371C111.38 212.858 112.75 214.505 112.75 214.505L114.121 213.957C114.121 213.957 114.121 209.566 116.043 209.566C117.962 209.566 118.512 214.779 117.414 216.975C116.317 219.17 113.847 220.268 113.847 220.268C113.847 220.268 116.592 224.933 117.962 225.481C119.335 226.03 124.272 224.933 126.193 224.109C128.113 223.286 131.68 219.444 134.422 215.054C137.166 210.663 139.635 202.98 137.989 197.767C136.344 192.553 132.503 191.182 132.503 191.182C132.503 191.182 130.308 188.162 126.467 186.791C122.627 185.419 115.495 184.87 108.635 190.083Z" fill="#802C33"/>
    <path d="M107.231 201.685C107.231 201.685 111.445 206.743 109.337 213.908C107.231 221.075 110.18 221.075 113.131 230.348C116.081 239.62 107.653 250.58 115.659 264.068C123.665 277.558 145.158 275.871 154.85 262.383C164.544 248.893 149.372 239.2 148.951 226.975C148.529 214.751 158.222 207.586 147.265 199.155C136.309 190.725 131.672 181.451 118.187 185.245C104.702 189.039 101.331 195.783 107.231 201.685Z" fill="#802C33"/>
    </g>
    <defs>
    <linearGradient id="paint0_linear" x1="29.4097" y1="227.684" x2="51.5038" y2="227.684" gradientUnits="userSpaceOnUse">
    <stop stop-color="#A25EB6"/>
    <stop offset="1" stop-color="#F57E24"/>
    </linearGradient>
    <linearGradient id="paint1_linear" x1="384.123" y1="405.021" x2="322.026" y2="-56.3603" gradientUnits="userSpaceOnUse">
    <stop stop-color="#73D1EA"/>
    <stop offset="0.704338" stop-color="#EDF1F0"/>
    <stop offset="1" stop-color="#EDF1F0"/>
    </linearGradient>
    <linearGradient id="paint2_linear" x1="510.864" y1="282.31" x2="485.551" y2="282.31" gradientUnits="userSpaceOnUse">
    <stop stop-color="#5252AD"/>
    <stop offset="1" stop-color="#84D6E4"/>
    </linearGradient>
    <linearGradient id="paint3_linear" x1="187.262" y1="203.162" x2="500.752" y2="203.162" gradientUnits="userSpaceOnUse">
    <stop stop-color="#6857B0"/>
    <stop offset="0.939976" stop-color="#A386CA"/>
    <stop offset="1" stop-color="#A386CA"/>
    </linearGradient>
    <linearGradient id="paint4_linear" x1="337.739" y1="75.1996" x2="353.805" y2="279.621" gradientUnits="userSpaceOnUse">
    <stop stop-color="#5252AD"/>
    <stop offset="1" stop-color="#84D6E4"/>
    </linearGradient>
    <linearGradient id="paint5_linear" x1="329.337" y1="230.824" x2="329.337" y2="302.079" gradientUnits="userSpaceOnUse">
    <stop stop-color="#6857B0"/>
    <stop offset="0.939976" stop-color="#A386CA"/>
    <stop offset="1" stop-color="#A386CA"/>
    </linearGradient>
    <linearGradient id="paint6_linear" x1="243.2" y1="306.103" x2="200.332" y2="268.748" gradientUnits="userSpaceOnUse">
    <stop stop-color="#73D1EA"/>
    <stop offset="0.704338" stop-color="#EDF1F0"/>
    <stop offset="1" stop-color="#EDF1F0"/>
    </linearGradient>
    <linearGradient id="paint7_linear" x1="199.184" y1="445.761" x2="303.949" y2="445.761" gradientUnits="userSpaceOnUse">
    <stop stop-color="#DFDBF1"/>
    <stop offset="1" stop-color="#E0F5F8"/>
    </linearGradient>
    <linearGradient id="paint8_linear" x1="238.103" y1="404.479" x2="247.761" y2="202.876" gradientUnits="userSpaceOnUse">
    <stop stop-color="#73D1EA"/>
    <stop offset="0.704338" stop-color="#EDF1F0"/>
    <stop offset="1" stop-color="#EDF1F0"/>
    </linearGradient>
    <linearGradient id="paint9_linear" x1="268.489" y1="400.852" x2="278.147" y2="199.249" gradientUnits="userSpaceOnUse">
    <stop stop-color="#73D1EA"/>
    <stop offset="0.704338" stop-color="#EDF1F0"/>
    <stop offset="1" stop-color="#EDF1F0"/>
    </linearGradient>
    <linearGradient id="paint10_linear" x1="290.742" y1="328.073" x2="295.764" y2="289.839" gradientUnits="userSpaceOnUse">
    <stop stop-color="#73D1EA"/>
    <stop offset="0.704338" stop-color="#EDF1F0"/>
    <stop offset="1" stop-color="#EDF1F0"/>
    </linearGradient>
    <linearGradient id="paint11_linear" x1="384.121" y1="405.022" x2="322.024" y2="-56.3602" gradientUnits="userSpaceOnUse">
    <stop stop-color="#73D1EA"/>
    <stop offset="0.704338" stop-color="#87D8E8"/>
    <stop offset="1" stop-color="#87D8E8"/>
    </linearGradient>
    <linearGradient id="paint12_linear" x1="510.863" y1="282.31" x2="485.55" y2="282.31" gradientUnits="userSpaceOnUse">
    <stop stop-color="#5CB9EB"/>
    <stop offset="1" stop-color="#79D3E7"/>
    </linearGradient>
    <linearGradient id="paint13_linear" x1="510.864" y1="282.31" x2="485.551" y2="282.31" gradientUnits="userSpaceOnUse">
    <stop stop-color="#5580CA"/>
    <stop offset="1" stop-color="#7DD4E6"/>
    </linearGradient>
    <linearGradient id="paint14_linear" x1="187.26" y1="203.162" x2="500.752" y2="203.162" gradientUnits="userSpaceOnUse">
    <stop stop-color="#6981C9"/>
    <stop offset="0.939976" stop-color="#8DACDF"/>
    <stop offset="1" stop-color="#8DACDF"/>
    </linearGradient>
    <linearGradient id="paint15_linear" x1="510.864" y1="282.309" x2="485.552" y2="282.309" gradientUnits="userSpaceOnUse">
    <stop stop-color="#5CB9EB"/>
    <stop offset="1" stop-color="#79D3E7"/>
    </linearGradient>
    <linearGradient id="paint16_linear" x1="187.262" y1="203.162" x2="500.753" y2="203.162" gradientUnits="userSpaceOnUse">
    <stop stop-color="#69B8E9"/>
    <stop offset="0.939976" stop-color="#71CDF4"/>
    <stop offset="1" stop-color="#71CDF4"/>
    </linearGradient>
    <linearGradient id="paint17_linear" x1="238.905" y1="189.036" x2="279.685" y2="111.317" gradientUnits="userSpaceOnUse">
    <stop stop-color="#A25EB6"/>
    <stop offset="1" stop-color="#F57E24"/>
    </linearGradient>
    <linearGradient id="paint18_linear" x1="187.264" y1="203.162" x2="500.755" y2="203.162" gradientUnits="userSpaceOnUse">
    <stop stop-color="#6B91D3"/>
    <stop offset="0.939976" stop-color="#84B6E5"/>
    <stop offset="1" stop-color="#84B6E5"/>
    </linearGradient>
    <linearGradient id="paint19_linear" x1="510.866" y1="282.31" x2="485.553" y2="282.31" gradientUnits="userSpaceOnUse">
    <stop stop-color="#5791D4"/>
    <stop offset="1" stop-color="#7CD4E6"/>
    </linearGradient>
    <linearGradient id="paint20_linear" x1="187.262" y1="203.162" x2="500.752" y2="203.162" gradientUnits="userSpaceOnUse">
    <stop stop-color="#6B91D3"/>
    <stop offset="0.939976" stop-color="#84B6E5"/>
    <stop offset="1" stop-color="#84B6E5"/>
    </linearGradient>
    <linearGradient id="paint21_linear" x1="22.8901" y1="331.386" x2="103.518" y2="258.897" gradientUnits="userSpaceOnUse">
    <stop stop-color="#A8E2EE"/>
    <stop offset="1" stop-color="white"/>
    </linearGradient>
    <linearGradient id="paint22_linear" x1="64.8829" y1="404.193" x2="172.5" y2="404.193" gradientUnits="userSpaceOnUse">
    <stop stop-color="#DFDBF1"/>
    <stop offset="1" stop-color="#E0F5F8"/>
    </linearGradient>
    <clipPath id="clip0">
    <rect width="554" height="477" fill="white"/>
    </clipPath>
    </defs>
</svg>
