<svg width="85" height="78" viewBox="0 0 85 78" fill="none" xmlns="http://www.w3.org/2000/svg">
<path opacity="0.4" d="M10.5408 16.558C10.5408 32.4426 2.19434 43.3517 2.19434 51.0023C2.19434 58.6576 6.66118 74.7272 42.3863 74.7272C78.1163 74.7272 83.3581 53.1035 83.3581 44.6845C83.3581 5.26951 10.5408 -11.5684 10.5408 16.558Z" fill="#AFE7FF"/>
<path d="M46.812 35.0879C46.812 35.0879 48.3655 35.4828 49.3541 35.1844C50.3427 34.8861 52.0375 35.3775 52.3111 35.7285C52.5848 36.0882 52.4877 36.2286 51.9934 36.3515C51.5079 36.4743 49.7778 37.2114 48.6391 36.7815C47.5005 36.3603 46.0264 36.3427 46.0264 36.3427L46.812 35.0879Z" fill="#FC9490"/>
<path d="M33.4043 21.6886C33.4043 21.6886 35.1432 33.9999 38.0296 35.1056C39.4507 35.6496 45.7443 36.8869 47.6068 37.0098C47.6068 37.0098 48.0658 36.6412 47.9511 35.1407C47.9511 35.1407 41.3574 32.7363 40.4217 31.4289C39.027 29.4808 41.2867 23.4699 39.539 21.6447C37.7913 19.8108 34.8431 19.021 33.4043 21.6886Z" fill="#4A75CB"/>
<path d="M33.6613 70.5127H35.9916C36.0093 70.5127 36.0269 70.4951 36.0269 70.4776V49.5843C36.0269 49.5667 36.0093 49.5492 35.9916 49.5492H33.6613C33.6436 49.5492 33.626 49.5667 33.626 49.5843V70.4776C33.626 70.4951 33.6436 70.5127 33.6613 70.5127Z" fill="#3B3A3C"/>
<path d="M27.3936 71.8904C28.1703 70.2846 31.2068 69.0912 34.8347 69.0912C38.4625 69.0912 41.4902 70.2846 42.2758 71.8904H27.3936Z" fill="#3B3A3C"/>
<path d="M29.1768 66.4497H40.4841C40.493 66.4497 40.5018 66.4409 40.5018 66.4321V65.6161C40.5018 65.6073 40.493 65.5985 40.4841 65.5985H29.1768C29.168 65.5985 29.1592 65.6073 29.1592 65.6161V66.4321C29.1592 66.4409 29.168 66.4497 29.1768 66.4497Z" fill="#3B3A3C"/>
<path d="M33.9879 47.6274C34.4999 48.4874 35.0824 49.2859 35.6915 50.0493C37.5628 52.401 39.6018 54.3403 39.9549 56.1743C40.0255 56.5428 40.1403 56.9289 40.2815 57.3501C40.4316 57.7713 40.6169 58.2101 40.8288 58.6664C41.6232 60.3863 42.8148 62.308 43.9976 64.0542C46.0455 67.0728 47.9786 69.6 47.9786 69.6L51.5182 69.4508C51.3769 69.0998 49.8322 64.9229 47.7667 59.8247C46.9282 57.7538 46.0367 55.5512 45.1804 53.4277C45.0657 53.1469 44.9509 52.8573 44.8362 52.5853C44.5714 51.9359 44.3154 51.2954 44.0594 50.6723C42.1175 45.8812 40.5728 42.0728 40.5728 42.0728C40.5728 42.0728 32.8227 39.1595 32.0195 41.0462C31.3663 42.5993 31.9047 44.1262 33.9879 47.6274Z" fill="#163560"/>
<path d="M48.0928 68.9593C48.0928 68.9593 48.2781 71.8638 48.8342 71.9077C48.9137 71.9165 51.703 71.9165 51.703 71.9165L55.2602 71.8989C55.2602 71.8989 55.2338 71.0478 54.1922 70.8635C53.1506 70.6792 51.4117 69.9597 50.7762 68.5908C50.123 67.1429 48.0928 68.9593 48.0928 68.9593Z" fill="#163560"/>
<path d="M39.9018 60.6671C39.9018 60.6671 37.4391 62.2378 37.6774 62.7468C37.7127 62.817 39.072 65.2389 39.072 65.2389L40.8286 68.3189C40.8286 68.3189 41.57 67.8801 41.217 66.8886C40.8639 65.897 40.6609 64.0279 41.5524 62.817C42.488 61.5446 39.9018 60.6671 39.9018 60.6671Z" fill="#163560"/>
<path d="M43.362 40.7655C43.362 40.7655 52.948 46.6974 54.0338 50.7515C55.1195 54.7967 41.0935 63.4313 41.0935 63.4313C41.0935 63.4313 39.5576 62.08 39.284 61.0972C39.284 61.0972 45.6217 53.5507 46.9987 51.8571C47.8461 50.8217 34.5174 48.2594 32.8844 45.7409C31.2603 43.2225 31.8429 41.1077 31.8429 41.1077L43.362 40.7655Z" fill="#1C468A"/>
<path d="M24.2426 53.8052H45.4184C45.4625 53.8052 45.5066 53.7701 45.5066 53.7174V48.4963C45.5066 48.4524 45.4713 48.4086 45.4184 48.4086H24.2426C24.1984 48.4086 24.1543 48.4437 24.1543 48.4963V53.7262C24.1543 53.7701 24.1896 53.8052 24.2426 53.8052Z" fill="#F99746"/>
<path d="M38.736 19.5738C39.6893 20.1618 40.2189 20.9076 40.2189 20.9076C37.8886 21.5043 34.0312 19.3632 34.0312 19.3632C34.0312 19.3632 35.5318 18.3629 36.0879 16.1604C36.1144 16.0463 36.1409 15.9322 36.1674 15.8181C36.238 15.4496 36.2821 15.0459 36.2909 14.616L37.359 15.5724L39.142 17.1607C39.142 17.1607 39.0979 17.8188 38.8772 18.9508C38.8243 19.1351 38.7801 19.3545 38.736 19.5738Z" fill="#FC9490"/>
<path d="M31.5604 30.5074C31.8958 34.9651 31.4545 41.7569 31.834 42.9328C32.1606 43.9507 35.8856 43.3452 37.3685 43.003C37.9158 42.8801 38.5866 42.6959 39.2751 42.4853C41.1906 41.8973 43.2825 41.0549 43.512 40.4231C43.5209 40.3968 43.5297 40.3705 43.5297 40.3529C43.5474 40.2652 43.5474 40.1774 43.5297 40.0897C43.4591 39.7738 43.1678 39.4228 43.1325 38.633C43.0972 37.7468 43.0972 36.7113 43.0707 35.5969C43.0707 35.474 43.0707 35.3336 43.053 35.2108V35.1669C43.053 35.1406 43.053 35.123 43.053 35.0967C43.0177 33.8507 42.9559 32.5432 42.8765 31.2445C42.8324 30.4284 42.7706 29.6211 42.7088 28.8489C42.5411 26.8482 42.3116 25.0757 42.0203 23.9525C41.5348 22.1185 40.4579 20.9251 39.4781 20.0476L38.772 19.4421C37.9776 19.6176 37.0507 19.5035 36.2033 19.0999C35.2853 18.6699 34.9764 18.3628 34.8175 18.4769C32.6814 20.0915 31.1632 25.0581 31.5604 30.5074Z" fill="#739AF0"/>
<path d="M39.266 42.494C41.1814 41.9061 43.2734 41.0637 43.5029 40.4319C43.5118 40.4056 43.5206 40.3793 43.5206 40.3617C43.5206 40.274 43.5206 40.1862 43.5206 40.0985C43.45 39.7826 43.1587 39.4316 43.1234 38.6418C43.0881 37.7555 43.0881 36.7201 43.0616 35.6056C43.0616 35.4828 43.0616 35.3424 43.0439 35.2195V35.1757C43.0439 35.1493 43.0439 35.1318 43.0439 35.1055L35.7882 31.8324C35.7882 31.8324 35.3733 37.6327 39.266 42.494Z" fill="#4A75CB"/>
<path d="M39.1337 17.1518C39.1337 17.1518 39.0895 17.8099 38.8689 18.9419C37.13 18.3803 36.3444 16.8271 36.0796 16.1602C36.0089 15.9759 35.9736 15.8618 35.9736 15.8618C35.9736 15.8618 36.0442 15.8443 36.159 15.8267C36.4062 15.7741 36.8651 15.6776 37.3595 15.5723L39.1337 17.1518Z" fill="#FF8585"/>
<path d="M39.8305 17.1343C39.8305 17.1343 36.0085 17.5643 35.779 15.1951C35.5495 12.8258 34.8963 11.2902 37.3237 10.9129C39.7511 10.5355 40.316 11.3955 40.5808 12.1677C40.8633 12.9399 40.8191 16.9588 39.8305 17.1343Z" fill="#FC9490"/>
<path d="M35.7965 15.3618C35.7965 15.3618 36.0348 12.2203 39.5126 11.8956C41.8959 11.6763 40.563 9.64046 40.3158 9.30701C40.3158 9.30701 38.4887 9.55271 36.6262 9.85983C32.6982 10.5092 35.4169 14.8704 35.7965 15.3618Z" fill="#233862"/>
<path d="M54.2824 38.1672L54.6182 38.2756L57.4593 29.5792L57.1235 29.4708L54.2824 38.1672Z" fill="#4A75CB"/>
<path d="M44.9576 38.07L54.6123 38.2749L54.6246 37.7046L44.9698 37.4997L44.9576 38.07Z" fill="#4A75CB"/>
<path d="M46.0098 36.9749C46.0098 36.9749 47.5104 37.5365 48.5167 37.3522C49.5318 37.1679 51.1647 37.8348 51.3942 38.2209C51.6237 38.607 51.509 38.7386 51.0147 38.8088C50.5204 38.879 48.7197 39.4143 47.634 38.8703C46.5483 38.3262 45.083 38.1507 45.083 38.1507L46.0098 36.9749Z" fill="#FC9490"/>
<path d="M34.1729 22.1888C34.1729 22.1888 34.5436 34.623 37.2888 36.0357C38.6481 36.729 44.7652 38.6507 46.6012 38.9754C46.6012 38.9754 47.0955 38.6595 47.1484 37.1589C47.1484 37.1589 40.8637 34.0438 40.0781 32.6398C38.9041 30.5514 41.817 24.8301 40.2811 22.8118C38.7452 20.8111 35.9029 19.7055 34.1729 22.1888Z" fill="#739AF0"/>
<path d="M63.4253 71.8551V71.9254C63.4253 72.0394 63.3988 72.1272 63.3724 72.1272H15.0891C15.0626 72.1272 15.0361 72.0307 15.0361 71.9254V71.8551C15.0361 71.7411 15.0626 71.6533 15.0891 71.6533H63.3724C63.3988 71.6533 63.4253 71.7411 63.4253 71.8551Z" fill="#2E3552"/>
</svg>
