<svg width="217" height="136" viewBox="0 0 217 136" fill="none"
    xmlns="http://www.w3.org/2000/svg">
    <g clip-path="url(#clip0)">
        <path d="M53.0158 76.3301H35.2189C34.2006 76.3301 33.375 77.1555 33.375 78.1737V83.0372C33.375 84.0554 34.2006 84.8808 35.2189 84.8808H53.0158C54.0342 84.8808 54.8597 84.0554 54.8597 83.0372V78.1737C54.8597 77.1555 54.0342 76.3301 53.0158 76.3301Z" fill="#0D88BC"/>
        <path d="M74.5002 84.8809H56.7033C55.6849 84.8809 54.8594 85.7063 54.8594 86.7245V91.588C54.8594 92.6062 55.6849 93.4316 56.7033 93.4316H74.5002C75.5185 93.4316 76.3441 92.6062 76.3441 91.588V86.7245C76.3441 85.7063 75.5185 84.8809 74.5002 84.8809Z" fill="#0D88BC"/>
        <path d="M53.0158 85.0898H35.2189C34.2006 85.0898 33.375 85.9153 33.375 86.9335V91.7969C33.375 92.8151 34.2006 93.6406 35.2189 93.6406H53.0158C54.0342 93.6406 54.8597 92.8151 54.8597 91.7969V86.9335C54.8597 85.9153 54.0342 85.0898 53.0158 85.0898Z" fill="#94DDF2"/>
        <path d="M74.5002 76.3301H56.7033C55.6849 76.3301 54.8594 77.1555 54.8594 78.1737V83.0372C54.8594 84.0554 55.6849 84.8808 56.7033 84.8808H74.5002C75.5186 84.8808 76.3441 84.0554 76.3441 83.0372V78.1737C76.3441 77.1555 75.5186 76.3301 74.5002 76.3301Z" fill="#94DDF2"/>
        <path d="M95.9846 84.8809H78.1877C77.1693 84.8809 76.3438 85.7063 76.3438 86.7245V91.588C76.3438 92.6062 77.1693 93.4316 78.1877 93.4316H95.9846C97.0029 93.4316 97.8285 92.6062 97.8285 91.588V86.7245C97.8285 85.7063 97.0029 84.8809 95.9846 84.8809Z" fill="#94DDF2"/>
        <path d="M117.469 84.8809H99.6721C98.6537 84.8809 97.8281 85.7063 97.8281 86.7245V91.588C97.8281 92.6062 98.6537 93.4316 99.6721 93.4316H117.469C118.487 93.4316 119.313 92.6062 119.313 91.588V86.7245C119.313 85.7063 118.487 84.8809 117.469 84.8809Z" fill="#0D88BC"/>
        <path d="M99.6717 84.8809H117.469C118.487 84.8809 119.312 84.0554 119.312 83.0372V78.1738C119.312 77.1556 118.487 76.3301 117.469 76.3301H99.6717C98.6533 76.3301 97.8278 77.1556 97.8278 78.1738V83.0372C97.8278 84.0554 98.6533 84.8809 99.6717 84.8809Z" fill="#94DDF2"/>
        <path d="M78.1873 84.8809H95.9842C97.0026 84.8809 97.8281 84.0554 97.8281 83.0372V78.1738C97.8281 77.1556 97.0026 76.3301 95.9842 76.3301H78.1873C77.1689 76.3301 76.3434 77.1556 76.3434 78.1738V83.0372C76.3434 84.0554 77.1689 84.8809 78.1873 84.8809Z" fill="#0D88BC"/>
        <path d="M53.0158 68.1973H35.2189C34.2006 68.1973 33.375 69.0227 33.375 70.0409V74.9044C33.375 75.9226 34.2006 76.748 35.2189 76.748H53.0158C54.0342 76.748 54.8597 75.9226 54.8597 74.9044V70.0409C54.8597 69.0227 54.0342 68.1973 53.0158 68.1973Z" fill="#94DDF2"/>
        <path d="M74.5002 68.1973H56.7033C55.6849 68.1973 54.8594 69.0227 54.8594 70.0409V74.9044C54.8594 75.9226 55.6849 76.748 56.7033 76.748H74.5002C75.5186 76.748 76.3441 75.9226 76.3441 74.9044V70.0409C76.3441 69.0227 75.5186 68.1973 74.5002 68.1973Z" fill="#0D88BC"/>
        <path d="M95.9846 68.1973H78.1877C77.1693 68.1973 76.3438 69.0227 76.3438 70.0409V74.9044C76.3438 75.9226 77.1693 76.748 78.1877 76.748H95.9846C97.0029 76.748 97.8285 75.9226 97.8285 74.9044V70.0409C97.8285 69.0227 97.0029 68.1973 95.9846 68.1973Z" fill="#94DDF2"/>
        <path d="M117.469 68.1973H99.6721C98.6537 68.1973 97.8281 69.0227 97.8281 70.0409V74.9044C97.8281 75.9226 98.6537 76.748 99.6721 76.748H117.469C118.487 76.748 119.313 75.9226 119.313 74.9044V70.0409C119.313 69.0227 118.487 68.1973 117.469 68.1973Z" fill="#0D88BC"/>
        <path d="M99.6717 68.1973H117.469C118.487 68.1973 119.312 67.3718 119.312 66.3536V61.4902C119.312 60.472 118.487 59.6466 117.469 59.6466H99.6717C98.6533 59.6466 97.8278 60.472 97.8278 61.4902V66.3536C97.8278 67.3718 98.6533 68.1973 99.6717 68.1973Z" fill="#94DDF2"/>
        <path d="M78.1873 68.1973H95.9842C97.0026 68.1973 97.8281 67.3718 97.8281 66.3536V61.4902C97.8281 60.472 97.0026 59.6466 95.9842 59.6466H78.1873C77.1689 59.6466 76.3434 60.472 76.3434 61.4902V66.3536C76.3434 67.3718 77.1689 68.1973 78.1873 68.1973Z" fill="#0D88BC"/>
        <path d="M56.7029 68.1973H74.4998C75.5182 68.1973 76.3438 67.3718 76.3438 66.3536V61.4902C76.3438 60.472 75.5182 59.6466 74.4998 59.6466H56.7029C55.6846 59.6466 54.859 60.472 54.859 61.4902V66.3536C54.859 67.3718 55.6846 68.1973 56.7029 68.1973Z" fill="#94DDF2"/>
        <path d="M35.2186 68.1973H53.0154C54.0338 68.1973 54.8594 67.3718 54.8594 66.3536V61.4902C54.8594 60.472 54.0338 59.6466 53.0154 59.6466H35.2186C34.2002 59.6466 33.3746 60.472 33.3746 61.4902V66.3536C33.3746 67.3718 34.2002 68.1973 35.2186 68.1973Z" fill="#0D88BC"/>
        <path d="M53.0158 51.5137H35.2189C34.2006 51.5137 33.375 52.3391 33.375 53.3573V58.2208C33.375 59.239 34.2006 60.0644 35.2189 60.0644H53.0158C54.0342 60.0644 54.8597 59.239 54.8597 58.2208V53.3573C54.8597 52.3391 54.0342 51.5137 53.0158 51.5137Z" fill="#94DDF2"/>
        <path d="M74.5002 51.5137H56.7033C55.6849 51.5137 54.8594 52.3391 54.8594 53.3573V58.2208C54.8594 59.239 55.6849 60.0644 56.7033 60.0644H74.5002C75.5186 60.0644 76.3441 59.239 76.3441 58.2208V53.3573C76.3441 52.3391 75.5186 51.5137 74.5002 51.5137Z" fill="#0D88BC"/>
        <path d="M95.9846 51.5137H78.1877C77.1693 51.5137 76.3438 52.3391 76.3438 53.3573V58.2208C76.3438 59.239 77.1693 60.0644 78.1877 60.0644H95.9846C97.0029 60.0644 97.8285 59.239 97.8285 58.2208V53.3573C97.8285 52.3391 97.0029 51.5137 95.9846 51.5137Z" fill="#94DDF2"/>
        <path d="M117.469 51.5137H99.6721C98.6537 51.5137 97.8281 52.3391 97.8281 53.3573V58.2208C97.8281 59.239 98.6537 60.0644 99.6721 60.0644H117.469C118.487 60.0644 119.313 59.239 119.313 58.2208V53.3573C119.313 52.3391 118.487 51.5137 117.469 51.5137Z" fill="#0D88BC"/>
        <path d="M99.6717 51.5137H117.469C118.487 51.5137 119.312 50.6883 119.312 49.67V44.8066C119.312 43.7884 118.487 42.963 117.469 42.963H99.6717C98.6533 42.963 97.8278 43.7884 97.8278 44.8066V49.67C97.8278 50.6883 98.6533 51.5137 99.6717 51.5137Z" fill="#94DDF2"/>
        <path d="M78.1873 51.5137H95.9842C97.0026 51.5137 97.8281 50.6883 97.8281 49.67V44.8066C97.8281 43.7884 97.0026 42.963 95.9842 42.963H78.1873C77.1689 42.963 76.3434 43.7884 76.3434 44.8066V49.67C76.3434 50.6883 77.1689 51.5137 78.1873 51.5137Z" fill="#0D88BC"/>
        <path d="M56.7029 51.5137H74.4998C75.5182 51.5137 76.3438 50.6883 76.3438 49.67V44.8066C76.3438 43.7884 75.5182 42.963 74.4998 42.963H56.7029C55.6846 42.963 54.859 43.7884 54.859 44.8066V49.67C54.859 50.6883 55.6846 51.5137 56.7029 51.5137Z" fill="#94DDF2"/>
        <path d="M35.2186 51.5137H53.0154C54.0338 51.5137 54.8594 50.6883 54.8594 49.67V44.8066C54.8594 43.7884 54.0338 42.963 53.0154 42.963H35.2186C34.2002 42.963 33.3746 43.7884 33.3746 44.8066V49.67C33.3746 50.6883 34.2002 51.5137 35.2186 51.5137Z" fill="#0D88BC"/>
        <path d="M53.0158 34.4121H35.2189C34.2006 34.4121 33.375 35.2375 33.375 36.2557V41.1192C33.375 42.1374 34.2006 42.9628 35.2189 42.9628H53.0158C54.0342 42.9628 54.8597 42.1374 54.8597 41.1192V36.2557C54.8597 35.2375 54.0342 34.4121 53.0158 34.4121Z" fill="#94DDF2"/>
        <path d="M74.5002 34.4121H56.7033C55.6849 34.4121 54.8594 35.2375 54.8594 36.2557V41.1192C54.8594 42.1374 55.6849 42.9628 56.7033 42.9628H74.5002C75.5186 42.9628 76.3441 42.1374 76.3441 41.1192V36.2557C76.3441 35.2375 75.5186 34.4121 74.5002 34.4121Z" fill="#0D88BC"/>
        <path d="M95.9846 34.4121H78.1877C77.1693 34.4121 76.3438 35.2375 76.3438 36.2557V41.1192C76.3438 42.1374 77.1693 42.9628 78.1877 42.9628H95.9846C97.0029 42.9628 97.8285 42.1374 97.8285 41.1192V36.2557C97.8285 35.2375 97.0029 34.4121 95.9846 34.4121Z" fill="#94DDF2"/>
        <path d="M117.469 34.4121H99.6721C98.6537 34.4121 97.8281 35.2375 97.8281 36.2557V41.1192C97.8281 42.1374 98.6537 42.9628 99.6721 42.9628H117.469C118.487 42.9628 119.313 42.1374 119.313 41.1192V36.2557C119.313 35.2375 118.487 34.4121 117.469 34.4121Z" fill="#0D88BC"/>
        <path d="M99.6717 34.4121H117.469C118.487 34.4121 119.312 33.5867 119.312 32.5685V27.705C119.312 26.6868 118.487 25.8614 117.469 25.8614H99.6717C98.6533 25.8614 97.8278 26.6868 97.8278 27.705V32.5685C97.8278 33.5867 98.6533 34.4121 99.6717 34.4121Z" fill="#94DDF2"/>
        <path d="M78.1873 34.4121H95.9842C97.0026 34.4121 97.8281 33.5867 97.8281 32.5685V27.705C97.8281 26.6868 97.0026 25.8614 95.9842 25.8614H78.1873C77.1689 25.8614 76.3434 26.6868 76.3434 27.705V32.5685C76.3434 33.5867 77.1689 34.4121 78.1873 34.4121Z" fill="#0D88BC"/>
        <path d="M56.7029 34.4121H74.4998C75.5182 34.4121 76.3438 33.5867 76.3438 32.5685V27.705C76.3438 26.6868 75.5182 25.8614 74.4998 25.8614H56.7029C55.6846 25.8614 54.859 26.6868 54.859 27.705V32.5685C54.859 33.5867 55.6846 34.4121 56.7029 34.4121Z" fill="#94DDF2"/>
        <path d="M35.2186 34.4121H53.0154C54.0338 34.4121 54.8594 33.5867 54.8594 32.5685V27.705C54.8594 26.6868 54.0338 25.8614 53.0154 25.8614H35.2186C34.2002 25.8614 33.3746 26.6868 33.3746 27.705V32.5685C33.3746 33.5867 34.2002 34.4121 35.2186 34.4121Z" fill="#0D88BC"/>
        <path d="M139.02 85.123H121.223C120.204 85.123 119.379 85.9485 119.379 86.9667V91.8302C119.379 92.8484 120.204 93.6738 121.223 93.6738H139.02C140.038 93.6738 140.864 92.8484 140.864 91.8302V86.9667C140.864 85.9485 140.038 85.123 139.02 85.123Z" fill="#94DDF2"/>
        <path d="M160.506 85.123H142.709C141.691 85.123 140.865 85.9485 140.865 86.9667V91.8302C140.865 92.8484 141.691 93.6738 142.709 93.6738H160.506C161.524 93.6738 162.35 92.8484 162.35 91.8302V86.9667C162.35 85.9485 161.524 85.123 160.506 85.123Z" fill="#0D88BC"/>
        <path d="M142.709 85.123H160.506C161.524 85.123 162.35 84.2976 162.35 83.2794V78.416C162.35 77.3978 161.524 76.5723 160.506 76.5723H142.709C141.69 76.5723 140.865 77.3978 140.865 78.416V83.2794C140.865 84.2976 141.69 85.123 142.709 85.123Z" fill="#94DDF2"/>
        <path d="M121.224 85.123H139.021C140.04 85.123 140.865 84.2976 140.865 83.2794V78.416C140.865 77.3978 140.04 76.5723 139.021 76.5723H121.224C120.206 76.5723 119.381 77.3978 119.381 78.416V83.2794C119.381 84.2976 120.206 85.123 121.224 85.123Z" fill="#0D88BC"/>
        <path d="M139.02 68.0215H121.223C120.204 68.0215 119.379 68.8469 119.379 69.8651V74.7286C119.379 75.7468 120.204 76.5722 121.223 76.5722H139.02C140.038 76.5722 140.864 75.7468 140.864 74.7286V69.8651C140.864 68.8469 140.038 68.0215 139.02 68.0215Z" fill="#94DDF2"/>
        <path d="M160.506 68.0215H142.709C141.691 68.0215 140.865 68.8469 140.865 69.8651V74.7286C140.865 75.7468 141.691 76.5722 142.709 76.5722H160.506C161.524 76.5722 162.35 75.7468 162.35 74.7286V69.8651C162.35 68.8469 161.524 68.0215 160.506 68.0215Z" fill="#0D88BC"/>
        <path d="M142.709 68.0215H160.506C161.524 68.0215 162.35 67.1961 162.35 66.1779V61.3144C162.35 60.2962 161.524 59.4708 160.506 59.4708H142.709C141.69 59.4708 140.865 60.2962 140.865 61.3144V66.1779C140.865 67.1961 141.69 68.0215 142.709 68.0215Z" fill="#94DDF2"/>
        <path d="M121.224 68.0215H139.021C140.04 68.0215 140.865 67.1961 140.865 66.1779V61.3144C140.865 60.2962 140.04 59.4708 139.021 59.4708H121.224C120.206 59.4708 119.381 60.2962 119.381 61.3144V66.1779C119.381 67.1961 120.206 68.0215 121.224 68.0215Z" fill="#0D88BC"/>
        <path d="M139.02 51.3379H121.223C120.204 51.3379 119.379 52.1633 119.379 53.1815V58.045C119.379 59.0632 120.204 59.8886 121.223 59.8886H139.02C140.038 59.8886 140.864 59.0632 140.864 58.045V53.1815C140.864 52.1633 140.038 51.3379 139.02 51.3379Z" fill="#94DDF2"/>
        <path d="M160.506 51.3379H142.709C141.691 51.3379 140.865 52.1633 140.865 53.1815V58.045C140.865 59.0632 141.691 59.8886 142.709 59.8886H160.506C161.524 59.8886 162.35 59.0632 162.35 58.045V53.1815C162.35 52.1633 161.524 51.3379 160.506 51.3379Z" fill="#0D88BC"/>
        <path d="M142.709 51.3379H160.506C161.524 51.3379 162.35 50.5125 162.35 49.4943V44.6308C162.35 43.6126 161.524 42.7872 160.506 42.7872H142.709C141.69 42.7872 140.865 43.6126 140.865 44.6308V49.4943C140.865 50.5125 141.69 51.3379 142.709 51.3379Z" fill="#94DDF2"/>
        <path d="M121.224 51.3379H139.021C140.04 51.3379 140.865 50.5125 140.865 49.4943V44.6308C140.865 43.6126 140.04 42.7872 139.021 42.7872H121.224C120.206 42.7872 119.381 43.6126 119.381 44.6308V49.4943C119.381 50.5125 120.206 51.3379 121.224 51.3379Z" fill="#0D88BC"/>
        <path d="M139.02 34.2363H121.223C120.204 34.2363 119.379 35.0617 119.379 36.0799V40.9434C119.379 41.9616 120.204 42.787 121.223 42.787H139.02C140.038 42.787 140.864 41.9616 140.864 40.9434V36.0799C140.864 35.0617 140.038 34.2363 139.02 34.2363Z" fill="#94DDF2"/>
        <path d="M160.506 34.2363H142.709C141.691 34.2363 140.865 35.0617 140.865 36.0799V40.9434C140.865 41.9616 141.691 42.787 142.709 42.787H160.506C161.524 42.787 162.35 41.9616 162.35 40.9434V36.0799C162.35 35.0617 161.524 34.2363 160.506 34.2363Z" fill="#0D88BC"/>
        <path d="M160.505 5.75H141.039C140.021 5.75 139.195 6.57542 139.195 7.59362V13.1203C139.195 14.1385 140.021 14.9639 141.039 14.9639H160.505C161.523 14.9639 162.349 14.1385 162.349 13.1203V7.59362C162.349 6.57542 161.523 5.75 160.505 5.75Z" fill="url(#paint0_linear)"/>
        <path d="M141.875 14.6328L159.672 14.6328C160.69 14.6328 161.516 13.8074 161.516 12.7892V7.92571C161.516 6.90751 160.69 6.0821 159.672 6.0821L141.875 6.0821C140.856 6.0821 140.031 6.90751 140.031 7.92571V12.7892C140.031 13.8074 140.856 14.6328 141.875 14.6328Z" fill="#94DDF2"/>
        <path d="M121.224 34.2363H139.021C140.04 34.2363 140.865 33.4109 140.865 32.3927V27.5292C140.865 26.511 140.04 25.6856 139.021 25.6856H121.224C120.206 25.6856 119.381 26.511 119.381 27.5292V32.3927C119.381 33.4109 120.206 34.2363 121.224 34.2363Z" fill="#0D88BC"/>
        <path d="M104.086 135.385C161.571 135.385 208.173 124.787 208.173 111.714C208.173 98.6408 161.571 88.043 104.086 88.043C46.601 88.043 0 98.6408 0 111.714C0 124.787 46.601 135.385 104.086 135.385Z" fill="#F5F5F5"/>
        <path d="M133.001 99.2045C133.001 107.453 125.154 113.058 125.154 117.025C125.154 120.992 129.308 129.304 162.771 129.304C196.235 129.304 201.081 118.095 201.081 113.75C201.081 93.3484 133.001 84.6586 133.001 99.2045Z" fill="#A7DBF1"/>
        <path d="M23.7691 101.09C23.7691 101.09 25.6464 94.7482 23.4187 90.0787C22.4744 88.1266 22.1897 85.9207 22.6073 83.7928C22.8134 82.784 23.1115 81.7962 23.4979 80.8418" stroke="#535461" stroke-width="2" stroke-miterlimit="10"/>
        <path d="M22.1172 77.8921C22.1172 78.67 23.5252 80.9245 23.5252 80.9245C23.5252 80.9245 24.9331 78.67 24.9331 77.8921C24.9331 77.5188 24.7848 77.1607 24.5208 76.8967C24.2567 76.6327 23.8986 76.4844 23.5252 76.4844C23.1517 76.4844 22.7936 76.6327 22.5296 76.8967C22.2655 77.1607 22.1172 77.5188 22.1172 77.8921Z" fill="#0D88BC"/>
        <path d="M19.7885 82.1979C20.2057 82.8507 22.6191 83.9769 22.6191 83.9769C22.6191 83.9769 22.5753 81.3199 22.1518 80.6671C21.9478 80.356 21.6289 80.1383 21.2649 80.0615C20.9008 79.9848 20.5211 80.0553 20.2089 80.2575C19.8966 80.4598 19.6771 80.7774 19.5983 81.141C19.5196 81.5046 19.5879 81.8846 19.7885 82.1979Z" fill="#0D88BC"/>
        <path d="M19.8902 89.5571C20.5848 89.9075 23.2276 89.6656 23.2276 89.6656C23.2276 89.6656 21.8488 87.3944 21.1542 87.0441C20.822 86.8852 20.4408 86.8628 20.0922 86.9816C19.7436 87.1004 19.4555 87.3511 19.2896 87.6798C19.1237 88.0086 19.0933 88.3892 19.2047 88.7402C19.3162 89.0911 19.5608 89.3844 19.886 89.5571H19.8902Z" fill="#0D88BC"/>
        <path d="M21.2212 95.1075C21.847 95.5705 24.4961 95.779 24.4961 95.779C24.4961 95.779 23.5199 93.3077 22.8962 92.8447C22.5951 92.6468 22.2296 92.5719 21.875 92.6353C21.5203 92.6987 21.2034 92.8956 20.9896 93.1856C20.7758 93.4755 20.6813 93.8364 20.7255 94.1939C20.7698 94.5515 20.9494 94.8784 21.2275 95.1075H21.2212Z" fill="#0D88BC"/>
        <path d="M25.5739 84.1285C25.017 84.6707 22.418 85.2317 22.418 85.2317C22.418 85.2317 23.0542 82.6519 23.6111 82.1034C23.7437 81.9746 23.9003 81.8731 24.0722 81.8047C24.244 81.7364 24.4276 81.7026 24.6124 81.7052C24.7973 81.7078 24.9799 81.7468 25.1497 81.82C25.3195 81.8931 25.4732 81.999 25.6021 82.1316C25.731 82.2641 25.8325 82.4208 25.9008 82.5925C25.9692 82.7643 26.003 82.9479 26.0004 83.1327C25.9978 83.3176 25.9587 83.5001 25.8856 83.6699C25.8124 83.8396 25.7065 83.9934 25.5739 84.1222V84.1285Z" fill="#0D88BC"/>
        <path d="M27.0503 90.6337C26.3557 90.984 23.7129 90.7421 23.7129 90.7421C23.7129 90.7421 25.0917 88.471 25.7863 88.1206C26.1173 87.9713 26.4932 87.9557 26.8355 88.0769C27.1778 88.1982 27.46 88.447 27.6231 88.7713C27.7863 89.0957 27.8178 89.4706 27.711 89.8176C27.6043 90.1646 27.3676 90.457 27.0503 90.6337Z" fill="#0D88BC"/>
        <path d="M27.6128 97.1641C26.987 97.6271 24.3379 97.8356 24.3379 97.8356C24.3379 97.8356 25.3141 95.3643 25.9378 94.9013C26.2389 94.7034 26.6044 94.6285 26.959 94.6919C27.3137 94.7553 27.6306 94.9523 27.8444 95.2422C28.0582 95.5322 28.1527 95.8931 28.1085 96.2506C28.0642 96.6081 27.8846 96.935 27.6065 97.1641H27.6128Z" fill="#0D88BC"/>
        <path d="M124.524 65.1465C124.524 65.1465 131.385 72.0058 127.511 82.1833C123.638 92.3607 134.151 109.295 134.151 109.295C134.151 109.295 134.038 109.279 133.829 109.241C119.739 106.745 112.739 90.6318 120.574 78.665C123.485 74.2144 125.878 68.9964 124.524 65.1465Z" fill="#A7DBF1"/>
        <path d="M124.524 65.1465C124.524 65.1465 128.398 73.5533 124.524 80.4126C120.651 87.272 123.861 106.519 134.157 109.285" stroke="#535461" stroke-miterlimit="10"/>
        <path d="M112.307 92.8892C112.307 92.8892 120.135 91.6378 120.848 98.6578C121.562 105.678 135.9 106.643 135.9 106.643L135.631 106.823C123.792 114.593 112.478 111.772 114.18 101.454C114.814 97.6192 114.758 93.763 112.307 92.8892Z" fill="#94DDF2"/>
        <path d="M112.307 92.8867C112.307 92.8867 118.383 94.2194 117.884 99.744C117.386 105.269 126.908 111.89 135.9 106.641" stroke="#535461" stroke-miterlimit="10"/>
        <path d="M171.863 109.034C171.863 109.034 160.245 106.711 157.145 103.612C154.046 100.512 140.104 95.0922 138.554 98.965C137.004 102.838 117.641 116.006 130.819 118.329C143.998 120.653 161.803 121.426 165.677 119.879C169.55 118.331 171.863 109.034 171.863 109.034Z" fill="#A8A8A8"/>
        <path opacity="0.2" d="M130.819 116.891C143.987 119.214 161.803 119.988 165.677 118.44C168.626 117.26 170.683 111.593 171.486 108.955L171.874 109.036C171.874 109.036 169.55 118.33 165.677 119.881C161.803 121.433 143.983 120.655 130.819 118.332C127.019 117.66 125.932 116.086 126.341 114.092C126.647 115.391 127.98 116.39 130.819 116.891Z" fill="black"/>
        <path d="M195.371 5.87586C195.164 5.35995 194.834 4.90246 194.409 4.5432C191.291 1.70269 186.249 2.56402 182.378 0.826767C181.485 0.426343 180.572 -0.128412 179.604 0.0238323C178.252 0.232386 176.994 1.77569 175.816 1.09163L175.899 1.34815L175.816 1.30435L176.683 3.94465C177.017 4.95822 177.368 6.00099 178.014 6.84564C177.057 7.68037 176.324 8.74183 175.883 9.93289C175.442 11.124 175.306 12.4066 175.489 13.6635C175.672 14.9203 176.167 16.1113 176.929 17.1274C177.691 18.1435 178.696 18.9523 179.852 19.4798C179.894 19.5674 179.933 19.6571 179.973 19.7468L180.083 19.7927C180.34 20.3833 180.532 21 180.655 21.6321C179.652 21.7719 177.902 22.8834 176.183 24.5185L172.745 24.4038C170.522 24.3296 168.37 23.598 166.563 22.3016L156.267 14.9083C155.533 14.9806 154.842 15.2861 154.295 15.7801C153.019 14.4495 151.934 13.0689 152.026 12.2347C152.026 12.2347 147.241 3.28145 145.501 7.75702C143.762 12.2326 148.764 16.9334 148.764 16.9334L151.936 21.044C151.811 21.7647 151.732 22.4926 151.699 23.2234C155.614 27.701 169.314 31.7512 169.314 31.7512L171.45 31.8554L171.462 31.9597C171.331 32.5202 171.267 33.0942 171.27 33.6699C171.27 33.7533 171.27 33.8388 171.27 33.9264C171.27 34.014 171.27 34.0411 171.27 34.0974C171.379 41.2383 172.357 63.0864 172.357 63.0864C172.547 63.0009 172.745 62.9237 172.945 62.8507L172.793 64.7924C172.793 64.7924 163.659 66.0708 156.917 68.6298C150.176 71.1887 149.959 74.1731 149.959 74.1731V100.505C148.034 101.494 144.994 102.799 143.434 102.096C141.74 101.341 140.812 101.975 140.643 102.637C140.611 102.767 140.611 102.904 140.643 103.035C140.658 103.094 140.679 103.151 140.708 103.204V103.216C140.739 103.272 140.778 103.322 140.823 103.367C141.476 104.007 155.612 109.548 158.874 108.695C158.975 108.669 159.074 108.635 159.17 108.595C159.201 108.582 159.229 108.566 159.26 108.551C159.291 108.537 159.381 108.495 159.437 108.462C159.494 108.428 159.502 108.418 159.533 108.397C159.564 108.376 159.631 108.332 159.677 108.297C159.723 108.261 159.738 108.243 159.767 108.215C159.796 108.188 159.852 108.142 159.89 108.101C159.927 108.059 159.944 108.038 159.971 108.007C159.998 107.976 160.046 107.923 160.08 107.878C160.113 107.832 160.126 107.809 160.151 107.775C160.176 107.742 160.217 107.679 160.247 107.629C160.276 107.579 160.286 107.558 160.305 107.521C160.324 107.483 160.363 107.415 160.39 107.358C160.418 107.302 160.424 107.285 160.438 107.248C160.453 107.21 160.491 107.129 160.514 107.068C160.536 107.008 160.539 106.995 160.553 106.958C160.568 106.92 160.599 106.826 160.618 106.749C160.618 106.714 160.637 106.678 160.647 106.643C160.666 106.57 160.687 106.499 160.703 106.434C160.703 106.401 160.718 106.368 160.724 106.334C160.741 106.255 160.758 106.176 160.77 106.097C160.77 106.067 160.77 106.036 160.785 106.007C160.799 105.921 160.812 105.834 160.822 105.748V105.673C160.833 105.579 160.843 105.485 160.851 105.392V105.333C160.86 105.232 160.866 105.13 160.87 105.029V104.987C160.87 104.879 160.87 104.77 160.87 104.662V104.641C160.866 103.369 160.726 102.102 160.453 100.86L161.273 78.4339C165.544 78.5003 169.817 78.343 174.072 77.9626L174.539 88.6656C174.539 88.6656 174.539 95.7001 176.932 98.8972C178.98 101.633 181.345 113.736 181.984 117.171C181.105 118.839 179.424 120.925 176.496 120.854C176.496 120.854 170.987 120.378 171.298 121.897C171.306 121.936 171.318 121.975 171.333 122.013C171.35 122.057 171.371 122.1 171.394 122.141C171.417 122.18 171.442 122.22 171.471 122.262L171.487 122.287C171.519 122.33 171.554 122.376 171.594 122.424V122.435C171.631 122.478 171.671 122.522 171.715 122.566L171.752 122.604C171.802 122.654 171.852 122.704 171.911 122.756C174.737 125.315 191.266 125.74 191.266 125.74V125.682C191.266 125.665 191.266 125.644 191.266 125.621C191.266 124.881 191.157 120.998 190.169 118.074H190.398C190.398 118.074 188.006 96.5427 186.049 93.9858C186.049 93.9858 185.53 82.6321 186.702 75.5183L186.911 75.4391C192.392 73.3911 192.782 68.3482 192.217 64.6443C193.26 64.978 193.869 65.2053 193.869 65.2053C193.869 65.2053 193.85 65.0447 193.815 64.759L193.869 64.7799C193.869 64.7799 193.765 64.1021 193.592 63.0468C193.2 60.1416 192.44 55.0654 191.631 52.6691C191.5 52.1415 191.374 51.691 191.26 51.3511C190.793 49.9111 190.472 48.4277 190.302 46.9235C190.081 44.9737 189.968 43.013 189.966 41.0506C189.984 38.4287 190.185 35.8112 190.567 33.2173C190.899 30.9524 191.193 28.3747 191.172 26.5749C191.195 25.9463 191.151 25.3171 191.041 24.6979C190.751 23.3694 189.468 22.506 188.135 21.9554C188.049 21.9199 187.962 21.8907 187.874 21.8574C187.908 21.3547 187.949 20.7833 188.004 20.1889C188.163 20.2996 188.344 20.3766 188.534 20.4153C188.725 20.4541 188.921 20.4537 189.111 20.4142C189.685 20.289 190.096 19.8114 190.461 19.3714C192.388 17.0043 194.368 14.5371 195.108 11.5965C195.407 10.2833 195.547 8.9389 195.525 7.59226C195.525 7.51857 195.525 7.44488 195.525 7.37119C195.561 6.86757 195.509 6.36159 195.371 5.87586Z" fill="url(#paint1_linear)"/>
        <path d="M177.822 17.4142C177.822 17.4142 180.743 21.7938 180.117 23.8794C179.491 25.9649 187 24.7136 187 24.7136C187 24.7136 187.209 16.58 188.669 14.703C190.129 12.826 177.822 17.4142 177.822 17.4142Z" fill="#F7C4A7"/>
        <path d="M158.527 20.2304C158.527 20.2304 152.478 15.2251 152.686 13.3481C152.686 13.3481 148.097 4.58885 146.429 8.96849C144.76 13.3481 149.558 17.9363 149.558 17.9363L155.398 25.6528L158.527 20.2304Z" fill="#F7C4A7"/>
        <path d="M152.375 98.75C152.375 98.75 146.743 102.295 144.448 101.253C142.154 100.21 141.32 101.878 141.945 102.504C142.571 103.13 156.129 108.552 159.258 107.718C162.387 106.884 160.796 100.051 160.796 100.051L152.375 98.75Z" fill="#535461"/>
        <path d="M182.204 113.975C182.204 113.975 180.848 119.71 176.155 119.606C176.155 119.606 169.062 118.98 171.774 121.483C174.486 123.985 190.339 124.403 190.339 124.403C190.339 124.403 190.339 115.852 187.418 113.975C184.498 112.098 182.204 113.975 182.204 113.975Z" fill="#535461"/>
        <path d="M173.65 73.5155L174.276 88.1142C174.276 88.1142 174.276 94.9965 176.571 98.1248C178.865 101.253 181.577 116.895 181.577 116.895H189.503C189.503 116.895 187.209 95.8308 185.331 93.3281C185.331 93.3281 184.497 74.7668 187.417 70.5957L173.65 73.5155Z" fill="#575988"/>
        <path opacity="0.1" d="M173.65 73.5155L174.276 88.1142C174.276 88.1142 174.276 94.9965 176.571 98.1248C178.865 101.253 181.577 116.895 181.577 116.895H189.503C189.503 116.895 187.209 95.8308 185.331 93.3281C185.331 93.3281 184.497 74.7668 187.417 70.5957L173.65 73.5155Z" fill="black"/>
        <path d="M190.129 60.3768C190.129 60.3768 194.926 71.8472 186.165 75.1841C177.405 78.521 161.552 78.1039 161.552 78.1039L160.717 102.296C160.717 102.296 150.914 103.547 150.705 100.419V73.9328C150.705 73.9328 150.914 71.013 157.38 68.5104C163.846 66.0077 172.607 64.7564 172.607 64.7564L173.024 59.334L190.129 60.3768Z" fill="#575988"/>
        <path opacity="0.1" d="M182.444 22.588C184.11 22.4035 185.796 22.6416 187.346 23.2804C188.625 23.8184 189.849 24.6631 190.133 25.9624C190.462 27.5015 190.097 30.9531 189.678 33.8749C189.006 38.4537 188.921 43.0995 189.424 47.6999C189.632 49.6166 189.935 51.2871 190.341 52.0316C191.593 54.3257 192.844 65.1705 192.844 65.1705C192.844 65.1705 179.078 59.9567 172.194 63.085C172.194 63.085 171.255 41.7082 171.151 34.7216C171.07 29.3117 177.93 23.1469 180.225 22.9383C181.568 22.8174 181.107 22.7277 182.444 22.588Z" fill="black"/>
        <path d="M182.444 22.1719C184.11 21.9875 185.796 22.2256 187.346 22.8643C188.625 23.4024 189.849 24.2471 190.133 25.5463C190.462 27.0855 190.097 30.537 189.678 33.4589C189.006 38.0377 188.921 42.6835 189.424 47.2839C189.586 48.7546 189.893 50.2055 190.341 51.6156C191.28 54.4311 192.844 64.7545 192.844 64.7545C192.844 64.7545 179.078 59.5407 172.194 62.669C172.194 62.669 171.255 41.2922 171.151 34.3056C171.07 28.8957 177.93 22.7309 180.225 22.5223C181.568 22.4013 181.107 22.3117 182.444 22.1719Z" fill="#E14B5A"/>
        <path opacity="0.1" d="M186.165 33.6816L171.356 32.8474C171.356 32.8474 170.413 25.5876 172.551 25.6627L187.208 26.1736C187.208 26.1736 190.337 29.9276 186.165 33.6816Z" fill="black"/>
        <path d="M186.167 33.2651L169.271 32.4309C169.271 32.4309 156.13 28.4683 152.375 24.0887C152.375 24.0887 152.584 16.3722 156.755 15.9551L166.624 23.1898C168.349 24.4547 170.414 25.1712 172.552 25.2462L187.209 25.7571C187.209 25.7571 190.338 29.5111 186.167 33.2651Z" fill="#E14B5A"/>
        <path opacity="0.1" d="M186.896 18.3531C187.144 16.376 188.041 15.7191 188.669 14.912C190.129 13.035 177.822 17.6232 177.822 17.6232C178.458 18.6002 179.016 19.626 179.491 20.691C180.472 21.143 181.54 21.3771 182.62 21.3772C184.426 21.3772 185.599 19.423 186.896 18.3531Z" fill="black"/>
        <path d="M182.621 21.1682C186.768 21.1682 190.13 17.8068 190.13 13.6603C190.13 9.51377 186.768 6.15234 182.621 6.15234C178.473 6.15234 175.111 9.51377 175.111 13.6603C175.111 17.8068 178.473 21.1682 182.621 21.1682Z" fill="#F7C4A7"/>
        <path opacity="0.1" d="M177.88 8.39766C177.081 7.52382 176.695 6.36009 176.332 5.23181L175.498 2.64783C176.629 3.3152 177.834 1.81361 179.132 1.60506C180.06 1.45698 180.938 1.99923 181.793 2.38922C185.506 4.08685 190.345 3.24429 193.332 6.02432C193.741 6.37782 194.057 6.82511 194.254 7.32778C194.392 7.80147 194.449 8.2951 194.421 8.78766C194.446 10.104 194.315 11.4186 194.031 12.7043C193.322 15.5803 191.424 17.9953 189.574 20.3103C189.223 20.7503 188.829 21.2175 188.278 21.3405C187.204 21.5804 186.374 20.4208 185.959 19.4031C185.409 18.0545 185.003 16.6514 184.749 15.2174C184.641 14.6105 184.555 13.9848 184.253 13.4488C183.606 12.3039 182.012 11.2194 181.044 10.331C180.077 9.44252 178.769 9.36744 177.88 8.39766Z" fill="black"/>
        <path d="M177.88 8.19063C177.081 7.31679 176.695 6.15306 176.332 5.02478L175.498 2.4408C176.629 3.10817 177.834 1.60658 179.132 1.39803C180.06 1.24995 180.938 1.79219 181.793 2.18219C185.506 3.87982 190.345 3.03726 193.332 5.81729C193.741 6.17079 194.057 6.61807 194.254 7.12075C194.392 7.59444 194.449 8.08807 194.421 8.58063C194.446 9.89697 194.315 11.2116 194.031 12.4973C193.322 15.3732 191.424 17.7883 189.574 20.1032C189.223 20.5433 188.829 21.0105 188.278 21.1335C187.204 21.3733 186.374 20.2138 185.959 19.196C185.409 17.8474 185.003 16.4444 184.749 15.0104C184.641 14.4035 184.555 13.7778 184.253 13.2418C183.606 12.0969 182.012 11.0124 181.044 10.1239C180.077 9.23549 178.769 9.16041 177.88 8.19063Z" fill="#632652"/>
        <path d="M184.602 15.8499C184.948 15.8499 185.228 15.243 185.228 14.4943C185.228 13.7456 184.948 13.1387 184.602 13.1387C184.257 13.1387 183.977 13.7456 183.977 14.4943C183.977 15.243 184.257 15.8499 184.602 15.8499Z" fill="#F7C4A7"/>
        <path opacity="0.1" d="M188.357 50.6777C188.357 50.6777 187.94 51.9291 185.854 51.7205C183.768 51.5119 177.719 51.0948 177.719 51.7205" fill="black"/>
        <path opacity="0.5" d="M171.773 121.274C171.398 120.928 171.21 120.648 171.166 120.404C171.112 120.675 171.279 121.03 171.773 121.483C174.485 123.985 190.338 124.402 190.338 124.402C190.338 124.402 190.338 124.329 190.338 124.194C190.235 124.192 174.476 123.768 171.773 121.274Z" fill="white"/>
        <path opacity="0.5" d="M159.26 107.302C156.131 108.136 142.573 102.713 141.947 102.088C141.863 102.003 141.804 101.898 141.774 101.783C141.738 101.908 141.735 102.04 141.765 102.167C141.795 102.293 141.858 102.41 141.947 102.505C142.573 103.13 156.131 108.553 159.26 107.719C160.87 107.289 161.229 105.272 161.2 103.414C161.168 105.145 160.749 106.901 159.26 107.302Z" fill="white"/>
        <path d="M104.731 105.057C104.814 105.057 104.893 105.024 104.952 104.966C105.011 104.907 105.044 104.827 105.044 104.744C105.044 104.662 105.011 104.582 104.952 104.523C104.893 104.465 104.814 104.432 104.731 104.432C104.648 104.432 104.568 104.465 104.51 104.523C104.451 104.582 104.418 104.662 104.418 104.744C104.418 104.827 104.451 104.907 104.51 104.966C104.568 105.024 104.648 105.057 104.731 105.057Z" fill="#67647E"/>
        <path d="M19.084 99.5243C19.084 99.5243 26.8685 99.2845 29.2131 97.614C31.5576 95.9435 41.1861 93.9497 41.7681 96.6275C42.3501 99.3054 53.4679 109.95 44.6717 110.029C35.8755 110.108 24.2528 108.661 21.9104 107.235C19.5679 105.808 19.084 99.5243 19.084 99.5243Z" fill="#A8A8A8"/>
        <path opacity="0.2" d="M44.8365 109.088C36.0486 109.159 24.4176 107.72 22.0752 106.294C20.2917 105.207 19.5721 101.311 19.3447 99.5137H19.084C19.084 99.5137 19.5763 105.791 21.9187 107.216C24.2612 108.64 35.8921 110.091 44.6717 110.029C47.2081 110.008 48.0842 109.107 48.0362 107.77C47.6921 108.569 46.7242 109.074 44.8365 109.088Z" fill="black"/>
        <path d="M197.359 119.535H215.156C216.174 119.535 217 118.71 217 117.692V112.828C217 111.81 216.174 110.984 215.156 110.984H197.359C196.341 110.984 195.515 111.81 195.515 112.828V117.692C195.515 118.71 196.341 119.535 197.359 119.535Z" fill="#94DDF2"/>
        <path d="M215.156 102.85H197.36C196.341 102.85 195.516 103.675 195.516 104.693V109.557C195.516 110.575 196.341 111.4 197.36 111.4H215.156C216.175 111.4 217 110.575 217 109.557V104.693C217 103.675 216.175 102.85 215.156 102.85Z" fill="#0D88BC"/>
        <path d="M197.359 102.85H215.156C216.174 102.85 217 102.024 217 101.006V96.1425C217 95.1243 216.174 94.2989 215.156 94.2989H197.359C196.341 94.2989 195.515 95.1243 195.515 96.1425V101.006C195.515 102.024 196.341 102.85 197.359 102.85Z" fill="#94DDF2"/>
        <path d="M215.156 85.748H197.36C196.341 85.748 195.516 86.5735 195.516 87.5917V92.4551C195.516 93.4734 196.341 94.2988 197.36 94.2988H215.156C216.175 94.2988 217 93.4734 217 92.4551V87.5917C217 86.5735 216.175 85.748 215.156 85.748Z" fill="#0D88BC"/>
    </g>
    <defs>
        <linearGradient id="paint0_linear" x1="150.772" y1="14.9639" x2="150.772" y2="5.75" gradientUnits="userSpaceOnUse">
            <stop stop-color="#808080" stop-opacity="0.25"/>
            <stop offset="0.54" stop-color="#808080" stop-opacity="0.12"/>
            <stop offset="1" stop-color="#808080" stop-opacity="0.1"/>
        </linearGradient>
        <linearGradient id="paint1_linear" x1="48778.4" y1="91593.1" x2="48778.4" y2="15770.6" gradientUnits="userSpaceOnUse">
            <stop stop-color="#808080" stop-opacity="0.25"/>
            <stop offset="0.54" stop-color="#808080" stop-opacity="0.12"/>
            <stop offset="1" stop-color="#808080" stop-opacity="0.1"/>
        </linearGradient>
        <clipPath id="clip0">
            <rect width="217" height="135.385" fill="white"/>
        </clipPath>
    </defs>
</svg>
