<svg width="339" height="744" viewBox="0 0 339 744" fill="none" xmlns="http://www.w3.org/2000/svg">
<g clip-path="url(#clip0)">
<path d="M274.365 512.536C274.365 529.745 304.434 541.437 304.434 549.713C304.434 557.989 288.515 575.33 160.282 575.33C32.0492 575.33 13.4776 551.946 13.4776 542.882C13.4776 500.318 274.365 482.189 274.365 512.536Z" fill="#A7DBF1"/>
<path d="M32.1894 557.776H141.07V555.551H32.028L32.1894 557.776Z" fill="#3F3D56"/>
<path d="M85.6968 537.29H92.4297V551.713H85.6968V537.29Z" fill="#FBBEBE"/>
<path d="M33.2789 537.77H40.0117V552.192H33.2789V537.77Z" fill="#FBBEBE"/>
<path d="M32.5546 544.74L40.7302 543.779L61.8907 446.186L84.9748 544.259L93.1504 543.298C94.4994 498.921 90.5568 454.527 87.1389 417.581L38.3257 413.495C29.1286 449.901 28.7514 495.211 32.5546 544.74Z" fill="#0D88BC"/>
<path d="M37.6319 419.27C37.6319 419.27 49.0012 431.129 42.5751 434.094C36.149 437.059 32.1944 420.752 32.1944 420.752L37.6319 419.27Z" fill="#FBBEBE"/>
<path d="M95.8233 420.23C95.8233 420.23 107.193 432.09 100.766 435.055C94.3403 438.02 90.3858 421.713 90.3858 421.713L95.8233 420.23Z" fill="#FBBEBE"/>
<path d="M61.171 334.411C53.7341 334.411 47.7052 328.385 47.7052 320.95C47.7052 313.516 53.7341 307.489 61.171 307.489C68.6079 307.489 74.6367 313.516 74.6367 320.95C74.6367 328.385 68.6079 334.411 61.171 334.411Z" fill="#FBBEBE"/>
<path d="M45.54 349.074L69.5859 351.478C67.3633 341.476 66.8246 332.131 69.5859 324.075H52.7538C53.6682 330.788 50.2504 339.616 45.54 349.074Z" fill="#FBBEBE"/>
<path d="M38.8066 418.784C47.7914 429.588 66.6727 425.975 88.3412 418.303C82.1925 398.239 83.1459 377.072 88.6711 355.194C88.9724 354.018 88.848 352.774 88.32 351.681C87.792 350.588 86.8944 349.717 85.7859 349.221L68.1426 341.383L61.4098 342.825L49.8677 339.94L33.4838 343.291C32.1516 343.563 30.9612 344.304 30.1284 345.379C29.2956 346.453 28.8755 347.79 28.9444 349.148C30.3147 376.001 32.7387 400.853 38.8066 418.784Z" fill="#E6E6E6"/>
<path d="M33.9998 427.438L38.3281 420.227L30.1525 389.459L34.4808 343.307C31.6888 343.586 29.0579 344.745 26.9683 346.617C24.8788 348.489 23.4388 350.977 22.8566 353.721L16.2903 384.665C15.3005 389.33 15.8946 394.191 17.9787 398.48L33.9998 427.438Z" fill="#E6E6E6"/>
<path d="M90.2661 422.149L100.125 423.832L93.8384 362.313C93.7774 359.243 92.8131 356.259 91.0659 353.734C89.3187 351.209 86.8661 349.254 84.0142 348.113L80.8882 388.737L90.2661 422.149Z" fill="#E6E6E6"/>
<path d="M88.2554 556.752L106.402 559.938C107.226 560.082 108.074 559.968 108.83 559.611C109.429 559.329 109.949 558.904 110.345 558.373C110.741 557.843 111.001 557.223 111.101 556.569C111.202 555.915 111.141 555.246 110.922 554.621C110.704 553.996 110.336 553.434 109.85 552.985L102.077 545.795L100.05 542.255C99.4799 541.23 98.6664 540.36 97.6813 539.723C96.6961 539.086 95.5694 538.701 94.4003 538.601C90.9347 538.361 89.7909 540.997 90.5155 545.948C87.8833 547.883 87.4672 547.586 85.6953 544.981L84.8911 553.142C84.9829 554.028 85.361 554.859 85.9681 555.511C86.5753 556.162 87.3783 556.598 88.2554 556.752Z" fill="#2F2E41"/>
<path d="M35.8374 556.752L53.9842 559.938C54.8078 560.082 55.656 559.968 56.4122 559.611C57.0109 559.329 57.531 558.904 57.927 558.373C58.323 557.843 58.5827 557.223 58.6834 556.569C58.7841 555.915 58.7227 555.246 58.5045 554.621C58.2863 553.996 57.9181 553.434 57.4321 552.985L49.6586 545.795L47.6319 542.255C47.0619 541.23 46.2485 540.36 45.2633 539.723C44.2781 539.086 43.1514 538.701 41.9823 538.601C38.5167 538.361 37.3729 540.997 38.0975 545.948C35.4653 547.883 35.0492 547.586 33.2773 544.981L32.4731 553.142C32.5649 554.028 32.943 554.859 33.5501 555.511C34.1573 556.162 34.9603 556.598 35.8374 556.752Z" fill="#2F2E41"/>
<path d="M71.8609 313.284C65.7914 309.812 59.7137 312.03 53.6254 321.502L52.3807 331.591C43.2432 322.938 43.7051 311.129 53.9522 306.325C54.9596 305.853 55.9359 305.316 57.0322 305.506C59.199 304.343 61.7279 304.051 64.1028 304.689C66.4778 305.327 68.5198 306.846 69.8121 308.938C71.7053 309.266 74.4193 313.026 74.3217 314.944L71.8609 313.284Z" fill="#2F2E41"/>
<path d="M54.1996 323.835C53.27 323.835 52.5164 322.866 52.5164 321.671C52.5164 320.476 53.27 319.508 54.1996 319.508C55.1292 319.508 55.8828 320.476 55.8828 321.671C55.8828 322.866 55.1292 323.835 54.1996 323.835Z" fill="#FBBEBE"/>
<path d="M255.187 424.375H227.166C227.166 427.308 228.331 430.12 230.406 432.194C232.48 434.267 235.293 435.432 238.227 435.432H244.126C247.06 435.432 249.873 434.267 251.948 432.194C254.022 430.12 255.188 427.308 255.188 424.375H255.187Z" fill="#3F3D56"/>
<path d="M220.619 399.619V389.343C220.619 376.927 207.111 365.183 198.348 356.804C185.996 345 179.503 329.142 179.503 310.565C179.503 294.243 185.977 278.588 197.507 267.03C209.036 255.473 224.679 248.958 241.006 248.912C257.333 248.867 273.012 255.295 284.606 266.788C296.199 278.281 302.76 293.9 302.851 310.222C302.852 310.336 302.852 310.45 302.851 310.565C302.851 328.478 296.08 345.411 284.006 356.804C275.291 365.029 261.735 376.799 261.735 389.343V399.619" fill="#F2C94C"/>
<path d="M220.618 401.062C220.807 401.062 220.995 401.024 221.17 400.952C221.345 400.879 221.504 400.773 221.638 400.639C221.772 400.505 221.878 400.346 221.951 400.171C222.023 399.996 222.061 399.809 222.06 399.619V389.344C222.06 377.265 210.144 365.989 201.442 357.755C200.72 357.072 200.018 356.408 199.344 355.763C187.307 344.26 180.944 328.631 180.944 310.566C180.944 276.803 207.401 250.355 241.176 250.355C241.232 250.355 241.289 250.355 241.346 250.355C257.24 250.373 272.481 256.681 283.736 267.9C294.991 279.12 301.345 294.338 301.407 310.227V310.563C301.407 328.255 294.704 344.726 283.015 355.756C282.423 356.316 281.808 356.891 281.176 357.482C272.362 365.731 260.291 377.028 260.291 389.344V399.619C260.291 400.002 260.443 400.369 260.714 400.639C260.984 400.91 261.351 401.061 261.734 401.061C262.117 401.061 262.484 400.91 262.754 400.639C263.025 400.369 263.177 400.002 263.177 399.619V389.344C263.177 378.279 274.72 367.476 283.148 359.587C283.783 358.994 284.401 358.416 284.996 357.854C297.259 346.281 304.293 329.045 304.293 310.566V310.22C304.196 275.584 275.974 247.47 241.35 247.47C241.289 247.47 241.233 247.47 241.172 247.471C232.871 247.427 224.645 249.03 216.968 252.186C209.291 255.341 202.316 259.987 196.447 265.855C190.577 271.722 185.93 278.695 182.774 286.37C179.618 294.044 178.015 302.268 178.059 310.566C178.059 329.437 184.73 345.787 197.35 357.848C198.027 358.495 198.733 359.163 199.459 359.85C207.779 367.724 219.175 378.506 219.175 389.344V399.619C219.175 399.809 219.212 399.996 219.285 400.171C219.357 400.346 219.464 400.505 219.598 400.639C219.731 400.773 219.891 400.879 220.066 400.952C220.241 401.024 220.428 401.062 220.618 401.062Z" fill="#FFC729"/>
<path d="M227.47 419.567H254.881C255.518 419.567 256.13 419.314 256.581 418.863C257.032 418.412 257.285 417.801 257.285 417.164C257.285 416.526 257.032 415.915 256.581 415.464C256.13 415.013 255.518 414.76 254.881 414.76H227.47C226.832 414.76 226.22 415.013 225.77 415.464C225.319 415.915 225.065 416.526 225.065 417.164C225.065 417.801 225.319 418.412 225.77 418.863C226.22 419.314 226.832 419.567 227.47 419.567Z" fill="#F9A826"/>
<path d="M304.948 253.902C305.53 253.903 306.091 253.692 306.529 253.309L327.179 235.29C327.417 235.083 327.612 234.83 327.753 234.547C327.893 234.265 327.977 233.957 327.998 233.642C328.02 233.327 327.979 233.01 327.878 232.711C327.777 232.412 327.619 232.135 327.411 231.897C327.203 231.659 326.95 231.465 326.667 231.324C326.384 231.184 326.076 231.101 325.761 231.08C325.446 231.058 325.129 231.1 324.83 231.201C324.531 231.302 324.254 231.461 324.016 231.669L303.366 249.688C302.997 250.01 302.736 250.436 302.616 250.911C302.496 251.385 302.524 251.885 302.696 252.343C302.868 252.801 303.176 253.196 303.579 253.475C303.981 253.753 304.459 253.903 304.948 253.902H304.948Z" fill="#E6E6E6"/>
<path d="M180.833 253.903C181.322 253.903 181.8 253.754 182.203 253.476C182.605 253.197 182.913 252.802 183.085 252.344C183.257 251.886 183.285 251.386 183.165 250.912C183.046 250.437 182.784 250.011 182.415 249.689L161.765 231.67C161.285 231.251 160.658 231.04 160.022 231.084C159.386 231.127 158.793 231.421 158.374 231.901C157.955 232.381 157.744 233.008 157.786 233.643C157.829 234.279 158.123 234.872 158.603 235.291L179.253 253.31C179.69 253.693 180.252 253.904 180.833 253.903Z" fill="#E6E6E6"/>
<path d="M220.616 411.035H261.732C262.37 411.035 262.981 410.782 263.432 410.331C263.883 409.88 264.137 409.269 264.137 408.631C264.137 407.994 263.883 407.382 263.432 406.932C262.981 406.481 262.37 406.228 261.732 406.228H220.616C219.978 406.228 219.367 406.481 218.916 406.932C218.465 407.382 218.211 407.994 218.211 408.631C218.211 409.269 218.465 409.88 218.916 410.331C219.367 410.782 219.978 411.035 220.616 411.035Z" fill="#F9A826"/>
<path d="M241.177 402.022C241.493 402.022 241.806 401.96 242.098 401.839C242.389 401.718 242.654 401.541 242.878 401.318C243.101 401.095 243.278 400.83 243.399 400.538C243.52 400.246 243.582 399.934 243.582 399.618V344.816C243.582 344.178 243.329 343.567 242.878 343.116C242.427 342.665 241.815 342.412 241.177 342.412C240.54 342.412 239.928 342.665 239.477 343.116C239.026 343.567 238.773 344.178 238.773 344.816V399.618C238.773 399.934 238.835 400.246 238.956 400.538C239.077 400.83 239.254 401.095 239.477 401.318C239.7 401.541 239.965 401.718 240.257 401.839C240.549 401.96 240.862 402.022 241.177 402.022Z" fill="white"/>
<path d="M241.176 347.222C248.945 347.222 258.484 340.195 258.886 339.896C259.139 339.708 259.353 339.472 259.515 339.201C259.677 338.93 259.784 338.629 259.83 338.317C259.876 338.005 259.86 337.686 259.783 337.38C259.705 337.074 259.569 336.786 259.38 336.533C259.192 336.28 258.955 336.066 258.684 335.904C258.413 335.742 258.113 335.635 257.8 335.589C257.488 335.544 257.169 335.56 256.863 335.637C256.557 335.714 256.269 335.851 256.016 336.039C253.626 337.812 246.299 342.414 241.176 342.414C236.053 342.414 228.726 337.812 226.335 336.038C226.081 335.85 225.793 335.713 225.487 335.636C225.181 335.559 224.862 335.543 224.55 335.589C224.237 335.635 223.937 335.742 223.666 335.904C223.395 336.066 223.159 336.28 222.97 336.533C222.782 336.786 222.645 337.074 222.568 337.381C222.491 337.687 222.475 338.005 222.521 338.317C222.567 338.63 222.674 338.93 222.836 339.201C222.998 339.472 223.212 339.708 223.465 339.896C223.868 340.195 233.406 347.222 241.176 347.222Z" fill="white"/>
<path d="M241.177 229.909C241.815 229.909 242.427 229.656 242.878 229.205C243.329 228.754 243.582 228.143 243.582 227.506V186.404C243.582 185.766 243.329 185.155 242.878 184.704C242.427 184.253 241.815 184 241.177 184C240.54 184 239.928 184.253 239.477 184.704C239.026 185.155 238.773 185.766 238.773 186.404V227.506C238.773 228.143 239.026 228.754 239.477 229.205C239.928 229.656 240.54 229.909 241.177 229.909Z" fill="#E6E6E6"/>
</g>
<defs>
<clipPath id="clip0">
<rect width="316" height="376" fill="white" transform="matrix(-1 0 0 1 328 184)"/>
</clipPath>
</defs>
</svg>
