<svg width="72" height="70" viewBox="0 0 72 70" fill="none" xmlns="http://www.w3.org/2000/svg">
<path d="M43.8129 30.0878C43.8129 30.0878 45.3665 30.4827 46.3551 30.1843C47.3437 29.886 49.0385 30.3774 49.3121 30.7284C49.5857 31.0881 49.4886 31.2285 48.9943 31.3514C48.5089 31.4742 46.7788 32.2113 45.6401 31.7814C44.5014 31.3602 43.0273 31.3426 43.0273 31.3426L43.8129 30.0878Z" fill="#FC9490"/>
<path d="M30.4048 16.6885C30.4048 16.6885 32.1437 28.9999 35.0301 30.1055C36.4512 30.6496 42.7448 31.8868 44.6073 32.0097C44.6073 32.0097 45.0663 31.6411 44.9516 30.1406C44.9516 30.1406 38.3578 27.7363 37.4222 26.4288C36.0275 24.4807 38.2872 18.4699 36.5395 16.6447C34.7918 14.8107 31.8436 14.0209 30.4048 16.6885Z" fill="#4A75CB"/>
<path d="M30.661 65.5126H32.9913C33.009 65.5126 33.0267 65.4951 33.0267 65.4775V44.5843C33.0267 44.5667 33.009 44.5492 32.9913 44.5492H30.661C30.6434 44.5492 30.6257 44.5667 30.6257 44.5843V65.4775C30.6257 65.4951 30.6434 65.5126 30.661 65.5126Z" fill="#3B3A3C"/>
<path d="M24.3938 66.8903C25.1706 65.2845 28.207 64.0911 31.8349 64.0911C35.4628 64.0911 38.4904 65.2845 39.276 66.8903H24.3938Z" fill="#3B3A3C"/>
<path d="M26.1768 61.4497H37.4841C37.493 61.4497 37.5018 61.4409 37.5018 61.4321V60.616C37.5018 60.6073 37.493 60.5985 37.4841 60.5985H26.1768C26.168 60.5985 26.1592 60.6073 26.1592 60.616V61.4321C26.1592 61.4409 26.168 61.4497 26.1768 61.4497Z" fill="#3B3A3C"/>
<path d="M30.9877 42.6274C31.4996 43.4873 32.0822 44.2859 32.6912 45.0493C34.5626 47.401 36.6016 49.3403 36.9547 51.1742C37.0253 51.5428 37.14 51.9289 37.2813 52.3501C37.4313 52.7713 37.6167 53.21 37.8285 53.6663C38.6229 55.3862 39.8146 57.308 40.9974 59.0542C43.0452 62.0728 44.9783 64.6 44.9783 64.6L48.5179 64.4508C48.3767 64.0998 46.832 59.9229 44.7665 54.8246C43.9279 52.7537 43.0364 50.5512 42.1802 48.4277C42.0654 48.1469 41.9507 47.8573 41.8359 47.5853C41.5711 46.9359 41.3152 46.2953 41.0592 45.6723C39.1173 40.8812 37.5725 37.0728 37.5725 37.0728C37.5725 37.0728 29.8225 34.1595 29.0192 36.0461C28.3661 37.5993 28.9045 39.1262 30.9877 42.6274Z" fill="#163560"/>
<path d="M45.0928 63.9593C45.0928 63.9593 45.2781 66.8638 45.8342 66.9077C45.9137 66.9165 48.703 66.9165 48.703 66.9165L52.2602 66.8989C52.2602 66.8989 52.2338 66.0478 51.1922 65.8635C50.1506 65.6792 48.4117 64.9597 47.7762 63.5908C47.123 62.1429 45.0928 63.9593 45.0928 63.9593Z" fill="#163560"/>
<path d="M36.9015 55.6671C36.9015 55.6671 34.4388 57.2378 34.6771 57.7468C34.7124 57.817 36.0718 60.2389 36.0718 60.2389L37.8283 63.3189C37.8283 63.3189 38.5698 62.8801 38.2167 61.8886C37.8636 60.897 37.6606 59.0279 38.5521 57.817C39.4878 56.5446 36.9015 55.6671 36.9015 55.6671Z" fill="#163560"/>
<path d="M40.3618 35.7654C40.3618 35.7654 49.9478 41.6973 51.0335 45.7514C52.1192 49.7966 38.0932 58.4312 38.0932 58.4312C38.0932 58.4312 36.5574 57.0799 36.2837 56.0971C36.2837 56.0971 42.6215 48.5506 43.9985 46.857C44.8458 45.8216 31.5172 43.2593 29.8842 40.7409C28.26 38.2224 28.8426 36.1077 28.8426 36.1077L40.3618 35.7654Z" fill="#1C468A"/>
<path d="M21.2426 48.8051H42.4184C42.4625 48.8051 42.5066 48.77 42.5066 48.7173V43.4962C42.5066 43.4523 42.4713 43.4085 42.4184 43.4085H21.2426C21.1984 43.4085 21.1543 43.4436 21.1543 43.4962V48.7261C21.1543 48.77 21.1896 48.8051 21.2426 48.8051Z" fill="#F99746"/>
<path d="M35.7362 14.5738C36.6895 15.1617 37.2192 15.9076 37.2192 15.9076C34.8889 16.5043 31.0315 14.3632 31.0315 14.3632C31.0315 14.3632 32.5321 13.3628 33.0882 11.1603C33.1146 11.0462 33.1411 10.9322 33.1676 10.8181C33.2382 10.4495 33.2824 10.0459 33.2912 9.6159L34.3592 10.5724L36.1423 12.1607C36.1423 12.1607 36.0981 12.8188 35.8775 13.9508C35.8245 14.135 35.7804 14.3544 35.7362 14.5738Z" fill="#FC9490"/>
<path d="M28.5601 25.5073C28.8956 29.965 28.4542 36.7569 28.8338 37.9328C29.1604 38.9507 32.8853 38.3452 34.3683 38.003C34.9155 37.8801 35.5864 37.6958 36.2749 37.4852C38.1903 36.8973 40.2823 36.0549 40.5118 35.4231C40.5206 35.3968 40.5295 35.3705 40.5295 35.3529C40.5471 35.2652 40.5471 35.1774 40.5295 35.0897C40.4588 34.7738 40.1676 34.4228 40.1322 33.633C40.0969 32.7467 40.0969 31.7113 40.0705 30.5968C40.0705 30.474 40.0705 30.3336 40.0528 30.2108V30.1669C40.0528 30.1406 40.0528 30.123 40.0528 30.0967C40.0175 28.8506 39.9557 27.5431 39.8763 26.2444C39.8321 25.4284 39.7703 24.6211 39.7086 23.8489C39.5408 21.8482 39.3113 20.0756 39.0201 18.9524C38.5346 17.1184 37.4577 15.925 36.4779 15.0475L35.7717 14.4421C34.9773 14.6176 34.0505 14.5035 33.2031 14.0998C32.2851 13.6699 31.9762 13.3627 31.8173 13.4768C29.6812 15.0914 28.1629 20.0581 28.5601 25.5073Z" fill="#739AF0"/>
<path d="M36.266 37.4939C38.1814 36.906 40.2734 36.0636 40.5029 35.4318C40.5118 35.4055 40.5206 35.3792 40.5206 35.3616C40.5206 35.2739 40.5206 35.1861 40.5206 35.0984C40.45 34.7825 40.1587 34.4315 40.1234 33.6417C40.0881 32.7554 40.0881 31.72 40.0616 30.6056C40.0616 30.4827 40.0616 30.3423 40.0439 30.2195V30.1756C40.0439 30.1493 40.0439 30.1317 40.0439 30.1054L32.7882 26.8323C32.7882 26.8323 32.3733 32.6326 36.266 37.4939Z" fill="#4A75CB"/>
<path d="M36.1337 12.1517C36.1337 12.1517 36.0895 12.8099 35.8689 13.9418C34.13 13.3802 33.3444 11.8271 33.0796 11.1602C33.0089 10.9759 32.9736 10.8618 32.9736 10.8618C32.9736 10.8618 33.0442 10.8443 33.159 10.8267C33.4062 10.7741 33.8651 10.6775 34.3595 10.5722L36.1337 12.1517Z" fill="#FF8585"/>
<path d="M36.8308 12.1343C36.8308 12.1343 33.0087 12.5643 32.7792 10.195C32.5497 7.82576 31.8965 6.29013 34.3239 5.91281C36.7513 5.53548 37.3162 6.39543 37.581 7.16763C37.8635 7.93983 37.8194 11.9588 36.8308 12.1343Z" fill="#FC9490"/>
<path d="M32.7969 10.3617C32.7969 10.3617 33.0353 7.22026 36.5131 6.89559C38.8963 6.67621 37.5635 4.64041 37.3163 4.30696C37.3163 4.30696 35.4892 4.55266 33.6267 4.85978C29.6987 5.50913 32.4174 9.87031 32.7969 10.3617Z" fill="#233862"/>
<path d="M51.2828 33.1671L51.6187 33.2755L54.4598 24.5791L54.124 24.4707L51.2828 33.1671Z" fill="#4A75CB"/>
<path d="M41.9583 33.0699L51.613 33.2748L51.6253 32.7046L41.9706 32.4996L41.9583 33.0699Z" fill="#4A75CB"/>
<path d="M43.0096 31.9749C43.0096 31.9749 44.5102 32.5365 45.5164 32.3522C46.5315 32.1679 48.1645 32.8348 48.394 33.2209C48.6235 33.607 48.5087 33.7386 48.0144 33.8088C47.5201 33.879 45.7194 34.4143 44.6337 33.8703C43.548 33.3262 42.0828 33.1507 42.0828 33.1507L43.0096 31.9749Z" fill="#FC9490"/>
<path d="M31.1729 17.1888C31.1729 17.1888 31.5436 29.623 34.2888 31.0357C35.6481 31.729 41.7652 33.6507 43.6012 33.9754C43.6012 33.9754 44.0955 33.6595 44.1484 32.1589C44.1484 32.1589 37.8637 29.0438 37.0781 27.6398C35.9041 25.5514 38.817 19.8301 37.2811 17.8118C35.7452 15.8111 32.9029 14.7055 31.1729 17.1888Z" fill="#739AF0"/>
<path d="M60.4253 66.855V66.9253C60.4253 67.0393 60.3988 67.1271 60.3724 67.1271H12.0891C12.0626 67.1271 12.0361 67.0306 12.0361 66.9253V66.855C12.0361 66.741 12.0626 66.6532 12.0891 66.6532H60.3724C60.3988 66.6532 60.4253 66.741 60.4253 66.855Z" fill="#2E3552"/>
</svg>
