<svg width="157" height="106" viewBox="0 0 157 106" fill="none" xmlns="http://www.w3.org/2000/svg">
<g clip-path="url(#clip0)">
<path d="M10.7891 104.387C10.7891 104.828 4 105.13 4 105.342C4 105.554 7.63046 106 36.6836 106C65.7367 106 70 105.401 70 105.167C70.0019 104.074 10.7891 103.608 10.7891 104.387Z" fill="#A7DBF1"/>
<path d="M143.611 37.0881C143.446 37.2232 143.281 37.3524 143.112 37.4797H101.486C101.176 37.3524 100.868 37.2219 100.56 37.0881C96.1658 35.1801 92.0755 32.6393 88.4201 29.547C85.9928 27.4953 83.7598 25.377 82.141 23.3919C79.8826 20.6217 77.8026 17.6029 76.8352 14.1632C75.8698 10.7235 76.1582 6.78063 78.3147 3.92823C78.9825 3.05079 79.8034 2.30072 80.7381 1.71405C80.8931 1.61616 81.05 1.52219 81.2109 1.43409C83.7971 -0.014623 87.0602 -0.367015 89.9722 0.382793C94.1419 1.45758 97.607 4.45877 100.079 7.97876C102.552 11.4968 104.157 15.5375 105.738 19.5332C107.344 12.4013 112.204 6.0132 118.769 2.76534C125.333 -0.482521 133.488 -0.443366 139.912 3.07466C141.933 4.18829 143.759 5.62319 145.318 7.32292C145.473 7.48933 145.624 7.65965 145.773 7.83193C148.907 11.4518 150.867 16.0877 151.028 20.8684C151.234 27.0274 148.373 33.2138 143.611 37.0881Z" fill="#F2F2F2"/>
<path d="M103.151 37.4801H102.562C102.555 37.349 102.545 37.2198 102.533 37.0886C102.327 34.5278 101.896 31.99 101.246 29.5044C99.7527 23.8297 97.2026 18.4861 93.7285 13.7525C90.2643 9.00386 85.8972 4.98195 80.8761 1.91613C80.8393 1.89514 80.8079 1.86607 80.7841 1.83113C80.7603 1.79619 80.7448 1.7563 80.7388 1.71449C80.7292 1.65982 80.7353 1.60355 80.7566 1.55224C80.7778 1.50093 80.8132 1.4567 80.8586 1.42469C80.9041 1.39268 80.9577 1.37422 81.0132 1.37146C81.0688 1.36869 81.124 1.38174 81.1724 1.40908C81.1859 1.41687 81.199 1.42537 81.2116 1.43453C84.0563 3.16448 86.6971 5.20814 89.084 7.52697C93.3536 11.6825 96.7964 16.6067 99.2305 22.0396C101.378 26.7978 102.693 31.8876 103.12 37.0886C103.131 37.2198 103.141 37.3509 103.151 37.4801Z" fill="white"/>
<path d="M145.775 7.83207C145.771 7.83427 145.766 7.8356 145.762 7.83599C145.332 7.9143 144.9 7.99652 144.472 8.08462C140.961 8.8041 137.524 9.84546 134.204 11.1954C130.893 12.5435 127.709 14.1813 124.687 16.0897C121.662 17.9972 118.81 20.1641 116.162 22.5659C113.514 24.9643 111.085 27.5927 108.903 30.4203C107.273 32.5388 105.791 34.7667 104.467 37.0883C104.392 37.2175 104.32 37.3487 104.247 37.4798H103.574C103.645 37.3487 103.717 37.2175 103.792 37.0883C105.394 34.2437 107.23 31.5372 109.282 28.997C111.552 26.1857 114.067 23.5815 116.799 21.2151C119.514 18.862 122.428 16.7476 125.508 14.8955C128.6 13.036 131.852 11.4532 135.224 10.1657C138.497 8.91738 141.876 7.96599 145.32 7.32306C145.416 7.30544 145.51 7.28782 145.606 7.2702C145.973 7.20364 146.13 7.75572 145.775 7.83207Z" fill="white"/>
<path d="M38.7895 38.6434C39.8363 36.6718 40.009 34.1039 38.7074 32.2897C37.9326 31.2098 36.7229 30.5009 35.4535 30.1011C34.1841 29.7012 32.8451 29.5837 31.5175 29.4865C30.2033 29.3903 28.8658 29.3133 27.5821 29.6099C26.2983 29.9064 25.0549 30.6309 24.4295 31.7881C23.3731 33.743 24.3354 36.2496 23.5595 38.3312C22.8474 40.2415 20.8208 41.3584 18.8286 41.8091C16.8363 42.2598 14.757 42.2118 12.7637 42.6581C10.7705 43.1045 8.74053 44.2109 8.01583 46.1165C7.49178 47.4945 7.75215 49.0817 8.4427 50.3846C9.13324 51.6875 10.2147 52.7423 11.3627 53.6699C13.0753 55.0537 15.0788 56.2388 17.2793 56.3588C19.5979 56.4852 21.865 55.384 23.5338 53.773C25.2026 52.1621 26.3387 50.0803 27.2464 47.9479C27.8222 46.5951 28.3663 45.1392 29.5203 44.2257C30.3682 43.5545 31.4467 43.2604 32.4926 42.9822L33.677 42.6673C34.7502 42.3871 35.7546 41.8909 36.6284 41.209C37.5022 40.5271 38.2269 39.6741 38.7579 38.7023C38.7685 38.6827 38.779 38.6631 38.7895 38.6434Z" fill="#2F2E41"/>
<path d="M29.4484 103.498H27.043L25.8984 94.2402H29.449L29.4484 103.498Z" fill="#FFB8B8"/>
<path d="M25.3234 102.812H29.9628V105.726H22.4023C22.4023 105.343 22.4779 104.964 22.6247 104.611C22.7715 104.257 22.9867 103.936 23.2579 103.665C23.5292 103.395 23.8512 103.18 24.2056 103.033C24.56 102.887 24.9398 102.812 25.3234 102.812Z" fill="#2F2E41"/>
<path d="M49.4641 103.498H47.0586L45.9141 94.2402H49.4647L49.4641 103.498Z" fill="#FFB8B8"/>
<path d="M45.3391 102.812H49.9785V105.726H42.418C42.418 105.343 42.4935 104.964 42.6403 104.611C42.7871 104.257 43.0023 103.936 43.2735 103.665C43.5448 103.395 43.8668 103.18 44.2212 103.033C44.5756 102.887 44.9555 102.812 45.3391 102.812Z" fill="#2F2E41"/>
<path d="M34.073 96.1401C34.0395 96.1401 34.006 96.1383 33.9726 96.1347L24.1856 95.0885C24.0557 95.0746 23.9301 95.0332 23.8174 94.9672C23.7047 94.9011 23.6074 94.8118 23.532 94.7053C23.4565 94.5988 23.4047 94.4774 23.3799 94.3494C23.3552 94.2213 23.358 94.0895 23.3883 93.9626L32.0539 61.0787C32.0945 60.9114 32.1811 60.7587 32.3041 60.6379C32.427 60.5171 32.5813 60.4329 32.7496 60.395L40.7883 58.1592C40.9495 58.1239 41.1172 58.1322 41.2741 58.1832C41.4311 58.2342 41.5715 58.3261 41.6809 58.4494C46.8494 64.2658 50.7443 77.1595 53.6948 93.4114C53.7171 93.534 53.7141 93.6599 53.686 93.7813C53.658 93.9028 53.6054 94.0173 53.5316 94.1178C53.4578 94.2184 53.3642 94.3029 53.2566 94.3662C53.149 94.4295 53.0296 94.4703 52.9057 94.4861L44.8866 95.5076C44.6591 95.5371 44.4289 95.4806 44.2411 95.3492C44.0533 95.2178 43.9216 95.021 43.872 94.7976L39.9704 77.4427C39.9345 77.283 39.8447 77.1404 39.7161 77.0388C39.5874 76.9372 39.4277 76.8828 39.2636 76.8847C39.0995 76.8866 38.9411 76.9447 38.8148 77.0492C38.6885 77.1537 38.6021 77.2983 38.5699 77.4589L34.9731 95.4016C34.9324 95.6098 34.8203 95.7974 34.6561 95.9322C34.4918 96.0669 34.2857 96.1404 34.073 96.1401Z" fill="#2F2E41"/>
<path d="M32.585 43.1587C35.2467 43.1587 37.4044 41.006 37.4044 38.3504C37.4044 35.6948 35.2467 33.542 32.585 33.542C29.9233 33.542 27.7656 35.6948 27.7656 38.3504C27.7656 41.006 29.9233 43.1587 32.585 43.1587Z" fill="#FFB8B8"/>
<path d="M32.449 61.1711C32.2464 61.171 32.0495 61.104 31.8891 60.9805C31.7286 60.8571 31.6136 60.6842 31.5618 60.4888L28.6625 49.6216C28.4532 48.8407 28.5399 48.0102 28.9059 47.2891C29.2719 46.568 29.8916 46.0069 30.6463 45.7131C32.9802 44.8041 35.2037 44.4669 37.2551 44.7105C39.0783 44.9273 41.3275 55.6969 41.1787 55.9266L41.8982 58.0801C41.939 58.2022 41.9537 58.3315 41.9411 58.4597C41.9286 58.5878 41.8892 58.7118 41.8255 58.8238C41.7618 58.9358 41.6753 59.0331 41.5714 59.1095C41.4676 59.186 41.3488 59.2397 41.2228 59.2674L32.649 61.1492C32.5833 61.1637 32.5163 61.1711 32.449 61.1711Z" fill="#CCCCCC"/>
<path d="M35.0461 72.2844C35.0874 72.0705 35.0812 71.8502 35.0279 71.639C34.9746 71.4278 34.8756 71.2307 34.7377 71.0618C34.5999 70.8929 34.4266 70.7562 34.2301 70.6614C34.0336 70.5665 33.8186 70.5158 33.6003 70.5128L31.9299 65.4873L30.2227 67.648L32.0706 72.089C32.0899 72.4552 32.2431 72.8017 32.5013 73.0627C32.7594 73.3237 33.1046 73.4812 33.4714 73.5053C33.8381 73.5294 34.201 73.4184 34.4912 73.1934C34.7815 72.9684 34.9789 72.6449 35.0461 72.2844Z" fill="#FFB8B8"/>
<path d="M56.5233 60.206C56.4233 60.0124 56.2819 59.843 56.1092 59.7098C55.9365 59.5765 55.7366 59.4827 55.5236 59.4349C55.3106 59.3871 55.0897 59.3864 54.8765 59.433C54.6632 59.4796 54.4628 59.5723 54.2893 59.7045L49.8634 56.7832L49.8594 59.5346L54.0629 61.8868C54.3048 62.1629 54.6399 62.3408 55.0045 62.3869C55.3692 62.4329 55.7381 62.3439 56.0414 62.1368C56.3446 61.9296 56.5612 61.6186 56.65 61.2627C56.7388 60.9069 56.6937 60.5309 56.5233 60.206H56.5233Z" fill="#FFB8B8"/>
<path d="M31.5478 69.9623C31.3542 69.9624 31.1656 69.9015 31.0087 69.7884C30.8518 69.6753 30.7346 69.5157 30.6738 69.3324L26.7579 61.0676C26.5973 60.5832 26.5155 60.0763 26.5156 59.5662L27.6929 48.8239C27.6929 48.2225 27.9229 47.6437 28.3361 47.2057C28.7492 46.7677 29.3144 46.5036 29.9161 46.4672C30.5178 46.4308 31.1108 46.625 31.5739 47.01C32.037 47.395 32.3354 47.9419 32.4081 48.5389L30.6069 60.8003L33.4812 68.3258C33.5267 68.526 33.5035 68.7357 33.4153 68.9212C33.3271 69.1066 33.1791 69.2572 32.9949 69.3487L31.9593 69.8655C31.8315 69.9292 31.6906 69.9624 31.5478 69.9623Z" fill="#CCCCCC"/>
<path d="M52.4622 61.2919C52.318 61.2919 52.1759 61.2581 52.0472 61.1932L44.2597 57.2686C43.8031 57.0387 43.3865 56.7373 43.0257 56.3758L35.4247 48.7676C34.9991 48.3417 34.7526 47.7697 34.7353 47.1685C34.7181 46.5673 34.9315 45.9823 35.3319 45.5327C35.7324 45.0832 36.2897 44.8031 36.8901 44.7496C37.4905 44.6961 38.0888 44.8733 38.5627 45.2449L46.7966 54.3684L53.3235 58.5031C53.4974 58.6129 53.6293 58.7777 53.698 58.9712C53.7668 59.1646 53.7685 59.3755 53.7028 59.5701L53.3348 60.6655C53.2735 60.848 53.1562 61.0066 52.9997 61.119C52.8431 61.2314 52.6551 61.2918 52.4622 61.2919L52.4622 61.2919Z" fill="#CCCCCC"/>
<path d="M27.1016 35.865C27.9202 36.9335 29.097 37.6723 30.4167 37.9463C31.7544 38.2221 33.1467 38.0231 34.3529 37.3836C35.3235 36.8604 36.1003 36.0751 36.861 35.3019C37.1785 34.9792 37.5167 34.6071 37.5007 34.1669C37.4759 33.4849 36.6542 33.1121 35.9488 32.9633C33.6337 32.4814 31.2248 32.7517 29.0747 33.7346C28.1172 34.1784 27.1195 34.9813 27.2633 35.9793" fill="#2F2E41"/>
<path d="M153.664 37.0879H59.0857C58.2014 37.0891 57.3537 37.4402 56.7284 38.0641C56.1031 38.6879 55.7513 39.5337 55.75 40.416V76.8297C55.7513 77.712 56.1031 78.5578 56.7284 79.1816C57.3537 79.8055 58.2014 80.1566 59.0857 80.1578H153.664C154.548 80.1566 155.396 79.8055 156.021 79.1816C156.646 78.5578 156.998 77.712 157 76.8297V40.416C156.998 39.5337 156.646 38.6879 156.021 38.0641C155.396 37.4402 154.548 37.0891 153.664 37.0879ZM156.607 76.8297C156.606 77.6082 156.296 78.3546 155.744 78.9051C155.192 79.4556 154.444 79.7653 153.664 79.7663H59.0857C58.3054 79.7653 57.5573 79.4556 57.0056 78.9051C56.4538 78.3546 56.1434 77.6082 56.1424 76.8297V40.416C56.1434 39.6375 56.4538 38.8911 57.0056 38.3406C57.5573 37.7901 58.3054 37.4804 59.0857 37.4794H153.664C154.444 37.4804 155.192 37.7901 155.744 38.3406C156.296 38.8911 156.606 39.6375 156.607 40.416V76.8297Z" fill="#3F3D56"/>
<path d="M76.2558 69.9782C74.0049 69.9782 71.8045 69.3122 69.933 68.0645C68.0614 66.8168 66.6027 65.0435 65.7413 62.9687C64.8799 60.8938 64.6546 58.6108 65.0937 56.4081C65.5328 54.2055 66.6167 52.1823 68.2084 50.5943C69.8 49.0063 71.8278 47.9249 74.0355 47.4867C76.2431 47.0486 78.5314 47.2735 80.611 48.1329C82.6905 48.9923 84.468 50.4477 85.7185 52.315C86.969 54.1823 87.6365 56.3776 87.6365 58.6234C87.6331 61.6338 86.433 64.52 84.2994 66.6487C82.1658 68.7774 79.2731 69.9748 76.2558 69.9782ZM76.2558 47.6601C74.0825 47.6601 71.958 48.3031 70.151 49.5077C68.344 50.7124 66.9356 52.4246 66.1039 54.4279C65.2722 56.4312 65.0546 58.6355 65.4786 60.7622C65.9026 62.8888 66.9491 64.8423 68.4859 66.3755C70.0226 67.9088 71.9805 68.9529 74.1121 69.376C76.2436 69.799 78.453 69.5819 80.4608 68.7521C82.4687 67.9223 84.1848 66.5171 85.3922 64.7142C86.5996 62.9113 87.2441 60.7917 87.2441 58.6234C87.2408 55.7167 86.082 52.9301 84.022 50.8748C81.962 48.8195 79.169 47.6634 76.2558 47.6601Z" fill="#3F3D56"/>
<path d="M145.221 51.3799H99.8943C99.2608 51.3802 98.6519 51.6253 98.1954 52.0636C97.7389 52.5019 97.4702 53.0995 97.4455 53.7311C97.4422 53.763 97.4409 53.795 97.4416 53.827C97.4425 54.4758 97.7012 55.0977 98.161 55.5564C98.6208 56.0152 99.2441 56.2733 99.8943 56.2742H145.221C145.872 56.2742 146.496 56.0164 146.955 55.5574C147.415 55.0985 147.674 54.4761 147.674 53.827C147.674 53.178 147.415 52.5556 146.955 52.0966C146.496 51.6377 145.872 51.3799 145.221 51.3799Z" fill="#0D88BC"/>
<path d="M145.221 60.9727H99.8943C99.2608 60.973 98.6519 61.218 98.1954 61.6563C97.7389 62.0947 97.4702 62.6922 97.4455 63.3239C97.4422 63.3557 97.4409 63.3878 97.4416 63.4198C97.4425 64.0686 97.7012 64.6905 98.161 65.1492C98.6208 65.6079 99.2441 65.866 99.8943 65.867H145.221C145.872 65.867 146.496 65.6091 146.955 65.1502C147.415 64.6913 147.674 64.0688 147.674 63.4198C147.674 62.7708 147.415 62.1483 146.955 61.6894C146.496 61.2305 145.872 60.9727 145.221 60.9727Z" fill="#0D88BC"/>
<path d="M74.9861 63.5838C74.6685 63.5844 74.3594 63.4819 74.1053 63.2919L74.0896 63.2801L70.7727 60.7463C70.6191 60.6289 70.4901 60.4824 70.3933 60.3153C70.2964 60.1482 70.2335 59.9636 70.2081 59.7722C70.1827 59.5808 70.1953 59.3863 70.2453 59.1997C70.2952 59.0132 70.3815 58.8383 70.4992 58.6851C70.6169 58.5318 70.7637 58.4032 70.9312 58.3065C71.0987 58.2099 71.2837 58.1471 71.4756 58.1217C71.6674 58.0964 71.8624 58.109 72.0493 58.1588C72.2363 58.2087 72.4116 58.2948 72.5652 58.4122L74.7136 60.0558L79.7907 53.4497C79.9085 53.2964 80.0553 53.1679 80.2229 53.0713C80.3904 52.9747 80.5754 52.9119 80.7673 52.8867C80.9592 52.8614 81.1541 52.8741 81.3411 52.924C81.528 52.9739 81.7033 53.0601 81.8568 53.1776L81.8253 53.2203L81.8576 53.1782C82.1674 53.4157 82.3701 53.7661 82.4212 54.1526C82.4724 54.539 82.3678 54.93 82.1304 55.2396L76.1585 63.01C76.0204 63.1891 75.8428 63.334 75.6394 63.4335C75.4361 63.533 75.2126 63.5844 74.9861 63.5838Z" fill="#0D88BC"/>
<path d="M74.9561 106H0.19622C0.144179 106 0.0942698 105.979 0.0574714 105.943C0.020673 105.906 0 105.856 0 105.804C0 105.752 0.020673 105.702 0.0574714 105.666C0.0942698 105.629 0.144179 105.608 0.19622 105.608H74.9561C75.0081 105.608 75.058 105.629 75.0948 105.666C75.1316 105.702 75.1523 105.752 75.1523 105.804C75.1523 105.856 75.1316 105.906 75.0948 105.943C75.058 105.979 75.0081 106 74.9561 106Z" fill="#3F3D56"/>
<path d="M134.068 28.2682C129.969 27.7057 125.806 27.7993 121.737 28.5456C117.679 29.2857 113.762 30.6522 110.126 32.5958C108.082 33.6913 106.143 34.9697 104.332 36.4152C104.036 36.6511 104.455 37.0642 104.748 36.8305C107.927 34.3077 111.49 32.3093 115.302 30.9112C119.084 29.5156 123.06 28.7109 127.088 28.5257C129.367 28.4213 131.651 28.5246 133.912 28.8345C133.987 28.8525 134.066 28.8413 134.133 28.8033C134.2 28.7652 134.251 28.7031 134.274 28.6294C134.294 28.5544 134.284 28.4743 134.245 28.4067C134.207 28.3391 134.143 28.2893 134.068 28.2682H134.068Z" fill="white"/>
</g>
<defs>
<clipPath id="clip0">
<rect width="157" height="106" fill="white"/>
</clipPath>
</defs>
</svg>
