<svg width="110" height="110" viewBox="0 0 110 110" fill="none" xmlns="http://www.w3.org/2000/svg">
<path d="M55 0C24.7137 0 0 24.7178 0 55C0 64.8304 2.65955 74.4543 7.70623 82.934L0.162852 105.766C-0.221074 106.928 0.0863672 108.208 0.95627 109.068C1.82531 109.928 3.10707 110.223 4.26637 109.826L26.8681 102.091C35.5485 107.27 45.2414 110 55 110C85.2865 110 110 85.2824 110 55C110 24.7135 85.2824 0 55 0ZM55 103.555C45.9628 103.555 36.9673 100.882 28.9861 95.827C28.172 95.3113 27.1552 95.1796 26.218 95.5004L8.31832 101.627L14.2957 83.5345C14.5984 82.6182 14.4747 81.6142 13.9582 80.7991C9.0432 73.0398 6.44531 64.1186 6.44531 55C6.44531 28.2268 28.227 6.44531 55 6.44531C81.773 6.44531 103.555 28.2268 103.555 55C103.555 81.7732 81.7732 103.555 55 103.555Z" fill="#8191A4"/>
<path d="M54.7044 13.1055C42.4286 13.1055 32.4414 23.0925 32.4414 35.3682C32.4414 40.6991 36.7785 45.0362 42.1094 45.0362C47.4403 45.0362 51.7773 40.6991 51.7773 35.3682C51.7773 33.7543 53.0903 32.4414 54.7042 32.4414C56.6442 32.4414 58.2227 34.0199 58.2227 35.9599V36.6459C58.2227 37.5856 57.8561 38.4706 57.1933 39.1351L50.0526 46.2758C47.0087 49.32 45.332 53.3661 45.332 57.6688V61.4453C45.332 66.7762 49.6691 71.1133 55 71.1133C60.3309 71.1133 64.668 66.7762 64.668 61.4453V59.0036L70.8649 52.8067C75.1816 48.4902 77.5586 42.7509 77.5586 36.6459C77.5586 22.4398 66.6286 13.1055 54.7044 13.1055ZM66.3074 48.2492L59.1667 55.3899C58.5623 55.9943 58.2227 56.8139 58.2227 57.6688V61.4453C58.2227 63.2223 56.777 64.668 55 64.668C53.223 64.668 51.7773 63.2223 51.7773 61.4453V57.6688C51.7773 55.0877 52.7835 52.6601 54.6101 50.8335L61.7536 43.69C63.6331 41.8058 64.668 39.3044 64.668 36.6459V35.9599C64.668 30.4659 60.1984 25.9961 54.7044 25.9961C49.5365 25.9961 45.332 30.2004 45.332 35.3682C45.332 37.1452 43.8863 38.5909 42.1094 38.5909C40.3324 38.5909 38.8867 37.1452 38.8867 35.3682C38.8867 26.6464 45.9826 19.5508 54.7044 19.5508C63.0833 19.5508 71.1133 26.0017 71.1133 36.6459C71.1133 41.0291 69.4066 45.1501 66.3074 48.2492Z" fill="#0DACBC"/>
<path d="M55 77.5586C49.6691 77.5586 45.332 81.8956 45.332 87.2266C45.332 92.5575 49.6691 96.8945 55 96.8945C60.3309 96.8945 64.668 92.5575 64.668 87.2266C64.668 81.8956 60.3309 77.5586 55 77.5586ZM55 90.4492C53.223 90.4492 51.7773 89.0035 51.7773 87.2266C51.7773 85.4496 53.223 84.0039 55 84.0039C56.777 84.0039 58.2227 85.4496 58.2227 87.2266C58.2227 89.0035 56.777 90.4492 55 90.4492Z" fill="#0DACBC"/>
</svg>
