<svg width="66" height="60" viewBox="0 0 66 60" fill="none"
    xmlns="http://www.w3.org/2000/svg">
    <path d="M6.8 11.5C6.8 24.6 0 33.5 0 39.8C0 46.1 3.6 59.3 32.6 59.3C61.6 59.3 65.8 41.5 65.8 34.6C65.8 2.2 6.8 -11.6 6.8 11.5Z" fill="#A7DBF1"/>
    <path d="M45.7 31.3C46.5 32.7 45.5 34.4 44 34.5C38.2 34.7 32.3 36.2 26.8 39L24.8 40C24.8 40 24.8 40 29.3 47.7C29.7 48.4 29.5 49.3 28.8 49.7L27.3 50.5C26.6 50.9 25.7 50.7 25.3 50L20.8 42.3L20.1 42.7C18.7 43.5 16.9 43 16 41.6L12.7 35.8C11.9 34.4 12.4 32.6 13.8 31.7L20.4 27.9C25.4 24.6 29.7 20.3 32.9 15.2C33.7 13.9 35.7 13.9 36.5 15.3L39.4 20.3C41 19.3 43.2 19.9 44.1 21.6C45.1 23.2 44.5 25.4 42.8 26.3L45.7 31.3Z" fill="white"/>
    <path d="M44.1 21.6C45.1 23.2 44.5 25.4 42.8 26.3L39.4 20.3C41 19.4 43.1 20 44.1 21.6Z" fill="#76DCFF"/>
    <path d="M36.5 15.4C36.9 16.1 36.9 16.9 36.4 17.6C32.9 22.9 28.1 27.7 22.4 31.5L14.7 36C14.2 36.3 13.7 36.7 13.5 37.2L12.8 35.9C12 34.5 12.5 32.7 13.9 31.8L20.5 28C25.5 24.7 29.8 20.4 33 15.3C33.7 14 35.7 14 36.5 15.4Z" fill="#E8F8FC"/>
    <path d="M20.3 28L26.6 39C25.3 39.7 21.3 42.1 20 42.8C18.6 43.6 16.8 43.1 15.9 41.7L12.6 35.9C11.8 34.5 12.3 32.7 13.7 31.8L20.3 28Z" fill="#0D88BC"/>
    <path d="M22.4 31.5C14 36.4 14.6 36 14.3 36.2C13.8 36.6 13 36.4 12.7 35.9C11.9 34.5 12.4 32.7 13.8 31.8L20.4 28L22.4 31.5Z" fill="#146080"/>
    <path d="M26 42.1C23.6 43.5 25.4 42.5 22 44.4L20.8 42.3L24.8 40L26 42.1Z" fill="#BDEFFC"/>
    <path d="M43.6 25.5C43.3 25.9 43 26.2 42.5 26.4L39.1 20.4C39.5 20.2 40 20 40.4 20C40.6 20.4 43.5 25.3 43.6 25.5Z" fill="#42434D"/>
    <path d="M43.7 26.5C46.3 24.4 45.4 20.2 42.2 19.4C41.4 19.2 40.5 19.2 39.7 19.5L37.1 15.1C36.1 13.3 33.5 13.2 32.4 15C29.2 20 25 24.2 20 27.4C19.7 27.6 19.6 28 19.8 28.3L24.1 35.7C24.3 36 24.7 36.1 25 35.9C25.3 35.7 25.4 35.3 25.2 35L21.2 28.1C26 24.9 30.2 20.7 33.4 15.6C34 14.7 35.3 14.7 35.9 15.6L45.1 31.5C45.6 32.4 45 33.6 43.9 33.7C37.8 33.9 31.8 35.5 26.4 38.3C26.4 38.3 20.2 41.9 19.8 42.1C18.7 42.7 17.3 42.4 16.6 41.3L13.3 35.5C12.7 34.4 13 33 14.1 32.3L18.1 30C18.4 29.8 18.5 29.4 18.3 29.1C18.1 28.8 17.7 28.7 17.4 28.9L13.4 31.2C11.7 32.2 11.1 34.4 12.1 36.2L15.4 42C16.4 43.7 18.6 44.3 20.4 43.3L20.6 43.2L24.7 50.4C25.3 51.4 26.6 51.8 27.6 51.2L29.1 50.4C30.1 49.8 30.5 48.5 29.9 47.5L27 42.4C26.8 42.1 26.4 42 26.1 42.2C25.8 42.4 25.7 42.8 25.9 43.1L28.8 48.2C29 48.6 28.9 49.1 28.5 49.3L27 50.1C26.6 50.3 26.1 50.2 25.9 49.8L21.8 42.6L27.1 39.5C32.3 36.9 38 35.3 44.1 35.1C46.2 35 47.4 32.8 46.4 31L43.7 26.5ZM43.5 22C44.2 23.1 43.9 24.5 43 25.4L40.3 20.7C41.5 20.3 42.8 20.8 43.5 22ZM49.9 19L48.2 20C47.9 20.2 47.5 20.1 47.3 19.8C47.1 19.5 47.2 19.1 47.5 18.9L49.2 17.9C49.5 17.7 49.9 17.8 50.1 18.1C50.4 18.4 50.3 18.8 49.9 19ZM42.6 15.2L43 13.6C43.1 13.2 43.5 13 43.8 13.1C44.2 13.2 44.4 13.6 44.3 13.9L43.9 15.5C43.8 15.9 43.4 16.1 43.1 16C42.7 16 42.5 15.6 42.6 15.2ZM51.2 26.1C51.1 26.4 50.9 26.6 50.6 26.6C50.5 26.6 50.6 26.6 48.9 26.2C48.5 26.1 48.3 25.7 48.4 25.4C48.5 25 48.9 24.8 49.2 24.9L50.8 25.3C51.1 25.4 51.3 25.7 51.2 26.1Z" fill="black" stroke="black" stroke-miterlimit="10"/>
</svg>
