<svg width="24" height="24" viewBox="0 0 24 24" fill="none" xmlns="http://www.w3.org/2000/svg">
<path d="M7.83198 12.2687L11.2349 13.3L11.235 13.3001C11.3145 13.324 11.3969 13.3361 11.4793 13.3361C11.5615 13.3361 11.644 13.3243 11.7238 13.3L7.83198 12.2687ZM7.83198 12.2687V13.8734C7.87264 13.9146 7.95321 13.9817 8.08698 14.0642C8.25869 14.1702 8.5074 14.2948 8.845 14.4157L7.83198 12.2687ZM22.1087 13.7289V9.59316C22.1087 9.25489 21.8772 8.96326 21.5483 8.8637C21.5483 8.86369 21.5483 8.86369 21.5483 8.86368L11.7238 5.88616L22.1087 13.7289ZM22.1087 13.7289C22.7207 14.0101 23.15 14.6048 23.15 15.2988V17.3844C23.15 17.8158 22.7808 18.15 22.3452 18.15H20.2626C19.8271 18.15 19.4578 17.8158 19.4578 17.3844V15.2988C19.4578 14.6048 19.8873 14.0101 20.4991 13.7289V10.6405L16.7362 11.7809V13.9792C16.7362 14.3376 16.5581 14.6716 16.2509 14.9662C15.9443 15.2603 15.5004 15.5245 14.9415 15.7497C13.936 16.155 12.7069 16.3765 11.4795 16.3765C10.2521 16.3765 9.02306 16.155 8.01749 15.7497C7.46773 15.5281 7.02927 15.2689 6.72333 14.9807C6.41743 14.6925 6.23524 14.3663 6.2234 14.0154C6.22338 14.015 6.22337 14.0145 6.22335 14.0141L22.1087 13.7289ZM11.2349 5.88615C11.3939 5.83795 11.5648 5.83795 11.7238 5.88615H11.2349ZM11.2349 5.88615C11.2349 5.88616 11.2349 5.88616 11.2349 5.88616M11.2349 5.88615L11.2349 5.88616M11.2349 5.88616L1.41038 8.86369L11.2349 5.88616ZM0.85 9.59316C0.85 9.25466 1.08173 8.96324 1.41035 8.8637L0.85 9.59316ZM0.85 9.59316C0.85 9.93154 1.08177 10.223 1.41038 10.3225M0.85 9.59316L1.41038 10.3225M1.41038 10.3225L6.22244 11.7809L1.41038 10.3225ZM11.7239 13.3L15.1267 12.2687V13.8737C15.0858 13.9151 15.005 13.9822 14.8713 14.0646C14.6997 14.1705 14.4512 14.295 14.114 14.4157C13.342 14.6919 12.4058 14.8453 11.4795 14.8453C10.553 14.8453 9.61685 14.6919 8.84503 14.4157L11.7239 13.3ZM11.4793 7.41918L18.6527 9.59316L11.4793 11.7671L4.30595 9.59316L11.4793 7.41918ZM21.0674 16.6188V15.2988C21.0674 15.1898 21.1649 15.0854 21.3039 15.0854C21.4431 15.0854 21.5405 15.1898 21.5405 15.2988V16.6188H21.0674Z" fill="#3B3A3C" stroke="#3B3A3C" stroke-width="0.3"/>
</svg>
