<svg width="67" height="61" viewBox="0 0 67 61" fill="none" xmlns="http://www.w3.org/2000/svg">
<path d="M7.42064 12.5386C7.42064 25.7966 0.599976 34.804 0.599976 41.18C0.599976 47.556 4.21092 60.9153 33.2991 60.9153C62.3872 60.9153 66.6 42.9005 66.6 35.9173C66.6 3.12636 7.42064 -10.8401 7.42064 12.5386Z" fill="#A7DBF1"/>
<path d="M19.6577 39.2571L20.0589 40.1679C20.0589 40.1679 26.7793 45.6331 32.4966 45.6331C38.2139 45.6331 45.0346 40.1679 45.0346 40.1679L45.4358 39.2571C44.834 37.3342 44.0316 34.6016 43.4297 31.7678L42.2261 31.0594H22.6668L21.6638 31.7678C21.062 34.7028 20.3598 37.3342 19.6577 39.2571Z" fill="#0D88BC"/>
<path d="M25.375 31.4642L25.7763 31.1606H22.6668L21.6638 31.869C21.062 34.7028 20.3598 37.3342 19.6577 39.3583L20.0589 40.2692C20.0589 40.2692 21.062 41.0788 22.6668 42.1921C23.6699 38.8523 24.6729 35.2088 25.375 31.4642Z" fill="#146080"/>
<path d="M54.5635 25.1894L33.6 18.1049C32.8979 17.9025 32.0954 17.9025 31.3933 18.1049L10.4298 25.1894C10.0286 25.2906 9.92825 26.1002 10.4298 26.3026L30.9921 36.4233C31.9951 36.9293 33.0985 36.9293 34.1015 36.4233L54.6638 26.3026C55.1653 26.1002 55.1653 25.2906 54.5635 25.1894Z" fill="#0D88BC"/>
<path d="M16.7489 26.3027C16.2474 26.1002 16.2474 25.2906 16.8492 25.0882L35.7064 18.611L33.7003 17.9025C32.9981 17.7001 32.1957 17.7001 31.4936 17.9025L10.5301 24.987C10.0285 25.2906 9.92824 26.1002 10.4298 26.3027L30.9921 36.4233C31.9951 36.9293 33.0985 36.9293 34.1015 36.4233L35.7064 35.6137L16.7489 26.3027Z" fill="#146080"/>
<path d="M51.1532 43.9126H48.7459L48.4449 48.3657C48.4449 48.7705 48.7459 49.0741 49.0468 49.0741H50.7519C51.1532 49.0741 51.3538 48.7705 51.3538 48.3657L51.1532 43.9126Z" fill="#0D88BC"/>
<path d="M50.0498 48.3657L50.3508 43.9126H48.8462L48.5453 48.3657C48.5453 48.7705 48.8462 49.0741 49.1471 49.0741H50.6517C50.3508 49.0741 50.0498 48.6693 50.0498 48.3657Z" fill="#146080"/>
<path d="M50.5513 40.7752H49.448C48.9465 40.7752 48.4449 41.18 48.4449 41.7873V43.8114C48.4449 44.0138 48.5452 44.115 48.7459 44.115H51.1532C51.3538 44.115 51.4541 44.0138 51.4541 43.8114V41.7873C51.5544 41.18 51.0529 40.7752 50.5513 40.7752Z" fill="#0D88BC"/>
<path d="M50.1501 43.7102V41.686C50.1501 41.2812 50.451 40.8764 50.8522 40.7752C50.7519 40.7752 50.6516 40.674 50.5513 40.674H49.448C48.9465 40.674 48.4449 41.0788 48.4449 41.686V43.7102C48.4449 43.9126 48.5452 44.0138 48.7459 44.0138H50.451C50.3507 44.0138 50.1501 43.9126 50.1501 43.7102Z" fill="#146080"/>
<path d="M32.6973 22.4568C31.3933 22.3556 30.29 23.4689 30.29 24.6833C30.29 25.2906 30.7915 25.6954 31.3933 25.6954H33.8006C34.4024 25.6954 34.904 25.2906 34.904 24.4809C34.8037 23.3677 33.8006 22.4568 32.6973 22.4568Z" fill="#3F6D8E"/>
<path d="M32.3964 24.6833C32.3964 23.7725 32.8979 23.064 33.6 22.6592C33.2991 22.558 32.9982 22.4568 32.6973 22.4568C31.3933 22.3556 30.29 23.4689 30.29 24.6833C30.29 25.2906 30.7915 25.6954 31.3933 25.6954H33.3994C32.8979 25.6954 32.3964 25.2906 32.3964 24.6833Z" fill="#365E7D"/>
<path d="M45.4359 39.2571C43.0286 41.18 39.217 43.4066 35.1045 44.7222C33.4997 45.2283 31.5939 45.2283 29.989 44.7222C25.8766 43.4066 22.065 41.18 19.6577 39.2571C19.4571 39.9655 19.2565 40.5728 19.0559 40.9776C18.755 41.7873 19.0559 42.6981 19.6577 43.3054C23.4693 46.3416 27.4814 47.9609 29.989 48.7705C30.7915 49.0741 31.6942 49.1753 32.5969 49.1753C33.4997 49.1753 34.3021 49.0741 35.2048 48.7705C37.7124 47.9609 41.7246 46.3416 45.5362 43.3054C46.2383 42.7993 46.4389 41.7873 46.138 40.9776C45.9374 40.5728 45.7368 39.9655 45.4359 39.2571Z" fill="white"/>
<path d="M22.8675 41.5848C21.6638 40.8764 20.5605 40.0667 19.6577 39.3583C19.4571 40.0667 19.2565 40.674 19.0559 41.0788C18.755 41.8885 19.0559 42.7993 19.6577 43.4066C20.3599 44.0138 21.062 44.5198 21.7641 44.9247C22.1653 43.9126 22.5666 42.6981 22.8675 41.5848Z" fill="#E8F8FC"/>
<path d="M54.9647 24.1773L45.2352 20.8375C44.7337 20.6351 44.1319 20.9387 43.9313 21.5459C43.831 21.8496 43.831 22.1532 44.0316 22.3556C44.1319 22.6592 44.3325 22.7604 44.6334 22.8616L53.4601 25.8978L49.9495 27.6183C49.7489 27.5171 49.5483 27.4159 49.3477 27.4159L35.9069 23.8737C35.606 22.7604 34.8036 21.9508 33.7003 21.5459C32.4966 21.1411 31.293 21.4447 30.3902 22.2544C29.6881 22.8616 29.3872 23.7725 29.3872 24.6833C29.3872 25.7966 30.3902 26.8087 31.4936 26.8087H33.9009C34.603 26.8087 35.2048 26.5051 35.606 25.8978L47.141 28.934L33.8006 35.5124C33.0984 35.8161 32.296 35.8161 31.6942 35.5124L12.0346 25.7966L31.9951 19.0158C32.4966 18.8134 33.0984 18.8134 33.6 19.0158L41.7246 21.7484C42.0255 21.8496 42.3264 21.8496 42.527 21.6471C42.8279 21.5459 42.9282 21.3435 43.0285 21.0399C43.1288 20.7363 43.1288 20.4327 42.9282 20.2303C42.8279 19.9266 42.6273 19.8254 42.3264 19.7242L34.1015 16.9916C33.1987 16.688 32.0954 16.688 31.1927 16.9916L10.2291 24.0761C9.52701 24.2785 9.12579 24.8858 9.12579 25.5942C9.12579 26.3026 9.4267 26.9099 10.0285 27.2135L20.4601 32.375C19.8583 35.0064 19.0559 37.8402 18.0528 40.5728C17.5513 41.7872 17.9525 43.2041 19.0559 44.115C22.065 46.5439 25.7762 48.4669 29.6881 49.7826C30.5908 50.0862 31.5939 50.1874 32.5969 50.1874C33.6 50.1874 34.603 50.0862 35.5057 49.7826C39.4176 48.4669 43.1288 46.5439 46.138 44.115C47.141 43.3053 47.5422 41.8884 47.141 40.5728C46.138 37.8402 45.3355 34.9052 44.7337 32.375L48.9465 30.2497V39.6619C48.0437 39.8643 47.4419 40.674 47.4419 41.686V43.7102C47.4419 44.0138 47.5422 44.3174 47.7428 44.621L47.5422 48.2645C47.5422 48.7705 47.6425 49.1753 47.9434 49.4789C48.2443 49.7826 48.7459 49.985 49.1471 49.985H50.8522C51.3538 49.985 51.755 49.7826 52.0559 49.4789C52.3568 49.1753 52.5574 48.6693 52.4571 48.2645L52.2565 44.621C52.4571 44.4186 52.5574 44.0138 52.5574 43.7102V41.686C52.5574 40.7752 51.8553 39.8643 51.0528 39.6619V29.6425C51.0528 29.5413 51.0528 29.3388 51.0528 29.2376L55.1653 27.2135C55.7671 26.9099 56.1683 26.3026 56.068 25.5942C56.068 24.987 55.6668 24.3797 54.9647 24.1773ZM50.3507 47.9608H49.5483L49.7489 45.1271H50.1501L50.3507 47.9608ZM20.0589 41.3824L20.1592 41.0788C23.8705 43.7102 28.6851 45.7343 30.7914 46.1391C31.3933 46.2403 31.8948 45.8355 31.9951 45.3295C32.0954 45.0259 31.9951 44.7222 31.7945 44.5198C31.5939 44.3174 31.3933 44.115 31.0924 44.115C29.5878 43.8114 24.5726 41.9897 20.7611 39.0547C21.3629 37.1317 21.8644 35.31 22.2656 33.4883L30.3902 37.5366C31.6942 38.1438 33.0984 38.1438 34.4024 37.5366L42.527 33.4883C42.9282 35.31 43.4297 37.1317 44.0316 39.0547C40.5209 41.7872 35.5057 43.8114 33.7003 44.115C33.0984 44.2162 32.7975 44.8234 32.8978 45.3295C32.9981 45.9367 33.6 46.2403 34.1015 46.1391C35.8066 45.8355 40.7215 43.9126 44.7337 41.0788C44.7337 41.18 44.834 41.3824 44.834 41.4836C44.9343 41.8885 44.834 42.2933 44.5331 42.5969C40.9221 45.4307 37.1106 47.05 34.603 47.8596C33.1987 48.3657 31.5939 48.3657 30.0893 47.8596C27.5817 47.05 23.7702 45.4307 20.1592 42.5969C20.0589 42.2933 19.9586 41.7872 20.0589 41.3824ZM50.451 41.7872V43.0017H49.448V41.7872H50.451ZM33.8006 24.6833H31.3933C31.3933 24.3797 31.4936 24.0761 31.7945 23.7725C31.9951 23.5701 32.296 23.4689 32.5969 23.4689C32.7975 23.4689 32.8978 23.4689 33.0984 23.5701C33.3993 23.6713 33.8006 24.0761 33.8006 24.6833Z" fill="black"/>
</svg>
