<svg width="66" height="60" viewBox="0 0 66 60" fill="none" xmlns="http://www.w3.org/2000/svg">
<path d="M6.82067 11.6233C6.82067 24.8813 0 33.8887 0 40.2647C0 46.6407 3.61094 60 32.6991 60C61.7872 60 66 41.9852 66 35.002C66 2.21107 6.82067 -11.7554 6.82067 11.6233Z" fill="#A7DBF1"/>
<g clip-path="url(#clip0)">
<path d="M39.75 22.4583C39.4407 22.4583 39.1313 22.3399 38.8957 22.1043C38.4233 21.6318 38.4233 20.8682 38.8957 20.3957L41.4586 17.8328C41.9311 17.3604 42.6947 17.3604 43.1672 17.8328C43.6396 18.3053 43.6396 19.069 43.1672 19.5414L40.6043 22.1043C40.3687 22.3399 40.0593 22.4583 39.75 22.4583Z" fill="#146080"/>
<path d="M45.7916 29.7083H44.2812C43.613 29.7083 43.0729 29.167 43.0729 28.5C43.0729 27.833 43.613 27.2917 44.2812 27.2917H45.7916C46.4598 27.2917 47 27.833 47 28.5C47 29.167 46.4598 29.7083 45.7916 29.7083Z" fill="#146080"/>
<path d="M40.052 37.5625H24.9479C24.4476 37.5625 24.0416 37.1565 24.0416 36.6563V30.9167C24.0416 26.2525 27.837 22.4583 32.5 22.4583C37.1629 22.4583 40.9583 26.2525 40.9583 30.9167V36.6563C40.9583 37.1565 40.5523 37.5625 40.052 37.5625Z" fill="#146080"/>
<path d="M27.6667 32.125C26.9985 32.125 26.4584 31.5837 26.4584 30.9167C26.4584 27.5853 29.1687 24.875 32.5 24.875C33.1682 24.875 33.7084 25.4163 33.7084 26.0833C33.7084 26.7503 33.1682 27.2917 32.5 27.2917C30.5015 27.2917 28.875 28.9181 28.875 30.9167C28.875 31.5837 28.3349 32.125 27.6667 32.125Z" fill="white"/>
<path d="M32.5 20.0417C31.8318 20.0417 31.2916 19.5003 31.2916 18.8333V15.2083C31.2916 14.5413 31.8318 14 32.5 14C33.1682 14 33.7083 14.5413 33.7083 15.2083V18.8333C33.7083 19.5003 33.1682 20.0417 32.5 20.0417Z" fill="#146080"/>
<path d="M25.25 22.4583C24.9407 22.4583 24.6314 22.3399 24.3957 22.1043L21.8329 19.5414C21.3604 19.069 21.3604 18.3053 21.8329 17.8328C22.3053 17.3604 23.069 17.3604 23.5414 17.8328L26.1043 20.3957C26.5768 20.8682 26.5768 21.6318 26.1043 22.1043C25.8687 22.3399 25.5594 22.4583 25.25 22.4583Z" fill="#FFC107"/>
<path d="M20.4167 29.7083H19.2083C18.5401 29.7083 18 29.167 18 28.5C18 27.833 18.5401 27.2917 19.2083 27.2917H20.4167C21.0849 27.2917 21.625 27.833 21.625 28.5C21.625 29.167 21.0849 29.7083 20.4167 29.7083Z" fill="#FFC107"/>
<path d="M44.8854 43H20.1146C18.9485 43 18 42.0515 18 40.8854V37.8646C18 36.6985 18.9485 35.75 20.1146 35.75H44.8854C46.0515 35.75 47 36.6985 47 37.8646V40.8854C47 42.0515 46.0515 43 44.8854 43Z" fill="black"/>
<path d="M32.5 22.4583C27.837 22.4583 24.0416 26.2525 24.0416 30.9167V35.75H32.5V27.2917C30.5014 27.2917 28.875 28.9181 28.875 30.9167C28.875 31.5837 28.3348 32.125 27.6666 32.125C26.9984 32.125 26.4583 31.5837 26.4583 30.9167C26.4583 27.5853 29.1686 24.875 32.5 24.875V22.4583Z" fill="#0D88BC"/>
<path d="M32.5 24.875C29.1687 24.875 26.4584 27.5853 26.4584 30.9167C26.4584 31.5837 26.9985 32.125 27.6667 32.125C28.3349 32.125 28.875 31.5837 28.875 30.9167C28.875 28.9181 30.5015 27.2917 32.5 27.2917V24.875Z" fill="#DEDEDE"/>
<path d="M32.5 14C31.8318 14 31.2916 14.5413 31.2916 15.2083V18.8333C31.2916 19.5003 31.8318 20.0417 32.5 20.0417V14Z" fill="#0D88BC"/>
<path d="M22.6872 17.4788C22.3778 17.4788 22.0685 17.5972 21.8329 17.8328C21.3604 18.3053 21.3604 19.069 21.8329 19.5414L24.3957 22.1043C24.6314 22.3399 24.9407 22.4583 25.25 22.4583C25.5594 22.4583 25.8687 22.3399 26.1043 22.1043C26.5768 21.6318 26.5768 20.8682 26.1043 20.3957L23.5414 17.8328C23.3058 17.5972 22.9965 17.4788 22.6872 17.4788Z" fill="#0D88BC"/>
<path d="M20.4167 27.2917H19.2083C18.5401 27.2917 18 27.833 18 28.5C18 29.167 18.5401 29.7083 19.2083 29.7083H20.4167C21.0849 29.7083 21.625 29.167 21.625 28.5C21.625 27.833 21.0849 27.2917 20.4167 27.2917Z" fill="#0D88BC"/>
<path d="M32.5 35.75H24.0417H20.1146C18.9485 35.75 18 36.6985 18 37.8646V40.8854C18 42.0515 18.9485 43 20.1146 43H32.5V35.75Z" fill="#3B3A3C"/>
</g>
<defs>
<clipPath id="clip0">
<rect width="29" height="29" fill="white" transform="translate(18 14)"/>
</clipPath>
</defs>
</svg>
