<svg width="66" height="60" viewBox="0 0 66 60" fill="none" xmlns="http://www.w3.org/2000/svg">
<path d="M6.7891 11.6237C6.7891 24.8325 0 33.9032 0 40.268C0 46.6327 3.63046 60 32.6836 60C61.7367 60 66 42.0172 66 35.0165C66.0019 2.23417 6.7891 -11.769 6.7891 11.6237Z" fill="#A7DBF1"/>
<path d="M32 14.3333C22.8 14.3333 15.3334 21.8 15.3334 31C15.3334 40.2 22.8 47.6667 32 47.6667C41.2 47.6667 48.6667 40.2 48.6667 31C48.6667 21.8 41.2 14.3333 32 14.3333Z" fill="black"/>
<path d="M18.6665 31C18.6665 23.6333 24.6332 17.6667 31.9998 17.6667C35.0832 17.6667 37.9165 18.7167 40.1665 20.4833L21.4832 39.1667C19.7165 36.9167 18.6665 34.0833 18.6665 31Z" fill="#0D88BC"/>
<path d="M32 44.3333C28.9167 44.3333 26.0834 43.2833 23.8334 41.5167L42.5167 22.8333C44.2834 25.0833 45.3334 27.9167 45.3334 31C45.3334 38.3667 39.3667 44.3333 32 44.3333Z" fill="#0D88BC"/>
</svg>
