<svg width="67" height="60" viewBox="0 0 67 60" fill="none" xmlns="http://www.w3.org/2000/svg">
<g clip-path="url(#clip0)">
<path d="M7.39998 11.7C7.39998 24.8 0.599976 33.7 0.599976 40C0.599976 46.3 4.19998 59.5 33.2 59.5C62.2 59.5 66.4 41.7 66.4 34.8C66.4 2.4 7.39998 -11.4 7.39998 11.7Z" fill="#A7DBF1"/>
<path d="M45 21.8813V25H18V21.8813C18.0028 21.118 18.2995 20.3868 18.8256 19.8471C19.3517 19.3073 20.0644 19.0028 20.8083 19H42.1811C42.9269 19 43.6423 19.3032 44.1707 19.8433C44.699 20.3833 44.9972 21.1161 45 21.8813Z" fill="#0D88BC"/>
<path d="M45 25V41.1664C45 41.9179 44.703 42.6386 44.1744 43.1701C43.6457 43.7015 42.9288 44 42.1811 44H20.8083C20.0626 43.9972 19.3483 43.6974 18.8219 43.1663C18.2955 42.6352 18 41.9161 18 41.1664V25H45Z" fill="white"/>
<path d="M45 25V41.1664C45 41.9179 44.7071 42.6386 44.1857 43.1701C43.6644 43.7015 42.9572 44 42.2199 44H40C40.7373 44 41.4444 43.7015 41.9658 43.1701C42.4872 42.6386 42.7801 41.9179 42.7801 41.1664V25H45Z" fill="#146080"/>
<path d="M42.2611 18.2568H39.6556V16.9006C39.6314 16.6772 39.5256 16.4707 39.3584 16.3206C39.1913 16.1705 38.9746 16.0875 38.75 16.0875C38.5254 16.0875 38.3087 16.1705 38.1416 16.3206C37.9744 16.4707 37.8686 16.6772 37.8444 16.9006V18.2568H25.1344V16.9006C25.1344 16.6618 25.0396 16.4327 24.8707 16.2638C24.7019 16.0949 24.4729 16 24.2341 16C23.9944 16 23.7643 16.0945 23.5937 16.2631C23.4232 16.4317 23.326 16.6608 23.3232 16.9006V18.2568H20.7389C19.7481 18.2596 18.7987 18.6546 18.0982 19.3554C17.3976 20.0562 17.0028 21.006 17 21.9971V41.2598C17.0028 42.2509 17.3976 43.2006 18.0982 43.9014C18.7987 44.6022 19.7481 44.9972 20.7389 45H42.2611C42.7521 45 43.2383 44.9033 43.6919 44.7153C44.1456 44.5273 44.5577 44.2518 44.9049 43.9045C45.2521 43.5572 45.5275 43.1449 45.7154 42.6911C45.9033 42.2373 46 41.7509 46 41.2598V21.9971C45.9972 21.006 45.6024 20.0562 44.9018 19.3554C44.2013 18.6546 43.2519 18.2596 42.2611 18.2568ZM20.7389 20.0793H23.3444V20.9799C23.3306 21.1071 23.3438 21.2358 23.383 21.3575C23.4223 21.4793 23.4867 21.5915 23.5721 21.6867C23.6575 21.7819 23.7621 21.858 23.8789 21.9102C23.9956 21.9623 24.1221 21.9892 24.25 21.9892C24.3779 21.9892 24.5044 21.9623 24.6211 21.9102C24.7379 21.858 24.8425 21.7819 24.9279 21.6867C25.0133 21.5915 25.0777 21.4793 25.117 21.3575C25.1562 21.2358 25.1694 21.1071 25.1556 20.9799V20.0793H37.8656V20.9799C37.8518 21.1071 37.865 21.2358 37.9042 21.3575C37.9434 21.4793 38.0079 21.5915 38.0933 21.6867C38.1787 21.7819 38.2832 21.858 38.4 21.9102C38.5168 21.9623 38.6433 21.9892 38.7712 21.9892C38.8991 21.9892 39.0255 21.9623 39.1423 21.9102C39.2591 21.858 39.3636 21.7819 39.4491 21.6867C39.5345 21.5915 39.5989 21.4793 39.6381 21.3575C39.6774 21.2358 39.6905 21.1071 39.6768 20.9799V20.0793H42.2823C42.7917 20.0793 43.2805 20.281 43.6417 20.6403C44.0029 20.9997 44.2072 21.4875 44.21 21.9971V24.1162H18.79V21.9971C18.79 21.7425 18.8406 21.4905 18.9389 21.2558C19.0372 21.021 19.1813 20.8081 19.3627 20.6296C19.5441 20.4511 19.7592 20.3105 19.9955 20.216C20.2317 20.1216 20.4844 20.0751 20.7389 20.0793ZM42.2611 43.1882H20.7389C20.4862 43.1882 20.2361 43.1382 20.0028 43.0412C19.7695 42.9441 19.5577 42.8019 19.3795 42.6227C19.2014 42.4435 19.0604 42.2308 18.9646 41.9969C18.8689 41.763 18.8204 41.5125 18.8218 41.2598V25.9704H44.2418V41.2598C44.2419 41.5175 44.1903 41.7727 44.0901 42.0102C43.99 42.2477 43.8432 42.4626 43.6586 42.6424C43.4739 42.8222 43.2551 42.9631 43.0151 43.0569C42.7751 43.1506 42.5187 43.1952 42.2611 43.1882Z" fill="black" stroke="black" stroke-width="0.5" stroke-miterlimit="10"/>
<path d="M40.5389 35H36.4611C36.2064 35 36 35.2064 36 35.4611V39.5389C36 39.7936 36.2064 40 36.4611 40H40.5389C40.7936 40 41 39.7936 41 39.5389V35.4611C41 35.2064 40.7936 35 40.5389 35Z" fill="black"/>
</g>
<defs>
<clipPath id="clip0">
<rect width="67" height="59.9" fill="white"/>
</clipPath>
</defs>
</svg>
