<svg width="66" height="60" viewBox="0 0 66 60" fill="none" xmlns="http://www.w3.org/2000/svg">
<path d="M6.7891 11.6237C6.7891 24.8325 0 33.9032 0 40.268C0 46.6327 3.63046 60 32.6836 60C61.7367 60 66 42.0172 66 35.0165C66.0019 2.23417 6.7891 -11.769 6.7891 11.6237Z" fill="#A7DBF1"/>
<g clip-path="url(#clip0)">
<path d="M43.5893 50.2011C41.2382 50.2011 39.083 49.1111 37.6645 47.2235C36.6928 45.9203 36.1755 44.3643 36.1755 42.7294C36.1755 38.6065 39.4984 35.2498 43.5893 35.2498C43.6285 35.2498 43.6677 35.2498 43.7069 35.2498H43.7225C45.6739 35.2814 47.5 36.0791 48.8714 37.485C50.2429 38.8908 50.9952 40.7548 50.9952 42.7294C50.9952 46.8444 47.6724 50.2011 43.5893 50.2011Z" fill="#94DDF2"/>
<path d="M17.257 44.309V16.8627C17.257 15.5358 18.3229 14.4616 19.6395 14.4616H40.1802C41.4968 14.4616 42.5627 15.5358 42.5627 16.8627V32.8882C37.6567 33.4016 33.8166 37.5955 33.8166 42.682C33.8166 44.0879 34.1066 45.4543 34.6708 46.7101H19.6395C18.3229 46.7101 17.257 45.6359 17.257 44.309Z" fill="#0D88BC"/>
<path d="M27.9389 19.9193H20.9248C20.2743 19.9193 19.7492 20.4485 19.7492 21.104C19.7492 21.7596 20.2743 22.2888 20.9248 22.2888H27.9389C28.5893 22.2888 29.1144 21.7596 29.1144 21.104C29.1144 20.4485 28.5893 19.9193 27.9389 19.9193Z" fill="black"/>
<path d="M27.9389 24.6582H20.9248C20.2743 24.6582 19.7492 25.1874 19.7492 25.843C19.7492 26.4985 20.2743 27.0277 20.9248 27.0277H27.9389C28.5893 27.0277 29.1144 26.4985 29.1144 25.843C29.1144 25.1874 28.5893 24.6582 27.9389 24.6582Z" fill="black"/>
<path d="M27.9389 29.3972H20.9248C20.2743 29.3972 19.7492 29.9264 19.7492 30.5819C19.7492 31.2375 20.2743 31.7667 20.9248 31.7667H27.9389C28.5893 31.7667 29.1144 31.2375 29.1144 30.5819C29.1144 29.9264 28.5893 29.3972 27.9389 29.3972Z" fill="black"/>
<path d="M27.9389 34.1361H20.9248C20.2743 34.1361 19.7492 34.6653 19.7492 35.3209C19.7492 35.9764 20.2743 36.5056 20.9248 36.5056H27.9389C28.5893 36.5056 29.1144 35.9764 29.1144 35.3209C29.1144 34.6653 28.5893 34.1361 27.9389 34.1361Z" fill="black"/>
<path d="M27.9389 38.9619H20.9248C20.2743 38.9619 19.7492 39.4911 19.7492 40.1467C19.7492 40.8022 20.2743 41.3314 20.9248 41.3314H27.9389C28.5893 41.3314 29.1144 40.8022 29.1144 40.1467C29.1144 39.4911 28.5893 38.9619 27.9389 38.9619Z" fill="black"/>
<path d="M31.8887 22.2888H38.9028C39.5533 22.2888 40.0784 21.7596 40.0784 21.104C40.0784 20.4485 39.5533 19.9193 38.9028 19.9193H31.8887C31.2382 19.9193 30.7131 20.4485 30.7131 21.104C30.7131 21.7596 31.2382 22.2888 31.8887 22.2888Z" fill="black"/>
<path d="M31.8887 27.0277H38.9028C39.5533 27.0277 40.0784 26.4985 40.0784 25.843C40.0784 25.1874 39.5533 24.6582 38.9028 24.6582H31.8887C31.2382 24.6582 30.7131 25.1874 30.7131 25.843C30.7131 26.4985 31.2382 27.0277 31.8887 27.0277Z" fill="black"/>
<path d="M36.442 30.5819C36.442 29.9264 35.9169 29.3972 35.2664 29.3972H31.8887C31.2382 29.3972 30.7131 29.9264 30.7131 30.5819C30.7131 31.2375 31.2382 31.7667 31.8887 31.7667H35.2664C35.9169 31.7667 36.442 31.2375 36.442 30.5819Z" fill="black"/>
<path d="M47.361 39.225C46.9192 38.7798 46.1992 38.7798 45.7574 39.225L43.6363 41.3627L41.5153 39.225C41.0734 38.7798 40.3535 38.7798 39.9116 39.225C39.4747 39.6654 39.4747 40.3758 39.9116 40.8162L42.0451 42.9663L39.9116 45.1165C39.4747 45.5568 39.4747 46.2672 39.9116 46.7076C40.3535 47.1529 41.0734 47.1529 41.5153 46.7076L43.6363 44.57L45.7574 46.7076C46.1992 47.1529 46.9192 47.1529 47.361 46.7076C47.798 46.2672 47.798 45.5568 47.361 45.1165L45.2276 42.9663L47.361 40.8162C47.798 40.3758 47.798 39.6654 47.361 39.225Z" fill="black"/>
<path d="M50.5486 35.8184C49.0203 34.2467 47.0533 33.2594 44.9216 32.9672V16.9022C44.9216 14.2721 42.7978 12.1317 40.1881 12.1317H19.6395C17.0298 12.1317 14.9059 14.2721 14.9059 16.9022V44.3485C14.9059 46.9786 17.0298 49.119 19.6395 49.119H36.1598C38.0172 51.3226 40.6896 52.5706 43.5815 52.5706C48.9655 52.5706 53.3464 48.1555 53.3464 42.7215C53.3464 40.123 52.3511 37.6745 50.5486 35.8184ZM17.257 44.3485V16.9022C17.257 15.5753 18.3229 14.5011 19.6395 14.5011H40.1802C41.4968 14.5011 42.5627 15.5753 42.5627 16.9022V32.9277C37.6567 33.4411 33.8166 37.635 33.8166 42.7215C33.8166 44.1274 34.1066 45.4938 34.6708 46.7496H19.6395C18.3229 46.7496 17.257 45.6754 17.257 44.3485ZM43.5893 50.2011C41.2382 50.2011 39.083 49.1111 37.6646 47.2235C36.6928 45.9203 36.1755 44.3643 36.1755 42.7294C36.1755 38.6065 39.4984 35.2498 43.5893 35.2498C43.6285 35.2498 43.6677 35.2498 43.7069 35.2498H43.7225C45.674 35.2814 47.5 36.0791 48.8714 37.485C50.2429 38.8908 50.9953 40.7548 50.9953 42.7294C50.9953 46.8443 47.6724 50.2011 43.5893 50.2011Z" fill="black"/>
</g>
<defs>
<clipPath id="clip0">
<rect width="40.1254" height="40.4389" fill="white" transform="translate(14.0439 12.1317)"/>
</clipPath>
</defs>
</svg>
