<svg width="67" height="61" viewBox="0 0 67 61" fill="none" xmlns="http://www.w3.org/2000/svg">
<path d="M7.42064 12.5686C7.42064 25.8266 0.599976 34.834 0.599976 41.21C0.599976 47.5861 4.21092 60.9453 33.2991 60.9453C62.3872 60.9453 66.6 42.9305 66.6 35.9473C66.6 3.15639 7.42064 -10.8101 7.42064 12.5686Z" fill="#A7DBF1"/>
<path d="M46.138 35.1579C45.6362 34.9345 45.0785 34.872 44.5404 34.9788C44.0022 35.0856 43.5095 35.3566 43.1289 35.755L39.187 39.7324C39.1005 38.99 38.7458 38.3059 38.1905 37.811C37.6353 37.3162 36.9186 37.0453 36.1778 37.0504H32.3061L30.0894 35.5728C29.0562 34.8791 27.8316 34.5338 26.5916 34.5865C25.3516 34.6393 24.1602 35.0873 23.1885 35.8663C23.0936 35.6658 22.9442 35.4967 22.7578 35.3784C22.5713 35.2602 22.3555 35.1977 22.1353 35.1984H17.2405C17.0812 35.1955 16.9231 35.2254 16.7757 35.2862C16.6283 35.347 16.4946 35.4374 16.383 35.552C16.2713 35.6666 16.1839 35.8029 16.1261 35.9526C16.0683 36.1023 16.0414 36.2624 16.0468 36.423V46.8978C16.0468 47.0533 16.0772 47.2073 16.1362 47.351C16.1951 47.4946 16.2816 47.6252 16.3906 47.7351C16.4995 47.8451 16.6289 47.9323 16.7713 47.9918C16.9137 48.0513 17.0663 48.082 17.2204 48.082H22.1253C22.4365 48.082 22.735 47.9572 22.9551 47.7351C23.1752 47.5131 23.2988 47.2119 23.2988 46.8978V46.6347L27.9128 48.0314C28.0227 48.068 28.1381 48.0851 28.2538 48.082H37.5119C38.4319 48.0864 39.3406 47.878 40.1683 47.4727C40.996 47.0674 41.7206 46.4761 42.2863 45.7441L47.1411 39.4592L47.2012 39.3782L47.2614 39.3074C47.5065 38.9748 47.6734 38.5904 47.7495 38.1831C47.8256 37.7759 47.8089 37.3565 47.7007 36.9567C47.5925 36.557 47.3955 36.1873 47.1248 35.8756C46.8541 35.564 46.5166 35.3185 46.138 35.1579ZM36.228 40.7647H30.7113C30.4175 40.7921 30.1444 40.9292 29.9456 41.1492C29.7467 41.3692 29.6365 41.6562 29.6365 41.9539C29.6365 42.2516 29.7467 42.5386 29.9456 42.7586C30.1444 42.9786 30.4175 43.1157 30.7113 43.1431H38.6754C38.9884 43.1407 39.2878 43.0134 39.5079 42.7889L44.8341 37.435C44.8846 37.3784 44.9514 37.3391 45.0252 37.3228C45.0989 37.3064 45.1759 37.3138 45.2453 37.3439C45.3147 37.3726 45.3739 37.4217 45.4151 37.485C45.4563 37.5482 45.4775 37.6225 45.476 37.6982C45.4769 37.7828 45.4485 37.8651 45.3958 37.9309L40.4608 44.2766C40.1125 44.7245 39.6679 45.0866 39.1605 45.3356C38.6531 45.5846 38.0962 45.7139 37.5319 45.7137H28.4444L23.3189 44.1653V38.8114L24.6529 37.7285C25.2368 37.2627 25.9513 36.9943 26.695 36.9616C27.4387 36.9289 28.1736 37.1335 28.7955 37.5464L31.293 39.2264C31.4854 39.3581 31.7125 39.4286 31.945 39.4288H36.238C36.4136 39.4288 36.582 39.4992 36.7061 39.6244C36.8303 39.7497 36.9 39.9196 36.9 40.0968C36.9 40.2739 36.8303 40.4438 36.7061 40.5691C36.582 40.6944 36.4136 40.7647 36.238 40.7647H36.228ZM20.9617 37.5767V45.6732H18.414V37.5767H20.9617Z" fill="black"/>
<path d="M20.2997 25.7052H27.8727C28.0689 26.3904 28.4348 27.0138 28.9359 27.5168V32.5771C28.941 32.8842 29.0642 33.1772 29.2794 33.3944C29.4947 33.6115 29.7851 33.7358 30.0894 33.741C30.4003 33.7381 30.6983 33.615 30.9219 33.3969L31.9249 32.3848L32.928 33.3969C33.0944 33.5606 33.3045 33.6717 33.5325 33.7167C33.7606 33.7616 33.9967 33.7384 34.2119 33.6499C34.4276 33.5616 34.6124 33.4105 34.7428 33.2158C34.8732 33.0212 34.9433 32.7918 34.9441 32.5569V27.4966C35.4206 26.9848 35.7651 26.3627 35.9471 25.685H43.5201C45.8572 25.685 47.7629 23.4888 47.7629 20.7866C47.7629 18.0843 45.8572 15.8882 43.5201 15.8882H20.2997C17.9626 15.8882 16.0669 18.0843 16.0669 20.7866C16.0669 23.4888 17.9626 25.7052 20.2997 25.7052ZM42.4167 21.9909V22.7702C42.2054 22.5443 42.0386 22.2798 41.9253 21.9909H42.4167ZM44.7639 22.7702V20.8068C44.7639 20.6513 44.7335 20.4973 44.6745 20.3537C44.6155 20.21 44.5291 20.0795 44.4201 19.9695C44.3112 19.8596 44.1818 19.7723 44.0394 19.7128C43.897 19.6533 43.7444 19.6227 43.5903 19.6227H41.9253C42.0397 19.2582 42.2593 18.9365 42.5558 18.6985C42.8524 18.4605 43.2126 18.3172 43.5903 18.2868C44.5933 18.2868 45.476 19.4102 45.476 20.8068C45.4933 21.5286 45.2388 22.2302 44.7639 22.7702ZM39.3474 20.8068C39.3439 21.6847 39.554 22.55 39.9593 23.3268H36.0173C35.85 22.7403 35.5602 22.1966 35.1675 21.7323C34.7748 21.268 34.2882 20.8938 33.7404 20.6348C33.7068 20.0763 33.8818 19.5255 34.2308 19.0908C34.5799 18.6561 35.0778 18.3693 35.6262 18.2868H39.9593C39.554 19.0636 39.3439 19.9289 39.3474 20.8068ZM30.0894 20.6854C30.045 20.1191 30.2148 19.5569 30.5647 19.1118C30.9145 18.6668 31.4185 18.372 31.9751 18.2868C31.6538 18.9174 31.4563 19.6047 31.3933 20.3109C30.9414 20.3633 30.501 20.4898 30.0894 20.6854ZM33.8608 24.511C33.8608 24.8873 33.7502 25.2551 33.543 25.568C33.3358 25.8809 33.0413 26.1248 32.6967 26.2688C32.3522 26.4128 31.973 26.4505 31.6072 26.3771C31.2414 26.3037 30.9054 26.1225 30.6417 25.8564C30.378 25.5903 30.1984 25.2512 30.1256 24.8822C30.0529 24.5131 30.0902 24.1305 30.2329 23.7828C30.3757 23.4352 30.6173 23.138 30.9275 22.9289C31.2376 22.7199 31.6021 22.6083 31.9751 22.6083C32.4692 22.6188 32.9396 22.8236 33.2862 23.179C33.6328 23.5344 33.8282 24.0123 33.8307 24.511H33.8608ZM32.6371 28.7414V29.7535C32.4437 29.6149 32.2123 29.5404 31.9751 29.5404C31.7379 29.5404 31.5065 29.6149 31.3131 29.7535V28.7414C31.7418 28.8091 32.1783 28.8091 32.607 28.7414H32.6371ZM27.7322 20.8068C27.7248 21.4985 27.8473 22.1853 28.0933 22.8309C28.0194 23.0058 27.9557 23.1849 27.9028 23.3673H20.2997C19.2967 23.3673 18.414 22.2338 18.414 20.8473C18.414 19.4608 19.2566 18.3272 20.2997 18.3272H28.324C27.9216 19.0911 27.7083 19.9418 27.7022 20.8068H27.7322Z" fill="black"/>
<path d="M45.5763 37.6982C45.5737 37.8072 45.5387 37.913 45.476 38.0018L45.5964 38.0929L45.476 38.0018L40.5411 44.3373C40.1845 44.7989 39.7279 45.1721 39.2063 45.4282C38.6847 45.6843 38.112 45.8166 37.5319 45.8149H28.4243L23.2186 44.2361V38.7608L24.5927 37.6577C25.1883 37.1697 25.922 36.8852 26.6882 36.8452C27.4544 36.8051 28.2133 37.0117 28.8556 37.435L31.3532 39.1151C31.5265 39.2372 31.7337 39.301 31.945 39.2972H36.238C36.4402 39.2972 36.6341 39.3783 36.7771 39.5225C36.92 39.6668 37.0003 39.8624 37.0003 40.0664C37.0003 40.2704 36.92 40.466 36.7771 40.6103C36.6341 40.7545 36.4402 40.8356 36.238 40.8356H30.7213C30.4533 40.8617 30.2045 40.9876 30.0235 41.1887C29.8424 41.3899 29.7421 41.6518 29.7421 41.9235C29.7421 42.1953 29.8424 42.4572 30.0235 42.6584C30.2045 42.8595 30.4533 42.9854 30.7213 43.0115H38.6854C38.8274 43.0111 38.9679 42.9823 39.0988 42.9267C39.2296 42.8711 39.3482 42.7898 39.4477 42.6877L44.7639 37.3237C44.8299 37.2547 44.9154 37.2079 45.0088 37.1898C45.1021 37.1717 45.1988 37.1831 45.2854 37.2225C45.3775 37.2607 45.4552 37.3272 45.5074 37.4127C45.5597 37.4981 45.5838 37.5981 45.5763 37.6982Z" fill="white"/>
<path d="M21.062 37.4755H18.3137V45.8149H21.062V37.4755Z" fill="#146080"/>
<path d="M42.517 21.8897V23.0131C42.1774 22.7118 41.9244 22.3237 41.7848 21.8897H42.517Z" fill="#146080"/>
<path d="M45.5763 20.8068C45.588 21.2189 45.5127 21.6287 45.3553 22.0091C45.1979 22.3895 44.9621 22.7318 44.6635 23.0131V20.8068C44.6635 20.5196 44.5504 20.2442 44.3492 20.0411C44.1479 19.838 43.8749 19.7239 43.5903 19.7239H41.7848C41.8893 19.3114 42.12 18.9427 42.4441 18.6701C42.7683 18.3976 43.1693 18.2351 43.5903 18.2058C44.1892 18.2987 44.7297 18.6207 45.0995 19.105C45.4693 19.5894 45.64 20.1988 45.5763 20.8068Z" fill="#146080"/>
<path d="M35.6261 18.2058H40.1197C39.6789 19.0097 39.4476 19.9134 39.4476 20.8321C39.4476 21.7508 39.6789 22.6545 40.1197 23.4584H35.9471C35.7853 22.8598 35.4946 22.3046 35.0959 21.8323C34.6971 21.36 34.2001 20.9822 33.6401 20.7258C33.5905 20.1295 33.7685 19.5366 34.1376 19.0683C34.5067 18.5999 35.0392 18.2914 35.6261 18.2058Z" fill="#0D88BC"/>
<path d="M20.2996 18.2058H28.4844C28.0334 19.0078 27.7982 19.915 27.8024 20.8372C27.7984 21.5295 27.9243 22.2163 28.1735 22.8613C28.0791 23.0659 28.0052 23.2795 27.9528 23.4989H20.2996C19.6932 23.4107 19.1446 23.0878 18.7701 22.5985C18.3957 22.1092 18.2247 21.4919 18.2936 20.8776C18.2133 20.2557 18.3787 19.6269 18.7541 19.127C19.1294 18.6271 19.6846 18.2962 20.2996 18.2058Z" fill="#0D88BC"/>
<path d="M31.9249 26.5149C33.0218 26.5149 33.9109 25.6177 33.9109 24.511C33.9109 23.4043 33.0218 22.5071 31.9249 22.5071C30.8281 22.5071 29.9389 23.4043 29.9389 24.511C29.9389 25.6177 30.8281 26.5149 31.9249 26.5149Z" fill="white"/>
<path d="M31.1626 29.9356V28.62C31.4137 28.6691 31.6691 28.6928 31.9249 28.6908C32.1807 28.6933 32.4361 28.6695 32.6872 28.62V29.9356C32.5874 29.8341 32.4687 29.7534 32.3379 29.6984C32.207 29.6434 32.0667 29.615 31.9249 29.615C31.7832 29.615 31.6428 29.6434 31.512 29.6984C31.3811 29.7534 31.2624 29.8341 31.1626 29.9356Z" fill="white"/>
<path d="M31.4836 20.3615C30.9412 20.4215 30.416 20.5901 29.9389 20.8574V20.8068C29.8701 20.1925 30.041 19.5753 30.4155 19.086C30.79 18.5967 31.3386 18.2737 31.945 18.1855H32.0955C31.7346 18.8563 31.5256 19.5995 31.4836 20.3615Z" fill="white"/>
</svg>
