<svg width="66" height="60" viewBox="0 0 66 60" fill="none" xmlns="http://www.w3.org/2000/svg">
<path d="M6.7891 11.6237C6.7891 24.8325 0 33.9032 0 40.268C0 46.6327 3.63046 60 32.6836 60C61.7367 60 66 42.0172 66 35.0165C66.0019 2.23417 6.7891 -11.769 6.7891 11.6237Z" fill="#A7DBF1"/>
<g clip-path="url(#clip0)">
<path d="M32.1003 13.8535C41.4495 13.8535 49.4514 21.9179 49.4514 31.3401C49.4514 40.7624 41.4495 48.8268 32.1003 48.8268C28.774 48.8268 25.2581 47.8458 22.6412 46.1753L14.7492 48.8268L17.3801 40.8732C15.7226 38.2361 14.7492 34.6925 14.7492 31.3401C14.7492 21.9179 22.7511 13.8535 32.1003 13.8535Z" fill="#0D88BC"/>
<path d="M43.1034 22.8101C43.1034 23.2024 43.4194 23.5209 43.8088 23.5209C44.1981 23.5209 44.5141 23.2024 44.5141 22.8101C44.5141 22.4177 44.1981 22.0992 43.8088 22.0992C43.4194 22.0992 43.1034 22.4177 43.1034 22.8101Z" fill="black"/>
<path d="M45.9247 31.3401C45.9247 32.2506 45.8341 33.1594 45.6555 34.0413C45.5776 34.4259 45.8239 34.8013 46.2055 34.8799C46.2532 34.8899 46.3005 34.8946 46.3474 34.8946C46.6755 34.8946 46.9695 34.6622 47.0378 34.3257C47.2354 33.3502 47.3354 32.3459 47.3354 31.3401C47.3354 29.1018 46.8538 26.9479 45.9035 24.9381C45.736 24.5838 45.3153 24.4333 44.9634 24.6021C44.6116 24.771 44.4625 25.1952 44.6301 25.5498C45.4891 27.3669 45.9247 29.3151 45.9247 31.3401Z" fill="black"/>
<path d="M32.0993 13.1426C22.3675 13.1426 14.0429 21.5164 14.0429 31.3401C14.0429 34.6958 14.997 38.2644 16.6058 40.9637L14.079 48.6021C13.9947 48.8573 14.0606 49.1392 14.2496 49.3294C14.4394 49.5207 14.7193 49.5859 14.9714 49.501L22.5507 46.9547C25.2287 48.5763 28.7697 49.5376 32.0993 49.5376C41.8337 49.5376 50.1558 41.1628 50.1558 31.3401C50.1558 21.5297 41.8461 13.1426 32.0993 13.1426ZM32.0993 48.1159C28.9052 48.1159 25.5103 47.166 23.0177 45.575C22.8411 45.4622 22.6209 45.4325 22.417 45.5011L16.6219 47.448C16.3095 47.553 16.0113 47.2562 16.1148 46.9432L18.0481 41.0981C18.1154 40.8954 18.0884 40.6732 17.9749 40.4927C16.3961 37.9809 15.4536 34.5592 15.4536 31.3401C15.4536 22.2467 23.0764 14.5643 32.0993 14.5643C41.1223 14.5643 48.7451 22.2467 48.7451 31.3401C48.7451 40.4336 41.1223 48.1159 32.0993 48.1159Z" fill="black"/>
</g>
<path d="M28.1791 36.1774L38.2077 25.791C38.8729 25.1021 39.9645 25.1021 40.6296 25.791C41.2948 26.4799 41.2948 27.5927 40.6296 28.2816L29.39 39.9222C28.7249 40.6111 27.6504 40.6111 26.9852 39.9222L22.5678 35.3472C21.9027 34.6583 21.9027 33.5455 22.5678 32.8566C23.233 32.1677 24.3075 32.1677 24.9727 32.8566L28.1791 36.1774Z" fill="white"/>
<path fill-rule="evenodd" clip-rule="evenodd" d="M37.4888 25.0859C38.5478 23.9891 40.2896 23.9891 41.3486 25.0859C42.3927 26.1673 42.3927 27.9053 41.3486 28.9867L30.109 40.6273C29.05 41.7241 27.3253 41.7241 26.2663 40.6273L21.8489 36.0523C20.8048 34.9709 20.8048 33.2329 21.8489 32.1515C22.9079 31.0548 24.6326 31.0548 25.6916 32.1515L28.1791 34.7278L37.4888 25.0859ZM39.9107 26.496C39.6394 26.215 39.198 26.215 38.9267 26.496L28.1791 37.6271L24.2537 33.5617C23.9824 33.2806 23.5581 33.2806 23.2868 33.5617C23.0005 33.8581 23.0005 34.3457 23.2868 34.6422L27.7041 39.2172C27.9755 39.4982 28.3998 39.4982 28.6711 39.2172L39.9107 27.5766C40.1969 27.2801 40.1969 26.7925 39.9107 26.496Z" fill="black"/>
<defs>
<clipPath id="clip0">
<rect width="36.1128" height="36.395" fill="white" transform="translate(14.0439 13.1426)"/>
</clipPath>
</defs>
</svg>
