<svg width="66" height="60" viewBox="0 0 66 60" fill="none" xmlns="http://www.w3.org/2000/svg">
<path d="M6.7891 11.6237C6.7891 24.8325 0 33.9032 0 40.268C0 46.6327 3.63046 60 32.6836 60C61.7367 60 66 42.0172 66 35.0165C66.0019 2.23417 6.7891 -11.769 6.7891 11.6237Z" fill="#A7DBF1"/>
<path d="M22 34.5L21.5 36.5L20 39.5L23.5 43L27 40.5L28.5 41L29 45.5H34.5L35 41.5L37 40.5L40.5 43.5L44 39L42 36.5V34.5L46.5 34V28.5L42 28V26L44 22.5L40 19L37 21.5L35.5 21L35 16.5H29V19.5L27.5 21L23.5 19.5L20 22.5L22 27L17.5 28.5L18 33.5L22 34.5Z" fill="#0D88BC"/>
<path d="M31.5 36.5L28 35L26.5 30L28 26.5L33 25.5L36.5 27.5L37.5 31.5L36 35.5L31.5 36.5Z" fill="#A7DBF1"/>
<path d="M32 24C28.1402 24 25 27.1402 25 31C25 34.8598 28.1402 38 32 38C35.8598 38 39 34.8598 39 31C39 27.1402 35.8598 24 32 24ZM32 35.2C29.6844 35.2 27.8 33.3156 27.8 31C27.8 28.6844 29.6844 26.8 32 26.8C34.317 26.8 36.2 28.6844 36.2 31C36.2 33.3156 34.3156 35.2 32 35.2Z" fill="black"/>
<path d="M46.8555 27.076L43.0632 26.4622L45.3309 23.4335C45.7284 22.9015 45.679 22.1591 45.2148 21.686L41.4252 17.825C40.9557 17.3452 40.2087 17.2903 39.6765 17.6923L36.5779 19.8795L35.9776 16.1271C35.8736 15.4771 35.316 15 34.6611 15H29.3255C28.6612 15 28.0983 15.4905 28.0049 16.1499L27.3807 19.9479L24.2981 17.6829C23.7659 17.2916 23.0336 17.3478 22.5681 17.8156L18.7932 21.5948C18.321 22.0665 18.2689 22.8157 18.6691 23.3504L20.8794 26.4582L17.1445 26.9943C16.4882 27.0881 16 27.6537 16 28.321V33.6817C16 34.349 16.4882 34.9146 17.1445 35.0057L20.9367 35.6195L18.6691 38.6482C18.2689 39.183 18.321 39.9294 18.7919 40.4025L22.5668 44.1951C23.0376 44.6708 23.7819 44.7191 24.3128 44.3183L27.4047 42.0977L27.9383 45.8501C28.0317 46.5095 28.5946 47 29.2589 47H34.5944C35.2587 47 35.8216 46.5108 35.915 45.8541L36.5259 42.0441L39.5405 44.3224C40.0741 44.7244 40.817 44.6735 41.2866 44.1991L45.0614 40.4065C45.5323 39.9334 45.5843 39.1856 45.1841 38.6523L42.9392 35.5498L46.8208 35.0942C47.4931 35.0165 48 34.4442 48 33.7634V28.4028C48 27.7354 47.5118 27.1699 46.8555 27.076ZM45.3336 32.5693L42.6111 32.8883C41.6201 33.0182 40.7917 33.6857 40.4836 34.546C40.0968 35.4251 40.2101 36.453 40.7864 37.2344L42.3577 39.3317L40.2208 41.4786L38.1239 39.8932C37.3516 39.3197 36.3285 39.2057 35.5402 39.5636C34.6011 39.9053 33.9369 40.7376 33.8074 41.7185L33.4393 44.3197H30.4167L30.0472 41.7346C29.9178 40.7389 29.2535 39.9066 28.3985 39.5984C27.5248 39.2098 26.5044 39.321 25.7214 39.9013L23.6338 41.48L21.4969 39.3331L23.0749 37.2263C23.6445 36.4531 23.7579 35.4265 23.4031 34.6305C23.0616 33.687 22.2346 33.0182 21.2568 32.8896L18.6677 32.5197V29.4829L21.2421 29.1117C22.2332 28.9817 23.0616 28.3143 23.3684 27.4553C23.7566 26.5761 23.6431 25.5509 23.0683 24.7656L21.4983 22.6696L23.6418 20.5227L25.7987 22.1068C26.5697 22.6803 27.5901 22.7903 28.3824 22.4364C29.3228 22.0933 29.9858 21.2584 30.1125 20.2815L30.482 17.6789H33.5246L33.9381 20.2627C34.0662 21.2598 34.7291 22.0933 35.5881 22.4043C36.4618 22.7903 37.4836 22.6803 38.2599 22.1027L40.3434 20.5374L42.511 22.7433L40.9277 24.8567C40.3581 25.63 40.2447 26.6566 40.5996 27.4539C40.9411 28.3987 41.7721 29.0648 42.7444 29.1921L45.3335 29.5634L45.3336 32.5693Z" fill="black"/>
</svg>
