<svg width="66" height="60" viewBox="0 0 66 60" fill="none" xmlns="http://www.w3.org/2000/svg">
<path d="M6.7891 11.6237C6.7891 24.8325 0 33.9032 0 40.268C0 46.6327 3.63046 60 32.6836 60C61.7367 60 66 42.0172 66 35.0165C66.0019 2.23417 6.7891 -11.769 6.7891 11.6237Z" fill="#A7DBF1"/>
<g clip-path="url(#clip0)">
<path d="M46.238 34.5945H13.9501C12.2189 34.5945 10.8154 36.0089 10.8154 37.7537V46.5996C10.8154 48.3443 12.2189 49.7588 13.9501 49.7588H46.238C47.9692 49.7588 49.3727 48.3443 49.3727 46.5996V37.7537C49.3727 36.0088 47.9692 34.5945 46.238 34.5945Z" fill="#0D88BC"/>
<path d="M35.7365 17.7932H24.4514C23.0664 17.7932 21.9436 18.9248 21.9436 20.3206V28.5919C21.9436 29.9877 23.0664 31.1193 24.4514 31.1193H35.7365C37.1215 31.1193 38.2443 29.9877 38.2443 28.5919V20.3206C38.2443 18.9248 37.1215 17.7932 35.7365 17.7932Z" fill="#146080"/>
<path d="M33.4874 40.2021C33.271 39.8243 32.7917 39.6949 32.4169 39.913L30.8777 40.8087V39.0174C30.8777 38.5812 30.5267 38.2276 30.094 38.2276C29.6612 38.2276 29.3103 38.5812 29.3103 39.0174V40.8087L27.7711 39.913C27.3961 39.695 26.917 39.8243 26.7005 40.2021C26.4841 40.5799 26.6125 41.0629 26.9874 41.281L28.5266 42.1766L26.9874 43.0723C26.6125 43.2903 26.4841 43.7734 26.7005 44.1512C26.8458 44.4045 27.1091 44.5461 27.38 44.5461C27.5129 44.5461 27.6477 44.512 27.7711 44.4402L29.3103 43.5446V45.3359C29.3103 45.7721 29.6612 46.1257 30.094 46.1257C30.5267 46.1257 30.8777 45.7721 30.8777 45.3359V43.5446L32.4169 44.4402C32.5403 44.512 32.6751 44.5461 32.808 44.5461C33.0788 44.5461 33.3422 44.4045 33.4874 44.1512C33.7039 43.7734 33.5754 43.2903 33.2006 43.0723L31.6614 42.1766L33.2006 41.281C33.5754 41.0629 33.7038 40.5799 33.4874 40.2021Z" fill="black"/>
<path d="M22.7509 40.2021C22.5345 39.8243 22.0552 39.6949 21.6804 39.913L20.1412 40.8087V39.0174C20.1412 38.5812 19.7902 38.2276 19.3575 38.2276C18.9247 38.2276 18.5738 38.5812 18.5738 39.0174V40.8087L17.0346 39.913C16.6596 39.695 16.1806 39.8243 15.964 40.2021C15.7476 40.5799 15.876 41.0629 16.2509 41.281L17.7901 42.1766L16.2509 43.0723C15.876 43.2903 15.7476 43.7734 15.964 44.1512C16.1093 44.4045 16.3726 44.5461 16.6435 44.5461C16.7764 44.5461 16.9112 44.512 17.0346 44.4402L18.5738 43.5446V45.3359C18.5738 45.7721 18.9247 46.1257 19.3575 46.1257C19.7902 46.1257 20.1412 45.7721 20.1412 45.3359V43.5446L21.6804 44.4402C21.8038 44.512 21.9385 44.5461 22.0715 44.5461C22.3423 44.5461 22.6057 44.4045 22.7509 44.1512C22.9674 43.7734 22.8389 43.2903 22.4641 43.0723L20.9249 42.1766L22.4641 41.281C22.8389 41.0629 22.9673 40.5799 22.7509 40.2021Z" fill="black"/>
<path d="M37.437 44.1512C37.5822 44.4045 37.8456 44.5461 38.1165 44.5461C38.2494 44.5461 38.3842 44.512 38.5075 44.4402L40.0468 43.5446V45.3359C40.0468 45.7721 40.3977 46.1257 40.8305 46.1257C41.2632 46.1257 41.6142 45.7721 41.6142 45.3359V43.5446L43.1534 44.4402C43.2768 44.512 43.4115 44.5461 43.5445 44.5461C43.8153 44.5461 44.0787 44.4045 44.2239 44.1512C44.4404 43.7734 44.3119 43.2903 43.9371 43.0723L42.3978 42.1766L43.9371 41.281C44.3119 41.0629 44.4404 40.5799 44.2239 40.2021C44.0075 39.8243 43.5282 39.6949 43.1534 39.913L41.6142 40.8087V39.0174C41.6142 38.5812 41.2632 38.2276 40.8305 38.2276C40.3977 38.2276 40.0468 38.5812 40.0468 39.0174V40.8087L38.5075 39.913C38.1326 39.695 37.6535 39.8243 37.437 40.2021C37.2206 40.5799 37.349 41.0629 37.7239 41.281L39.2631 42.1766L37.7239 43.0723C37.349 43.2903 37.2206 43.7734 37.437 44.1512Z" fill="black"/>
<path d="M46.2379 33.8047H33.6255C33.1927 33.8047 32.8418 34.1583 32.8418 34.5945C32.8418 35.0307 33.1927 35.3843 33.6255 35.3843H46.2379C47.5343 35.3843 48.589 36.4472 48.589 37.7537V46.5996C48.589 47.9061 47.5343 48.969 46.2379 48.969H13.95C12.6537 48.969 11.599 47.9061 11.599 46.5996V37.7537C11.599 36.4472 12.6537 35.3843 13.95 35.3843H26.5723C27.0051 35.3843 27.356 35.0307 27.356 34.5945C27.356 34.1583 27.0051 33.8047 26.5723 33.8047H13.95C11.7894 33.8047 10.0316 35.5762 10.0316 37.7537V46.5996C10.0316 48.7771 11.7894 50.5486 13.95 50.5486H46.2379C48.3985 50.5486 50.1563 48.7771 50.1563 46.5996V37.7537C50.1563 35.5762 48.3985 33.8047 46.2379 33.8047Z" fill="black"/>
<path d="M30.094 26.9334C30.5268 26.9334 30.8777 26.5798 30.8777 26.1436V22.7691C30.8777 22.3328 30.5268 21.9792 30.094 21.9792C29.6612 21.9792 29.3103 22.3328 29.3103 22.7691V26.1436C29.3103 26.5798 29.6612 26.9334 30.094 26.9334Z" fill="black"/>
<path d="M24.4514 31.9091H35.7365C37.5514 31.9091 39.028 30.421 39.028 28.5919V20.3206C39.028 18.4915 37.5514 17.0034 35.7365 17.0034H35.5798V15.6384C35.5798 12.5899 33.1188 10.1097 30.094 10.1097C27.0691 10.1097 24.6082 12.5899 24.6082 15.6384V17.0034H24.4514C22.6365 17.0034 21.1599 18.4915 21.1599 20.3206V28.5919C21.1599 30.421 22.6365 31.9091 24.4514 31.9091ZM26.1755 15.6384C26.1755 13.4609 27.9333 11.6893 30.094 11.6893C32.2546 11.6893 34.0124 13.4609 34.0124 15.6384V17.0034H26.1755V15.6384ZM22.7273 20.3206C22.7273 19.3625 23.5007 18.583 24.4514 18.583H35.7365C36.6872 18.583 37.4606 19.3625 37.4606 20.3206V28.5919C37.4606 29.55 36.6872 30.3295 35.7365 30.3295H24.4514C23.5007 30.3295 22.7273 29.55 22.7273 28.5919V20.3206Z" fill="black"/>
<path d="M30.0986 35.3895C30.3047 35.3895 30.5069 35.305 30.6527 35.1581C30.7992 35.0112 30.8823 34.8074 30.8823 34.5997C30.8823 34.3912 30.7992 34.1882 30.6527 34.0413C30.5069 33.8944 30.3047 33.8099 30.0986 33.8099C29.8925 33.8099 29.6903 33.8944 29.5446 34.0413C29.3988 34.1882 29.3149 34.3912 29.3149 34.5997C29.3149 34.8074 29.3988 35.0112 29.5446 35.1581C29.6904 35.305 29.8926 35.3895 30.0986 35.3895Z" fill="black"/>
</g>
<defs>
<clipPath id="clip0">
<rect width="40.1254" height="40.4389" fill="white" transform="translate(10.0313 10.1097)"/>
</clipPath>
</defs>
</svg>
