<svg width="67" height="60" viewBox="0 0 67 60" fill="none" xmlns="http://www.w3.org/2000/svg">
<g clip-path="url(#clip0)">
<path d="M7.39998 11.7C7.39998 24.8 0.599976 33.7 0.599976 40C0.599976 46.3 4.19998 59.5 33.2 59.5C62.2 59.5 66.4 41.7 66.4 34.8C66.4 2.4 7.39998 -11.4 7.39998 11.7Z" fill="#A7DBF1"/>
<path d="M23.0737 31.7929L24.7878 30.5073C25.5378 29.8645 25.752 28.7932 25.2164 28.0432L24.1451 26.4362V19.5798H44.2859V34.364H24.5736C24.0379 33.7212 23.5023 32.9713 23.0737 32.2214V31.7929Z" fill="#0D88BC"/>
<path d="M44.393 19.4726V31.3643C44.393 32.9713 44.393 34.2569 44.393 34.2569H40.8577C42.4647 34.2569 43.536 33.1856 43.536 31.5786V19.4726H44.393Z" fill="#146080"/>
<path d="M44.2859 17.6514H23.9307C23.0737 17.6514 22.3238 18.4013 22.3238 19.2584V23.5437L22.1095 23.2223C21.5738 22.3652 20.5025 22.151 19.6454 22.6866L17.7171 23.8651C16.9671 24.2936 16.4315 24.9364 16.2172 25.7935C15.4673 28.4718 16.0029 32.9713 22.538 39.5064C26.9305 43.8988 30.8943 46.1486 34.4297 46.1486C35.0725 46.1486 35.7153 46.0415 36.3581 45.9343C37.2152 45.7201 37.858 45.1844 38.2865 44.4345L39.4649 42.5061C40.0006 41.649 39.6792 40.5777 38.9293 40.0421L34.3226 36.9352C33.5727 36.3996 32.3942 36.6138 31.8585 37.3638L30.4658 39.0779L30.2516 38.9707C29.3945 38.5422 28.4303 38.0065 26.3948 35.971H44.393C45.2501 35.971 46 35.2211 46 34.364V19.3655C46 18.4013 45.2501 17.6514 44.2859 17.6514ZM29.5016 40.6849C30.2516 41.1134 31.3229 40.8991 31.8585 40.2563L33.2513 38.5422L37.858 41.649L36.6795 43.5774C36.4652 43.8988 36.1438 44.1131 35.8224 44.2202C33.6798 44.863 29.7159 44.3274 23.8236 38.3279C17.8242 32.3285 17.2885 28.4718 17.9313 26.3291C18.0385 26.0077 18.2527 25.6863 18.5741 25.4721L20.6096 24.2936L23.6093 29.0074L21.8952 30.293C21.1453 30.8287 20.931 31.9 21.3596 32.6499L21.4667 32.8642C22.0024 33.8284 22.538 34.8997 24.7878 37.1495C27.0376 39.3993 28.216 40.0421 29.0731 40.4706L29.2874 40.1492V40.5777L29.5016 40.6849ZM23.0737 31.7929L24.7878 30.5073C25.5377 29.8645 25.752 28.7932 25.2163 28.0432L24.145 26.4363V19.5798H44.2859V34.364H24.5735C24.0379 33.7213 23.5022 32.9713 23.0737 32.2214V31.7929Z" fill="black"/>
<path d="M32.9299 27.6147C33.2513 27.829 33.6798 28.0432 34.1084 28.0432C34.5369 28.0432 34.9654 27.9361 35.2868 27.6147L42.2504 22.2581C42.4647 22.151 42.5718 21.9367 42.5718 21.7224C42.5718 21.5082 42.5718 21.2939 42.3576 21.0796C42.0362 20.6511 41.5005 20.6511 41.072 20.8654L34.1084 26.1149C34.0012 26.222 33.8941 26.222 33.787 26.1149L26.7162 20.7582C26.2877 20.4368 25.752 20.544 25.4306 20.9725C25.1093 21.401 25.2164 21.9367 25.6449 22.2581L32.9299 27.6147Z" fill="black"/>
<path d="M25.9662 33.2927C26.1805 33.2927 26.3948 33.1856 26.609 32.9713L30.1444 29.1146C30.4658 28.7932 30.3587 28.2575 30.0373 27.9361C29.7159 27.6147 29.1802 27.6147 28.8588 27.9361L25.3234 31.7929C25.002 32.1143 25.002 32.7571 25.3234 33.0785C25.5377 33.1856 25.752 33.2927 25.9662 33.2927Z" fill="black"/>
<path d="M39.0364 27.5076C38.8221 27.2933 38.6078 27.1862 38.3936 27.1862C38.1793 27.1862 37.965 27.2933 37.7508 27.4005C37.4294 27.7219 37.3223 28.2575 37.7508 28.686L41.5004 32.8642C41.7147 33.0785 41.9289 33.1856 42.1432 33.1856C42.3575 33.1856 42.5717 33.0785 42.786 32.9713C43.1074 32.6499 43.2145 32.1143 42.786 31.6857L39.0364 27.5076Z" fill="black"/>
<path d="M29.5016 40.6849C30.2515 41.1134 31.3228 40.8991 31.8585 40.2563L33.2512 38.5422L37.8579 41.649L36.6795 43.5774C36.4652 43.8988 36.1438 44.1131 35.8224 44.2202C33.6798 44.863 29.7159 44.3274 23.8236 38.3279C17.8242 32.3285 17.2885 28.4718 17.9313 26.3291C18.0384 26.0077 18.2527 25.6863 18.5741 25.4721L20.6096 24.2936L23.6093 29.0074L21.8952 30.293C21.1453 30.8287 20.931 31.9 21.3595 32.6499L21.4667 32.8642C22.0023 33.8284 22.538 34.8997 24.7878 37.1495C27.0375 39.3993 28.216 40.0421 29.0731 40.4706L29.2873 40.1492V40.5777L29.5016 40.6849Z" fill="white"/>
</g>
<defs>
<clipPath id="clip0">
<rect width="67" height="59.9" fill="white"/>
</clipPath>
</defs>
</svg>
