<svg width="24" height="24" viewBox="0 0 24 24" fill="none" xmlns="http://www.w3.org/2000/svg">
<path d="M3.2723 10.2266V6.61562H18.3117V7.59327C16.2336 7.51183 14.4588 9.04653 14.2348 11.1031H14.2236H14.2104H14.1972H14.1839H14.1705H14.1571H14.1435H14.1299H14.1162H14.1024H14.0885H14.0745H14.0605H14.0464H14.0321H14.0179H14.0035H13.9891H13.9745H13.9599H13.9452H13.9305H13.9157H13.9007H13.8857H13.8707H13.8555H13.8403H13.825H13.8096H13.7942H13.7787H13.7631H13.7474H13.7317H13.7159H13.7H13.684H13.668H13.6519H13.6357H13.6194H13.6031H13.5867H13.5703H13.5537H13.5371H13.5205H13.5037H13.4869H13.47H13.4531H13.4361H13.419H13.4019H13.3847H13.3674H13.35H13.3326H13.3152H13.2976H13.28H13.2624H13.2446H13.2268H13.209H13.1911H13.1731H13.155H13.1369H13.1188H13.1006H13.0823H13.0639H13.0455H13.027H13.0085H12.9899H12.9713H12.9526H12.9338H12.915H12.8961H12.8772H12.8582H12.8392H12.8201H12.8009H12.7817H12.7624H12.7431H12.7238H12.7043H12.6848H12.6653H12.6457H12.6261H12.6064H12.5866H12.5669H12.547H12.5271H12.5072H12.4872H12.4671H12.447H12.4269H12.4067H12.3865H12.3662H12.3458H12.3254H12.305H12.2845H12.264H12.2434H12.2228H12.2022H12.1815H12.1607H12.1399H12.1191H12.0982H12.0773H12.0563H12.0353H12.0143H11.9932H11.972H11.9509H11.9296H11.9084H11.8871H11.8657H11.8444H11.823H11.8015H11.78H11.7585H11.7369H11.7153H11.6937H11.672H11.6503H11.6285H11.6067H11.5849H11.5631H11.5412H11.5192H11.4973H11.4753H11.4533H11.4312H11.4091H11.387H11.3648H11.3427H11.3204H11.2982H11.2759H11.2536H11.2313H11.2089H11.1865H11.1641H11.1416H11.1191H11.0966H11.0741H11.0515H11.0289H11.0063H10.9837H10.961H10.9383H10.9156H10.8928H10.8701H10.8473H10.8245H10.8016H10.7788H10.7559H10.733H10.71H10.6871H10.6641H10.6411H10.6181H10.5951H10.572H10.5489H10.5259H10.5027H10.4796H10.4565H10.4333H10.4101H10.3869H10.3637H10.3405H10.3172H10.294H10.2707H10.2474H10.2241H10.2007H10.1774H10.1541H10.1307H10.1073H10.0839H10.0605H10.0371H10.0137H9.99024H9.96679H9.94333H9.91986H9.89638H9.87289H9.8494H9.82589H9.80237H9.77885H9.75532H9.73178H9.70823H9.68468H9.66112H9.63755H9.61398H9.5904H9.56682H9.54323H9.51964H9.49605H9.47245H9.44884H9.42524H9.40163H9.37802H9.35441H9.33079H9.30718H9.28356H9.25994H9.23632H9.21271H9.18909H9.16547H9.14186H9.11824H9.09463H9.07102H9.04741H9.0238H9.0002H8.9766H8.95301H8.92942H8.90583H8.88225H8.85867H8.8351H8.81154H8.78798H8.76443H8.74088H8.71734H8.69381H8.67029H8.64678H8.62327H8.59977H8.57629H8.55281H8.52934H8.50588H8.48244H8.459H8.43558H8.41216H8.38876H8.36537H8.342H8.31864H8.29529H8.27195H8.24863H8.22532H8.20203H8.17875H8.15549H8.13224H8.10901H8.0858H8.0626H8.03942H8.01626H7.99312H7.96999H7.94689H7.9238H7.90073H7.87768H7.85465H7.83164H7.80865H7.78568H7.76274H7.73981H7.71691H7.69403H7.67117H7.64833H7.62552H7.60273H7.57997H7.55723H7.53451H7.51182H7.48916H7.46652H7.44391H7.42132H7.39876H7.37623H7.35372H7.33124H7.30879H7.28637H7.26398H7.24162H7.21929H7.19698H7.17471H7.15247H7.13025H7.10807H7.08592H7.06381H7.04172H7.01967H6.99765H6.97566H6.95371H6.93179H6.90991H6.88806H6.86624H6.84446H6.82272H6.80101H6.77934H6.7577H6.73611H6.71455H6.69302H6.67154H6.65009H6.62868H6.60732H6.58599H6.5647H6.54345H6.52224H6.50107H6.47995H6.45886H6.43782H6.41682H6.39586H6.37494H6.35407H6.33324H6.31246H6.29171H6.27102H6.25037H6.22976H6.2092H6.18868H6.16822H6.14779H6.12742H6.10709H6.08681H6.06658H6.0464H6.02626H6.00618H5.98614H5.96615H5.94622H5.92633H5.90649H5.88671H5.86698H5.8473H5.82767H5.80809H5.78857H5.7691H5.74968H5.73031H5.711H5.69175H5.67255H5.65341H5.63432H5.61528H5.59631H5.57739H5.55852H5.53972H5.52097H5.50228H5.48364H5.46507H5.44655H5.4281H5.4097H5.39137H5.37309H5.35487H5.33672H5.31863H5.3006H5.28263H5.26472H5.24688H5.2291H5.21138H5.19373H5.17614H5.15861H5.14115H5.12376H5.10643H5.08916H5.07196H5.05483H5.03777H5.02077H5.00384H4.98698H4.97019H4.95346H4.93681H4.92022H4.9037H4.88725H4.87088H4.85457H4.83833H4.82217H4.80608H4.79006H4.77411H4.75823H4.74243H4.7267H4.71104H4.69546H4.67996H4.66452H4.64917H4.63388H4.61868H4.60355H4.58849H4.57352H4.55862H4.54379H4.52905H4.51438H4.49979H4.48529H4.47086H4.45651H4.44223H4.42804H4.41393H4.39991H4.38596H4.37209H4.35831H4.34461H4.33099H4.31745H4.304H4.29063H4.27734H4.26414H4.25102H4.23799H4.22505H4.21219H4.19941H4.18672H4.17412H4.16161H4.14918C3.66571 11.1031 3.2723 10.7098 3.2723 10.2266ZM19.684 7.89474V5.92969C19.684 5.55083 19.3768 5.24375 18.9979 5.24375H13.8236V3.58594C13.8236 3.20708 13.5164 2.9 13.1375 2.9H8.44648C8.06757 2.9 7.76035 3.20708 7.76035 3.58594V5.24375H2.58613C2.20722 5.24375 1.9 5.55083 1.9 5.92969V19.7383C1.9 20.1171 2.20722 20.4242 2.58613 20.4242H16.3505C16.5458 21.2409 17.2816 21.85 18.1577 21.85C19.1825 21.85 20.0161 21.0167 20.0161 19.9922V15.018C22.9425 13.4643 22.7458 9.16818 19.684 7.89474ZM9.13262 4.27188H12.4514V5.24375H9.13262V4.27188ZM10.3059 12.475H11.2781V13.4469H10.3059V12.475ZM16.2993 15.018V19.0523H3.27227V12.2964C3.54185 12.4111 3.83817 12.475 4.14914 12.475H8.93359V14.1328C8.93359 14.5117 9.24082 14.8188 9.61973 14.8188H11.9643C12.3432 14.8188 12.6504 14.5117 12.6504 14.1328V12.475H14.3244C14.5941 13.5827 15.3227 14.498 16.2993 15.018ZM18.1577 20.4781C17.8897 20.4781 17.6716 20.26 17.6716 19.9922V17.7504H18.6439V19.9922C18.6439 20.26 18.4257 20.4781 18.1577 20.4781ZM18.6439 16.3785H17.6716V15.4507C17.9893 15.4901 18.3103 15.4921 18.6439 15.4507V16.3785ZM18.1577 14.1109C16.7336 14.1109 15.5811 12.9589 15.5811 11.5352C15.5811 10.1115 16.7334 8.95937 18.1577 8.95937C19.5819 8.95937 20.7344 10.1114 20.7344 11.5352C20.7344 12.9588 19.582 14.1109 18.1577 14.1109Z" fill="#3B3A3C" stroke="#3B3A3C" stroke-width="0.2"/>
</svg>
