<svg width="66" height="60" viewBox="0 0 66 60" fill="none" xmlns="http://www.w3.org/2000/svg">
<path d="M6.76789 11.4976C6.76789 24.563 0 33.5353 0 39.8309C0 46.1266 3.61911 59.3488 32.5814 59.3488C61.5438 59.3488 65.7938 41.5611 65.7938 34.6365C65.7957 2.20993 6.76789 -11.6413 6.76789 11.4976Z" fill="#A7DBF1"/>
<path d="M43.4531 49.6563C41.1094 49.6563 38.9609 48.5781 37.5469 46.711C36.5781 45.4219 36.0625 43.8828 36.0625 42.2656C36.0625 38.1875 39.375 34.8672 43.4531 34.8672C43.4922 34.8672 43.5312 34.8672 43.5703 34.8672H43.5859C45.5312 34.8985 47.3516 35.6875 48.7187 37.0781C50.0859 38.4688 50.8359 40.3125 50.8359 42.2656C50.8359 46.336 47.5234 49.6563 43.4531 49.6563Z" fill="#94DDF2"/>
<path d="M17.2031 43.8281V16.6797C17.2031 15.3672 18.2656 14.3047 19.5781 14.3047H40.0547C41.3672 14.3047 42.4297 15.3672 42.4297 16.6797V32.5313C37.5391 33.0391 33.7109 37.1875 33.7109 42.2188C33.7109 43.6094 34 44.9609 34.5625 46.2031H19.5781C18.2656 46.2031 17.2031 45.1406 17.2031 43.8281Z" fill="#0D88BC"/>
<path d="M27.8516 19.7031H20.8594C20.2109 19.7031 19.6875 20.2266 19.6875 20.875C19.6875 21.5234 20.2109 22.0469 20.8594 22.0469H27.8516C28.5 22.0469 29.0234 21.5234 29.0234 20.875C29.0234 20.2266 28.5 19.7031 27.8516 19.7031Z" fill="black"/>
<path d="M27.8516 24.3906H20.8594C20.2109 24.3906 19.6875 24.9141 19.6875 25.5625C19.6875 26.2109 20.2109 26.7344 20.8594 26.7344H27.8516C28.5 26.7344 29.0234 26.2109 29.0234 25.5625C29.0234 24.9141 28.5 24.3906 27.8516 24.3906Z" fill="black"/>
<path d="M27.8516 29.0781H20.8594C20.2109 29.0781 19.6875 29.6016 19.6875 30.25C19.6875 30.8984 20.2109 31.4219 20.8594 31.4219H27.8516C28.5 31.4219 29.0234 30.8984 29.0234 30.25C29.0234 29.6016 28.5 29.0781 27.8516 29.0781Z" fill="black"/>
<path d="M27.8516 33.7656H20.8594C20.2109 33.7656 19.6875 34.2891 19.6875 34.9375C19.6875 35.5859 20.2109 36.1094 20.8594 36.1094H27.8516C28.5 36.1094 29.0234 35.5859 29.0234 34.9375C29.0234 34.2891 28.5 33.7656 27.8516 33.7656Z" fill="black"/>
<path d="M27.8516 38.5391H20.8594C20.2109 38.5391 19.6875 39.0625 19.6875 39.711C19.6875 40.3594 20.2109 40.8828 20.8594 40.8828H27.8516C28.5 40.8828 29.0234 40.3594 29.0234 39.711C29.0234 39.0625 28.5 38.5391 27.8516 38.5391Z" fill="black"/>
<path d="M31.7891 22.0469H38.7813C39.4297 22.0469 39.9531 21.5234 39.9531 20.875C39.9531 20.2266 39.4297 19.7031 38.7813 19.7031H31.7891C31.1406 19.7031 30.6172 20.2266 30.6172 20.875C30.6172 21.5234 31.1406 22.0469 31.7891 22.0469Z" fill="black"/>
<path d="M31.7891 26.7344H38.7813C39.4297 26.7344 39.9531 26.2109 39.9531 25.5625C39.9531 24.9141 39.4297 24.3906 38.7813 24.3906H31.7891C31.1406 24.3906 30.6172 24.9141 30.6172 25.5625C30.6172 26.2109 31.1406 26.7344 31.7891 26.7344Z" fill="black"/>
<path d="M36.3281 30.25C36.3281 29.6016 35.8047 29.0781 35.1562 29.0781H31.7891C31.1406 29.0781 30.6172 29.6016 30.6172 30.25C30.6172 30.8984 31.1406 31.4219 31.7891 31.4219H35.1562C35.8047 31.4219 36.3281 30.8984 36.3281 30.25Z" fill="black"/>
<path d="M47.4296 39.0314C46.9218 38.6251 46.1874 38.7111 45.7811 39.2111L42.7655 42.9767L40.8983 41.6251C40.3749 41.2423 39.6405 41.3595 39.2655 41.8829C38.8827 42.4064 38.9999 43.1408 39.5233 43.5158L42.2968 45.5236C42.5077 45.672 42.7421 45.7501 42.9843 45.7501C43.328 45.7501 43.6718 45.6017 43.8983 45.3126L47.6171 40.6798C48.0155 40.172 47.9296 39.4376 47.4296 39.0314Z" fill="black"/>
<path d="M50.3906 35.4297C48.8672 33.875 46.9062 32.8984 44.7812 32.6094V16.7188C44.7812 14.1172 42.6641 12 40.0625 12H19.5781C16.9766 12 14.8594 14.1172 14.8594 16.7188V43.8672C14.8594 46.4688 16.9766 48.5859 19.5781 48.5859H36.0469C37.8984 50.7656 40.5625 52 43.4453 52C48.8125 52 53.1797 47.6328 53.1797 42.2578C53.1797 39.6875 52.1875 37.2656 50.3906 35.4297ZM17.2031 43.8672V16.7188C17.2031 15.4062 18.2656 14.3438 19.5781 14.3438H40.0547C41.3672 14.3438 42.4297 15.4062 42.4297 16.7188V32.5703C37.5391 33.0781 33.7109 37.2266 33.7109 42.2578C33.7109 43.6484 34 45 34.5625 46.2422H19.5781C18.2656 46.2422 17.2031 45.1797 17.2031 43.8672ZM43.4531 49.6562C41.1094 49.6562 38.9609 48.5781 37.5469 46.7109C36.5781 45.4219 36.0625 43.8828 36.0625 42.2656C36.0625 38.1875 39.375 34.8672 43.4531 34.8672C43.4922 34.8672 43.5312 34.8672 43.5703 34.8672H43.5859C45.5312 34.8984 47.3516 35.6875 48.7188 37.0781C50.0859 38.4688 50.8359 40.3125 50.8359 42.2656C50.8359 46.3359 47.5234 49.6562 43.4531 49.6562Z" fill="black"/>
</svg>
