<svg width="66" height="60" viewBox="0 0 66 60" fill="none" xmlns="http://www.w3.org/2000/svg">
<path d="M6.7891 11.6237C6.7891 24.8325 0 33.9032 0 40.268C0 46.6327 3.63046 60 32.6836 60C61.7367 60 66 42.0172 66 35.0165C66.0019 2.23417 6.7891 -11.769 6.7891 11.6237Z" fill="#A7DBF1"/>
<g clip-path="url(#clip0)">
<path d="M31.5988 50.806C42.5431 50.806 51.4152 41.8645 51.4152 30.8347C51.4152 19.8048 42.5431 10.8634 31.5988 10.8634C20.6544 10.8634 11.7823 19.8048 11.7823 30.8347C11.7823 41.8645 20.6544 50.806 31.5988 50.806Z" fill="#146080"/>
<path d="M30.477 50.806C40.8019 50.806 49.1718 41.8645 49.1718 30.8347C49.1718 19.8048 40.8019 10.8634 30.477 10.8634C20.1522 10.8634 11.7823 19.8048 11.7823 30.8347C11.7823 41.8645 20.1522 50.806 30.477 50.806Z" fill="#A7DBF1"/>
<path d="M25.7006 42.1786L19.7875 45.4291C19.4473 45.6202 19.129 45.8486 18.8385 46.11C26.1829 52.3465 36.9084 52.374 44.2842 46.1754C43.9657 45.8998 43.6158 45.6634 43.2419 45.4712L36.9105 42.2808C36.0923 41.8686 35.5756 41.0258 35.5756 40.104V37.6002C35.7882 37.352 35.9881 37.0929 36.1745 36.8242C37.0287 35.6007 37.6923 34.2527 38.1424 32.8271C38.9762 32.5715 39.5479 31.7986 39.5525 30.9203V28.2482C39.5504 27.6822 39.3094 27.1438 38.8897 26.7675V22.9044C38.8897 22.9044 39.6768 16.8924 31.5987 16.8924C23.5207 16.8924 24.3077 22.9044 24.3077 22.9044V26.7675C23.8881 27.1438 23.6471 27.6822 23.6449 28.2482V30.9203C23.647 31.6013 23.9923 32.2346 24.5614 32.6015C25.0015 34.4197 25.8186 36.1233 26.959 37.6002V40.0419C26.959 40.9326 26.4764 41.752 25.7006 42.1786Z" fill="#146080"/>
<path d="M42.8949 45.4198L34.5651 42.2295C33.747 41.8173 33.2302 40.9745 33.2302 40.0526V37.5489C33.4429 37.3007 33.6427 37.0416 33.8292 36.7728C34.6833 35.5493 35.347 34.2014 35.7971 32.7758C36.6309 32.5202 37.2025 31.7473 37.2072 30.869V28.1969C37.205 27.6309 36.9639 27.0924 36.5444 26.7161V22.8531C36.5444 22.8531 37.3314 16.8411 29.2534 16.8411C28.7725 16.8411 28.3252 16.8637 27.9051 16.9039C27.9541 17.2952 27.7362 17.671 27.3738 17.82C26.4066 18.2198 25.4706 18.6924 24.5736 19.2336C24.9432 19.2987 25.2122 19.623 25.2102 20.0012C25.3713 22.7757 24.4242 26.0334 23.573 28.8694C23.5992 29.9861 23.6234 31.103 23.6556 32.2196C23.7375 32.4774 23.8196 32.735 23.8998 32.9931C24.0545 33.0878 24.1757 33.229 24.2465 33.3969C24.588 34.2168 24.9689 35.057 25.2993 35.9128C25.7496 35.7862 26.2222 36.0214 26.3964 36.4586C26.6879 37.2883 26.8705 38.1529 26.9394 39.0304C26.9747 39.2939 26.8468 39.5525 26.6168 39.6828C26.201 41.1342 25.499 42.4861 24.5526 43.6576C24.3474 43.8591 24.0525 43.9372 23.7755 43.8635C23.4986 43.7898 23.2803 43.5752 23.2005 43.298C23.1604 43.1578 23.1278 43.0157 23.1029 42.872C22.5469 43.2049 21.9507 43.4957 21.3072 43.8588C20.9616 44.0538 18.336 45.2686 18.2705 45.5699C17.8994 47.275 23.8308 49.3896 26.8085 50.5852C27.6192 50.6923 28.4358 50.7489 29.2535 50.7546C34.0798 50.7546 40.5001 49.0141 43.9374 46.1241C43.6188 45.8485 43.2689 45.6121 42.8949 45.4198Z" fill="#0D88BC"/>
<path d="M31.5987 51.5596C20.2414 51.5596 11.0345 42.2807 11.0345 30.8347C11.0345 19.3886 20.2414 10.1097 31.5987 10.1097C42.9561 10.1097 52.163 19.3886 52.163 30.8347C52.1499 42.2752 42.9506 51.5464 31.5987 51.5596ZM31.5987 11.617C21.0674 11.617 12.5301 20.2211 12.5301 30.8347C12.5301 41.4482 21.0674 50.0523 31.5987 50.0523C42.13 50.0523 50.6674 41.4482 50.6674 30.8347C50.6554 20.2261 42.1251 11.6291 31.5987 11.617Z" fill="black"/>
<path d="M31.5987 51.5596C26.7529 51.5568 22.0634 49.831 18.3561 46.686C18.1892 46.5442 18.0921 46.3359 18.0903 46.116C18.0884 45.896 18.1821 45.6862 18.3466 45.5416C18.6782 45.2442 19.0415 44.9844 19.4296 44.7673L25.3426 41.5173C25.8784 41.2227 26.2116 40.6567 26.2116 40.0417V37.8611C25.1438 36.419 24.3589 34.7849 23.8988 33.0463C23.2648 32.5253 22.8969 31.7445 22.8969 30.9201V28.2485C22.8991 27.5926 23.1343 26.9592 23.56 26.463V22.9458C23.4307 21.3429 23.937 19.7537 24.9679 18.5262C26.3459 16.9418 28.5769 16.1388 31.5987 16.1388C34.6206 16.1388 36.8515 16.9418 38.2295 18.5263C39.2604 19.7538 39.7666 21.343 39.6374 22.9458V26.463C40.063 26.9592 40.2983 27.5926 40.3006 28.2485V30.9201C40.3018 31.9812 39.6942 32.9472 38.7415 33.3988C38.2735 34.7724 37.6149 36.0723 36.785 37.2596C36.6251 37.487 36.4703 37.6932 36.3235 37.8756V40.1041C36.3215 40.7409 36.679 41.3236 37.2452 41.6064L43.5765 44.7968C44.0034 45.0155 44.4027 45.2848 44.7661 45.599C44.9352 45.7426 45.0325 45.9542 45.0319 46.177C45.0314 46.3998 44.933 46.611 44.7632 46.7537C41.0671 49.8568 36.4093 51.5571 31.5987 51.5596ZM20.0664 46.1355C26.8455 51.3297 36.2212 51.3607 43.0339 46.2113C42.9916 46.1884 42.95 46.1663 42.9076 46.145L36.5762 42.9546C35.5018 42.4182 34.8237 41.3126 34.8279 40.1042V37.6005C34.8279 37.4177 34.8938 37.2411 35.0134 37.1037C35.2087 36.8747 35.3924 36.6359 35.564 36.3884C36.3742 35.2275 37.0037 33.9485 37.4305 32.596C37.5054 32.3621 37.6889 32.1797 37.9219 32.1073C38.4409 31.9468 38.7976 31.4672 38.8048 30.9202V28.2486C38.8036 27.8954 38.652 27.5599 38.3886 27.3271C38.2314 27.1843 38.1417 26.981 38.1417 26.7678V22.9047C38.1417 22.8718 38.1439 22.8388 38.1483 22.8061C38.2356 21.6089 37.8565 20.4246 37.0916 19.5045C36.0079 18.2718 34.1604 17.6462 31.5986 17.6462C29.0266 17.6462 27.1739 18.277 26.0924 19.52C25.3291 20.4343 24.9542 21.615 25.0489 22.8061C25.0533 22.8388 25.0555 22.8718 25.0555 22.9047V26.7678C25.0555 26.981 24.9657 27.1843 24.8086 27.3271C24.5451 27.5599 24.3935 27.8954 24.3923 28.2486V30.9202C24.3939 31.3457 24.6105 31.741 24.9671 31.9689C25.1305 32.0756 25.2462 32.2422 25.2899 32.4333C25.7061 34.1353 26.4705 35.7308 27.534 37.1178C27.6455 37.2536 27.7066 37.4243 27.7071 37.6006V40.0418C27.7074 41.2086 27.0749 42.2824 26.0582 42.8407L20.1453 46.0907C20.119 46.1053 20.0927 46.12 20.0664 46.1355Z" fill="black"/>
</g>
<defs>
<clipPath id="clip0">
<rect width="41.1285" height="41.4499" fill="white" transform="translate(11.0345 10.1097)"/>
</clipPath>
</defs>
</svg>
