<svg width="67" height="67" viewBox="0 0 67 67" fill="none" xmlns="http://www.w3.org/2000/svg">
<path d="M7.42064 14.5386C7.42064 27.7966 0.599976 36.804 0.599976 43.18C0.599976 49.556 4.21092 62.9153 33.2991 62.9153C62.3872 62.9153 66.6 44.9005 66.6 37.9173C66.6 5.12636 7.42064 -8.84014 7.42064 14.5386Z" fill="#A7DBF1"/>
<path d="M48.6456 34.375L49.0468 33.869C49.6486 33.2618 50.0499 32.4521 50.0499 31.5413C50.0499 30.6304 49.7489 29.8208 49.0468 29.2135C47.7429 27.8978 45.6365 27.8978 44.4328 29.2135L39.5179 34.1726V25.2665H43.3295C44.0316 25.2665 44.6334 24.6592 44.6334 23.9508V22.0278C44.6334 19.8013 42.828 18.0808 40.7216 18.0808H19.9587C17.752 18.0808 16.0468 19.9025 16.0468 22.0278V48.2403C16.0468 50.4669 17.8523 52.1874 19.9587 52.1874H40.7216C42.9283 52.1874 44.6334 50.3657 44.6334 48.2403V46.3174C44.6334 45.609 44.0316 45.0017 43.3295 45.0017H39.5179V43.686L46.7398 36.3992C46.9404 36.6016 46.9404 37.0064 46.7398 37.2088L41.7246 42.2692C41.4237 42.5728 41.3234 42.8764 41.3234 43.18C41.3234 43.4836 41.4237 43.8885 41.7246 44.0909C42.2261 44.5969 43.1289 44.5969 43.6304 44.0909L48.8462 38.8281C49.8492 37.6137 49.8492 35.6907 48.6456 34.375ZM39.5179 22.0278C39.5179 21.3194 40.1198 20.8134 40.7216 20.8134C41.3234 20.8134 41.9252 21.4206 41.9252 22.0278V22.6351H39.4176V22.0278H39.5179ZM34.904 43.5848C35.3052 42.5728 35.907 41.6619 36.7094 40.9535L44.0316 33.5654L44.9344 34.4762L37.6122 41.8643C36.8097 42.4716 35.8067 43.0788 34.904 43.5848ZM36.8097 22.0278V36.9052L34.8037 38.9293L34.7033 39.0305C33.1988 40.5486 32.1958 42.5728 31.7945 44.6981L30.9921 45.5078H21.2626C20.5605 45.5078 19.9587 46.115 19.9587 46.8234C19.9587 47.5319 20.5605 48.1391 21.2626 48.1391H31.5939C31.9951 48.1391 32.2961 48.0379 32.4967 47.7343L33.6 46.621C34.7033 46.4186 35.8067 46.0138 36.8097 45.5078V48.0379C36.8097 48.4428 36.91 48.8476 37.0103 49.2524H19.9587C19.2565 49.2524 18.755 48.6452 18.755 48.0379V22.0278C18.755 21.3194 19.3568 20.8134 19.9587 20.8134H37.0103C36.91 21.117 36.8097 21.623 36.8097 22.0278ZM39.5179 48.1391V47.5319H42.0255V48.1391C42.0255 48.8476 41.4237 49.3536 40.8219 49.3536C40.2201 49.3536 39.5179 48.8476 39.5179 48.1391ZM47.3416 31.6425C47.3416 31.8449 47.2413 31.9461 47.141 32.0473L46.7398 32.4521L45.8371 31.5413L46.2383 31.1364C46.3386 31.0352 46.5392 30.934 46.6395 30.934C46.8401 30.934 46.9404 31.0352 47.0407 31.1364C47.2413 31.3388 47.3416 31.4401 47.3416 31.6425Z" fill="black"/>
<path d="M34.9039 39.1318L35.0043 39.233L34.9039 39.1318C33.2991 40.7511 32.296 42.7752 31.8948 44.9005L31.0924 45.7102H21.2626C20.6608 45.7102 20.1593 46.2162 20.1593 46.8234C20.1593 47.4307 20.6608 47.9367 21.2626 47.9367H31.5939C31.8948 47.9367 32.1957 47.8355 32.3963 47.6331L33.4997 46.5198C34.7033 46.3174 35.907 45.8114 37.0103 45.2041V48.1391C37.0103 48.6452 37.1106 49.1512 37.3112 49.6572H19.9587C19.1562 49.6572 18.4541 48.9488 18.4541 48.1391V22.0278C18.4541 21.2182 19.1562 20.5098 19.9587 20.5098H37.3112C37.1106 20.9146 37.0103 21.4206 37.0103 22.0278V37.0064L34.9039 39.1318Z" fill="#0D88BC"/>
<path d="M21.2626 40.1438H30.2899C30.8918 40.1438 31.3933 39.6378 31.3933 39.0305C31.3933 38.4233 30.8918 37.9173 30.2899 37.9173H21.2626C20.6608 37.9173 20.1592 38.4233 20.1592 39.0305C20.1592 39.6378 20.6608 40.1438 21.2626 40.1438Z" fill="black" stroke="black" stroke-width="0.2"/>
<path d="M21.2626 35.5895H30.2899C30.8918 35.5895 31.3933 35.0835 31.3933 34.4762C31.3933 33.869 30.8918 33.363 30.2899 33.363H21.2626C20.6608 33.363 20.1592 33.869 20.1592 34.4762C20.1592 35.0835 20.6608 35.5895 21.2626 35.5895Z" fill="black" stroke="black" stroke-width="0.2"/>
<path d="M21.2626 44.0909H30.2899C30.8918 44.0909 31.3933 43.5848 31.3933 42.9776C31.3933 42.3704 30.8918 41.8643 30.2899 41.8643H21.2626C20.6608 41.8643 20.1592 42.3704 20.1592 42.9776C20.1592 43.5848 20.6608 44.0909 21.2626 44.0909Z" fill="black" stroke="black" stroke-width="0.2"/>
<path d="M37.6122 41.8643C36.7094 42.7752 35.6061 43.4836 34.5027 43.8885C34.904 42.674 35.6061 41.6619 36.5088 40.7511L43.9313 33.2618L45.135 34.375L37.6122 41.8643Z" fill="white"/>
<path d="M47.2414 32.1485L46.6395 32.7557L45.5362 31.6425L46.138 31.0352C46.4389 30.7316 46.9404 30.7316 47.2414 31.0352C47.5423 31.3389 47.5423 31.8449 47.2414 32.1485Z" fill="white"/>
<path d="M40.7216 20.5098C41.524 20.5098 42.2261 21.2182 42.2261 22.0278V22.8375H39.3173V22.0278C39.3173 21.2182 39.9191 20.5098 40.7216 20.5098Z" fill="#146080"/>
<path d="M42.2261 47.3295V48.1391C42.2261 48.9488 41.524 49.6572 40.7215 49.6572C39.9191 49.6572 39.217 48.9488 39.217 48.1391V47.3295H42.2261Z" fill="#146080"/>
</svg>
