<svg width="66" height="60" viewBox="0 0 66 60" fill="none" xmlns="http://www.w3.org/2000/svg">
<path d="M6.7891 11.6237C6.7891 24.8325 0 33.9032 0 40.268C0 46.6327 3.63046 60 32.6836 60C61.7367 60 66 42.0172 66 35.0165C66.0019 2.23417 6.7891 -11.769 6.7891 11.6237Z" fill="#A7DBF1"/>
<g clip-path="url(#clip0)">
<path d="M41.2551 17.5375L41.1424 17.4248H27.0703C26.5691 17.4248 26.1627 17.8311 26.1627 18.3324V42.7487C26.1627 43.25 26.5691 43.6563 27.0703 43.6563H45.5982C46.0995 43.6563 46.5058 43.25 46.5058 42.7487V22.7882L41.2551 17.5375Z" fill="#0D88BC"/>
<path d="M33.5867 19.4564L33.474 19.3437H19.4019C18.9006 19.3437 18.4943 19.75 18.4943 20.2513V44.6676C18.4943 45.1689 18.9006 45.5752 19.4019 45.5752H37.9298C38.431 45.5752 38.8374 45.1689 38.8374 44.6676V24.7071L33.5867 19.4564Z" fill="#A7DBF1"/>
<path d="M44.3239 20.6062V22.7882V28.2011V42.7487C44.3239 43.2499 43.9175 43.6563 43.4163 43.6563H45.5982C46.0994 43.6563 46.5058 43.2499 46.5058 42.7487V22.7882L44.3239 20.6062Z" fill="#0D88BC"/>
<path d="M41.1425 17.4248V21.8806C41.1425 22.3819 41.5488 22.7882 42.0501 22.7882H46.5059L46.3932 22.6755L41.1425 17.4248Z" fill="#0D88BC"/>
<path d="M36.6554 22.5252V24.7071V29.4736V44.6676C36.6554 45.1688 36.2491 45.5752 35.7478 45.5752H37.9297C38.431 45.5752 38.8373 45.1689 38.8373 44.6676V24.7071L36.6554 22.5252Z" fill="#A7DBF1"/>
<path d="M33.474 19.3437V23.7995C33.474 24.3007 33.8803 24.7071 34.3816 24.7071H38.8374L38.7247 24.5944L33.474 19.3437Z" fill="#A7DBF1"/>
<path d="M44.2208 32.934L39.2914 29.7651C39.0976 29.6405 38.8428 29.7797 38.8428 30.01V31.6017H33.3641C33.2033 31.6017 33.0729 31.7321 33.0729 31.8929V34.4649C33.0729 34.6257 33.2033 34.7561 33.3641 34.7561H38.8428V36.3478C38.8428 36.5782 39.0976 36.7173 39.2914 36.5927L44.2208 33.4238C44.3991 33.3093 44.3991 33.0487 44.2208 32.934Z" fill="#0D88BC"/>
<path d="M46.8062 22.4878C46.5702 22.2518 41.6776 17.3593 41.4428 17.1244L41.4418 17.1236C41.369 17.0513 41.2697 17.0044 41.156 17.0007C41.1514 17.0005 41.1469 17 41.1424 17H37.0536C36.819 17 36.6288 17.1901 36.6288 17.4248C36.6288 17.6595 36.819 17.8496 37.0536 17.8496H40.7176V21.8806C40.7176 22.6153 41.3153 23.213 42.0499 23.213H46.081V42.7487C46.081 43.0149 45.8644 43.2315 45.5982 43.2315H39.2621C39.2621 42.5151 39.2621 37.7087 39.2621 37.0514C39.3515 37.0344 39.4431 36.9969 39.5159 36.9501L40.7238 36.1736L40.725 36.1728L44.4452 33.7812C44.8838 33.4993 44.8834 32.8582 44.4452 32.5766L39.5155 29.4075C39.4456 29.3626 39.3495 29.3227 39.262 29.3061V24.7071C39.262 24.7024 39.2614 24.6977 39.2613 24.693C39.2577 24.5816 39.212 24.4811 39.1376 24.4067C38.9027 24.1718 34.0101 19.2791 33.7743 19.0433C33.699 18.9683 33.5961 18.9231 33.4875 18.9196C33.4829 18.9194 33.4784 18.9189 33.4738 18.9189H26.5875V18.3324C26.5875 18.0661 26.8041 17.8496 27.0703 17.8496H35.0713C35.3059 17.8496 35.4961 17.6595 35.4961 17.4248C35.4961 17.1901 35.3059 17 35.0713 17H27.0703C26.3356 17 25.7379 17.5977 25.7379 18.3324V18.9188H19.4018C18.6671 18.9188 18.0695 19.5165 18.0695 20.2512V35.1955C18.0695 35.4302 18.2597 35.6203 18.4943 35.6203C18.7289 35.6203 18.9191 35.4302 18.9191 35.1955V20.2513C18.9191 19.9851 19.1357 19.7685 19.4018 19.7685H26.1627H33.0491V23.7995C33.0491 24.5342 33.6468 25.1319 34.3814 25.1319H38.4124V31.177H33.3588C32.964 31.177 32.6428 31.4982 32.6428 31.893V34.465C32.6428 34.8598 32.964 35.181 33.3588 35.181H38.4124V37.3342V44.6677C38.4124 44.9339 38.1959 45.1504 37.9297 45.1504H19.4018C19.1356 45.1504 18.9191 44.9339 18.9191 44.6677V37.1781C18.9191 36.9434 18.7289 36.7533 18.4943 36.7533C18.2597 36.7533 18.0695 36.9434 18.0695 37.1781V44.6677C18.0695 45.4023 18.6672 46 19.4018 46H37.9297C38.6644 46 39.2621 45.4023 39.2621 44.6676V44.0812H45.5982C46.3329 44.0812 46.9306 43.4835 46.9306 42.7488V22.7882C46.9306 22.6801 46.8877 22.5694 46.8062 22.4878ZM42.0499 22.3634C41.7837 22.3634 41.5672 22.1468 41.5672 21.8806V18.4503L45.4802 22.3634H42.0499ZM34.3815 24.2823C34.1153 24.2823 33.8988 24.0657 33.8988 23.7995V20.3693L37.8118 24.2823H34.3815ZM38.8376 34.3313H33.4925V32.0266H38.8373C39.0719 32.0266 39.2624 31.8364 39.2624 31.6018V30.2549L43.811 33.179L39.2624 36.1031V34.7562C39.2624 34.5215 39.0723 34.3313 38.8376 34.3313Z" fill="#3B3A3C"/>
</g>
<defs>
<clipPath id="clip0">
<rect width="29" height="29" fill="white" transform="translate(18 17)"/>
</clipPath>
</defs>
</svg>
