<svg width="66" height="60" viewBox="0 0 66 60" fill="none" xmlns="http://www.w3.org/2000/svg">
<path d="M6.7891 11.6237C6.7891 24.8325 0 33.9032 0 40.268C0 46.6327 3.63046 60 32.6836 60C61.7367 60 66 42.0172 66 35.0165C66.0019 2.23417 6.7891 -11.769 6.7891 11.6237Z" fill="#A7DBF1"/>
<g clip-path="url(#clip0)">
<path d="M41.8568 17.6485C43.9096 19.6989 43.9244 23.0381 41.8901 25.107C41.879 25.1182 41.8679 25.1294 41.8568 25.1406L41.1721 25.7813L33.7871 18.3386L34.4229 17.6979C36.4573 15.629 39.7707 15.614 41.8235 17.6643C41.8347 17.6754 41.8458 17.6866 41.8568 17.6979V17.6485H41.8568Z" fill="#0E88BC"/>
<path d="M41.172 25.7813L25.8641 41.2088L18.4791 33.7661L33.7871 18.2893V18.3386L41.172 25.7813Z" fill="#0E88BC"/>
<path d="M25.8641 41.2088L16.425 43.2789L18.4791 33.7661L25.8641 41.2088Z" fill="#146080"/>
<path d="M42.5903 17.0078H42.5414C40.1211 14.5578 36.1884 14.5491 33.7575 16.9882C33.751 16.9947 33.7446 17.0012 33.7381 17.0078L17.7944 33.0761C17.6538 33.1902 17.5513 33.345 17.5009 33.5197L15.4468 43.0325C15.3908 43.3739 15.4997 43.7219 15.7403 43.969C15.9209 44.1548 16.167 44.261 16.425 44.2648H16.6206L26.0597 42.1946C26.2436 42.1638 26.414 42.0779 26.5488 41.9482L42.5414 25.8306C43.7097 24.6557 44.3615 23.0578 44.351 21.3946C44.378 19.7523 43.7426 18.1693 42.5903 17.0078ZM19.8485 33.7661L33.7871 19.7187L39.8026 25.7813L25.8641 39.7795L19.8485 33.7661ZM19.0659 35.7377L23.9077 40.6173L17.6965 41.9975L19.0659 35.7377ZM41.172 24.4012L35.1564 18.2893C36.8226 16.6744 39.4569 16.6744 41.1231 18.2893H41.172C41.9671 19.1032 42.4072 20.2031 42.3946 21.3453C42.4242 22.4905 41.9815 23.5968 41.172 24.4012Z" fill="black"/>
<path d="M47.481 48.5267H14.7133C14.1731 48.5267 13.7351 48.0853 13.7351 47.5409C13.7351 46.9964 14.1731 46.5551 14.7133 46.5551H47.4811C48.0213 46.5551 48.4592 46.9964 48.4592 47.5409C48.4592 48.0853 48.0212 48.5267 47.481 48.5267Z" fill="black"/>
</g>
<defs>
<clipPath id="clip0">
<rect width="36.1128" height="36.395" fill="white" transform="translate(13.0407 12.1317)"/>
</clipPath>
</defs>
</svg>
