<svg width="66" height="60" viewBox="0 0 66 60" fill="none" xmlns="http://www.w3.org/2000/svg">
<path d="M6.7891 11.6237C6.7891 24.8325 0 33.9032 0 40.268C0 46.6327 3.63046 60 32.6836 60C61.7367 60 66 42.0172 66 35.0165C66.0019 2.23417 6.7891 -11.769 6.7891 11.6237Z" fill="#A7DBF1"/>
<g clip-path="url(#clip0)">
<path d="M11.04 41.4485L18.1996 48.6641H17.0993C16.4651 48.6641 15.9455 49.1801 15.9455 49.8269C15.9455 50.4661 16.4575 50.9897 17.0993 50.9897C17.3515 50.9897 28.2706 50.9897 28.6068 50.9897C29.241 50.9897 29.7606 50.4738 29.7606 49.8269C29.7606 49.1878 29.2486 48.6641 28.6068 48.6641H28.2935C28.8666 48.0866 47.6406 29.0118 48.1526 28.4881C49.4974 27.1328 49.4974 24.9227 48.1526 23.5673L38.3797 13.7335C37.0349 12.3781 34.8419 12.3781 33.497 13.7335L11.04 36.5277C9.69513 37.883 9.69513 40.0932 11.04 41.4485ZM34.4751 39.0459L23.0899 27.5717L35.1246 15.366C35.5754 14.9117 36.3013 14.9117 36.7521 15.366L46.5174 25.2076C46.9682 25.6619 46.9682 26.3935 46.5174 26.8479L34.4751 39.0459ZM12.6675 38.168L21.4624 29.212L32.8552 40.6938L25.0307 48.6564H21.4471L12.6599 39.8005C12.2167 39.3539 12.2167 38.6146 12.6675 38.168Z" fill="black"/>
<path d="M33.1991 50.982C33.8363 50.982 34.3529 50.4614 34.3529 49.8192C34.3529 49.177 33.8363 48.6564 33.1991 48.6564C32.5618 48.6564 32.0453 49.177 32.0453 49.8192C32.0453 50.4614 32.5618 50.982 33.1991 50.982Z" fill="black"/>
<path d="M34.4751 39.0458L23.0899 27.5717L35.1246 15.366C35.5754 14.9116 36.3013 14.9116 36.7521 15.366L46.5174 25.2076C46.9682 25.6619 46.9682 26.3935 46.5174 26.8478L34.4751 39.0458Z" fill="#0D88BC"/>
<path d="M12.6675 38.168L21.4624 29.212L32.8552 40.6938L25.0307 48.6564H21.4471L12.6599 39.8005C12.2167 39.3539 12.2167 38.6146 12.6675 38.168Z" fill="#146080"/>
</g>
<defs>
<clipPath id="clip0">
<rect width="39.1222" height="39.4279" fill="white" transform="translate(10.0313 12.1317)"/>
</clipPath>
</defs>
</svg>
