<svg width="66" height="60" viewBox="0 0 66 60" fill="none" xmlns="http://www.w3.org/2000/svg">
<path d="M6.7891 11.6237C6.7891 24.8325 0 33.9032 0 40.268C0 46.6327 3.63046 60 32.6836 60C61.7367 60 66 42.0172 66 35.0165C66.0019 2.23417 6.7891 -11.769 6.7891 11.6237Z" fill="#A7DBF1"/>
<path d="M50.9711 13.4441C50.7739 13.3015 50.5172 13.2727 50.2938 13.3683L49.0297 13.884L12.1813 28.8689L7.66653 30.7572L21.3088 36.3235H21.3238V36.331L24.8153 48.6238L24.9733 49.1698C25.0469 49.4284 25.2507 49.6282 25.509 49.6953C25.7674 49.7623 26.0417 49.6865 26.2299 49.496L33.2053 42.3069L33.8299 41.6623L43.3787 45.4464L44.086 45.727C44.5086 45.9012 44.9873 45.8697 45.384 45.6417C45.7806 45.4136 46.0511 45.0144 46.1176 44.5592L51.2946 14.2328C51.3613 13.9276 51.2322 13.6128 50.9711 13.4441ZM28.8861 39.5768L28.9087 39.5844L28.8711 39.6299L28.8861 39.5768Z" fill="#146080"/>
<path d="M49.0297 13.884L12.1813 28.8689L7.66653 30.7572L21.3088 36.3235H21.3238V36.3311L24.8153 48.6239L31.5724 41.6622L33.2053 42.3068L33.8299 41.6622L43.3787 45.4464C43.6383 45.2173 43.8089 44.9029 43.8602 44.5591L49.0372 14.2328C49.0613 14.1175 49.0587 13.9982 49.0297 13.884ZM26.6137 39.6299L26.6287 39.5768L26.6513 39.5844L26.6137 39.6299Z" fill="#0D88BC"/>
<path d="M33.8304 41.6622L26.2304 49.4959C26.319 49.3988 26.3835 49.2818 26.4185 49.1547L28.8716 39.6298L28.9092 39.5843L32.175 40.9645L33.6348 41.5863L33.8304 41.6622Z" fill="#146080"/>
<path d="M51.027 13.4851L28.909 39.5844L28.8864 39.5768L28.8713 39.6299L26.4183 49.1548C26.3832 49.2819 26.3187 49.3989 26.2302 49.496C26.0419 49.6865 25.7677 49.7624 25.5093 49.6953C25.2509 49.6283 25.0471 49.4284 24.9736 49.1699L21.3241 36.3311V36.3235H21.3166V36.316L51.027 13.4851Z" fill="#146080"/>
<path d="M22.1886 36.6079L40.4736 22.8818C40.7073 22.7271 40.8367 22.4546 40.8094 22.1741C40.7822 21.8937 40.6029 21.6516 40.3439 21.5455C40.0849 21.4394 39.7888 21.4867 39.5752 21.6685L21.1962 35.459L7.94822 30.0542C7.56375 29.9006 7.12832 30.0884 6.97321 30.4748C6.8181 30.8612 7.00152 31.3012 7.38386 31.4602L20.7026 36.8915L24.2542 49.3876C24.4391 50.033 25.0263 50.4766 25.6929 50.4743H25.7102C26.0736 50.4677 26.4218 50.3265 26.6884 50.0776C26.7147 50.0617 26.7398 50.044 26.7636 50.0246L34.0369 42.529L43.7889 46.4262C44.4156 46.6945 45.1305 46.6541 45.7235 46.317C46.3346 45.9754 46.7536 45.3671 46.8575 44.6706L49.3189 28.081L52.0277 14.3844C52.1404 13.8345 51.9441 13.2667 51.5168 12.9065C51.0959 12.5529 50.5165 12.461 50.0082 12.6668L11.8987 28.169C11.5132 28.326 11.3271 28.7683 11.4829 29.1568C11.6387 29.5452 12.0776 29.7328 12.463 29.5758L48.869 14.7713L30.8097 36.2371C30.541 36.5567 30.5803 37.0352 30.8974 37.306C31.2145 37.5768 31.6893 37.5373 31.958 37.2177L50.2903 15.4257L47.8403 27.8202L45.3722 44.4409C45.3383 44.6734 45.1994 44.8771 44.9959 44.9922C44.8009 45.102 44.5659 45.1129 44.3616 45.0218L34.1002 40.9555L29.176 38.8777C28.7929 38.7156 28.3519 38.8972 28.191 39.2834C28.1746 39.3353 28.164 39.389 28.1595 39.4434H28.1414L25.6966 48.9576L22.1886 36.6079ZM29.3943 40.6157L31.8819 41.6682L32.523 41.9245L27.8058 46.7863L29.3943 40.6157Z" fill="black"/>
</svg>
