<svg width="66" height="60" viewBox="0 0 66 60" fill="none" xmlns="http://www.w3.org/2000/svg">
<path d="M6.7891 11.6237C6.7891 24.8325 0 33.9032 0 40.268C0 46.6327 3.63046 60 32.6836 60C61.7367 60 66 42.0172 66 35.0165C66.0019 2.23417 6.7891 -11.769 6.7891 11.6237Z" fill="#A7DBF1"/>
<g clip-path="url(#clip0)">
<path d="M32.1003 13.8535C41.4495 13.8535 49.4514 21.9179 49.4514 31.3401C49.4514 40.7624 41.4495 48.8268 32.1003 48.8268C28.774 48.8268 25.2581 47.8458 22.6412 46.1753L14.7492 48.8268L17.3801 40.8732C15.7226 38.2361 14.7492 34.6925 14.7492 31.3401C14.7492 21.9179 22.7511 13.8535 32.1003 13.8535Z" fill="#0D88BC"/>
<path d="M43.1034 22.8101C43.1034 23.2024 43.4194 23.5209 43.8088 23.5209C44.1981 23.5209 44.5141 23.2024 44.5141 22.8101C44.5141 22.4177 44.1981 22.0992 43.8088 22.0992C43.4194 22.0992 43.1034 22.4177 43.1034 22.8101Z" fill="black"/>
<path d="M45.9247 31.3401C45.9247 32.2506 45.8341 33.1594 45.6555 34.0413C45.5776 34.4259 45.8239 34.8013 46.2055 34.8799C46.2532 34.8899 46.3005 34.8946 46.3474 34.8946C46.6755 34.8946 46.9695 34.6622 47.0378 34.3257C47.2354 33.3502 47.3354 32.3459 47.3354 31.3401C47.3354 29.1018 46.8538 26.9479 45.9035 24.9381C45.736 24.5838 45.3153 24.4333 44.9634 24.6021C44.6116 24.771 44.4625 25.1952 44.6301 25.5498C45.4891 27.3669 45.9247 29.3151 45.9247 31.3401Z" fill="black"/>
<path d="M32.0994 13.1426C22.3675 13.1426 14.0429 21.5164 14.0429 31.3401C14.0429 34.6958 14.9971 38.2644 16.6058 40.9637L14.079 48.6021C13.9947 48.8573 14.0606 49.1392 14.2496 49.3294C14.4394 49.5207 14.7193 49.5859 14.9714 49.501L22.5507 46.9547C25.2287 48.5763 28.7697 49.5376 32.0994 49.5376C41.8337 49.5376 50.1558 41.1628 50.1558 31.3401C50.1558 21.5297 41.8461 13.1426 32.0994 13.1426ZM32.0994 48.1159C28.9053 48.1159 25.5103 47.166 23.0177 45.575C22.8411 45.4622 22.6209 45.4325 22.4171 45.5011L16.622 47.448C16.3095 47.553 16.0113 47.2562 16.1148 46.9432L18.0482 41.0981C18.1154 40.8954 18.0884 40.6732 17.9749 40.4927C16.3961 37.9809 15.4536 34.5592 15.4536 31.3401C15.4536 22.2467 23.0764 14.5643 32.0994 14.5643C41.1223 14.5643 48.7451 22.2467 48.7451 31.3401C48.7451 40.4336 41.1223 48.1159 32.0994 48.1159Z" fill="black"/>
<path d="M34.8379 32.8789L39.5091 28.1432C40.2341 27.4082 40.2341 26.2111 39.5091 25.4656C38.7841 24.7306 37.6033 24.7306 36.868 25.4656L32.1968 30.2013L27.5256 25.4656C26.8006 24.7306 25.6199 24.7306 24.8845 25.4656C24.1595 26.2006 24.1595 27.3977 24.8845 28.1432L29.5557 32.8789L24.8845 37.6147C24.1595 38.3497 24.1595 39.5468 24.8845 40.2923C25.247 40.6598 25.7235 40.8488 26.1999 40.8488C26.6763 40.8488 27.1528 40.6598 27.5153 40.2923L32.1864 35.5566L36.8576 40.2923C37.2201 40.6598 37.6965 40.8488 38.173 40.8488C38.6494 40.8488 39.1259 40.6598 39.4884 40.2923C40.2134 39.5573 40.2134 38.3602 39.4884 37.6147L34.8379 32.8789Z" fill="white"/>
<path d="M36.2569 24.8461L32.1968 28.9623L28.1367 24.8461C27.0699 23.7645 25.3402 23.7645 24.2734 24.8461C23.2066 25.9276 23.2066 27.6812 24.2734 28.7628L28.3335 32.879L24.2734 36.9951C23.2066 38.0767 23.2066 39.8303 24.2734 40.9118C25.3402 41.9934 27.0699 41.9934 28.1367 40.9118L32.1968 36.7956L36.2569 40.9118C36.7747 41.4369 37.4583 41.7204 38.1937 41.7204C40.6069 41.7204 41.8498 38.7382 40.1201 36.9951L36.0601 32.879L40.1201 28.7628C41.1973 27.6707 41.187 25.9276 40.1201 24.8461C39.0637 23.7645 37.334 23.754 36.2569 24.8461ZM38.898 27.5237L34.2268 32.2594C33.885 32.6059 33.885 33.1625 34.2268 33.4985L38.898 38.2342C39.0844 38.4232 39.188 38.6857 39.188 38.9482C39.188 39.8513 38.1005 40.3028 37.479 39.6623L32.8079 34.9265C32.4764 34.5905 31.9275 34.58 31.5857 34.9265L26.9146 39.6623C26.5313 40.0613 25.8892 40.0613 25.4956 39.6623C25.102 39.2633 25.102 38.6227 25.4956 38.2237L30.1668 33.488C30.5085 33.1415 30.4982 32.5849 30.1668 32.2489L25.4956 27.5132C24.8638 26.8727 25.3195 25.7806 26.1999 25.7806C26.4692 25.7806 26.7178 25.8856 26.9042 26.0746L31.5753 30.8104C31.9171 31.1464 32.4557 31.1569 32.7975 30.8104L37.4687 26.0746C37.8622 25.6756 38.494 25.6756 38.8876 26.0746C39.2916 26.4842 39.2916 27.1247 38.898 27.5237Z" fill="black"/>
</g>
<defs>
<clipPath id="clip0">
<rect width="36.1128" height="36.395" fill="white" transform="translate(14.0439 13.1426)"/>
</clipPath>
</defs>
</svg>
