<svg width="66" height="60" viewBox="0 0 66 60" fill="none" xmlns="http://www.w3.org/2000/svg">
<path d="M7.28957 11.7192C7.28957 24.841 0.591064 33.7559 0.591064 40.0664C0.591064 46.3769 4.13734 59.599 32.7045 59.599C61.2717 59.599 65.409 41.7693 65.409 34.8577C65.409 2.40365 7.28957 -11.4194 7.28957 11.7192Z" fill="#A7DBF1"/>
<path d="M42.1612 46.778L23.7403 45.7763C22.2627 45.7763 21.0806 44.6745 21.0806 43.2721C21.0806 41.8698 22.2627 40.7679 23.7403 40.7679L42.0627 40.0668L42.1612 46.778Z" fill="white"/>
<path d="M40.0925 17.3289H25.6119V38.6644H40.0925V17.3289Z" fill="#0D88BC"/>
<path d="M21.0806 39.4658V19.4324C21.0806 18.2304 22.0657 17.2287 23.2478 17.2287H23.6418V38.5643C22.6567 38.6644 21.8687 38.9649 21.0806 39.4658Z" fill="#146080"/>
<path d="M41.1761 15.2254H23.2478C20.9821 15.2254 19.1105 17.1285 19.1105 19.4324V43.2721C19.1105 45.7763 21.1791 47.8798 23.6418 47.8798H41.1761C41.7672 47.8798 42.1612 47.379 42.1612 46.8781C42.1612 46.2771 41.6687 45.8765 41.1761 45.8765H23.6418C22.2627 45.8765 21.1791 44.7746 21.1791 43.3723C21.1791 41.9699 22.2627 40.8681 23.6418 40.8681H41.1761C41.7672 40.8681 42.1612 40.3673 42.1612 39.8664V16.3272C42.1612 15.7262 41.6687 15.2254 41.1761 15.2254ZM40.1911 38.6644H25.612V17.3289H40.0926V38.6644H40.1911ZM21.0806 39.4658V19.4324C21.0806 18.2304 22.0657 17.2287 23.2478 17.2287H23.6418V38.5643C22.6567 38.6644 21.8687 38.9649 21.0806 39.4658Z" fill="black"/>
<path d="M41.1761 42.2704H23.6418C23.0508 42.2704 22.6567 42.7713 22.6567 43.2721C22.6567 43.8731 23.1493 44.2738 23.6418 44.2738H41.1761C41.7672 44.2738 42.1612 43.773 42.1612 43.2721C42.1612 42.6711 41.6687 42.2704 41.1761 42.2704Z" fill="black"/>
</svg>
