<svg width="66" height="60" viewBox="0 0 66 60" fill="none" xmlns="http://www.w3.org/2000/svg">
<path d="M6.82067 11.6233C6.82067 24.8813 0 33.8887 0 40.2647C0 46.6407 3.61094 60 32.6991 60C61.7872 60 66 41.9852 66 35.002C66 2.21107 6.82067 -11.7554 6.82067 11.6233Z" fill="#A7DBF1"/>
<g clip-path="url(#clip0)">
<path d="M40.5014 45H21.0759C20.4503 45 19.9431 44.4928 19.9431 43.8672V18.9011C19.9431 18.2755 20.4503 17.7683 21.0759 17.7683H40.5014C41.1271 17.7683 41.6342 18.2755 41.6342 18.9011V43.8672C41.6342 44.4928 41.127 45 40.5014 45Z" fill="#3B3A3C"/>
<path d="M40.7499 17.8069V43.5264C40.7499 43.8519 40.486 44.1159 40.1605 44.1159H19.9817C20.1128 44.624 20.5728 45 21.1219 45H40.4552C41.1063 45 41.634 44.4722 41.634 43.8211V18.9472C41.6341 18.398 41.2581 17.938 40.7499 17.8069Z" fill="#3B3A3C"/>
<path d="M21.7114 42.6653V17.7683H39.8659V42.6653C39.8659 42.9781 39.6123 43.2317 39.2995 43.2317H22.2778C21.965 43.2317 21.7114 42.9781 21.7114 42.6653Z" fill="white"/>
<path d="M38.687 17.7683V43.2317H39.2824C39.6046 43.2317 39.8659 42.9704 39.8659 42.6482V17.7683H38.687Z" fill="#146080"/>
<path d="M39.8575 19.5797H21.705C21.2121 19.5797 20.8125 19.1739 20.8125 18.6734C20.8125 18.1729 21.2121 17.7672 21.705 17.7672H39.8575C40.3504 17.7672 40.75 18.1729 40.75 18.6734C40.75 19.1739 40.3504 19.5797 39.8575 19.5797Z" fill="#3B3A3C"/>
<path d="M34.9377 19.5366H26.6396C26.3268 19.5366 26.0732 19.283 26.0732 18.9702V16.5664C26.0732 16.2536 26.3268 16 26.6396 16H34.9377C35.2505 16 35.5041 16.2536 35.5041 16.5664V18.9702C35.5041 19.283 35.2505 19.5366 34.9377 19.5366Z" fill="#146080"/>
<path d="M34.9147 16H33.7358C34.0614 16 34.3252 16.2639 34.3252 16.5895V18.9472C34.3252 19.2727 34.0614 19.5366 33.7358 19.5366H34.9147C35.2402 19.5366 35.5041 19.2728 35.5041 18.9472V16.5895C35.5041 16.2639 35.2402 16 34.9147 16V16Z" fill="#0D88BC"/>
<path d="M26.3089 21.6924H23.9512C23.7095 21.6924 23.5135 21.8883 23.5135 22.13V24.4878C23.5135 24.7296 23.7095 24.9254 23.9512 24.9254H26.3089C26.5506 24.9254 26.7465 24.7295 26.7465 24.4878V22.13C26.7465 21.8883 26.5506 21.6924 26.3089 21.6924Z" fill="#146080"/>
<path d="M36.9775 22.5677H28.0771C27.8354 22.5677 27.6395 22.3718 27.6395 22.1301C27.6395 21.8884 27.8354 21.6925 28.0771 21.6925H36.9775C37.2192 21.6925 37.4151 21.8884 37.4151 22.1301C37.4151 22.3718 37.2192 22.5677 36.9775 22.5677Z" fill="#3B3A3C"/>
<path d="M34.6199 24.9254H28.0773C27.8356 24.9254 27.6396 24.7295 27.6396 24.4878C27.6396 24.2461 27.8356 24.0502 28.0773 24.0502H34.6199C34.8616 24.0502 35.0575 24.2461 35.0575 24.4878C35.0575 24.7295 34.8616 24.9254 34.6199 24.9254Z" fill="#3B3A3C"/>
<path d="M26.3089 27.1938H23.9512C23.7095 27.1938 23.5135 27.3898 23.5135 27.6314V29.9892C23.5135 30.2309 23.7095 30.4268 23.9512 30.4268H26.3089C26.5506 30.4268 26.7465 30.2308 26.7465 29.9892V27.6314C26.7465 27.3898 26.5506 27.1938 26.3089 27.1938Z" fill="#146080"/>
<path d="M36.9776 28.069H28.0773C27.8356 28.069 27.6396 27.8731 27.6396 27.6314C27.6396 27.3898 27.8356 27.1938 28.0773 27.1938H36.9776C37.2193 27.1938 37.4152 27.3898 37.4152 27.6314C37.4152 27.8731 37.2193 28.069 36.9776 28.069Z" fill="#3B3A3C"/>
<path d="M34.6199 30.4268H28.0773C27.8356 30.4268 27.6396 30.2309 27.6396 29.9892C27.6396 29.7475 27.8356 29.5516 28.0773 29.5516H34.6199C34.8616 29.5516 35.0575 29.7475 35.0575 29.9892C35.0575 30.2309 34.8616 30.4268 34.6199 30.4268Z" fill="#3B3A3C"/>
<path d="M26.3089 32.6952H23.9512C23.7095 32.6952 23.5135 32.8911 23.5135 33.1328V35.4905C23.5135 35.7323 23.7095 35.9281 23.9512 35.9281H26.3089C26.5506 35.9281 26.7465 35.7322 26.7465 35.4905V33.1328C26.7465 32.891 26.5506 32.6952 26.3089 32.6952Z" fill="#146080"/>
<path d="M36.9776 33.5704H28.0773C27.8356 33.5704 27.6396 33.3745 27.6396 33.1328C27.6396 32.8911 27.8356 32.6952 28.0773 32.6952H36.9776C37.2193 32.6952 37.4152 32.8911 37.4152 33.1328C37.4152 33.3745 37.2193 33.5704 36.9776 33.5704Z" fill="#3B3A3C"/>
<path d="M34.6199 35.9282H28.0773C27.8356 35.9282 27.6396 35.7322 27.6396 35.4906C27.6396 35.2489 27.8356 35.0529 28.0773 35.0529H34.6199C34.8616 35.0529 35.0575 35.2489 35.0575 35.4906C35.0575 35.7322 34.8616 35.9282 34.6199 35.9282Z" fill="#3B3A3C"/>
<path d="M26.3089 38.1965H23.9512C23.7095 38.1965 23.5135 38.3924 23.5135 38.6341V40.9918C23.5135 41.2336 23.7095 41.4294 23.9512 41.4294H26.3089C26.5506 41.4294 26.7465 41.2335 26.7465 40.9918V38.6342C26.7465 38.3924 26.5506 38.1965 26.3089 38.1965Z" fill="#146080"/>
<path d="M36.9776 39.0718H28.0773C27.8356 39.0718 27.6396 38.8759 27.6396 38.6342C27.6396 38.3925 27.8356 38.1966 28.0773 38.1966H36.9776C37.2193 38.1966 37.4152 38.3925 37.4152 38.6342C37.4152 38.8759 37.2193 39.0718 36.9776 39.0718Z" fill="#3B3A3C"/>
<path d="M34.6199 41.4295H28.0773C27.8356 41.4295 27.6396 41.2336 27.6396 40.9919C27.6396 40.7502 27.8356 40.5543 28.0773 40.5543H34.6199C34.8616 40.5543 35.0575 40.7502 35.0575 40.9919C35.0575 41.2336 34.8616 41.4295 34.6199 41.4295Z" fill="#3B3A3C"/>
<path d="M47.057 25.8965V42.7267C47.057 42.8626 47.0095 42.9943 46.9228 43.099L45.7969 44.4578C45.5636 44.7394 45.1316 44.7394 44.8983 44.4578L43.7725 43.099C43.6858 42.9943 43.6383 42.8626 43.6383 42.7267V25.8965C43.6383 25.5743 43.8995 25.313 44.2218 25.313H46.4735C46.7957 25.313 47.057 25.5743 47.057 25.8965Z" fill="#146080"/>
<path d="M44.8983 44.4577L44.7245 44.248L45.7838 42.9695C45.959 42.758 46.0549 42.492 46.0549 42.2174V25.313H46.4734C46.7957 25.313 47.0569 25.5743 47.0569 25.8965V42.7267C47.0569 42.8626 47.0095 42.9943 46.9228 43.099L45.7969 44.4578C45.5636 44.7394 45.1317 44.7394 44.8983 44.4577Z" fill="#3B3A3C"/>
<path d="M45.937 21.8943H44.7581C44.4326 21.8943 44.1687 22.1582 44.1687 22.4838V25.313H46.5264V22.4838C46.5264 22.1582 46.2625 21.8943 45.937 21.8943Z" fill="#0D88BC"/>
<path d="M43.6383 31.561H47.057V33.3293H43.6383V31.561Z" fill="#0D88BC"/>
<path d="M46.0549 31.561H47.057V33.3293H46.0549V31.561Z" fill="#0D88BC"/>
<path d="M45.7012 21.8943H45.937C46.2625 21.8943 46.5264 22.1582 46.5264 22.4838V25.313H45.7012V21.8943Z" fill="#3B3A3C"/>
<path d="M45.3475 29.7588C45.1058 29.7588 44.9099 29.5628 44.9099 29.3211V25.313C44.9099 25.0712 45.1058 24.8754 45.3475 24.8754C45.5892 24.8754 45.7851 25.0713 45.7851 25.313V29.3211C45.7851 29.5629 45.5892 29.7588 45.3475 29.7588Z" fill="#0D88BC"/>
</g>
<defs>
<clipPath id="clip0">
<rect width="29" height="29" fill="white" transform="translate(19 16)"/>
</clipPath>
</defs>
</svg>
