<svg width="66" height="60" viewBox="0 0 66 60" fill="none" xmlns="http://www.w3.org/2000/svg">
<path d="M6.82067 11.6233C6.82067 24.8813 0 33.8887 0 40.2647C0 46.6407 3.61094 60 32.6991 60C61.7872 60 66 41.9852 66 35.002C66 2.21107 6.82067 -11.7554 6.82067 11.6233Z" fill="#A7DBF1"/>
<path d="M48.2663 22.3208C48.2638 22.1637 48.2307 22.0086 48.1687 21.8645C48.1068 21.7203 48.0172 21.59 47.9052 21.4808C47.6848 21.2741 47.3936 21.1617 47.0928 21.167H39.4396V20.6205C39.4211 19.8528 39.1032 19.1234 38.5547 18.5909C38.0063 18.0583 37.2717 17.7657 36.5107 17.7766H29.4894C29.11 17.7713 28.7333 17.8414 28.3808 17.9829C28.0283 18.1245 27.7069 18.3347 27.4349 18.6016C27.1629 18.8685 26.9457 19.1869 26.7957 19.5385C26.6457 19.8901 26.5658 20.2681 26.5605 20.6509V21.1974H18.8973C18.5962 21.197 18.3065 21.3134 18.0881 21.5225C17.8696 21.7316 17.7392 22.0174 17.7238 22.3208V41.1958C17.737 41.9671 18.0526 42.7017 18.6016 43.2385C19.1506 43.7754 19.8882 44.0708 20.6526 44.06H45.3374C46.1019 44.0708 46.8394 43.7754 47.3884 43.2385C47.9374 42.7017 48.2531 41.9671 48.2663 41.1958V22.5131V22.3208ZM29.4894 20.0943H36.5107C36.5845 20.0929 36.6578 20.1063 36.7264 20.1335C36.7951 20.1608 36.8577 20.2014 36.9108 20.2531C36.9639 20.3048 37.0064 20.3665 37.0358 20.4348C37.0653 20.503 37.0811 20.5765 37.0824 20.6509V21.1974H28.9076V20.6509C28.9089 20.5756 28.9251 20.5013 28.9551 20.4324C28.9852 20.3634 29.0286 20.3012 29.0828 20.2494C29.1369 20.1976 29.2008 20.1572 29.2706 20.1305C29.3404 20.1039 29.4148 20.0916 29.4894 20.0943ZM35.3271 32.0771V33.1803H30.663V32.0771H35.3271ZM42.87 31.065C42.8269 31.1769 42.751 31.2727 42.6524 31.3396C42.5537 31.4066 42.4371 31.4414 42.3183 31.4395H37.6842V30.9234C37.679 30.6128 37.553 30.3168 37.3335 30.0991C37.114 29.8814 36.8185 29.7594 36.5107 29.7595H29.4894C29.1799 29.7568 28.8818 29.8776 28.6601 30.0955C28.4384 30.3135 28.3111 30.6111 28.3058 30.9234V31.4294H23.6718C23.554 31.4322 23.4383 31.3975 23.3411 31.3303C23.2439 31.2631 23.1701 31.1668 23.1301 31.0549L20.5423 23.4746H45.4478L42.87 31.065ZM28.3058 33.7875V34.3441C28.3163 34.652 28.4463 34.9433 28.6677 35.1554C28.8891 35.3674 29.1842 35.4831 29.4894 35.4777H36.5107C36.8176 35.4804 37.1131 35.3606 37.3329 35.1446C37.5527 34.9285 37.679 34.6335 37.6842 34.3239V33.7673H42.3183C42.9255 33.7751 43.52 33.5909 44.0182 33.2406C44.5165 32.8903 44.8936 32.3915 45.0967 31.814L45.9092 29.4053V41.1958C45.9079 41.2698 45.892 41.3428 45.8624 41.4105C45.8329 41.4782 45.7902 41.5393 45.737 41.5902C45.6838 41.6411 45.621 41.6807 45.5524 41.7068C45.4838 41.733 45.4107 41.745 45.3374 41.7423H20.6526C20.5053 41.7451 20.3629 41.6893 20.2559 41.5871C20.149 41.4849 20.0861 41.3444 20.0809 41.1958V29.4053L20.8934 31.7937C21.0964 32.3712 21.4736 32.8701 21.9718 33.2204C22.4701 33.5707 23.0645 33.7548 23.6718 33.747L28.3058 33.7875Z" fill="black"/>
<path d="M20.3316 23.3329H45.6684L43.0103 31.1157C42.9582 31.2577 42.8636 31.3798 42.7396 31.4651C42.6155 31.5503 42.4683 31.5944 42.3182 31.5913H37.5137V30.9234C37.5137 30.655 37.408 30.3975 37.2199 30.2077C37.0318 30.0179 36.7767 29.9113 36.5106 29.9113H29.4894C29.2233 29.9113 28.9682 30.0179 28.7801 30.2077C28.592 30.3975 28.4863 30.655 28.4863 30.9234V31.6217H23.6717C23.522 31.6233 23.3754 31.5786 23.2516 31.4935C23.1279 31.4085 23.0329 31.2872 22.9796 31.146L20.3316 23.3329Z" fill="#0D88BC"/>
<path d="M46.0596 41.1958C46.0583 41.2897 46.0385 41.3825 46.0014 41.4686C45.9643 41.5547 45.9105 41.6325 45.8433 41.6975C45.7761 41.7625 45.6968 41.8133 45.6099 41.8471C45.5231 41.8809 45.4305 41.8969 45.3374 41.8942H20.6526C20.5596 41.8969 20.4669 41.8809 20.3801 41.8471C20.2932 41.8133 20.2139 41.7625 20.1467 41.6975C20.0795 41.6325 20.0257 41.5547 19.9886 41.4686C19.9515 41.3825 19.9317 41.2897 19.9304 41.1958V28.5349L21.0338 31.7836C21.2278 32.3309 21.5863 32.8035 22.0591 33.1354C22.532 33.4674 23.0957 33.6423 23.6718 33.6357H28.4863V34.3442C28.4863 34.6126 28.592 34.87 28.7801 35.0598C28.9682 35.2496 29.2234 35.3562 29.4894 35.3562H36.5107C36.7767 35.3562 37.0318 35.2496 37.2199 35.0598C37.408 34.87 37.5137 34.6126 37.5137 34.3442V33.6357H42.2982C42.8742 33.6423 43.438 33.4674 43.9108 33.1354C44.3837 32.8035 44.7421 32.3309 44.9362 31.7836L46.0395 28.5349L46.0596 41.1958Z" fill="#146080"/>
<path d="M35.4776 31.9253H30.5125V33.3321H35.4776V31.9253Z" fill="white"/>
</svg>
