<svg width="66" height="60" viewBox="0 0 66 60" fill="none" xmlns="http://www.w3.org/2000/svg">
<path d="M6.7891 11.6237C6.7891 24.8325 0 33.9032 0 40.268C0 46.6327 3.63046 60 32.6836 60C61.7367 60 66 42.0172 66 35.0165C66.0019 2.23417 6.7891 -11.769 6.7891 11.6237Z" fill="#A7DBF1"/>
<g clip-path="url(#clip0)">
<path d="M32.1002 13.8535C41.4494 13.8535 49.4513 21.9179 49.4513 31.3401C49.4513 40.7624 41.4494 48.8268 32.1002 48.8268C28.7739 48.8268 25.258 47.8458 22.6411 46.1753L14.7491 48.8268L17.3801 40.8732C15.7226 38.2361 14.7491 34.6925 14.7491 31.3401C14.7491 21.9179 22.751 13.8535 32.1002 13.8535Z" fill="#0D88BC"/>
<path d="M43.1034 22.8101C43.1034 23.2024 43.4194 23.5209 43.8087 23.5209C44.198 23.5209 44.5141 23.2024 44.5141 22.8101C44.5141 22.4177 44.198 22.0992 43.8087 22.0992C43.4194 22.0992 43.1034 22.4177 43.1034 22.8101Z" fill="black"/>
<path d="M45.9247 31.3401C45.9247 32.2506 45.8341 33.1594 45.6555 34.0413C45.5775 34.4259 45.8239 34.8013 46.2055 34.8799C46.2531 34.8899 46.3005 34.8946 46.3473 34.8946C46.6755 34.8946 46.9695 34.6622 47.0378 34.3257C47.2353 33.3502 47.3354 32.3459 47.3354 31.3401C47.3354 29.1018 46.8538 26.9479 45.9035 24.9381C45.736 24.5838 45.3153 24.4333 44.9634 24.6021C44.6116 24.771 44.4625 25.1952 44.63 25.5498C45.4891 27.3669 45.9247 29.3151 45.9247 31.3401Z" fill="black"/>
<path d="M32.0993 13.1426C22.3674 13.1426 14.0429 21.5164 14.0429 31.3401C14.0429 34.6958 14.997 38.2644 16.6058 40.9637L14.079 48.6021C13.9947 48.8573 14.0605 49.1392 14.2495 49.3294C14.4393 49.5207 14.7193 49.5859 14.9714 49.501L22.5506 46.9547C25.2287 48.5763 28.7696 49.5376 32.0993 49.5376C41.8337 49.5376 50.1557 41.1628 50.1557 31.3401C50.1557 21.5297 41.8461 13.1426 32.0993 13.1426ZM32.0993 48.1159C28.9052 48.1159 25.5103 47.166 23.0176 45.575C22.841 45.4622 22.6209 45.4325 22.417 45.5011L16.6219 47.448C16.3094 47.553 16.0112 47.2562 16.1147 46.9432L18.0481 41.0981C18.1153 40.8954 18.0883 40.6732 17.9748 40.4927C16.3961 37.9809 15.4535 34.5592 15.4535 31.3401C15.4535 22.2467 23.0763 14.5643 32.0993 14.5643C41.1223 14.5643 48.7451 22.2467 48.7451 31.3401C48.7451 40.4336 41.1223 48.1159 32.0993 48.1159Z" fill="black"/>
</g>
<path d="M26.9567 38.3513L31.5 35.6083L36.0554 38.3633L34.8471 33.1917L38.8587 29.7117L33.5662 29.2525L31.5 24.3708L29.4458 29.2404L24.1533 29.6996L28.165 33.1796L26.9567 38.3513Z" fill="white"/>
<path d="M41.799 29.7136C42.4663 29.1345 42.1097 28.0379 41.2295 27.962L34.8954 27.4158L32.4212 21.5869C32.0762 20.7743 30.9244 20.7746 30.5799 21.5874L28.1045 27.4279L21.7783 27.9646C20.8968 28.0394 20.5394 29.1377 21.208 29.7169L26.0141 33.8804L24.5709 40.067C24.3699 40.9285 25.3041 41.6075 26.0615 41.1504L31.5 37.8679L36.9423 41.1527C37.699 41.6094 38.6328 40.9317 38.4332 40.0707L36.9979 33.8804L41.799 29.7136ZM31.5 35.6083L26.9566 38.3512L28.165 33.1796L24.1533 29.6996L29.4458 29.2404L31.5 24.3708L33.5662 29.2525L38.8587 29.7117L34.847 33.1917L36.0554 38.3633L31.5 35.6083Z" fill="black"/>
<defs>
<clipPath id="clip0">
<rect width="36.1128" height="36.395" fill="white" transform="translate(14.0438 13.1426)"/>
</clipPath>
</defs>
</svg>
