<svg width="66" height="60" viewBox="0 0 66 60" fill="none" xmlns="http://www.w3.org/2000/svg">
<path d="M6.7891 11.6237C6.7891 24.8325 0 33.9032 0 40.268C0 46.6327 3.63046 60 32.6836 60C61.7367 60 66 42.0172 66 35.0165C66.0019 2.23417 6.7891 -11.769 6.7891 11.6237Z" fill="#A7DBF1"/>
<g clip-path="url(#clip0)">
<path d="M40.8464 47.1721C40.8464 47.7949 40.3475 48.2976 39.7296 48.2976H17.3942C16.7762 48.2976 16.2774 47.7949 16.2774 47.1721V15.5082C16.2774 14.8854 16.7762 14.3827 17.3942 14.3827H34.1457V20.0101C34.1457 20.6329 34.6446 21.1356 35.2625 21.1356H40.8464V29.862L37.5482 33.186L35.9698 34.7767C35.8507 34.8967 35.7539 35.0543 35.7018 35.2194L34.1234 39.9915C33.9894 40.3966 34.0936 40.8393 34.3914 41.147C34.6892 41.4471 35.136 41.5521 35.538 41.4171L40.2731 39.8264C40.4369 39.7739 40.5858 39.6763 40.7124 39.5563L40.8464 39.4212V47.1721Z" fill="#0D88BC"/>
<path d="M51.1802 24.2195C49.8773 22.9064 47.748 22.9064 46.4451 24.2195C46.0431 24.6247 43.4745 27.2133 43.0874 27.611V18.6896C43.0874 17.7892 42.7374 16.9413 42.1046 16.3035L38.9479 13.1221C38.3076 12.4843 37.4663 12.1317 36.5729 12.1317H17.3942C15.5478 12.1317 14.0439 13.6473 14.0439 15.5082V47.1721C14.0439 49.0329 15.5478 50.5486 17.3942 50.5486H39.7296C41.576 50.5486 43.0799 49.0329 43.0799 47.1721V37.1627L51.1802 28.9916C52.4906 27.6785 52.4906 25.5401 51.1802 24.2195ZM36.3793 14.3827C36.5878 14.3827 36.9972 14.3451 37.362 14.7128L40.5188 17.8942C40.8762 18.2544 40.8464 18.6445 40.8464 18.8846H36.3793V14.3827ZM40.8464 47.1721C40.8464 47.7949 40.3475 48.2976 39.7296 48.2976H17.3942C16.7762 48.2976 16.2774 47.7949 16.2774 47.1721V15.5082C16.2774 14.8854 16.7762 14.3827 17.3942 14.3827H34.1457V20.0101C34.1457 20.6329 34.6446 21.1356 35.2625 21.1356H40.8464V29.862L37.5482 33.186L35.9698 34.7767C35.8507 34.8967 35.7539 35.0543 35.7018 35.2194L34.1234 39.9915C33.9894 40.3966 34.0936 40.8393 34.3914 41.147C34.6892 41.4471 35.136 41.5521 35.538 41.4171L40.2731 39.8264C40.4369 39.7739 40.5858 39.6763 40.7124 39.5563L40.8464 39.4212V47.1721ZM38.3448 35.572L39.9232 37.1627L39.3201 37.7705L36.9526 38.5658L37.7417 36.1798L38.3448 35.572ZM41.5015 35.572L39.9232 33.9813C40.7645 33.1334 44.5019 29.3668 45.2911 28.5639L46.8695 30.1546L41.5015 35.572ZM49.6019 27.4084L48.4479 28.5639L46.8695 26.9732L48.0235 25.8102C48.4627 25.375 49.17 25.375 49.6019 25.8102C50.0337 26.2529 50.0411 26.9657 49.6019 27.4084Z" fill="black"/>
<path d="M35.2625 23.3866H19.6277C19.0098 23.3866 18.511 23.8893 18.511 24.5121C18.511 25.1349 19.0098 25.6376 19.6277 25.6376H35.2625C35.8805 25.6376 36.3793 25.1349 36.3793 24.5121C36.3793 23.8893 35.8805 23.3866 35.2625 23.3866Z" fill="black"/>
<path d="M30.7954 27.8886H19.6277C19.0098 27.8886 18.511 28.3913 18.511 29.0141C18.511 29.6369 19.0098 30.1396 19.6277 30.1396H30.7954C31.4134 30.1396 31.9122 29.6369 31.9122 29.0141C31.9122 28.3913 31.4134 27.8886 30.7954 27.8886Z" fill="black"/>
<path d="M30.7954 32.3906H19.6277C19.0098 32.3906 18.511 32.8933 18.511 33.5161C18.511 34.1389 19.0098 34.6416 19.6277 34.6416H30.7954C31.4134 34.6416 31.9122 34.1389 31.9122 33.5161C31.9122 32.8933 31.4134 32.3906 30.7954 32.3906Z" fill="black"/>
<path d="M30.7954 36.8926H19.6277C19.0098 36.8926 18.511 37.3953 18.511 38.0181C18.511 38.6409 19.0098 39.1436 19.6277 39.1436H30.7954C31.4134 39.1436 31.9122 38.6409 31.9122 38.0181C31.9122 37.3953 31.4134 36.8926 30.7954 36.8926Z" fill="black"/>
<path d="M35.2625 43.7956H28.5619C27.9439 43.7956 27.4451 44.2984 27.4451 44.9211C27.4451 45.5439 27.9439 46.0466 28.5619 46.0466H35.2625C35.8805 46.0466 36.3793 45.5439 36.3793 44.9211C36.3793 44.2984 35.8805 43.7956 35.2625 43.7956Z" fill="black"/>
<path d="M36.3793 14.3827C36.5878 14.3827 36.9972 14.3452 37.362 14.7128L40.5188 17.8942C40.8761 18.2544 40.8464 18.6446 40.8464 18.8847H36.3793V14.3827Z" fill="#146080"/>
<path d="M38.3374 35.5717L39.9158 37.1624L39.3128 37.7702L36.9452 38.5655L37.7344 36.1795L38.3374 35.5717Z" fill="#94DDF2"/>
<path d="M41.5016 35.572L39.9233 33.9813C40.7646 33.1334 44.502 29.3668 45.2912 28.5639L46.8696 30.1546L41.5016 35.572Z" fill="#94DDF2"/>
<path d="M49.5945 27.4008L48.4479 28.5638L46.8696 26.9731L48.0236 25.8101C48.4628 25.3749 49.1701 25.3749 49.6019 25.8101C50.0337 26.2527 50.0337 26.9656 49.5945 27.4008Z" fill="#146080"/>
</g>
<defs>
<clipPath id="clip0">
<rect width="38.1191" height="38.4169" fill="white" transform="translate(14.0439 12.1317)"/>
</clipPath>
</defs>
</svg>
