<svg width="66" height="60" viewBox="0 0 66 60" fill="none" xmlns="http://www.w3.org/2000/svg">
<path d="M6.82067 11.6233C6.82067 24.8813 0 33.8887 0 40.2647C0 46.6407 3.61094 60 32.6991 60C61.7872 60 66 41.9852 66 35.002C66 2.21107 6.82067 -11.7554 6.82067 11.6233Z" fill="#A7DBF1"/>
<g clip-path="url(#clip0)">
<path d="M34.3954 34.7102H37.5195C38.2375 34.7102 38.8194 34.1282 38.8194 33.4102C38.8194 32.6922 38.2375 32.1098 37.5195 32.1098H34.395C33.9808 31.5074 33.2875 31.1104 32.4996 31.1104C32.4866 31.1104 32.4758 31.1137 32.4632 31.1146L29.6164 27.1076C29.2003 26.5219 28.3887 26.3845 27.8035 26.8005C27.2183 27.217 27.0813 28.0282 27.4969 28.6135L30.3465 32.6242C30.2566 32.8702 30.1998 33.1326 30.1998 33.4098C30.1998 34.6804 31.229 35.7092 32.4991 35.7092C33.2874 35.7096 33.9807 35.3126 34.3954 34.7102Z" fill="black"/>
<path d="M42.1042 42.8453C44.4922 40.4155 45.9687 37.0864 45.9687 33.4102C45.9687 25.9716 39.9386 19.942 32.5 19.942C25.0615 19.942 19.0314 25.9712 19.0314 33.4102C19.0314 37.0869 20.5084 40.4155 22.8963 42.8458L21.6778 44.0637C21.006 44.7356 21.006 45.824 21.6774 46.4959C22.0129 46.8318 22.4536 47 22.8934 47C23.3332 47 23.7736 46.8318 24.1091 46.4964L25.6275 44.9784C27.6408 46.1777 29.9859 46.8789 32.5 46.8789C35.0142 46.8789 37.3592 46.1777 39.3734 44.9779L40.8919 46.4964C41.2279 46.8319 41.6677 47.0001 42.1075 47.0001C42.5473 47.0001 42.9881 46.8319 43.3236 46.4959C43.995 45.824 43.995 44.7357 43.3231 44.0638L42.1042 42.8453ZM32.4995 41.3329C32.0211 41.3329 31.6334 41.7214 31.6334 42.2V43.3675C26.8096 42.9505 22.9592 39.1001 22.5426 34.2768H23.7102C24.1888 34.2768 24.5773 33.8882 24.5773 33.4102C24.5773 32.9317 24.1887 32.5436 23.7102 32.5436H22.5426C22.9592 27.7203 26.8096 23.8693 31.6334 23.4533V24.6213C31.6334 25.0999 32.0211 25.4875 32.4995 25.4875C32.9781 25.4875 33.3662 25.0999 33.3662 24.6213V23.4533C38.19 23.8693 42.0399 27.7202 42.4569 32.5436H41.2889C40.8103 32.5436 40.4222 32.9317 40.4222 33.4102C40.4222 33.8882 40.8103 34.2768 41.2889 34.2768H42.4569C42.0404 39.1001 38.1904 42.9505 33.3666 43.3675V42.2004C33.3666 41.7215 32.9785 41.3329 32.4995 41.3329Z" fill="#0D88BC"/>
<circle cx="32.5" cy="33.5" r="13" stroke="black"/>
<path d="M29.0452 19.2245C28.0061 18.4585 26.7248 18 25.3349 18C21.8735 18 19.0673 20.8063 19.0673 24.2677C19.0673 25.1185 19.2383 25.9292 19.5458 26.6686C21.4701 22.9859 24.9156 20.2309 29.0452 19.2245Z" fill="black"/>
<path d="M45.4538 26.6687C45.7613 25.9288 45.9323 25.1181 45.9323 24.2677C45.9328 20.8063 43.1265 18 39.6651 18C38.2743 18 36.9939 18.4585 35.955 19.2254C40.084 20.2314 43.5296 22.9869 45.4538 26.6687Z" fill="black"/>
</g>
<defs>
<clipPath id="clip0">
<rect width="29" height="29" fill="white" transform="translate(18 18)"/>
</clipPath>
</defs>
</svg>
