<svg width="66" height="60" viewBox="0 0 66 60" fill="none" xmlns="http://www.w3.org/2000/svg">
<path d="M6.7891 11.6237C6.7891 24.8325 0 33.9032 0 40.268C0 46.6327 3.63046 60 32.6836 60C61.7367 60 66 42.0172 66 35.0165C66.0019 2.23417 6.7891 -11.769 6.7891 11.6237Z" fill="#A7DBF1"/>
<g clip-path="url(#clip0)">
<path d="M32.1003 13.8535C41.4495 13.8535 49.4514 21.9179 49.4514 31.3401C49.4514 40.7624 41.4495 48.8268 32.1003 48.8268C28.774 48.8268 25.2581 47.8458 22.6412 46.1753L14.7492 48.8268L17.3801 40.8732C15.7226 38.2361 14.7492 34.6925 14.7492 31.3401C14.7492 21.9179 22.7511 13.8535 32.1003 13.8535Z" fill="#0D88BC"/>
<path d="M35.627 38.4485V41.2919H28.5737V38.4485H29.9843V31.3401H28.5737V28.4968H34.2163V38.4485H35.627Z" fill="white"/>
<path d="M34.2163 23.5209C34.2163 24.6988 33.2691 25.6534 32.1003 25.6534C30.9318 25.6534 29.9843 24.6988 29.9843 23.5209C29.9843 22.3433 30.9318 21.3884 32.1003 21.3884C33.2691 21.3884 34.2163 22.3433 34.2163 23.5209Z" fill="white"/>
<path d="M43.1034 22.8101C43.1034 23.2024 43.4194 23.5209 43.8088 23.5209C44.1981 23.5209 44.5141 23.2024 44.5141 22.8101C44.5141 22.4177 44.1981 22.0992 43.8088 22.0992C43.4194 22.0992 43.1034 22.4177 43.1034 22.8101Z" fill="black"/>
<path d="M45.9248 31.3401C45.9248 32.2506 45.8341 33.1594 45.6556 34.0413C45.5776 34.4259 45.8239 34.8013 46.2055 34.8799C46.2532 34.8899 46.3006 34.8946 46.3474 34.8946C46.6756 34.8946 46.9695 34.6622 47.0379 34.3257C47.2354 33.3502 47.3354 32.3458 47.3354 31.3401C47.3354 29.1018 46.8538 26.9479 45.9035 24.9381C45.736 24.5838 45.3153 24.4333 44.9635 24.6021C44.6116 24.771 44.4626 25.1952 44.6301 25.5498C45.4892 27.3669 45.9248 29.3151 45.9248 31.3401Z" fill="black"/>
<path d="M35.6269 37.7377H34.9216V28.4968C34.9216 28.1041 34.6059 27.7859 34.2163 27.7859H28.5736C28.1841 27.7859 27.8683 28.1041 27.8683 28.4968V31.3401C27.8683 31.7328 28.1841 32.051 28.5736 32.051H29.279V37.7377H28.5736C28.1841 37.7377 27.8683 38.0559 27.8683 38.4485V41.2919C27.8683 41.6845 28.1841 42.0027 28.5736 42.0027H35.6269C36.0165 42.0027 36.3323 41.6845 36.3323 41.2919V38.4485C36.3323 38.0559 36.0165 37.7377 35.6269 37.7377ZM34.9216 40.5811H29.279V39.1594H29.9843C30.3739 39.1594 30.6896 38.8412 30.6896 38.4485V31.3401C30.6896 30.9475 30.3739 30.6293 29.9843 30.6293H29.279V29.2076H33.5109V38.4485C33.5109 38.8412 33.827 39.1594 34.2163 39.1594H34.9216V40.5811Z" fill="black"/>
<path d="M32.1003 26.3643C33.6559 26.3643 34.9216 25.0886 34.9216 23.5209C34.9216 21.9532 33.6559 20.6775 32.1003 20.6775C30.5447 20.6775 29.279 21.9532 29.279 23.5209C29.279 25.0886 30.5447 26.3643 32.1003 26.3643ZM32.1003 22.0992C32.8781 22.0992 33.511 22.737 33.511 23.5209C33.511 24.3048 32.8781 24.9426 32.1003 24.9426C31.3225 24.9426 30.6896 24.3048 30.6896 23.5209C30.6896 22.737 31.3225 22.0992 32.1003 22.0992Z" fill="black"/>
<path d="M32.0997 13.1426C22.3678 13.1426 14.0433 21.5164 14.0433 31.3401C14.0433 34.6958 14.9974 38.2644 16.6062 40.9637L14.0794 48.6022C13.9951 48.8573 14.0609 49.1392 14.2499 49.3294C14.4397 49.5207 14.7197 49.5859 14.9718 49.501L22.551 46.9547C25.2291 48.5763 28.77 49.5376 32.0997 49.5376C41.8341 49.5376 50.1561 41.1628 50.1561 31.3401C50.1561 21.5297 41.8465 13.1426 32.0997 13.1426ZM32.0997 48.116C28.9056 48.116 25.5107 47.166 23.018 45.575C22.8414 45.4622 22.6213 45.4325 22.4174 45.5011L16.6223 47.448C16.3098 47.553 16.0116 47.2562 16.1151 46.9432L18.0485 41.0981C18.1157 40.8954 18.0887 40.6732 17.9752 40.4928C16.3965 37.9809 15.4539 34.5592 15.4539 31.3401C15.4539 22.2467 23.0767 14.5643 32.0997 14.5643C41.1227 14.5643 48.7455 22.2467 48.7455 31.3401C48.7455 40.4336 41.1227 48.116 32.0997 48.116Z" fill="black"/>
</g>
<defs>
<clipPath id="clip0">
<rect width="36.1128" height="36.395" fill="white" transform="translate(14.0439 13.1426)"/>
</clipPath>
</defs>
</svg>
