<svg width="34" height="34" viewBox="0 0 34 34" fill="none" xmlns="http://www.w3.org/2000/svg">
<g clip-path="url(#clip0)">
<path d="M25.4097 9.11504C29.6359 13.6697 29.3548 21.1851 24.8001 25.4113C20.2455 29.6375 12.73 29.3563 8.50386 24.8017C7.00023 23.1812 5.88514 21.0283 5.50971 19.0042L0.660543 16.3487L5.69455 14.063C6.22002 12.0727 7.49298 10.0091 9.11347 8.50543C13.6681 4.27926 21.1836 4.5604 25.4097 9.11504Z" fill="#0D88BC"/>
<path d="M18.4946 7.86119C18.6706 8.05085 18.9674 8.06196 19.1571 7.88597C19.3467 7.70999 19.3578 7.41318 19.1818 7.22352C19.0059 7.03387 18.7091 7.02276 18.5194 7.19874C18.3297 7.37473 18.3186 7.67153 18.4946 7.86119Z" fill="black"/>
<path d="M23.694 10.7094C24.1024 11.1495 24.4659 11.6298 24.7745 12.1368C24.909 12.358 25.1974 12.4281 25.4185 12.2936C25.4462 12.2769 25.4714 12.2577 25.4942 12.2366C25.6541 12.0882 25.6931 11.843 25.5754 11.6494C25.2341 11.0886 24.8324 10.5579 24.3813 10.0717C23.3773 8.98976 22.1766 8.16628 20.8122 7.62432C20.5717 7.52877 20.2992 7.6462 20.2035 7.88685C20.1078 8.1275 20.2255 8.39998 20.4662 8.49566C21.6997 8.9857 22.7857 9.73051 23.694 10.7094Z" fill="black"/>
<path d="M25.7559 8.79656C21.3568 4.05548 13.546 3.75591 8.79722 8.16217C7.17511 9.66729 5.88135 11.7328 5.30377 13.7272L0.469188 15.9223C0.307725 15.9957 0.201253 16.1542 0.194747 16.3316C0.188077 16.5099 0.283072 16.6755 0.438103 16.7602L5.09504 19.3105C5.52174 21.3425 6.6577 23.4988 8.16282 25.1209C12.5631 29.8632 20.3733 30.161 25.1215 25.7553C29.8638 21.355 30.1618 13.5449 25.7559 8.79656ZM8.85005 24.4832C7.40621 22.9271 6.33075 20.8472 5.9731 18.9192C5.94777 18.7826 5.86262 18.662 5.7373 18.5934L2.41231 16.7726C2.1232 16.6142 2.13893 16.1938 2.43906 16.0575L5.8908 14.4901C6.01917 14.432 6.11435 14.3192 6.15028 14.1829C6.65084 12.2872 7.87882 10.2932 9.43489 8.8494C13.8306 4.77069 20.99 5.03851 25.0687 9.43423C29.1474 13.83 28.8796 20.9893 24.4839 25.068C20.0881 29.1467 12.9288 28.8789 8.85005 24.4832Z" fill="black"/>
</g>
<path d="M19.1133 21.6758V23.5508H14.4258V21.6758H15.3633V16.9883H14.4258V15.1133H18.1758V21.6758H19.1133Z" fill="white"/>
<path d="M18.1758 11.832C18.1758 12.6088 17.5463 13.2383 16.7695 13.2383C15.993 13.2383 15.3633 12.6088 15.3633 11.832C15.3633 11.0555 15.993 10.4258 16.7695 10.4258C17.5463 10.4258 18.1758 11.0555 18.1758 11.832Z" fill="white"/>
<path d="M19.1133 21.207H18.6445V15.1133C18.6445 14.8544 18.4347 14.6445 18.1758 14.6445H14.4258C14.1669 14.6445 13.957 14.8544 13.957 15.1133V16.9883C13.957 17.2472 14.1669 17.457 14.4258 17.457H14.8945V21.207H14.4258C14.1669 21.207 13.957 21.4169 13.957 21.6758V23.5508C13.957 23.8097 14.1669 24.0195 14.4258 24.0195H19.1133C19.3722 24.0195 19.582 23.8097 19.582 23.5508V21.6758C19.582 21.4169 19.3722 21.207 19.1133 21.207ZM18.6445 23.082H14.8945V22.1445H15.3633C15.6222 22.1445 15.832 21.9347 15.832 21.6758V16.9883C15.832 16.7294 15.6222 16.5195 15.3633 16.5195H14.8945V15.582H17.707V21.6758C17.707 21.9347 17.9171 22.1445 18.1758 22.1445H18.6445V23.082Z" fill="black"/>
<path d="M16.7695 13.707C17.8033 13.707 18.6445 12.8658 18.6445 11.832C18.6445 10.7982 17.8033 9.95703 16.7695 9.95703C15.7357 9.95703 14.8945 10.7982 14.8945 11.832C14.8945 12.8658 15.7357 13.707 16.7695 13.707ZM16.7695 10.8945C17.2864 10.8945 17.707 11.3151 17.707 11.832C17.707 12.3489 17.2864 12.7695 16.7695 12.7695C16.2526 12.7695 15.832 12.3489 15.832 11.832C15.832 11.3151 16.2526 10.8945 16.7695 10.8945Z" fill="black"/>
<defs>
<clipPath id="clip0">
<rect width="24" height="24" fill="white" transform="translate(0 16.3242) rotate(-42.8577)"/>
</clipPath>
</defs>
</svg>
