<svg width="67" height="60" fill="none" xmlns="http://www.w3.org/2000/svg"><g clip-path="url(#prefix__clip0)"><path d="M7.4 11.7C7.4 24.8.6 33.7.6 40c0 6.3 3.6 19.5 32.6 19.5s33.2-17.8 33.2-24.7c0-32.4-59-46.2-59-23.1z" fill="#A7DBF1"/><path d="M19 27.3c0-5.4 4.4-9.8 9.8-9.8s9.8 4.4 9.8 9.8-4.4 9.8-9.8 9.8c-5.4.1-9.8-4.4-9.8-9.8z" fill="#0D88BC"/><path d="M28.8 31.8c-2.8 0-5.3-3.3-6.1-4.5 1.3-2 3.7-4.5 6.1-4.5 2.8 0 5.3 3.3 6.1 4.5-1.3 2-3.7 4.5-6.1 4.5z" fill="#fff"/><path d="M47.2 41.5l-6.1-6c-.2-.2-.6-.3-.8-.3-.3 0-.6.1-.8.4l-.5.3-1-1c1.8-2.1 2.7-4.8 2.7-7.6 0-6.6-5.3-11.9-11.9-11.9-6.5 0-11.8 5.3-11.8 11.9 0 6.6 5.3 11.9 11.8 11.9 2.8 0 5.4-1 7.6-2.7l1.1 1.1-.5.5c-.4.5-.4 1.2 0 1.6l6 5.9c.6.6 1.3.9 2.1.9s1.5-.3 2.1-.9c1.1-1.1 1.1-3 0-4.1zM45.5 44c-.3.3-.6.3-.9 0l-5.2-5.1.8-.9 5.2 5.2c.1.1.2.3.2.4.1.1.1.3-.1.4zm-7.1-16.7c0 5.3-4.3 9.6-9.6 9.6s-9.5-4.3-9.5-9.6 4.3-9.6 9.5-9.6c5.3 0 9.6 4.3 9.6 9.6z" fill="#000"/><path d="M36.7 26.9c-.1-.2-3.5-5.8-7.9-5.8s-7.8 5.6-7.9 5.8c-.2.3-.2.6 0 .9.1.2 3.5 5.8 7.9 5.8s7.8-5.6 7.9-5.8c.2-.3.2-.7 0-.9zm-7.9 4.9c-2.8 0-5.3-3.3-6.1-4.5 1.3-2 3.7-4.5 6.1-4.5 2.8 0 5.3 3.3 6.1 4.5-1.3 2-3.7 4.5-6.1 4.5z" fill="#000"/><path d="M28.8 24.6c-1.5 0-2.7 1.2-2.7 2.7 0 1.5 1.2 2.7 2.7 2.7 1.5 0 2.7-1.2 2.7-2.7 0-1.5-1.2-2.7-2.7-2.7zm0 3.6c-.5 0-.9-.4-.9-.9s.4-.9.9-.9.9.4.9.9-.4.9-.9.9z" fill="#000"/><path d="M45.7 44.2c-.3.3-.9.4-1.3 0l-5.3-5.3 1.2-1.3 5.4 5.4c.4.3.4.8 0 1.2zM28.8 28.2a.9.9 0 100-1.8.9.9 0 000 1.8z" fill="#146080"/></g><defs><clipPath id="prefix__clip0"><path fill="#fff" d="M0 0h67v59.9H0z"/></clipPath></defs></svg>