<svg width="67" height="60" viewBox="0 0 67 60" fill="none" xmlns="http://www.w3.org/2000/svg">
<g clip-path="url(#clip0)">
<path d="M7.39998 11.7C7.39998 24.8 0.599976 33.7 0.599976 40C0.599976 46.3 4.19998 59.5 33.2 59.5C62.2 59.5 66.4 41.7 66.4 34.8C66.4 2.4 7.39998 -11.4 7.39998 11.7Z" fill="#A7DBF1"/>
<path d="M19 27.3C19 21.9 23.4 17.5 28.8 17.5C34.2 17.5 38.6 21.9 38.6 27.3C38.6 32.7 34.2 37.1 28.8 37.1C23.4 37.2 19 32.7 19 27.3Z" fill="#0D88BC"/>
<path d="M28.8 31.8C26 31.8 23.5 28.5 22.7 27.3C24 25.3 26.4 22.8 28.8 22.8C31.6 22.8 34.1 26.1 34.9 27.3C33.6 29.3 31.2 31.8 28.8 31.8Z" fill="white"/>
<path d="M47.2 41.5L41.1 35.5C40.9 35.3 40.5 35.2 40.3 35.2C40 35.2 39.7 35.3 39.5 35.6L39 35.9L38 34.9C39.8 32.8 40.7 30.1 40.7 27.3C40.7 20.7 35.4 15.4 28.8 15.4C22.3 15.4 17 20.7 17 27.3C17 33.9 22.3 39.2 28.8 39.2C31.6 39.2 34.2 38.2 36.4 36.5L37.5 37.6L37 38.1C36.6 38.6 36.6 39.3 37 39.7L43 45.6C43.6 46.2 44.3 46.5 45.1 46.5C45.9 46.5 46.6 46.2 47.2 45.6C48.3 44.5 48.3 42.6 47.2 41.5ZM45.5 44C45.2 44.3 44.9 44.3 44.6 44L39.4 38.9L40.2 38L45.4 43.2C45.5 43.3 45.6 43.5 45.6 43.6C45.7 43.7 45.7 43.9 45.5 44ZM38.4 27.3C38.4 32.6 34.1 36.9 28.8 36.9C23.5 36.9 19.3 32.6 19.3 27.3C19.3 22 23.6 17.7 28.8 17.7C34.1 17.7 38.4 22 38.4 27.3Z" fill="black"/>
<path d="M36.7 26.9C36.6 26.7 33.2 21.1 28.8 21.1C24.4 21.1 21 26.7 20.9 26.9C20.7 27.2 20.7 27.5 20.9 27.8C21 28 24.4 33.6 28.8 33.6C33.2 33.6 36.6 28 36.7 27.8C36.9 27.5 36.9 27.1 36.7 26.9ZM28.8 31.8C26 31.8 23.5 28.5 22.7 27.3C24 25.3 26.4 22.8 28.8 22.8C31.6 22.8 34.1 26.1 34.9 27.3C33.6 29.3 31.2 31.8 28.8 31.8Z" fill="black"/>
<path d="M28.8 24.6C27.3 24.6 26.1 25.8 26.1 27.3C26.1 28.8 27.3 30 28.8 30C30.3 30 31.5 28.8 31.5 27.3C31.5 25.8 30.3 24.6 28.8 24.6ZM28.8 28.2C28.3 28.2 27.9 27.8 27.9 27.3C27.9 26.8 28.3 26.4 28.8 26.4C29.3 26.4 29.7 26.8 29.7 27.3C29.7 27.8 29.3 28.2 28.8 28.2Z" fill="black"/>
<path d="M45.7 44.2C45.4 44.5 44.8 44.6 44.4 44.2L39.1 38.9L40.3 37.6L45.7 43C46.1 43.3 46.1 43.8 45.7 44.2Z" fill="#146080"/>
<path d="M28.8 28.2C29.2971 28.2 29.7 27.7971 29.7 27.3C29.7 26.8029 29.2971 26.4 28.8 26.4C28.303 26.4 27.9 26.8029 27.9 27.3C27.9 27.7971 28.303 28.2 28.8 28.2Z" fill="#146080"/>
</g>
<defs>
<clipPath id="clip0">
<rect width="67" height="59.9" fill="white"/>
</clipPath>
</defs>
</svg>
