<svg width="67" height="61" viewBox="0 0 67 61" fill="none" xmlns="http://www.w3.org/2000/svg">
<path d="M7.42064 12.5686C7.42064 25.8266 0.599976 34.834 0.599976 41.21C0.599976 47.5861 4.21092 60.9453 33.2991 60.9453C62.3872 60.9453 66.6 42.9305 66.6 35.9473C66.6 3.15639 7.42064 -10.8101 7.42064 12.5686Z" fill="#A7DBF1"/>
<path d="M46.3186 19.3899H31.6341C31.5541 19.3802 31.4733 19.3802 31.3934 19.3899L31.2028 19.4608C31.1033 19.4926 31.0112 19.5444 30.9321 19.6132C30.853 19.6819 30.7885 19.7662 30.7425 19.8608C30.6966 19.9554 30.6702 20.0584 30.6648 20.1636C30.6594 20.2688 30.6752 20.374 30.7113 20.4728L38.4748 43.386L33.3593 49.2762C33.2919 49.3532 33.2401 49.4428 33.2071 49.54C33.1741 49.6372 33.1605 49.74 33.167 49.8425C33.1735 49.945 33.2001 50.0453 33.2452 50.1374C33.2902 50.2295 33.3529 50.3118 33.4295 50.3794C33.5738 50.4997 33.754 50.5674 33.9411 50.5717H46.3186C47.3358 50.5637 48.3088 50.151 49.0263 49.4233C49.7437 48.6957 50.1476 47.7117 50.1502 46.6853V23.2661C50.145 22.2415 49.7399 21.2602 49.0228 20.5347C48.3056 19.8092 47.3341 19.3979 46.3186 19.3899Z" fill="#ECEFF1"/>
<path d="M40.1197 43.2443C40.0583 43.1085 39.9594 42.9934 39.8349 42.9126C39.7104 42.8319 39.5656 42.7889 39.4176 42.7889H31.634C31.4292 42.7889 31.2327 42.871 31.0879 43.0171C30.9431 43.1633 30.8617 43.3615 30.8617 43.5682C30.8638 43.6614 30.8807 43.7536 30.9118 43.8414L33.2289 50.0757C33.2768 50.2028 33.3565 50.3153 33.4602 50.4022C33.5639 50.489 33.688 50.5474 33.8207 50.5717H33.9511C34.0612 50.5735 34.1704 50.5508 34.2709 50.5053C34.3715 50.4599 34.4609 50.3927 34.5328 50.3085L39.9492 44.0641C40.0521 43.958 40.1227 43.8245 40.1529 43.6793C40.1831 43.5341 40.1716 43.3832 40.1197 43.2443Z" fill="#1976D2"/>
<path d="M40.1198 43.3151L30.0894 13.6718C30.0357 13.5187 29.9367 13.3861 29.8056 13.2919C29.6746 13.1977 29.518 13.1466 29.3571 13.1455H16.9495C15.9254 13.1455 14.9431 13.556 14.2189 14.2867C13.4947 15.0174 13.0878 16.0085 13.0878 17.0419V40.4712C13.0865 40.9838 13.1854 41.4915 13.3789 41.9655C13.5724 42.4394 13.8566 42.8701 14.2154 43.233C14.5741 43.5959 15.0002 43.8838 15.4694 44.0802C15.9386 44.2767 16.4416 44.3778 16.9495 44.3778H39.3675C39.5715 44.3752 39.7664 44.2922 39.9107 44.1467C40.055 44.0011 40.1372 43.8044 40.1398 43.5985C40.1464 43.5036 40.1396 43.4082 40.1198 43.3151Z" fill="#0D88BC"/>
<path d="M46.3185 19.2179H32.0954L30.2097 13.6414C30.1408 13.449 30.0158 13.2822 29.8511 13.1629C29.6863 13.0437 29.4896 12.9776 29.2869 12.9734H16.9495C15.8809 12.9867 14.8604 13.4244 14.1094 14.1917C13.3584 14.9589 12.9373 15.9939 12.9374 17.0723V40.4712C12.9347 41.5514 13.3546 42.5889 14.1059 43.3583C14.8572 44.1278 15.8791 44.5669 16.9495 44.5802H30.9921L33.0985 50.1668V50.2377C33.1369 50.3193 33.1876 50.3944 33.2489 50.4603C33.2708 50.4891 33.298 50.5131 33.3292 50.5312C33.3915 50.592 33.4625 50.6432 33.5398 50.683H33.6201C33.7278 50.7297 33.8438 50.7538 33.9611 50.7538H46.3185C47.3883 50.7539 48.415 50.3294 49.1771 49.5719C49.9391 48.8144 50.3751 47.7848 50.3909 46.7056V23.2661C50.3777 22.1861 49.9425 21.1549 49.1799 20.3969C48.4173 19.6388 47.389 19.2151 46.3185 19.2179ZM16.9495 42.5864C16.3917 42.5865 15.8564 42.3643 15.4601 41.9682C15.0637 41.5721 14.8384 41.0341 14.8331 40.4712V17.0419C14.8331 16.4756 15.0561 15.9324 15.453 15.5319C15.8499 15.1314 16.3882 14.9065 16.9495 14.9065H28.6249L38.0033 42.5864H16.9495ZM38.7255 33.0528C38.6486 32.8749 38.5226 32.7231 38.3626 32.6154C38.2025 32.5077 38.0151 32.4488 37.8228 32.4456C37.6956 32.4437 37.5694 32.4678 37.4517 32.5164C37.2141 32.6165 37.0238 32.8049 36.9201 33.0427L36.8699 33.1844L35.9672 30.5125H42.8079C42.1659 32.1759 41.2837 33.7345 40.19 35.1376C39.6072 34.5156 39.1142 33.8137 38.7255 33.0528ZM38.9061 36.6355C38.7055 36.848 38.4848 37.0606 38.2541 37.263L37.3614 34.6316C37.8318 35.3333 38.3478 36.0027 38.9061 36.6355ZM33.0383 44.5195H37.221L34.2921 47.8897L33.0383 44.5195ZM48.435 46.6549C48.435 47.2213 48.212 47.7645 47.8151 48.1649C47.4182 48.5654 46.8799 48.7904 46.3185 48.7904H36.1076L40.1198 44.1754C40.1469 44.1465 40.1674 44.1119 40.1799 44.0742C40.2189 44.0203 40.2525 43.9627 40.2802 43.9021V43.7301C40.2852 43.6627 40.2852 43.595 40.2802 43.5277C40.2802 43.5277 40.2802 43.4265 40.2802 43.3354C40.2802 43.2443 40.2802 43.2645 40.2802 43.2139L38.9362 39.2568C39.388 38.8928 39.8168 38.5007 40.2201 38.0828C41.7146 39.6616 43.179 41.0177 43.3496 41.119C43.5298 41.2794 43.7612 41.3692 44.0015 41.372C44.1366 41.3714 44.2703 41.3434 44.3944 41.2895C44.5185 41.2356 44.6305 41.1569 44.7237 41.0582C44.898 40.8649 44.9915 40.611 44.9845 40.3498C44.9677 40.0906 44.8528 39.8478 44.6635 39.6717C43.9112 38.9835 42.6575 37.7589 41.514 36.5444C42.9852 34.7478 44.1081 32.6878 44.824 30.472H46.3185C46.5401 30.4211 46.738 30.2957 46.8798 30.1164C47.0215 29.9371 47.0987 29.7146 47.0987 29.4853C47.0987 29.2559 47.0215 29.0334 46.8798 28.8541C46.738 28.6748 46.5401 28.5495 46.3185 28.4985H41.1228V27.9216C41.1599 27.7724 41.1627 27.6166 41.1312 27.4661C41.0996 27.3155 41.0344 27.1743 40.9406 27.053C40.8468 26.9317 40.7269 26.8336 40.5898 26.7661C40.4528 26.6986 40.3023 26.6635 40.1499 26.6635C39.9974 26.6635 39.8469 26.6986 39.7099 26.7661C39.5728 26.8336 39.4529 26.9317 39.3591 27.053C39.2653 27.1743 39.2001 27.3155 39.1685 27.4661C39.137 27.6166 39.1398 27.7724 39.1769 27.9216V28.4985H35.4957H35.3052L32.7976 21.0902H46.3185C46.5999 21.0901 46.8784 21.1467 47.1378 21.2565C47.3973 21.3664 47.6324 21.5273 47.8294 21.7299C48.0265 21.9325 48.1815 22.1727 48.2855 22.4365C48.3895 22.7003 48.4403 22.9823 48.435 23.2661V46.6549Z" fill="black"/>
<path d="M28.6851 33.8726L24.8234 22.9524C24.724 22.7388 24.5537 22.5669 24.342 22.4666C24.0978 22.3654 23.8239 22.3654 23.5797 22.4666C23.4518 22.5117 23.3344 22.5825 23.2344 22.6747C23.1344 22.7669 23.0539 22.8786 22.9979 23.003L19.1262 33.9333C19.0603 34.1699 19.082 34.4225 19.1872 34.6441C19.2924 34.8657 19.4739 35.0411 19.6979 35.1376C19.9362 35.2334 20.2018 35.2334 20.4401 35.1376C20.6814 35.0328 20.8723 34.8365 20.9718 34.5911L22.3961 30.5429H25.4052L26.8295 34.5911C26.9 34.7816 27.0258 34.9463 27.1904 35.0636C27.355 35.181 27.5508 35.2456 27.7523 35.249C27.8654 35.2494 27.9776 35.2288 28.0833 35.1882C28.2095 35.1432 28.3254 35.073 28.4243 34.982C28.5231 34.891 28.603 34.781 28.6591 34.6584C28.7151 34.5358 28.7463 34.4031 28.7508 34.2681C28.7553 34.1332 28.733 33.9987 28.6851 33.8726ZM23.0681 28.539L23.8906 26.2011L24.7231 28.539H23.0681Z" fill="black"/>
</svg>
