<svg width="66" height="60" viewBox="0 0 66 60" fill="none" xmlns="http://www.w3.org/2000/svg">
<path d="M6.82067 11.6233C6.82067 24.8813 0 33.8887 0 40.2647C0 46.6407 3.61094 60 32.6991 60C61.7872 60 66 41.9852 66 35.002C66 2.21107 6.82067 -11.7554 6.82067 11.6233Z" fill="#A7DBF1"/>
<path d="M23.2989 41.887V18.8665C23.2989 17.7536 24.1572 16.8526 25.2175 16.8526H41.7591C42.8194 16.8526 43.6777 17.7536 43.6777 18.8665V32.5228C38.3051 30.3767 27.9869 34.2912 30.5241 41.887L25.2175 43.9009C24.1572 43.9009 23.2989 42.9999 23.2989 41.887Z" fill="#146080"/>
<path d="M17.3705 44.8512V21.8307C17.3705 20.7178 18.2289 19.8168 19.2891 19.8168H35.8308C36.891 19.8168 37.7494 20.7178 37.7494 21.8307V32.2652C32.1915 33.7473 29.0985 39.4546 31.6357 47.0503L19.2891 46.8651C18.2289 46.8651 17.3705 45.9641 17.3705 44.8512Z" fill="#0D88BC"/>
<path d="M20.0397 46.5467C19.6185 46.5467 19.2762 46.2043 19.2762 45.7837V22.2817C19.2762 21.861 19.6185 21.5189 20.0397 21.5189H36.3702C36.7914 21.5189 37.1338 21.861 37.1338 22.2817V32.4431C37.8597 32.2014 38.6208 32.0409 39.41 31.973V22.2817C39.41 20.6057 38.0464 19.2427 36.3702 19.2427H23.5149V18.039C23.5149 17.6183 23.8572 17.2762 24.2784 17.2762H40.6091C41.0302 17.2762 41.3725 17.6183 41.3725 18.039V31.9936C42.1638 32.0814 42.9242 32.2693 43.6486 32.5321V18.039C43.6486 16.3631 42.2852 15 40.6091 15H24.2784C22.6023 15 21.2388 16.3631 21.2388 18.039V19.2427H20.0397C18.3636 19.2427 17 20.6058 17 22.2817V45.7837C17 47.4596 18.3636 48.8228 20.0397 48.8228H33.1384C32.4828 48.1488 31.9215 47.384 31.4757 46.5467H20.0397Z" fill="black"/>
<path d="M23.9103 28.112H30.4787C31.1079 28.112 31.6167 27.6024 31.6167 26.974C31.6167 26.3455 31.1079 25.8359 30.4787 25.8359H23.9103C23.2815 25.8359 22.7726 26.3456 22.7726 26.974C22.7726 27.6024 23.2814 28.112 23.9103 28.112Z" fill="black"/>
<path d="M33.6383 32.027C33.6383 31.3985 33.1294 30.8889 32.5002 30.8889H23.9103C23.2815 30.8889 22.7726 31.3985 22.7726 32.027C22.7726 32.6555 23.2814 33.165 23.9103 33.165H32.5002C33.1294 33.165 33.6383 32.6555 33.6383 32.027Z" fill="black"/>
<path d="M32.3014 35.9402H23.9103C23.2815 35.9402 22.7726 36.4498 22.7726 37.0783C22.7726 37.7067 23.2814 38.2163 23.9103 38.2163H31.0222C31.3477 37.3976 31.7813 36.6354 32.3014 35.9402Z" fill="black"/>
<path d="M23.9103 40.992C23.2815 40.992 22.7726 41.5016 22.7726 42.13C22.7726 42.7585 23.2814 43.2681 23.9103 43.2681H30.4187C30.3564 42.8158 30.3121 42.3567 30.3121 41.887C30.3121 41.5848 30.3309 41.2874 30.3577 40.9919H23.9103V40.992Z" fill="black"/>
<path d="M40.2701 39.536C38.3164 39.536 36.5869 41.1548 35.9046 41.8871C36.5869 42.6191 38.3164 44.2372 40.2701 44.2372C42.2317 44.2372 43.9564 42.6196 44.6357 41.8878C43.9544 41.1559 42.2251 39.536 40.2701 39.536ZM40.2701 43.5942C39.3277 43.5942 38.5632 42.8297 38.5632 41.8871C38.5632 40.9437 39.3277 40.1801 40.2701 40.1801C41.2126 40.1801 41.977 40.9436 41.977 41.8871C41.977 42.8297 41.2126 43.5942 40.2701 43.5942Z" fill="black"/>
<path d="M40.2701 34.7743C36.3415 34.7743 33.1572 37.9585 33.1572 41.8871C33.1572 45.8149 36.3415 49 40.2701 49C44.1988 49 47.383 45.8149 47.383 41.8871C47.383 37.9584 44.1988 34.7743 40.2701 34.7743ZM40.2701 45.3751C37.2006 45.3751 34.802 42.3667 34.701 42.2388C34.5399 42.0322 34.5399 41.7421 34.701 41.536C34.8021 41.4077 37.2006 38.398 40.2701 38.398C43.3396 38.398 45.7381 41.4076 45.8392 41.536C46.0003 41.7421 46.0003 42.0323 45.8392 42.2388C45.7381 42.3668 43.3396 45.3751 40.2701 45.3751Z" fill="black"/>
</svg>
