<svg width="67" height="60" viewBox="0 0 67 60" fill="none" xmlns="http://www.w3.org/2000/svg">
<path d="M7.42064 11.6233C7.42064 24.8813 0.599976 33.8887 0.599976 40.2647C0.599976 46.6407 4.21092 60 33.2991 60C62.3872 60 66.6 41.9852 66.6 35.002C66.6 2.21107 7.42064 -11.7554 7.42064 11.6233Z" fill="#A7DBF1"/>
<path d="M43.831 47.5516L46.469 31.5812C46.4809 31.5163 46.4784 31.4496 46.4616 31.3859C46.4448 31.3221 46.4142 31.2629 46.3719 31.2125C46.3297 31.1622 46.2769 31.1219 46.2174 31.0947C46.1578 31.0674 46.093 31.0538 46.0277 31.0549H43.0186C42.8219 30.2395 42.438 29.4822 41.8979 28.844C41.3578 28.2059 40.6765 27.7048 39.9091 27.3811L36.0374 25.7213C37.1118 24.5034 37.7045 22.9291 37.7024 21.2986V16.0359C37.726 14.3807 37.1549 12.7729 36.0947 11.5097C35.0345 10.2464 33.5568 9.41319 31.935 9.16396C30.998 9.04028 30.0456 9.11951 29.1414 9.39637C28.2371 9.67323 27.4017 10.1414 26.6908 10.7696C25.9799 11.3978 25.4099 12.1716 25.0187 13.0396C24.6276 13.9075 24.4242 14.8496 24.4222 15.8031V21.2986C24.4296 22.9104 25.0179 24.4644 26.0772 25.6707L22.2155 27.3811C21.4423 27.7097 20.7574 28.2186 20.2168 28.866C19.6763 29.5134 19.2957 30.2809 19.1061 31.1055H16.0468C15.9817 31.1064 15.9174 31.1212 15.8583 31.1489C15.7993 31.1766 15.7467 31.2167 15.704 31.2664C15.6614 31.3161 15.6297 31.3744 15.6109 31.4374C15.5922 31.5004 15.587 31.5666 15.5955 31.6318L18.2335 47.6022H12.0347V49.9907H50.1502V47.5516H43.831ZM40.521 31.0549H35.2651C35.7274 30.2826 35.9704 29.3967 35.9672 28.4944V28.2515L38.9763 29.5368C39.6679 29.82 40.2222 30.3648 40.521 31.0549ZM28.4845 28.4944V27.4823C30.1102 28.1572 31.9342 28.1572 33.5599 27.4823V28.4944C33.5599 29.1735 33.2925 29.8248 32.8166 30.305C32.3407 30.7852 31.6952 31.0549 31.0222 31.0549C30.3492 31.0549 29.7037 30.7852 29.2278 30.305C28.7519 29.8248 28.4845 29.1735 28.4845 28.4944ZM26.7994 18.2017H27.973C28.533 18.199 29.0869 18.085 29.6033 17.8662C30.1196 17.6474 30.5881 17.3281 30.9821 16.9265L31.0423 16.8658C31.4375 17.2839 31.9119 17.6177 32.4375 17.8472C32.963 18.0767 33.5289 18.1972 34.1015 18.2017H35.2851V21.2379C35.2851 22.3787 34.836 23.4727 34.0365 24.2794C33.2371 25.086 32.1528 25.5392 31.0222 25.5392C29.8916 25.5392 28.8073 25.086 28.0079 24.2794C27.2084 23.4727 26.7593 22.3787 26.7593 21.2379L26.7994 18.2017ZM31.0924 11.4512C32.2222 11.4539 33.3049 11.9079 34.1038 12.714C34.9027 13.5201 35.3527 14.6126 35.3553 15.7525H34.1015C33.6005 15.7525 33.1198 15.5524 32.7646 15.1958C32.4093 14.8393 32.2084 14.3554 32.2058 13.8498H29.8787C29.8735 14.3572 29.6707 14.8422 29.3141 15.2001C28.9576 15.5579 28.4759 15.76 27.973 15.7626H26.7994C26.7994 15.1947 26.9106 14.6324 27.1266 14.108C27.3426 13.5836 27.6591 13.1074 28.058 12.7068C28.4569 12.3062 28.9303 11.9891 29.4511 11.7736C29.9718 11.5581 30.5296 11.4486 31.0924 11.4512ZM23.1684 29.5368L26.1775 28.2515V28.4944C26.1744 29.3967 26.4173 30.2826 26.8797 31.0549H21.6037C21.9 30.3668 22.4505 29.8222 23.1383 29.5368H23.1684ZM20.711 47.5516L18.3538 33.4535H43.7608L41.4237 47.5516H20.711Z" fill="black"/>
<path d="M20.6909 47.5516L18.3638 33.4434H43.7608L41.4337 47.5516H20.6909Z" fill="#0D88BC"/>
<path d="M31.3532 36.6921C30.5795 36.6921 29.8232 36.9236 29.1799 37.3573C28.5366 37.791 28.0352 38.4075 27.7391 39.1287C27.443 39.85 27.3656 40.6436 27.5165 41.4092C27.6675 42.1749 28.04 42.8782 28.5871 43.4302C29.1342 43.9822 29.8312 44.3581 30.59 44.5104C31.3489 44.6627 32.1354 44.5845 32.8502 44.2858C33.565 43.9871 34.1759 43.4811 34.6058 42.8321C35.0356 42.183 35.2651 41.4198 35.2651 40.6392C35.2624 39.5932 34.8494 38.5908 34.1164 37.8512C33.3833 37.1115 32.3899 36.6948 31.3532 36.6921ZM31.3532 42.1978C31.0473 42.1998 30.7476 42.1101 30.4923 41.94C30.237 41.77 30.0374 41.5273 29.919 41.2427C29.8005 40.9581 29.7685 40.6444 29.827 40.3414C29.8854 40.0384 30.0317 39.7597 30.2474 39.5407C30.463 39.3218 30.7382 39.1723 31.0381 39.1113C31.338 39.0504 31.6491 39.0806 31.932 39.1983C32.2148 39.316 32.4566 39.5157 32.6268 39.7723C32.797 40.0288 32.8878 40.3305 32.8879 40.6392C32.8892 40.8434 32.8505 41.0458 32.7739 41.2349C32.6974 41.4239 32.5846 41.5958 32.4419 41.7407C32.2993 41.8855 32.1297 42.0005 31.9428 42.0789C31.756 42.1574 31.5556 42.1978 31.3532 42.1978Z" fill="black"/>
<path d="M40.521 31.0549H35.2551C35.7205 30.2834 35.9668 29.3976 35.9672 28.4944V28.2515L38.9763 29.5368C39.6644 29.8254 40.217 30.3685 40.521 31.0549Z" fill="#146080"/>
<path d="M23.1283 29.5368L26.1374 28.2515V28.4944C26.1412 29.3958 26.3836 30.2798 26.8395 31.0549H21.5936C21.8926 30.3686 22.4423 29.8249 23.1283 29.5368Z" fill="#146080"/>
<path d="M31.0924 11.4512C31.6522 11.4512 32.2066 11.5625 32.7238 11.7786C33.241 11.9948 33.7109 12.3116 34.1067 12.711C34.5026 13.1104 34.8166 13.5846 35.0308 14.1065C35.2451 14.6283 35.3553 15.1876 35.3553 15.7525H34.1015C33.6014 15.7525 33.1218 15.552 32.7681 15.1952C32.4145 14.8384 32.2158 14.3544 32.2158 13.8498H29.8687C29.8687 14.1019 29.8193 14.3514 29.7234 14.5842C29.6275 14.8169 29.487 15.0282 29.3099 15.206C29.1328 15.3837 28.9226 15.5244 28.6915 15.6199C28.4603 15.7155 28.2127 15.7639 27.9629 15.7626H26.7894C26.7894 15.1939 26.9009 14.6307 27.1175 14.1057C27.3341 13.5806 27.6515 13.104 28.0515 12.7032C28.4515 12.3025 28.9261 11.9855 29.448 11.7706C29.9699 11.5558 30.5287 11.4472 31.0924 11.4512Z" fill="black"/>
<path d="M28.5246 28.4944V27.4823C30.1503 28.1572 31.9743 28.1572 33.6 27.4823V28.4944C33.6 29.1735 33.3326 29.8248 32.8567 30.305C32.3808 30.7852 31.7353 31.0549 31.0623 31.0549C30.3892 31.0549 29.7438 30.7852 29.2679 30.305C28.792 29.8248 28.5246 29.1735 28.5246 28.4944Z" fill="white"/>
<path d="M26.7993 18.2017H27.9729C28.5329 18.199 29.0869 18.085 29.6032 17.8662C30.1195 17.6474 30.588 17.3281 30.982 16.9265L31.0422 16.8658C31.4374 17.2839 31.9118 17.6177 32.4374 17.8472C32.9629 18.0767 33.5288 18.1972 34.1015 18.2017H35.2851V21.2379C35.2851 22.3787 34.8359 23.4727 34.0365 24.2794C33.237 25.086 32.1527 25.5392 31.0221 25.5392C29.8915 25.5392 28.8072 25.086 28.0078 24.2794C27.2083 23.4727 26.7592 22.3787 26.7592 21.2379L26.7993 18.2017Z" fill="white"/>
</svg>
