<svg width="24" height="24" viewBox="0 0 24 24" fill="none" xmlns="http://www.w3.org/2000/svg">
<path d="M9.43752 7.05063C10.381 6.99094 11.0425 6.82154 11.5279 6.61913C12.0329 6.40854 12.3428 6.16396 12.5748 5.98075L12.5753 5.9804L12.5753 5.98038C12.6264 5.94003 12.6836 5.89506 12.7288 5.86284C12.7661 5.88032 12.8096 5.9018 12.8502 5.92189C12.8502 5.9219 12.8502 5.9219 12.8502 5.9219L12.8946 5.83227M9.43752 7.05063L14.6359 6.4396M9.43752 7.05063C9.56231 7.68561 9.83201 8.32806 10.2091 8.86452C10.7403 9.62005 11.3964 10.0328 12 10.0328C12.6036 10.0328 13.2597 9.62005 13.7908 8.86452L13.8726 8.92203M9.43752 7.05063L13.8726 8.92203M12.8946 5.83227C13.2389 6.00262 13.7795 6.26996 14.7388 6.3484M12.8946 5.83227C12.8357 5.80313 12.7662 5.76879 12.7192 5.74895L12.8946 5.83227ZM14.7388 6.3484L14.6388 6.34662C14.6382 6.37749 14.6373 6.40849 14.6359 6.4396M14.7388 6.3484L14.7306 6.44807C14.6986 6.44545 14.667 6.44262 14.6359 6.4396M14.7388 6.3484C14.7234 7.21117 14.4027 8.16809 13.8726 8.92203M14.6359 6.4396C14.6005 7.2567 14.2911 8.15296 13.7908 8.86452L13.8726 8.92203M18.9359 20.7281H21.4141C21.7929 20.7281 22.1 21.0352 22.1 21.4141C22.1 21.7929 21.7929 22.1 21.4141 22.1H2.58594C2.20712 22.1 1.9 21.7929 1.9 21.4141C1.9 21.0352 2.20712 20.7281 2.58594 20.7281H5.06406V15.0859C5.06406 14.3845 5.63454 13.8141 6.33594 13.8141H7.12799C7.36676 12.8296 7.82515 11.9797 8.47495 11.3356C8.85608 10.9578 9.29375 10.6607 9.77637 10.449C8.68756 9.43816 7.98785 7.78453 7.98785 6.28383C7.98785 4.87908 8.37902 3.76258 9.16332 2.9794L18.9359 20.7281ZM18.9359 20.7281V15.0859C18.9359 14.3845 18.3655 13.8141 17.6641 13.8141H16.872C16.6332 12.8295 16.1749 11.9797 15.525 11.3356C15.1439 10.9578 14.7063 10.6607 14.2236 10.449C15.3124 9.43815 16.0121 7.78457 16.0121 6.28383L18.9359 20.7281ZM12 3.27188C12.4208 3.27188 12.9542 3.34209 13.4296 3.61427C13.8732 3.86822 14.2736 4.30191 14.4843 5.03793C13.9939 4.95716 13.699 4.81122 13.4589 4.69244L13.4586 4.69229L13.4143 4.78191L13.4586 4.69229L13.4502 4.68812C13.1931 4.5609 12.8685 4.40025 12.4718 4.4912C12.1559 4.56361 11.9307 4.74141 11.7305 4.89945L11.7253 4.90358C11.5419 5.04832 11.3234 5.22037 10.9563 5.36851C10.6064 5.50968 10.1172 5.63074 9.39203 5.67906C9.50807 4.64553 9.92374 4.05257 10.413 3.7135C10.9248 3.35884 11.5315 3.27188 12 3.27188ZM12.3125 11.4359C13.1053 11.4359 13.7859 11.6674 14.3239 12.0932C14.8332 12.4963 15.2198 13.0777 15.4508 13.8141H8.54915C8.78018 13.0777 9.16679 12.4963 9.67611 12.0932C10.2141 11.6674 10.8947 11.4359 11.6875 11.4359H12.3125ZM6.43594 20.7281V15.1859H17.5641V20.7281H6.43594Z" fill="#3B3A3C" stroke="#3B3A3C" stroke-width="0.2"/>
<path d="M12 18.3108C12.3788 18.3108 12.6859 18.0037 12.6859 17.6249C12.6859 17.246 12.3788 16.9389 12 16.9389C11.6212 16.9389 11.3141 17.246 11.3141 17.6249C11.3141 18.0037 11.6212 18.3108 12 18.3108Z" fill="#3B3A3C" stroke="#3B3A3C" stroke-width="0.2"/>
</svg>
