<svg width="66" height="60" viewBox="0 0 66 60" fill="none" xmlns="http://www.w3.org/2000/svg">
<path d="M6.7891 11.6237C6.7891 24.8325 0 33.9032 0 40.268C0 46.6327 3.63046 60 32.6836 60C61.7367 60 66 42.0172 66 35.0165C66.0019 2.23417 6.7891 -11.769 6.7891 11.6237Z" fill="#A7DBF1"/>
<path d="M31.5987 50.806C42.5431 50.806 51.4152 41.8645 51.4152 30.8347C51.4152 19.8048 42.5431 10.8634 31.5987 10.8634C20.6544 10.8634 11.7823 19.8048 11.7823 30.8347C11.7823 41.8645 20.6544 50.806 31.5987 50.806Z" fill="#146080"/>
<path d="M30.477 50.806C40.8018 50.806 49.1718 41.8645 49.1718 30.8347C49.1718 19.8048 40.8018 10.8634 30.477 10.8634C20.1522 10.8634 11.7823 19.8048 11.7823 30.8347C11.7823 41.8645 20.1522 50.806 30.477 50.806Z" fill="#A7DBF1"/>
<path d="M25.7006 42.1786L19.7874 45.4291C19.4472 45.6202 19.129 45.8486 18.8385 46.11C26.1828 52.3465 36.9084 52.374 44.2842 46.1754C43.9657 45.8998 43.6158 45.6634 43.2419 45.4712L36.9105 42.2808C36.0923 41.8686 35.5756 41.0258 35.5756 40.104V37.6002C35.7882 37.352 35.9881 37.0929 36.1745 36.8242C37.0286 35.6007 37.6923 34.2527 38.1424 32.8271C38.9762 32.5715 39.5478 31.7986 39.5525 30.9203V28.2483C39.5503 27.6822 39.3093 27.1438 38.8897 26.7675V22.9044C38.8897 22.9044 39.6768 16.8924 31.5987 16.8924C23.5207 16.8924 24.3077 22.9044 24.3077 22.9044V26.7675C23.8881 27.1438 23.6471 27.6822 23.6449 28.2483V30.9203C23.647 31.6013 23.9923 32.2346 24.5614 32.6015C25.0014 34.4197 25.8186 36.1233 26.959 37.6002V40.0419C26.959 40.9326 26.4764 41.752 25.7006 42.1786Z" fill="#146080"/>
<path d="M42.8949 45.4198L34.5651 42.2295C33.747 41.8172 33.2302 40.9745 33.2302 40.0526V37.5489C33.4429 37.3007 33.6427 37.0416 33.8292 36.7728C34.6833 35.5493 35.347 34.2014 35.7971 32.7757C36.6309 32.5202 37.2025 31.7473 37.2072 30.869V28.1969C37.205 27.6309 36.9639 27.0924 36.5444 26.7161V22.853C36.5444 22.853 37.3314 16.8411 29.2534 16.8411C28.7725 16.8411 28.3252 16.8637 27.9051 16.9039C27.9541 17.2952 27.7362 17.671 27.3738 17.82C26.4066 18.2198 25.4706 18.6923 24.5736 19.2335C24.9432 19.2987 25.2122 19.623 25.2102 20.0012C25.3713 22.7757 24.4242 26.0334 23.573 28.8694C23.5992 29.9861 23.6234 31.1029 23.6556 32.2196C23.7375 32.4773 23.8196 32.7349 23.8998 32.993C24.0545 33.0878 24.1757 33.229 24.2465 33.3969C24.588 34.2168 24.9689 35.057 25.2993 35.9127C25.7496 35.7862 26.2222 36.0214 26.3964 36.4585C26.6879 37.2883 26.8705 38.1529 26.9394 39.0304C26.9747 39.2939 26.8468 39.5525 26.6168 39.6828C26.201 41.1342 25.499 42.4861 24.5526 43.6576C24.3474 43.8591 24.0525 43.9372 23.7755 43.8635C23.4986 43.7898 23.2803 43.5751 23.2005 43.2979C23.1604 43.1578 23.1278 43.0156 23.1029 42.872C22.5469 43.2048 21.9507 43.4956 21.3072 43.8588C20.9616 44.0538 18.336 45.2686 18.2705 45.5699C17.8994 47.2749 23.8308 49.3896 26.8085 50.5852C27.6192 50.6923 28.4358 50.7489 29.2535 50.7546C34.0798 50.7546 40.5001 49.0141 43.9374 46.1241C43.6188 45.8485 43.2689 45.6121 42.8949 45.4198Z" fill="#0D88BC"/>
<path d="M31.5987 51.7096H31.5989C43.0346 51.6963 52.2998 42.357 52.313 30.8348V30.8347C52.313 19.3068 43.04 9.95973 31.5987 9.95973C20.1575 9.95973 10.8845 19.3068 10.8845 30.8347C10.8845 42.3625 20.1575 51.7096 31.5987 51.7096ZM12.6801 30.8347C12.6801 20.3028 21.1513 11.767 31.5987 11.767C42.0411 11.7791 50.5055 20.3079 50.5174 30.8348C50.5173 41.3666 42.046 49.9023 31.5987 49.9023C21.1514 49.9023 12.6801 41.3665 12.6801 30.8347Z" fill="black" stroke="black" stroke-width="0.3"/>
<path d="M31.5987 51.5596C26.7529 51.5568 22.0634 49.831 18.3561 46.686C18.1892 46.5442 18.0921 46.3359 18.0903 46.116C18.0884 45.896 18.1821 45.6862 18.3466 45.5416C18.6782 45.2442 19.0415 44.9844 19.4296 44.7673L25.3426 41.5173C25.8784 41.2227 26.2116 40.6567 26.2116 40.0417V37.8611C25.1438 36.419 24.3589 34.7849 23.8988 33.0463C23.2648 32.5253 22.8969 31.7445 22.8969 30.9201V28.2485C22.8991 27.5926 23.1343 26.9592 23.56 26.463V22.9458C23.4307 21.3429 23.937 19.7537 24.9679 18.5262C26.3459 16.9418 28.5769 16.1388 31.5987 16.1388C34.6206 16.1388 36.8516 16.9418 38.2295 18.5263C39.2604 19.7538 39.7666 21.343 39.6374 22.9458V26.463C40.063 26.9592 40.2983 27.5926 40.3006 28.2485V30.9201C40.3018 31.9812 39.6942 32.9472 38.7415 33.3988C38.2735 34.7724 37.6149 36.0723 36.785 37.2596C36.6251 37.487 36.4703 37.6932 36.3235 37.8756V40.1041C36.3215 40.7409 36.679 41.3236 37.2452 41.6064L43.5765 44.7968C44.0034 45.0155 44.4027 45.2848 44.7661 45.599C44.9352 45.7426 45.0325 45.9542 45.0319 46.177C45.0314 46.3998 44.933 46.611 44.7632 46.7537C41.0671 49.8568 36.4093 51.5571 31.5987 51.5596ZM20.0664 46.1355C26.8455 51.3297 36.2212 51.3607 43.0339 46.2113C42.9916 46.1884 42.95 46.1663 42.9076 46.145L36.5762 42.9546C35.5018 42.4182 34.8237 41.3126 34.8279 40.1042V37.6005C34.8279 37.4177 34.8938 37.2411 35.0134 37.1037C35.2087 36.8747 35.3924 36.6359 35.564 36.3884C36.3742 35.2275 37.0037 33.9485 37.4305 32.596C37.5054 32.3621 37.6889 32.1797 37.9219 32.1073C38.4409 31.9468 38.7976 31.4672 38.8048 30.9202V28.2486C38.8036 27.8954 38.652 27.5599 38.3886 27.3271C38.2314 27.1843 38.1417 26.981 38.1417 26.7678V22.9047C38.1417 22.8718 38.1439 22.8388 38.1483 22.8061C38.2356 21.6089 37.8565 20.4246 37.0916 19.5045C36.0079 18.2718 34.1604 17.6462 31.5986 17.6462C29.0266 17.6462 27.1739 18.277 26.0924 19.52C25.3291 20.4343 24.9542 21.615 25.0489 22.8061C25.0533 22.8388 25.0555 22.8718 25.0555 22.9047V26.7678C25.0555 26.981 24.9657 27.1843 24.8086 27.3271C24.5451 27.5599 24.3935 27.8954 24.3923 28.2486V30.9202C24.3939 31.3457 24.6105 31.741 24.9671 31.9689C25.1305 32.0756 25.2462 32.2422 25.2899 32.4333C25.7061 34.1353 26.4705 35.7308 27.534 37.1178C27.6455 37.2536 27.7066 37.4243 27.7071 37.6006V40.0418C27.7074 41.2086 27.0749 42.2824 26.0582 42.8407L20.1453 46.0907C20.119 46.1053 20.0927 46.12 20.0664 46.1355Z" fill="black"/>
<path d="M44.5292 51.6073C42.1 51.6073 39.8744 50.4841 38.4036 48.5275C37.3977 47.178 36.8628 45.5693 36.8628 43.8752C36.8628 39.6024 40.3058 36.134 44.5292 36.134H44.5295H44.5298H44.53H44.5303H44.5305H44.5308H44.5311H44.5313H44.5316H44.5318H44.5321H44.5324H44.5326H44.5329H44.5331H44.5334H44.5337H44.5339H44.5342H44.5344H44.5347H44.535H44.5352H44.5355H44.5357H44.536H44.5363H44.5365H44.5368H44.537H44.5373H44.5376H44.5378H44.5381H44.5384H44.5386H44.5389H44.5391H44.5394H44.5397H44.5399H44.5402H44.5404H44.5407H44.541H44.5412H44.5415H44.5417H44.542H44.5423H44.5425H44.5428H44.543H44.5433H44.5436H44.5438H44.5441H44.5443H44.5446H44.5449H44.5451H44.5454H44.5457H44.5459H44.5462H44.5464H44.5467H44.547H44.5472H44.5475H44.5477H44.548H44.5483H44.5485H44.5488H44.549H44.5493H44.5496H44.5498H44.5501H44.5503H44.5506H44.5509H44.5511H44.5514H44.5516H44.5519H44.5522H44.5524H44.5527H44.5529H44.5532H44.5535H44.5537H44.554H44.5543H44.5545H44.5548H44.555H44.5553H44.5556H44.5558H44.5561H44.5563H44.5566H44.5569H44.5571H44.5574H44.5576H44.5579H44.5582H44.5584H44.5587H44.5589H44.5592H44.5595H44.5597H44.56H44.5602H44.5605H44.5608H44.561H44.5613H44.5615H44.5618H44.5621H44.5623H44.5626H44.5629H44.5631H44.5634H44.5636H44.5639H44.5642H44.5644H44.5647H44.5649H44.5652H44.5655H44.5657H44.566H44.5662H44.5665H44.5668H44.567H44.5673H44.5675H44.5678H44.5681H44.5683H44.5686H44.5688H44.5691H44.5694H44.5696H44.5699H44.5702H44.5704H44.5707H44.5709H44.5712H44.5715H44.5717H44.572H44.5722H44.5725H44.5728H44.573H44.5733H44.5735H44.5738H44.5741H44.5743H44.5746H44.5748H44.5751H44.5754H44.5756H44.5759H44.5761H44.5764H44.5767H44.5769H44.5772H44.5774H44.5777H44.578H44.5782H44.5785H44.5788H44.579H44.5793H44.5795H44.5798H44.5801H44.5803H44.5806H44.5808H44.5811H44.5814H44.5816H44.5819H44.5821H44.5824H44.5827H44.5829H44.5832H44.5834H44.5837H44.584H44.5842H44.5845H44.5847H44.585H44.5853H44.5855H44.5858H44.5861H44.5863H44.5866H44.5868H44.5871H44.5874H44.5876H44.5879H44.5881H44.5884H44.5887H44.5889H44.5892H44.5894H44.5897H44.59H44.5902H44.5905H44.5907H44.591H44.5913H44.5915H44.5918H44.592H44.5923H44.5926H44.5928H44.5931H44.5933H44.5936H44.5939H44.5941H44.5944H44.5947H44.5949H44.5952H44.5954H44.5957H44.596H44.5962H44.5965H44.5967H44.597H44.5973H44.5975H44.5978H44.598H44.5983H44.5986H44.5988H44.5991H44.5993H44.5996H44.5999H44.6001H44.6004H44.6006H44.6009H44.6012H44.6014H44.6017H44.6019H44.6022H44.6025H44.6027H44.603H44.6033H44.6035H44.6038H44.604H44.6043H44.6046H44.6048H44.6051H44.6053H44.6056H44.6059H44.6061H44.6064H44.6066H44.6069H44.6072H44.6074H44.6077H44.6079H44.6082H44.6085H44.6087H44.609H44.6092H44.6095H44.6098H44.61H44.6103H44.6106H44.6108H44.6111H44.6113H44.6116H44.6119H44.6121H44.6124H44.6126H44.6129H44.6132H44.6134H44.6137H44.6139H44.6142H44.6145H44.6147H44.615H44.6152H44.6155H44.6158H44.616H44.6163H44.6165H44.6168H44.6171H44.6173H44.6176H44.6178H44.6181H44.6184H44.6186H44.6189H44.6192H44.6194H44.6197H44.6199H44.6202H44.6205H44.6207H44.621H44.6212H44.6215H44.6218H44.622H44.6223H44.6225H44.6228H44.6231H44.6233H44.6236H44.6238H44.6241H44.6244H44.6246H44.6249H44.6251H44.6254H44.6257H44.6259H44.6262H44.6265H44.6267H44.627H44.6272H44.6275H44.6278H44.628H44.6283H44.6285H44.6288H44.6291H44.6293H44.6296H44.6298H44.6301H44.6304H44.6306H44.6309H44.6311H44.6314H44.6317H44.6319H44.6322H44.6324H44.6327H44.633H44.6332H44.6335H44.6337H44.634H44.6343H44.6345H44.6348H44.6351H44.6353H44.6356H44.6358H44.6361H44.6364H44.6366H44.6369H44.6371H44.6374H44.6377H44.6379H44.6382H44.6384H44.6387H44.639H44.6392H44.6395H44.6397H44.64H44.6403H44.6405H44.6408H44.641H44.6413H44.6416H44.6418H44.6421H44.6424H44.6426H44.6429H44.6431H44.6434H44.6437H44.6439H44.6442H44.6444H44.6447H44.645H44.6452H44.6455H44.6457H44.646H44.6463H44.6465H44.6468H44.647H44.6473H44.6476H44.6478H44.6481H44.6483H44.6486H44.6489H44.6491H44.6494H44.6496H44.6499H44.6502H44.6504H44.6507H44.651H44.6512H44.6515H44.6517H44.652H44.6523H44.6525H44.6528H44.653H44.6533H44.6536H44.6538H44.6541H44.6543H44.6546H44.6549H44.6551H44.6554H44.6556H44.6559H44.6562H44.6564H44.6567H44.6569H44.6572H44.6575H44.6577H44.658H44.6582H44.6585H44.6588H44.659H44.6593H44.6596H44.6598H44.6601H44.6603H44.6606H44.6609H44.6611H44.6614H44.6616H44.6619H44.6622H44.6624H44.6627H44.6743C46.686 36.1682 48.5691 36.9899 49.9888 38.4452C51.4076 39.8996 52.1867 41.8271 52.1867 43.8752C52.1867 48.139 48.7437 51.6073 44.5292 51.6073Z" fill="#94DDF2" stroke="black" stroke-width="1.5"/>
<path d="M48.6574 40.6878C48.16 40.2868 47.4407 40.3716 47.0428 40.8652L44.0891 44.5823L42.2603 43.2482C41.7476 42.8703 41.0283 42.986 40.661 43.5026C40.286 44.0193 40.4008 44.7443 40.9135 45.1144L43.63 47.0964C43.8366 47.2429 44.0662 47.32 44.3034 47.32C44.6401 47.32 44.9768 47.1735 45.1987 46.8882L48.841 42.315C49.2313 41.8138 49.1471 41.0888 48.6574 40.6878Z" fill="black"/>
</svg>
