<svg width="66" height="60" viewBox="0 0 66 60" fill="none" xmlns="http://www.w3.org/2000/svg">
<path d="M6.8 11.5C6.8 24.6 0 33.5 0 39.8C0 46.1 3.6 59.3 32.6 59.3C61.6 59.3 65.8 41.5 65.8 34.6C65.8 2.2 6.8 -11.6 6.8 11.5Z" fill="#A7DBF1"/>
<path d="M37.3 44.8C38.1 43.9 38.5 42.8 38.5 41.6C38.5 38.9 36.3 36.7 33.6 36.7C30.9 36.7 28.7 38.9 28.7 41.6C28.7 42.8 29.2 43.9 29.9 44.8V46.4H21.4C19.4 46.4 17.8 44.8 17.8 42.8V19.6H38.4C39.1 19.6 39.6 19.1 39.6 18.4V16C39.6 15.3 40.1 14.8 40.8 14.8C41.5 14.8 42 15.3 42 16V45.3C42 45.7 42.1 46.1 42.2 46.5H37.1V44.8H37.3Z" fill="#0D88BC"/>
<path d="M48.2 41.6H44.6V15.9C44.6 13.9 43 12.3 41 12.3H16.7C13.4 12.3 10.6 15 10.6 18.4C10.6 19.1 11.1 19.6 11.8 19.6H15.4V42.8C15.4 46.1 18.1 48.9 21.5 48.9H30V52.5C30 52.9 30.2 53.3 30.6 53.5C31 53.7 31.4 53.7 31.8 53.6L33.7 52.7L35.6 53.6C36 53.8 36.4 53.8 36.8 53.5C37.2 53.3 37.4 52.9 37.4 52.5V48.9H45.9C47.9 48.9 49.5 47.3 49.5 45.3V42.9C49.4 42.1 48.9 41.6 48.2 41.6ZM16.7 14.7H37.5C37.4 15.1 37.3 15.5 37.3 15.9V17.1H13.2C13.7 15.7 15.1 14.7 16.7 14.7ZM33.6 44C32.3 44 31.2 42.9 31.2 41.6C31.2 40.3 32.3 39.2 33.6 39.2C34.9 39.2 36 40.3 36 41.6C36 42.9 35 44 33.6 44ZM34.9 50.5L34.2 50.2C33.9 50 33.5 50 33.1 50.2L32.4 50.5V46.2C32.8 46.3 33.2 46.4 33.6 46.4C34 46.4 34.4 46.3 34.8 46.2V50.5H34.9ZM37.3 44.8C38.1 43.9 38.5 42.8 38.5 41.6C38.5 38.9 36.3 36.7 33.6 36.7C30.9 36.7 28.7 38.9 28.7 41.6C28.7 42.8 29.2 43.9 29.9 44.8V46.4H21.4C19.4 46.4 17.8 44.8 17.8 42.8V19.6H38.4C39.1 19.6 39.6 19.1 39.6 18.4V16C39.6 15.3 40.1 14.8 40.8 14.8C41.5 14.8 42 15.3 42 16V45.3C42 45.7 42.1 46.1 42.2 46.5H37.1V44.8H37.3ZM47 45.2C47 45.9 46.5 46.4 45.8 46.4C45.1 46.4 44.6 45.9 44.6 45.2V44H47V45.2Z" fill="black"/>
<path d="M36.1 22.2H21.5C20.8 22.2 20.3 22.7 20.3 23.4C20.3 24.1 20.8 24.6 21.5 24.6H36.1C36.8 24.6 37.3 24.1 37.3 23.4C37.3 22.7 36.7 22.2 36.1 22.2Z" fill="black"/>
<path d="M36.1 27H21.5C20.8 27 20.3 27.5 20.3 28.2C20.3 28.9 20.8 29.4 21.5 29.4H36.1C36.8 29.4 37.3 28.9 37.3 28.2C37.3 27.6 36.7 27 36.1 27Z" fill="black"/>
<path d="M36.1 31.9H21.5C20.8 31.9 20.3 32.4 20.3 33.1C20.3 33.8 20.8 34.3 21.5 34.3H36.1C36.8 34.3 37.3 33.8 37.3 33.1C37.3 32.4 36.7 31.9 36.1 31.9Z" fill="black"/>
<path d="M26.4 36.7H21.5C20.8 36.7 20.3 37.2 20.3 37.9C20.3 38.6 20.8 39.1 21.5 39.1H26.4C27.1 39.1 27.6 38.6 27.6 37.9C27.6 37.2 27 36.7 26.4 36.7Z" fill="black"/>
<path d="M16.7 14.7H37.5C37.4 15.1 37.3 15.5 37.3 15.9V17.1H13.2C13.7 15.7 15.1 14.7 16.7 14.7Z" fill="#146080"/>
<path d="M47 45.2C47 45.9 46.5 46.4 45.8 46.4C45.1 46.4 44.6 45.9 44.6 45.2V44H47V45.2Z" fill="#146080"/>
<path d="M33.6 44C34.9255 44 36 42.9255 36 41.6C36 40.2745 34.9255 39.2 33.6 39.2C32.2745 39.2 31.2 40.2745 31.2 41.6C31.2 42.9255 32.2745 44 33.6 44Z" fill="#76DCFF"/>
<path d="M34.9 50.5L34.2 50.2C33.9 50 33.5 50 33.1 50.2L32.4 50.5V46.2C32.8 46.3 33.2 46.4 33.6 46.4C34 46.4 34.4 46.3 34.8 46.2V50.5H34.9Z" fill="#76DCFF"/>
</svg>
