<svg width="66" height="60" viewBox="0 0 66 60" fill="none" xmlns="http://www.w3.org/2000/svg">
<path d="M6.7891 11.6237C6.7891 24.8325 0 33.9032 0 40.268C0 46.6327 3.63046 60 32.6836 60C61.7367 60 66 42.0172 66 35.0165C66.0019 2.23417 6.7891 -11.769 6.7891 11.6237Z" fill="#A7DBF1"/>
<path d="M22 22.875L16.375 27.875L15.125 31L19.5 36L28.25 41H35.75L45.125 36L48.25 30.375L46.375 26L41.375 21.625L35.125 19.125H27.625L22 22.875Z" fill="#FFF3F3"/>
<path d="M31.375 24.75L28.25 26L26.375 29.125L27 33.5L31.375 36L36.375 34.75L37.625 31L37 26.625L34.5 24.75H31.375Z" fill="#0D88BC"/>
<path d="M32 21C38.3166 21 43.95 24.55 46.7 30.1667C43.95 35.7833 38.3166 39.3333 32 39.3333C25.6833 39.3333 20.05 35.7833 17.3 30.1667C20.05 24.55 25.6833 21 32 21ZM32 17.6667C23.6666 17.6667 16.55 22.85 13.6666 30.1667C16.55 37.4833 23.6666 42.6667 32 42.6667C40.3333 42.6667 47.45 37.4833 50.3333 30.1667C47.45 22.85 40.3333 17.6667 32 17.6667ZM32 26C34.3 26 36.1666 27.8667 36.1666 30.1667C36.1666 32.4667 34.3 34.3333 32 34.3333C29.7 34.3333 27.8333 32.4667 27.8333 30.1667C27.8333 27.8667 29.7 26 32 26ZM32 22.6667C27.8666 22.6667 24.5 26.0333 24.5 30.1667C24.5 34.3 27.8666 37.6667 32 37.6667C36.1333 37.6667 39.5 34.3 39.5 30.1667C39.5 26.0333 36.1333 22.6667 32 22.6667Z" fill="black"/>
</svg>
