<svg width="66" height="60" viewBox="0 0 66 60" fill="none" xmlns="http://www.w3.org/2000/svg">
<path d="M6.7891 11.6237C6.7891 24.8325 0 33.9032 0 40.268C0 46.6327 3.63046 60 32.6836 60C61.7367 60 66 42.0172 66 35.0165C66.0019 2.23417 6.7891 -11.769 6.7891 11.6237Z" fill="#A7DBF1"/>
<g clip-path="url(#clip0)">
<path d="M49.373 12.9215V51.7807L32.4451 44.6723V20.0299L49.373 12.9215Z" fill="#146080"/>
<path d="M27.7429 32.3511L20.6896 37.09V34.7206H10.815V29.9816H20.6896V27.6122L27.7429 32.3511Z" fill="#0D88BC"/>
<path d="M28.5266 32.3511C28.5266 32.087 28.3957 31.8404 28.1777 31.694L21.1244 26.955C20.884 26.7935 20.5748 26.7783 20.3198 26.9159C20.065 27.0533 19.9059 27.321 19.9059 27.6122V29.1918H10.815C10.3823 29.1918 10.0313 29.5455 10.0313 29.9816V34.7206C10.0313 35.1567 10.3823 35.5104 10.815 35.5104H19.9059V37.09C19.9059 37.3813 20.065 37.6489 20.3198 37.7864C20.574 37.9235 20.8833 37.9091 21.1244 37.7472L28.1777 33.0082C28.3957 32.8618 28.5266 32.6152 28.5266 32.3511ZM21.4733 35.6143V34.7206C21.4733 34.2844 21.1224 33.9308 20.6896 33.9308H11.5987V30.7715H20.6896C21.1224 30.7715 21.4733 30.4178 21.4733 29.9816V29.088L26.3302 32.3511L21.4733 35.6143Z" fill="black"/>
<path d="M36.3636 29.9816V34.7206C36.3636 35.1567 36.7146 35.5104 37.1473 35.5104C37.5801 35.5104 37.931 35.1567 37.931 34.7206V29.9816C37.931 29.5455 37.5801 29.1918 37.1473 29.1918C36.7146 29.1918 36.3636 29.5455 36.3636 29.9816Z" fill="black"/>
<path d="M49.373 33.1409C49.8058 33.1409 50.1567 32.7873 50.1567 32.3511C50.1567 31.9149 49.8058 31.5613 49.373 31.5613C48.9402 31.5613 48.5893 31.9149 48.5893 32.3511C48.5893 32.7873 48.9402 33.1409 49.373 33.1409Z" fill="black"/>
<path d="M50.1567 12.9286C50.1608 12.4917 49.8088 12.1309 49.3712 12.1316H25.3918C24.9591 12.1316 24.6081 12.4853 24.6081 12.9215V25.2427C24.6081 25.6788 24.9591 26.0325 25.3918 26.0325C25.8246 26.0325 26.1755 25.6788 26.1755 25.2427V13.7113H45.4546L32.1437 19.3009C31.8517 19.4235 31.6614 19.711 31.6614 20.0299V44.6723C31.6614 44.9912 31.8517 45.2787 32.1437 45.4013L45.4546 50.9909H26.1755V39.4595C26.1755 39.0233 25.8246 38.6697 25.3918 38.6697C24.9591 38.6697 24.6081 39.0233 24.6081 39.4595V51.7807C24.6081 52.2169 24.9591 52.5705 25.3918 52.5705H49.368C49.817 52.5705 50.1607 52.2031 50.1567 51.7736V35.9053C50.1567 35.4692 49.8057 35.1155 49.373 35.1155C48.9402 35.1155 48.5893 35.4692 48.5893 35.9053V50.596L33.2288 44.1457V20.5564L48.5893 14.1062V28.7969C48.5893 29.233 48.9402 29.5867 49.373 29.5867C49.8057 29.5867 50.1567 29.233 50.1567 28.7969V12.9286Z" fill="black"/>
</g>
<defs>
<clipPath id="clip0">
<rect width="40.1254" height="40.4389" fill="white" transform="translate(10.0313 12.1317)"/>
</clipPath>
</defs>
</svg>
