<svg width="66" height="60" viewBox="0 0 66 60" fill="none" xmlns="http://www.w3.org/2000/svg">
<path d="M6.7891 11.6237C6.7891 24.8325 0 33.9032 0 40.268C0 46.6327 3.63046 60 32.6836 60C61.7367 60 66 42.0172 66 35.0165C66.0019 2.23417 6.7891 -11.769 6.7891 11.6237Z" fill="#A7DBF1"/>
<path d="M41.3167 16.9833C40.6833 16.35 39.8333 16 38.95 16H20.3333C18.4833 16 17 17.5 17 19.3333V42.6667C17 44.5 18.5 46 20.3333 46H43.6667C45.5 46 47 44.5 47 42.6667V24.05C47 23.1667 46.65 22.3167 46.0167 21.7L41.3167 16.9833Z" fill="#0D88BC"/>
<path d="M41.3167 16.9833L42.025 16.2775L42.0238 16.2762L41.3167 16.9833ZM46.0167 21.7L45.3083 22.4059L45.3136 22.4112L45.319 22.4165L46.0167 21.7ZM42.0238 16.2762C41.2032 15.4556 40.0989 15 38.95 15V17C39.5678 17 40.1635 17.2444 40.6096 17.6904L42.0238 16.2762ZM38.95 15H20.3333V17H38.95V15ZM20.3333 15C17.9278 15 16 16.951 16 19.3333H18C18 18.049 19.0389 17 20.3333 17V15ZM16 19.3333V42.6667H18V19.3333H16ZM16 42.6667C16 45.0523 17.9477 47 20.3333 47V45C19.0523 45 18 43.9477 18 42.6667H16ZM20.3333 47H43.6667V45H20.3333V47ZM43.6667 47C46.0523 47 48 45.0523 48 42.6667H46C46 43.9477 44.9477 45 43.6667 45V47ZM48 42.6667V24.05H46V42.6667H48ZM48 24.05C48 22.9035 47.5457 21.793 46.7143 20.9835L45.319 22.4165C45.7543 22.8403 46 23.4299 46 24.05H48ZM46.725 20.9941L42.025 16.2775L40.6083 17.6892L45.3083 22.4059L46.725 20.9941Z" fill="black"/>
<path d="M32 42.6667C29.2333 42.6667 27 40.4333 27 37.6667C27 34.9 29.2333 32.6667 32 32.6667C34.7667 32.6667 37 34.9 37 37.6667C37 40.4333 34.7667 42.6667 32 42.6667Z" fill="#94DDF2" stroke="black" stroke-width="1.5"/>
<path d="M33.6666 26H23.6666C21.8333 26 20.3333 24.5 20.3333 22.6667C20.3333 20.8333 21.8333 19.3333 23.6666 19.3333H33.6666C35.4999 19.3333 36.9999 20.8333 36.9999 22.6667C36.9999 24.5 35.4999 26 33.6666 26Z" fill="#94DDF2" stroke="black" stroke-width="1.5"/>
</svg>
