<svg width="48" height="35" viewBox="0 0 48 35" fill="none" xmlns="http://www.w3.org/2000/svg">
<path d="M46.3648 8.26203L36.6353 4.92221C36.1338 4.7198 35.532 5.02342 35.3313 5.63066C35.231 5.93428 35.231 6.2379 35.4317 6.44031C35.532 6.74393 35.7326 6.84514 36.0335 6.94634L44.8602 9.98254L41.3496 11.703C41.149 11.6018 40.9484 11.5006 40.7478 11.5006L27.307 7.95841C27.0061 6.84514 26.2037 6.03548 25.1003 5.63066C23.8967 5.22583 22.6931 5.52945 21.7903 6.3391C21.0882 6.94634 20.7873 7.8572 20.7873 8.76806C20.7873 9.88133 21.7903 10.8934 22.8937 10.8934H25.301C26.0031 10.8934 26.6049 10.5898 27.0061 9.98254L38.5411 13.0187L25.2007 19.5972C24.4985 19.9008 23.6961 19.9008 23.0943 19.5972L3.43469 9.88133L23.3952 3.10049C23.8967 2.89808 24.4985 2.89808 25 3.10049L33.1247 5.83307C33.4256 5.93428 33.7265 5.93428 33.9271 5.73186C34.228 5.63066 34.3283 5.42824 34.4286 5.12462C34.5289 4.821 34.5289 4.51738 34.3283 4.31497C34.228 4.01135 34.0274 3.91015 33.7265 3.80894L25.5016 1.07636C24.5988 0.772743 23.4955 0.772743 22.5927 1.07636L1.62922 8.16082C0.927094 8.36323 0.525879 8.97047 0.525879 9.67892C0.525879 10.3874 0.82679 10.9946 1.42861 11.2982L11.8602 16.4598C11.2584 19.0911 10.456 21.9249 9.45293 24.6575C8.95141 25.872 9.35263 27.2889 10.456 28.1997C13.4651 30.6287 17.1763 32.5516 21.0882 33.8673C21.9909 34.1709 22.994 34.2721 23.997 34.2721C25 34.2721 26.0031 34.1709 26.9058 33.8673C30.8177 32.5516 34.5289 30.6287 37.538 28.1997C38.5411 27.3901 38.9423 25.9732 38.5411 24.6575C37.538 21.9249 36.7356 18.9899 36.1338 16.4598L40.3465 14.3344V23.7466C39.4438 23.949 38.842 24.7587 38.842 25.7708V27.7949C38.842 28.0985 38.9423 28.4021 39.1429 28.7057L38.9423 32.3492C38.9423 32.8552 39.0426 33.26 39.3435 33.5637C39.6444 33.8673 40.1459 34.0697 40.5472 34.0697H42.2523C42.7538 34.0697 43.1551 33.8673 43.456 33.5637C43.7569 33.26 43.9575 32.754 43.8572 32.3492L43.6566 28.7057C43.8572 28.5033 43.9575 28.0985 43.9575 27.7949V25.7708C43.9575 24.8599 43.2554 23.949 42.4529 23.7466V13.7272C42.4529 13.626 42.4529 13.4236 42.4529 13.3224L46.5654 11.2982C47.1672 10.9946 47.5684 10.3874 47.4681 9.67892C47.4681 9.07168 47.0669 8.46444 46.3648 8.26203ZM41.7508 32.0456H40.9484L41.149 29.2118H41.5502L41.7508 32.0456ZM11.459 25.4671L11.5593 25.1635C15.2706 27.7949 20.0851 29.819 22.1915 30.2238C22.7934 30.325 23.2949 29.9202 23.3952 29.4142C23.4955 29.1106 23.3952 28.8069 23.1946 28.6045C22.994 28.4021 22.7934 28.1997 22.4924 28.1997C20.9879 27.8961 15.9727 26.0744 12.1611 23.1394C12.763 21.2165 13.2645 19.3947 13.6657 17.573L21.7903 21.6213C23.0943 22.2285 24.4985 22.2285 25.8025 21.6213L33.9271 17.573C34.3283 19.3947 34.8298 21.2165 35.4317 23.1394C31.921 25.872 26.9058 27.8961 25.1003 28.1997C24.4985 28.3009 24.1976 28.9082 24.2979 29.4142C24.3982 30.0214 25 30.325 25.5016 30.2238C27.2067 29.9202 32.1216 27.9973 36.1338 25.1635C36.1338 25.2647 36.2341 25.4671 36.2341 25.5683C36.3344 25.9732 36.2341 26.378 35.9332 26.6816C32.3222 29.5154 28.5107 31.1347 26.0031 31.9444C24.5988 32.4504 22.994 32.4504 21.4894 31.9444C18.9818 31.1347 15.1703 29.5154 11.5593 26.6816C11.459 26.378 11.3587 25.872 11.459 25.4671ZM41.8511 25.872V27.0864H40.8481V25.872H41.8511ZM25.2007 8.76806H22.7934C22.7934 8.46444 22.8937 8.16082 23.1946 7.8572C23.3952 7.65479 23.6961 7.55358 23.997 7.55358C24.1976 7.55358 24.2979 7.55358 24.4985 7.65479C24.7994 7.75599 25.2007 8.16082 25.2007 8.76806Z" fill="black"/>
</svg>
