<svg width="23" height="22" viewBox="0 0 23 22" fill="none" xmlns="http://www.w3.org/2000/svg">
<path fill-rule="evenodd" clip-rule="evenodd" d="M15.5312 7.02918C15.5312 9.25531 13.6619 11.0584 11.3541 11.0584C9.04629 11.0584 7.17706 9.25531 7.17706 7.02918C7.17706 4.80306 9.04629 3 11.3541 3C13.6619 3 15.5312 4.80306 15.5312 7.02918ZM11.5003 18.2504L12.3984 19.1167H3V17.1021C3 14.4227 8.56594 13.0729 11.3541 13.0729C11.6883 13.0729 11.9911 13.093 12.3984 13.1333L11.5212 13.9593C10.2785 15.1278 10.2681 17.0618 11.5003 18.2504Z" fill="#828282"/>
<path d="M16.1686 15.9577L13.6469 13.4359C13.4828 13.2719 13.4828 13.0067 13.6469 12.8426C13.8109 12.6786 14.0761 12.6786 14.2402 12.8426L16.7619 15.3644L19.2836 12.8426C19.4477 12.6786 19.7129 12.6786 19.8769 12.8426C20.041 13.0067 20.041 13.2719 19.8769 13.4359L17.3552 15.9577L19.8769 18.4795C20.041 18.6435 20.041 18.9087 19.8769 19.0727C19.7952 19.1546 19.6877 19.1957 19.5803 19.1957C19.4729 19.1957 19.3655 19.1546 19.2836 19.0727L16.7619 16.551L14.2402 19.0727C14.1583 19.1546 14.0509 19.1957 13.9435 19.1957C13.8361 19.1957 13.7287 19.1546 13.6469 19.0727C13.4828 18.9087 13.4828 18.6435 13.6469 18.4795L16.1686 15.9577Z" fill="#828282"/>
</svg>
