<svg width="60" height="60" viewBox="0 0 60 60" fill="none" xmlns="http://www.w3.org/2000/svg">
<path d="M55.1 30C55.1 16.1276 43.874 4.9 30 4.9C16.1276 4.9 4.9 16.126 4.9 30C4.9 43.7494 16.032 55.1 30 55.1C43.9105 55.1 55.1 43.8127 55.1 30ZM30 8.02969C42.1144 8.02969 51.9703 17.8856 51.9703 30C51.9703 34.3892 50.6774 38.6094 48.278 42.1949C38.3952 31.6686 21.6225 31.6497 11.722 42.1949C9.3226 38.6094 8.02969 34.3892 8.02969 30C8.02969 17.8856 17.8856 8.02969 30 8.02969ZM13.6708 44.6972C22.3881 34.9971 37.6142 34.9994 46.3288 44.6972C37.5827 54.4051 22.4207 54.4081 13.6708 44.6972Z" fill="#3B3A3C" stroke="#3B3A3C" stroke-width="0.2"/>
<path d="M30 32.6C35.5657 32.6 40.1 28.2327 40.1 22.8571V19.6429C40.1 14.2673 35.5657 9.9 30 9.9C24.4343 9.9 19.9 14.2673 19.9 19.6429V22.8571C19.9 28.2327 24.4343 32.6 30 32.6ZM23.4333 19.6429C23.4333 16.1566 26.3756 13.3143 30 13.3143C33.6244 13.3143 36.5667 16.1566 36.5667 19.6429V22.8571C36.5667 26.3434 33.6244 29.1857 30 29.1857C26.3756 29.1857 23.4333 26.3434 23.4333 22.8571V19.6429Z" fill="#3B3A3C" stroke="#3B3A3C" stroke-width="0.2"/>
</svg>
