<svg width="66" height="60" viewBox="0 0 66 60" fill="none" xmlns="http://www.w3.org/2000/svg">
<path d="M6.76789 11.4976C6.76789 24.563 0 33.5353 0 39.8309C0 46.1266 3.61911 59.3488 32.5814 59.3488C61.5438 59.3488 65.7938 41.5611 65.7938 34.6365C65.7957 2.20993 6.76789 -11.6413 6.76789 11.4976Z" fill="#A7DBF1"/>
<path d="M31.5 42.5001H50.25C51.9068 42.5001 53.25 41.1569 53.25 39.5001V32.2791C53.2502 31.612 53.0276 30.964 52.6177 30.4378L43.65 18.9081C43.0818 18.1777 42.2083 17.7504 41.283 17.7501H21.717C20.7916 17.7504 19.9181 18.1777 19.35 18.9081L10.3822 30.4378C9.9723 30.964 9.74979 31.612 9.74997 32.2791V39.5001C9.74997 41.1569 11.0931 42.5001 12.75 42.5001H31.5Z" fill="#0D88BC"/>
<path d="M52.6176 30.4379L43.6499 18.9082C43.0817 18.1778 42.2082 17.7504 41.2829 17.7502H39.0329C39.9582 17.7504 40.8317 18.1778 41.3999 18.9082L50.3676 30.4379C50.7772 30.9643 50.9997 31.6122 50.9999 32.2792V39.5002C50.9999 41.157 49.6567 42.5002 47.9999 42.5002H50.2499C51.9067 42.5002 53.2499 41.157 53.2499 39.5002V32.2792C53.2497 31.6122 53.0272 30.9643 52.6176 30.4379Z" fill="#146080"/>
<path d="M50.2498 32.7501L41.2498 20.7501H21.7498L12.7498 32.7501H22.3228C22.8911 32.7502 23.4106 33.0713 23.6646 33.5796L25.0851 36.4206C25.3391 36.929 25.8586 37.2501 26.4268 37.2501H36.5728C37.1411 37.2501 37.6606 36.929 37.9146 36.4206L39.3351 33.5796C39.5891 33.0713 40.1086 32.7502 40.6768 32.7501H50.2498Z" fill="#146080"/>
<path d="M12.75 42.5001H15C13.3431 42.5001 12 41.1569 12 39.5001V32.2791C12.0002 31.6121 12.2227 30.9642 12.6322 30.4378L21.6 18.9081C22.1681 18.1777 23.0416 17.7504 23.967 17.7501H21.717C20.7916 17.7504 19.9181 18.1777 19.35 18.9081L10.3822 30.4378C9.97266 30.9642 9.75019 31.6121 9.74997 32.2791V39.5001C9.74997 41.1569 11.0931 42.5001 12.75 42.5001Z" fill="#146080"/>
<path d="M15.0665 23.1871L18.7505 18.4531L19.934 19.3741L16.25 24.1081L15.0665 23.1871Z" fill="#146080"/>
<path d="M18.0998 21.737C18.2868 21.4978 18.3111 21.1694 18.1613 20.9052C18.0115 20.6411 17.7172 20.4933 17.4158 20.531C17.1145 20.5686 16.8656 20.7843 16.7855 21.0772C16.7053 21.3701 16.8097 21.6824 17.0498 21.8683C17.3763 22.121 17.8456 22.0623 18.0998 21.737Z" fill="black"/>
<path d="M44.2425 18.4475C43.5344 17.5311 42.4404 16.9961 41.2822 17H21.7178C20.5596 16.9961 19.4656 17.5311 18.7575 18.4475C18.5859 18.6584 18.5417 18.9456 18.6422 19.1982C18.7427 19.4508 18.972 19.6293 19.2416 19.6647C19.5112 19.7 19.7788 19.5867 19.941 19.3685C20.3691 18.8223 21.0238 18.5022 21.7178 18.5H41.2822C41.9762 18.5022 42.6309 18.8223 43.059 19.3685L52.026 30.8983C52.3322 31.2935 52.4989 31.779 52.5 32.279V39.5C52.5 40.7427 51.4926 41.75 50.25 41.75H12.75C11.5074 41.75 10.5 40.7427 10.5 39.5V32.279C10.5011 31.779 10.6678 31.2935 10.974 30.8983L16.2578 24.1055C16.4995 23.7784 16.4364 23.3183 16.1156 23.0682C15.7948 22.8182 15.3332 22.8695 15.075 23.1838L9.78975 29.975C9.2784 30.6343 9.00059 31.4447 9 32.279V39.5C9.00248 41.5701 10.68 43.2475 12.75 43.25H50.25C52.32 43.2475 53.9975 41.5701 54 39.5V32.279C53.9991 31.4448 53.7213 30.6344 53.2103 29.975L44.2425 18.4475Z" fill="black"/>
<path d="M22.1999 20.15C22.0408 20.0306 21.8407 19.9794 21.6438 20.0075C21.4469 20.0357 21.2692 20.1409 21.1499 20.3L12.1499 32.3C11.9794 32.5273 11.952 32.8313 12.0791 33.0854C12.2061 33.3395 12.4658 33.5 12.7499 33.5H22.3229C22.6072 33.4991 22.8673 33.66 22.9934 33.9147L24.4146 36.7565C24.7936 37.5206 25.574 38.0028 26.4269 38H36.5729C37.4258 38.0028 38.2061 37.5206 38.5851 36.7565L40.0064 33.9147C40.1325 33.66 40.3926 33.4991 40.6769 33.5H44.2499C44.6641 33.5 44.9999 33.1642 44.9999 32.75C44.9999 32.3358 44.6641 32 44.2499 32H40.6769C39.824 31.9972 39.0436 32.4794 38.6646 33.2435L37.2434 36.0852C37.1173 36.34 36.8572 36.5009 36.5729 36.5H26.4269C26.1426 36.5009 25.8825 36.34 25.7564 36.0852L24.3351 33.2435C23.9561 32.4794 23.1758 31.9972 22.3229 32H14.2499L22.3499 21.2C22.4692 21.0409 22.5205 20.8408 22.4924 20.6439C22.4642 20.447 22.359 20.2693 22.1999 20.15Z" fill="black"/>
<path d="M40.8748 21.5L49.6498 33.2C49.8983 33.5314 50.3684 33.5985 50.6998 33.35C51.0312 33.1015 51.0983 32.6314 50.8498 32.3L41.8498 20.3C41.7082 20.1111 41.4859 20 41.2498 20H26.2498C25.8356 20 25.4998 20.3358 25.4998 20.75C25.4998 21.1642 25.8356 21.5 26.2498 21.5H40.8748Z" fill="black"/>
</svg>
